%TF.GenerationSoftware,KiCad,Pcbnew,9.0.2*%
%TF.CreationDate,2026-01-15T18:41:09+07:00*%
%TF.ProjectId,PrechResv2,50726563-6852-4657-9376-322e6b696361,rev?*%
%TF.SameCoordinates,Original*%
%TF.FileFunction,Legend,Top*%
%TF.FilePolarity,Positive*%
%FSLAX46Y46*%
G04 Gerber Fmt 4.6, Leading zero omitted, Abs format (unit mm)*
G04 Created by KiCad (PCBNEW 9.0.2) date 2026-01-15 18:41:09*
%MOMM*%
%LPD*%
G01*
G04 APERTURE LIST*
%ADD10C,0.150000*%
%ADD11C,0.120000*%
%ADD12C,0.127000*%
G04 APERTURE END LIST*
D10*
X77238095Y-44098780D02*
X77238095Y-43098780D01*
X77238095Y-43574970D02*
X77809523Y-43574970D01*
X77809523Y-44098780D02*
X77809523Y-43098780D01*
X78809523Y-44098780D02*
X78238095Y-44098780D01*
X78523809Y-44098780D02*
X78523809Y-43098780D01*
X78523809Y-43098780D02*
X78428571Y-43241637D01*
X78428571Y-43241637D02*
X78333333Y-43336875D01*
X78333333Y-43336875D02*
X78238095Y-43384494D01*
X77800057Y-106345238D02*
X77752438Y-106440476D01*
X77752438Y-106440476D02*
X77657200Y-106535714D01*
X77657200Y-106535714D02*
X77514342Y-106678571D01*
X77514342Y-106678571D02*
X77466723Y-106773809D01*
X77466723Y-106773809D02*
X77466723Y-106869047D01*
X77704819Y-106821428D02*
X77657200Y-106916666D01*
X77657200Y-106916666D02*
X77561961Y-107011904D01*
X77561961Y-107011904D02*
X77371485Y-107059523D01*
X77371485Y-107059523D02*
X77038152Y-107059523D01*
X77038152Y-107059523D02*
X76847676Y-107011904D01*
X76847676Y-107011904D02*
X76752438Y-106916666D01*
X76752438Y-106916666D02*
X76704819Y-106821428D01*
X76704819Y-106821428D02*
X76704819Y-106630952D01*
X76704819Y-106630952D02*
X76752438Y-106535714D01*
X76752438Y-106535714D02*
X76847676Y-106440476D01*
X76847676Y-106440476D02*
X77038152Y-106392857D01*
X77038152Y-106392857D02*
X77371485Y-106392857D01*
X77371485Y-106392857D02*
X77561961Y-106440476D01*
X77561961Y-106440476D02*
X77657200Y-106535714D01*
X77657200Y-106535714D02*
X77704819Y-106630952D01*
X77704819Y-106630952D02*
X77704819Y-106821428D01*
X77704819Y-105440476D02*
X77704819Y-106011904D01*
X77704819Y-105726190D02*
X76704819Y-105726190D01*
X76704819Y-105726190D02*
X76847676Y-105821428D01*
X76847676Y-105821428D02*
X76942914Y-105916666D01*
X76942914Y-105916666D02*
X76990533Y-106011904D01*
X78222573Y-99754030D02*
X78222573Y-100468315D01*
X78222573Y-100468315D02*
X78174954Y-100611172D01*
X78174954Y-100611172D02*
X78079716Y-100706411D01*
X78079716Y-100706411D02*
X77936859Y-100754030D01*
X77936859Y-100754030D02*
X77841621Y-100754030D01*
X78651145Y-99849268D02*
X78698764Y-99801649D01*
X78698764Y-99801649D02*
X78794002Y-99754030D01*
X78794002Y-99754030D02*
X79032097Y-99754030D01*
X79032097Y-99754030D02*
X79127335Y-99801649D01*
X79127335Y-99801649D02*
X79174954Y-99849268D01*
X79174954Y-99849268D02*
X79222573Y-99944506D01*
X79222573Y-99944506D02*
X79222573Y-100039744D01*
X79222573Y-100039744D02*
X79174954Y-100182601D01*
X79174954Y-100182601D02*
X78603526Y-100754030D01*
X78603526Y-100754030D02*
X79222573Y-100754030D01*
X65238095Y-107704819D02*
X65238095Y-106704819D01*
X65238095Y-107181009D02*
X65809523Y-107181009D01*
X65809523Y-107704819D02*
X65809523Y-106704819D01*
X66190476Y-106704819D02*
X66857142Y-106704819D01*
X66857142Y-106704819D02*
X66428571Y-107704819D01*
X78230817Y-111754230D02*
X78230817Y-112468515D01*
X78230817Y-112468515D02*
X78183198Y-112611372D01*
X78183198Y-112611372D02*
X78087960Y-112706611D01*
X78087960Y-112706611D02*
X77945103Y-112754230D01*
X77945103Y-112754230D02*
X77849865Y-112754230D01*
X79230817Y-112754230D02*
X78659389Y-112754230D01*
X78945103Y-112754230D02*
X78945103Y-111754230D01*
X78945103Y-111754230D02*
X78849865Y-111897087D01*
X78849865Y-111897087D02*
X78754627Y-111992325D01*
X78754627Y-111992325D02*
X78659389Y-112039944D01*
X91238095Y-102904819D02*
X91238095Y-101904819D01*
X91238095Y-102381009D02*
X91809523Y-102381009D01*
X91809523Y-102904819D02*
X91809523Y-101904819D01*
X92714285Y-102238152D02*
X92714285Y-102904819D01*
X92476190Y-101857200D02*
X92238095Y-102571485D01*
X92238095Y-102571485D02*
X92857142Y-102571485D01*
X65238095Y-26704819D02*
X65238095Y-25704819D01*
X65238095Y-26181009D02*
X65809523Y-26181009D01*
X65809523Y-26704819D02*
X65809523Y-25704819D01*
X66714285Y-25704819D02*
X66523809Y-25704819D01*
X66523809Y-25704819D02*
X66428571Y-25752438D01*
X66428571Y-25752438D02*
X66380952Y-25800057D01*
X66380952Y-25800057D02*
X66285714Y-25942914D01*
X66285714Y-25942914D02*
X66238095Y-26133390D01*
X66238095Y-26133390D02*
X66238095Y-26514342D01*
X66238095Y-26514342D02*
X66285714Y-26609580D01*
X66285714Y-26609580D02*
X66333333Y-26657200D01*
X66333333Y-26657200D02*
X66428571Y-26704819D01*
X66428571Y-26704819D02*
X66619047Y-26704819D01*
X66619047Y-26704819D02*
X66714285Y-26657200D01*
X66714285Y-26657200D02*
X66761904Y-26609580D01*
X66761904Y-26609580D02*
X66809523Y-26514342D01*
X66809523Y-26514342D02*
X66809523Y-26276247D01*
X66809523Y-26276247D02*
X66761904Y-26181009D01*
X66761904Y-26181009D02*
X66714285Y-26133390D01*
X66714285Y-26133390D02*
X66619047Y-26085771D01*
X66619047Y-26085771D02*
X66428571Y-26085771D01*
X66428571Y-26085771D02*
X66333333Y-26133390D01*
X66333333Y-26133390D02*
X66285714Y-26181009D01*
X66285714Y-26181009D02*
X66238095Y-26276247D01*
X89124819Y-109416666D02*
X88648628Y-109749999D01*
X89124819Y-109988094D02*
X88124819Y-109988094D01*
X88124819Y-109988094D02*
X88124819Y-109607142D01*
X88124819Y-109607142D02*
X88172438Y-109511904D01*
X88172438Y-109511904D02*
X88220057Y-109464285D01*
X88220057Y-109464285D02*
X88315295Y-109416666D01*
X88315295Y-109416666D02*
X88458152Y-109416666D01*
X88458152Y-109416666D02*
X88553390Y-109464285D01*
X88553390Y-109464285D02*
X88601009Y-109511904D01*
X88601009Y-109511904D02*
X88648628Y-109607142D01*
X88648628Y-109607142D02*
X88648628Y-109988094D01*
X88220057Y-109035713D02*
X88172438Y-108988094D01*
X88172438Y-108988094D02*
X88124819Y-108892856D01*
X88124819Y-108892856D02*
X88124819Y-108654761D01*
X88124819Y-108654761D02*
X88172438Y-108559523D01*
X88172438Y-108559523D02*
X88220057Y-108511904D01*
X88220057Y-108511904D02*
X88315295Y-108464285D01*
X88315295Y-108464285D02*
X88410533Y-108464285D01*
X88410533Y-108464285D02*
X88553390Y-108511904D01*
X88553390Y-108511904D02*
X89124819Y-109083332D01*
X89124819Y-109083332D02*
X89124819Y-108464285D01*
X77124819Y-109666666D02*
X76648628Y-109999999D01*
X77124819Y-110238094D02*
X76124819Y-110238094D01*
X76124819Y-110238094D02*
X76124819Y-109857142D01*
X76124819Y-109857142D02*
X76172438Y-109761904D01*
X76172438Y-109761904D02*
X76220057Y-109714285D01*
X76220057Y-109714285D02*
X76315295Y-109666666D01*
X76315295Y-109666666D02*
X76458152Y-109666666D01*
X76458152Y-109666666D02*
X76553390Y-109714285D01*
X76553390Y-109714285D02*
X76601009Y-109761904D01*
X76601009Y-109761904D02*
X76648628Y-109857142D01*
X76648628Y-109857142D02*
X76648628Y-110238094D01*
X77124819Y-108714285D02*
X77124819Y-109285713D01*
X77124819Y-108999999D02*
X76124819Y-108999999D01*
X76124819Y-108999999D02*
X76267676Y-109095237D01*
X76267676Y-109095237D02*
X76362914Y-109190475D01*
X76362914Y-109190475D02*
X76410533Y-109285713D01*
X82343507Y-105145381D02*
X82343507Y-105955587D01*
X82343507Y-105955587D02*
X82391167Y-106050905D01*
X82391167Y-106050905D02*
X82438826Y-106098565D01*
X82438826Y-106098565D02*
X82534144Y-106146224D01*
X82534144Y-106146224D02*
X82724781Y-106146224D01*
X82724781Y-106146224D02*
X82820099Y-106098565D01*
X82820099Y-106098565D02*
X82867759Y-106050905D01*
X82867759Y-106050905D02*
X82915418Y-105955587D01*
X82915418Y-105955587D02*
X82915418Y-105145381D01*
X83916261Y-106146224D02*
X83344350Y-106146224D01*
X83630305Y-106146224D02*
X83630305Y-105145381D01*
X83630305Y-105145381D02*
X83534987Y-105288358D01*
X83534987Y-105288358D02*
X83439669Y-105383677D01*
X83439669Y-105383677D02*
X83344350Y-105431336D01*
X74238095Y-121704819D02*
X74238095Y-120704819D01*
X74238095Y-121181009D02*
X74809523Y-121181009D01*
X74809523Y-121704819D02*
X74809523Y-120704819D01*
X75190476Y-120704819D02*
X75809523Y-120704819D01*
X75809523Y-120704819D02*
X75476190Y-121085771D01*
X75476190Y-121085771D02*
X75619047Y-121085771D01*
X75619047Y-121085771D02*
X75714285Y-121133390D01*
X75714285Y-121133390D02*
X75761904Y-121181009D01*
X75761904Y-121181009D02*
X75809523Y-121276247D01*
X75809523Y-121276247D02*
X75809523Y-121514342D01*
X75809523Y-121514342D02*
X75761904Y-121609580D01*
X75761904Y-121609580D02*
X75714285Y-121657200D01*
X75714285Y-121657200D02*
X75619047Y-121704819D01*
X75619047Y-121704819D02*
X75333333Y-121704819D01*
X75333333Y-121704819D02*
X75238095Y-121657200D01*
X75238095Y-121657200D02*
X75190476Y-121609580D01*
X74238095Y-26704819D02*
X74238095Y-25704819D01*
X74238095Y-26181009D02*
X74809523Y-26181009D01*
X74809523Y-26704819D02*
X74809523Y-25704819D01*
X75238095Y-25800057D02*
X75285714Y-25752438D01*
X75285714Y-25752438D02*
X75380952Y-25704819D01*
X75380952Y-25704819D02*
X75619047Y-25704819D01*
X75619047Y-25704819D02*
X75714285Y-25752438D01*
X75714285Y-25752438D02*
X75761904Y-25800057D01*
X75761904Y-25800057D02*
X75809523Y-25895295D01*
X75809523Y-25895295D02*
X75809523Y-25990533D01*
X75809523Y-25990533D02*
X75761904Y-26133390D01*
X75761904Y-26133390D02*
X75190476Y-26704819D01*
X75190476Y-26704819D02*
X75809523Y-26704819D01*
X77238095Y-88304819D02*
X77238095Y-87304819D01*
X77238095Y-87781009D02*
X77809523Y-87781009D01*
X77809523Y-88304819D02*
X77809523Y-87304819D01*
X78761904Y-87304819D02*
X78285714Y-87304819D01*
X78285714Y-87304819D02*
X78238095Y-87781009D01*
X78238095Y-87781009D02*
X78285714Y-87733390D01*
X78285714Y-87733390D02*
X78380952Y-87685771D01*
X78380952Y-87685771D02*
X78619047Y-87685771D01*
X78619047Y-87685771D02*
X78714285Y-87733390D01*
X78714285Y-87733390D02*
X78761904Y-87781009D01*
X78761904Y-87781009D02*
X78809523Y-87876247D01*
X78809523Y-87876247D02*
X78809523Y-88114342D01*
X78809523Y-88114342D02*
X78761904Y-88209580D01*
X78761904Y-88209580D02*
X78714285Y-88257200D01*
X78714285Y-88257200D02*
X78619047Y-88304819D01*
X78619047Y-88304819D02*
X78380952Y-88304819D01*
X78380952Y-88304819D02*
X78285714Y-88257200D01*
X78285714Y-88257200D02*
X78238095Y-88209580D01*
D11*
%TO.C,Q1*%
X76407000Y-101010000D02*
X71487000Y-101010000D01*
X76407000Y-101010000D02*
X76407000Y-111490000D01*
X73777000Y-101010000D02*
X73777000Y-102498000D01*
X71487000Y-101010000D02*
X71487000Y-111490000D01*
X76407000Y-104400000D02*
X74510000Y-104400000D01*
X73777000Y-104922000D02*
X73778000Y-105037000D01*
X73778000Y-107462000D02*
X73778000Y-107577000D01*
X76407000Y-108100000D02*
X74510000Y-108100000D01*
X73778000Y-110002000D02*
X73777000Y-111490000D01*
X76407000Y-111490000D02*
X71487000Y-111490000D01*
%TO.C,J2*%
X77175907Y-101299211D02*
X78555907Y-101299211D01*
X77175907Y-102679211D02*
X77175907Y-101299211D01*
X77175907Y-103949211D02*
X77175907Y-104059211D01*
X77175907Y-103949211D02*
X79935907Y-103949211D01*
X77175907Y-104059211D02*
X79935907Y-104059211D01*
X79935907Y-103949211D02*
X79935907Y-104059211D01*
%TO.C,J1*%
X77184151Y-113299411D02*
X78564151Y-113299411D01*
X77184151Y-114679411D02*
X77184151Y-113299411D01*
X77184151Y-115949411D02*
X77184151Y-116059411D01*
X77184151Y-115949411D02*
X79944151Y-115949411D01*
X77184151Y-116059411D02*
X79944151Y-116059411D01*
X79944151Y-115949411D02*
X79944151Y-116059411D01*
%TO.C,R2*%
X89590000Y-109977064D02*
X89590000Y-108522936D01*
X91410000Y-109977064D02*
X91410000Y-108522936D01*
%TO.C,R1*%
X77590000Y-110227064D02*
X77590000Y-108772936D01*
X79410000Y-110227064D02*
X79410000Y-108772936D01*
D12*
%TO.C,U1*%
X81965000Y-106790000D02*
X86535000Y-106790000D01*
X81965000Y-111710000D02*
X81965000Y-106790000D01*
X86535000Y-106790000D02*
X86535000Y-111710000D01*
X86535000Y-111710000D02*
X81965000Y-111710000D01*
X80551000Y-106980000D02*
G75*
G02*
X80297000Y-106980000I-127000J0D01*
G01*
X80297000Y-106980000D02*
G75*
G02*
X80551000Y-106980000I127000J0D01*
G01*
%TD*%
M02*
