%TF.GenerationSoftware,KiCad,Pcbnew,9.0.2*%
%TF.CreationDate,2026-01-15T18:41:09+07:00*%
%TF.ProjectId,PrechResv2,50726563-6852-4657-9376-322e6b696361,rev?*%
%TF.SameCoordinates,Original*%
%TF.FileFunction,Copper,L1,Top*%
%TF.FilePolarity,Positive*%
%FSLAX46Y46*%
G04 Gerber Fmt 4.6, Leading zero omitted, Abs format (unit mm)*
G04 Created by KiCad (PCBNEW 9.0.2) date 2026-01-15 18:41:09*
%MOMM*%
%LPD*%
G01*
G04 APERTURE LIST*
G04 Aperture macros list*
%AMRoundRect*
0 Rectangle with rounded corners*
0 $1 Rounding radius*
0 $2 $3 $4 $5 $6 $7 $8 $9 X,Y pos of 4 corners*
0 Add a 4 corners polygon primitive as box body*
4,1,4,$2,$3,$4,$5,$6,$7,$8,$9,$2,$3,0*
0 Add four circle primitives for the rounded corners*
1,1,$1+$1,$2,$3*
1,1,$1+$1,$4,$5*
1,1,$1+$1,$6,$7*
1,1,$1+$1,$8,$9*
0 Add four rect primitives between the rounded corners*
20,1,$1+$1,$2,$3,$4,$5,0*
20,1,$1+$1,$4,$5,$6,$7,0*
20,1,$1+$1,$6,$7,$8,$9,0*
20,1,$1+$1,$8,$9,$2,$3,0*%
G04 Aperture macros list end*
%TA.AperFunction,ComponentPad*%
%ADD10R,2.000000X1.905000*%
%TD*%
%TA.AperFunction,ComponentPad*%
%ADD11O,2.000000X1.905000*%
%TD*%
%TA.AperFunction,ComponentPad*%
%ADD12R,1.700000X1.700000*%
%TD*%
%TA.AperFunction,ComponentPad*%
%ADD13C,5.600000*%
%TD*%
%TA.AperFunction,ComponentPad*%
%ADD14C,11.000000*%
%TD*%
%TA.AperFunction,SMDPad,CuDef*%
%ADD15RoundRect,0.250000X0.625000X-0.312500X0.625000X0.312500X-0.625000X0.312500X-0.625000X-0.312500X0*%
%TD*%
%TA.AperFunction,SMDPad,CuDef*%
%ADD16R,1.500000X0.600000*%
%TD*%
%TA.AperFunction,Conductor*%
%ADD17C,1.200000*%
%TD*%
%TA.AperFunction,Conductor*%
%ADD18C,0.800000*%
%TD*%
G04 APERTURE END LIST*
D10*
%TO.P,Q1,1,G*%
%TO.N,Net-(Q1-G)*%
X73250000Y-103710000D03*
D11*
%TO.P,Q1,2,D*%
%TO.N,Net-(Q1-D)*%
X73250000Y-106250000D03*
%TO.P,Q1,3,S*%
%TO.N,Net-(Q1-S)*%
X73250000Y-108790000D03*
%TD*%
D12*
%TO.P,J2,1,Pin_1*%
%TO.N,Net-(J2-Pin_1)*%
X78555907Y-102679211D03*
%TD*%
D13*
%TO.P,H7,1,1*%
%TO.N,Net-(Q1-S)*%
X66000000Y-111000000D03*
%TD*%
D12*
%TO.P,J1,1,Pin_1*%
%TO.N,Net-(J1-Pin_1)*%
X78564151Y-114679411D03*
%TD*%
D14*
%TO.P,H4,1,1*%
%TO.N,Net-(Q1-D)*%
X92000000Y-96000000D03*
%TD*%
D13*
%TO.P,H6,1,1*%
%TO.N,Net-(H2-Pad1)*%
X66000000Y-30000000D03*
%TD*%
D15*
%TO.P,R2,1*%
%TO.N,Net-(Q1-S)*%
X90500000Y-110712500D03*
%TO.P,R2,2*%
%TO.N,Net-(Q1-G)*%
X90500000Y-107787500D03*
%TD*%
%TO.P,R1,1*%
%TO.N,Net-(J1-Pin_1)*%
X78500000Y-110962500D03*
%TO.P,R1,2*%
%TO.N,Net-(R1-Pad2)*%
X78500000Y-108037500D03*
%TD*%
D16*
%TO.P,U1,1*%
%TO.N,Net-(R1-Pad2)*%
X81045000Y-107980000D03*
%TO.P,U1,2*%
%TO.N,Net-(J2-Pin_1)*%
X81045000Y-110520000D03*
%TO.P,U1,3*%
%TO.N,Net-(Q1-S)*%
X87455000Y-110520000D03*
%TO.P,U1,4*%
%TO.N,Net-(Q1-G)*%
X87455000Y-107980000D03*
%TD*%
D13*
%TO.P,H3,1,1*%
%TO.N,Net-(Q1-S)*%
X75000000Y-125000000D03*
%TD*%
%TO.P,H2,1,1*%
%TO.N,Net-(H2-Pad1)*%
X75000000Y-30000000D03*
%TD*%
D17*
%TO.N,Net-(Q1-D)*%
X72050000Y-106250000D02*
X73250000Y-106250000D01*
X70000000Y-104200000D02*
X72050000Y-106250000D01*
X74500000Y-96000000D02*
X70000000Y-100500000D01*
X70000000Y-100500000D02*
X70000000Y-104200000D01*
X92000000Y-96000000D02*
X74500000Y-96000000D01*
D18*
%TO.N,Net-(Q1-G)*%
X87455000Y-104855000D02*
X87455000Y-107980000D01*
X82200000Y-99600000D02*
X87455000Y-104855000D01*
X75600000Y-99600000D02*
X82200000Y-99600000D01*
X73250000Y-101950000D02*
X75600000Y-99600000D01*
X73250000Y-103710000D02*
X73250000Y-101950000D01*
X90307500Y-107980000D02*
X90500000Y-107787500D01*
X87455000Y-107980000D02*
X90307500Y-107980000D01*
%TO.N,Net-(Q1-S)*%
X90307500Y-110520000D02*
X90500000Y-110712500D01*
X88205000Y-110520000D02*
X90307500Y-110520000D01*
X83500000Y-125000000D02*
X88205000Y-120295000D01*
X88205000Y-120295000D02*
X88205000Y-110520000D01*
X75000000Y-125000000D02*
X83500000Y-125000000D01*
D17*
X69600000Y-125000000D02*
X75000000Y-125000000D01*
X66000000Y-121400000D02*
X69600000Y-125000000D01*
X66000000Y-111000000D02*
X66000000Y-121400000D01*
X71500000Y-111000000D02*
X66000000Y-111000000D01*
X73250000Y-108790000D02*
X73250000Y-109250000D01*
X73250000Y-109250000D02*
X71500000Y-111000000D01*
X75250000Y-125000000D02*
X75290000Y-125040000D01*
X75000000Y-125000000D02*
X75250000Y-125000000D01*
D18*
%TO.N,Net-(J1-Pin_1)*%
X78500000Y-110962500D02*
X78500000Y-114615260D01*
D17*
X78500000Y-114615260D02*
X78564151Y-114679411D01*
D18*
%TO.N,Net-(J2-Pin_1)*%
X83500000Y-107000000D02*
X83500000Y-109250000D01*
X78555907Y-102679211D02*
X79179211Y-102679211D01*
X82230000Y-110520000D02*
X81045000Y-110520000D01*
X83500000Y-109250000D02*
X82230000Y-110520000D01*
X79179211Y-102679211D02*
X83500000Y-107000000D01*
D17*
%TO.N,Net-(R1-Pad2)*%
X78557500Y-107980000D02*
X78500000Y-108037500D01*
D18*
X81045000Y-107980000D02*
X78557500Y-107980000D01*
D17*
%TO.N,Net-(H2-Pad1)*%
X68500000Y-30000000D02*
X75000000Y-30000000D01*
%TD*%
%TA.AperFunction,Conductor*%
%TO.N,Net-(Q1-S)*%
G36*
X69543039Y-107219685D02*
G01*
X69588794Y-107272489D01*
X69600000Y-107324000D01*
X69600000Y-123300000D01*
X62100000Y-123300000D01*
X62100000Y-107324000D01*
X62119685Y-107256961D01*
X62172489Y-107211206D01*
X62224000Y-107200000D01*
X69476000Y-107200000D01*
X69543039Y-107219685D01*
G37*
%TD.AperFunction*%
%TD*%
%TA.AperFunction,Conductor*%
%TO.N,Net-(Q1-S)*%
G36*
X78943039Y-121269685D02*
G01*
X78988794Y-121322489D01*
X79000000Y-121374000D01*
X79000000Y-128626000D01*
X78980315Y-128693039D01*
X78927511Y-128738794D01*
X78876000Y-128750000D01*
X62224000Y-128750000D01*
X62156961Y-128730315D01*
X62111206Y-128677511D01*
X62100000Y-128626000D01*
X62100000Y-121250000D01*
X69600000Y-121250000D01*
X78876000Y-121250000D01*
X78943039Y-121269685D01*
G37*
%TD.AperFunction*%
%TD*%
%TA.AperFunction,Conductor*%
%TO.N,Net-(H2-Pad1)*%
G36*
X78943039Y-26269685D02*
G01*
X78988794Y-26322489D01*
X79000000Y-26374000D01*
X79000000Y-33626000D01*
X78980315Y-33693039D01*
X78927511Y-33738794D01*
X78876000Y-33750000D01*
X62224000Y-33750000D01*
X62156961Y-33730315D01*
X62111206Y-33677511D01*
X62100000Y-33626000D01*
X62100000Y-26374000D01*
X62119685Y-26306961D01*
X62172489Y-26261206D01*
X62224000Y-26250000D01*
X78876000Y-26250000D01*
X78943039Y-26269685D01*
G37*
%TD.AperFunction*%
%TD*%
%TA.AperFunction,Conductor*%
%TO.N,Net-(J2-Pin_1)*%
G36*
X81635571Y-101020185D02*
G01*
X81656213Y-101036819D01*
X86018181Y-105398787D01*
X86051666Y-105460110D01*
X86054500Y-105486468D01*
X86054500Y-106860582D01*
X86034815Y-106927621D01*
X86008865Y-106956681D01*
X85993891Y-106968891D01*
X85865304Y-107126590D01*
X85771089Y-107306954D01*
X85727616Y-107458890D01*
X85717331Y-107494836D01*
X85715114Y-107502583D01*
X85715113Y-107502586D01*
X85712770Y-107528945D01*
X85704776Y-107618867D01*
X85704500Y-107621966D01*
X85704500Y-108338028D01*
X85704501Y-108338034D01*
X85715113Y-108457415D01*
X85771089Y-108653045D01*
X85771090Y-108653048D01*
X85771091Y-108653049D01*
X85865302Y-108833407D01*
X85865304Y-108833409D01*
X85993890Y-108991109D01*
X86083058Y-109063815D01*
X86151593Y-109119698D01*
X86190636Y-109140092D01*
X86240942Y-109188578D01*
X86257049Y-109256566D01*
X86233842Y-109322469D01*
X86190637Y-109359906D01*
X86151593Y-109380302D01*
X86151591Y-109380303D01*
X86151590Y-109380304D01*
X85993890Y-109508890D01*
X85865304Y-109666590D01*
X85771089Y-109846954D01*
X85715114Y-110042583D01*
X85715113Y-110042586D01*
X85704500Y-110161966D01*
X85704500Y-110878028D01*
X85704501Y-110878034D01*
X85715113Y-110997415D01*
X85771089Y-111193045D01*
X85771090Y-111193048D01*
X85771091Y-111193049D01*
X85865302Y-111373407D01*
X85865304Y-111373409D01*
X85993890Y-111531109D01*
X86087803Y-111607684D01*
X86151593Y-111659698D01*
X86331951Y-111753909D01*
X86527582Y-111809886D01*
X86646963Y-111820500D01*
X86680499Y-111820499D01*
X86747537Y-111840182D01*
X86793293Y-111892984D01*
X86804500Y-111944499D01*
X86804500Y-119663532D01*
X86784815Y-119730571D01*
X86768181Y-119751213D01*
X82956213Y-123563181D01*
X82894890Y-123596666D01*
X82868532Y-123599500D01*
X80129500Y-123599500D01*
X80062461Y-123579815D01*
X80016706Y-123527011D01*
X80005500Y-123475500D01*
X80005500Y-121374010D01*
X80005433Y-121362420D01*
X80005433Y-121362412D01*
X79982519Y-121160257D01*
X79971313Y-121108746D01*
X79946784Y-121017062D01*
X79866619Y-120832606D01*
X79865693Y-120830475D01*
X79865689Y-120830468D01*
X79748705Y-120664033D01*
X79748704Y-120664032D01*
X79748700Y-120664026D01*
X79702945Y-120611222D01*
X79583832Y-120494821D01*
X79583830Y-120494819D01*
X79414738Y-120381693D01*
X79414731Y-120381690D01*
X79226328Y-120304916D01*
X79226322Y-120304914D01*
X79159293Y-120285233D01*
X79159295Y-120285233D01*
X79159290Y-120285232D01*
X79078406Y-120265083D01*
X79078402Y-120265082D01*
X79078403Y-120265082D01*
X78876001Y-120244500D01*
X78876000Y-120244500D01*
X70729500Y-120244500D01*
X70662461Y-120224815D01*
X70616706Y-120172011D01*
X70605500Y-120120500D01*
X70605500Y-112724500D01*
X70625185Y-112657461D01*
X70677989Y-112611706D01*
X70729500Y-112600500D01*
X71625961Y-112600500D01*
X71625962Y-112600500D01*
X71874785Y-112561090D01*
X72114379Y-112483241D01*
X72338845Y-112368870D01*
X72542656Y-112220793D01*
X72720793Y-112042656D01*
X74281627Y-110481820D01*
X74307306Y-110462117D01*
X74322079Y-110453588D01*
X74384857Y-110417344D01*
X74587965Y-110261493D01*
X74768993Y-110080465D01*
X74924844Y-109877357D01*
X74943326Y-109845346D01*
X74980841Y-109780367D01*
X75052850Y-109655643D01*
X75150822Y-109419118D01*
X75217083Y-109171829D01*
X75250500Y-108918006D01*
X75250500Y-108661994D01*
X75217083Y-108408171D01*
X75150822Y-108160882D01*
X75052850Y-107924357D01*
X74924844Y-107702643D01*
X74892719Y-107660777D01*
X76624500Y-107660777D01*
X76624500Y-108414208D01*
X76624501Y-108414223D01*
X76634904Y-108546413D01*
X76634905Y-108546420D01*
X76689902Y-108764678D01*
X76689903Y-108764681D01*
X76782991Y-108969622D01*
X76782997Y-108969632D01*
X76911174Y-109154645D01*
X76911178Y-109154650D01*
X76911181Y-109154654D01*
X77070346Y-109313819D01*
X77070350Y-109313822D01*
X77070354Y-109313825D01*
X77191956Y-109398072D01*
X77235853Y-109452431D01*
X77243392Y-109521893D01*
X77212181Y-109584404D01*
X77191956Y-109601928D01*
X77070354Y-109686174D01*
X77070342Y-109686184D01*
X76911184Y-109845342D01*
X76911174Y-109845354D01*
X76782997Y-110030367D01*
X76782991Y-110030377D01*
X76689903Y-110235318D01*
X76689902Y-110235321D01*
X76634905Y-110453579D01*
X76634904Y-110453586D01*
X76624500Y-110585777D01*
X76624500Y-111339208D01*
X76624501Y-111339223D01*
X76634904Y-111471413D01*
X76634905Y-111471420D01*
X76689902Y-111689678D01*
X76689903Y-111689681D01*
X76782991Y-111894622D01*
X76782997Y-111894632D01*
X76911174Y-112079645D01*
X76911178Y-112079650D01*
X76911181Y-112079654D01*
X76911184Y-112079657D01*
X77063181Y-112231654D01*
X77096666Y-112292977D01*
X77099500Y-112319335D01*
X77099500Y-112980761D01*
X77079815Y-113047800D01*
X77053862Y-113076862D01*
X77003045Y-113118299D01*
X77003043Y-113118300D01*
X77003042Y-113118302D01*
X76931828Y-113205638D01*
X76874455Y-113276001D01*
X76780240Y-113456365D01*
X76724265Y-113651994D01*
X76724264Y-113651997D01*
X76713651Y-113771377D01*
X76713651Y-115587439D01*
X76713652Y-115587445D01*
X76724264Y-115706826D01*
X76780240Y-115902456D01*
X76780241Y-115902459D01*
X76780242Y-115902460D01*
X76874453Y-116082818D01*
X76874455Y-116082820D01*
X77003041Y-116240520D01*
X77096954Y-116317095D01*
X77160744Y-116369109D01*
X77341102Y-116463320D01*
X77536733Y-116519297D01*
X77656114Y-116529911D01*
X79472187Y-116529910D01*
X79591569Y-116519297D01*
X79787200Y-116463320D01*
X79967558Y-116369109D01*
X80125260Y-116240520D01*
X80253849Y-116082818D01*
X80348060Y-115902460D01*
X80404037Y-115706829D01*
X80414651Y-115587448D01*
X80414650Y-113771375D01*
X80404037Y-113651993D01*
X80348060Y-113456362D01*
X80253849Y-113276004D01*
X80201835Y-113212214D01*
X80125260Y-113118301D01*
X79967553Y-112989709D01*
X79967076Y-112989460D01*
X79966862Y-112989253D01*
X79962306Y-112986251D01*
X79962865Y-112985401D01*
X79916774Y-112940968D01*
X79900500Y-112879558D01*
X79900500Y-112319335D01*
X79920185Y-112252296D01*
X79936819Y-112231654D01*
X79958377Y-112210096D01*
X80088819Y-112079654D01*
X80217007Y-111894626D01*
X80310096Y-111689683D01*
X80365096Y-111471412D01*
X80368019Y-111434269D01*
X80392904Y-111368982D01*
X80449135Y-111327511D01*
X80491637Y-111320000D01*
X80795000Y-111320000D01*
X81295000Y-111320000D01*
X81842828Y-111320000D01*
X81842844Y-111319999D01*
X81902372Y-111313598D01*
X81902379Y-111313596D01*
X82037086Y-111263354D01*
X82037093Y-111263350D01*
X82152187Y-111177190D01*
X82152190Y-111177187D01*
X82238350Y-111062093D01*
X82238354Y-111062086D01*
X82288596Y-110927379D01*
X82288598Y-110927372D01*
X82294999Y-110867844D01*
X82295000Y-110867827D01*
X82295000Y-110770000D01*
X81295000Y-110770000D01*
X81295000Y-111320000D01*
X80795000Y-111320000D01*
X80795000Y-110270000D01*
X81295000Y-110270000D01*
X82295000Y-110270000D01*
X82295000Y-110172172D01*
X82294999Y-110172155D01*
X82288598Y-110112627D01*
X82288596Y-110112620D01*
X82238354Y-109977913D01*
X82238350Y-109977906D01*
X82152190Y-109862812D01*
X82152187Y-109862809D01*
X82037093Y-109776649D01*
X82037086Y-109776645D01*
X81902379Y-109726403D01*
X81902372Y-109726401D01*
X81842844Y-109720000D01*
X81295000Y-109720000D01*
X81295000Y-110270000D01*
X80795000Y-110270000D01*
X80795000Y-109720000D01*
X80247155Y-109720000D01*
X80187627Y-109726401D01*
X80187619Y-109726403D01*
X80103692Y-109757706D01*
X80093353Y-109758445D01*
X80084153Y-109763220D01*
X80059096Y-109760895D01*
X80034000Y-109762690D01*
X80023054Y-109757551D01*
X80014582Y-109756765D01*
X79997620Y-109745609D01*
X79983969Y-109739200D01*
X79978021Y-109734548D01*
X79929654Y-109686181D01*
X79811586Y-109604383D01*
X79808764Y-109602176D01*
X79790430Y-109576575D01*
X79770641Y-109552070D01*
X79770240Y-109548383D01*
X79768083Y-109545370D01*
X79766499Y-109513915D01*
X79763102Y-109482608D01*
X79764757Y-109479292D01*
X79764571Y-109475589D01*
X79780247Y-109448268D01*
X79794313Y-109420097D01*
X79797499Y-109418202D01*
X79799344Y-109414987D01*
X79827296Y-109400481D01*
X79854365Y-109384383D01*
X79859586Y-109383724D01*
X79861360Y-109382804D01*
X79864543Y-109383099D01*
X79885154Y-109380500D01*
X81155221Y-109380500D01*
X81155222Y-109380500D01*
X81372951Y-109346015D01*
X81555912Y-109286567D01*
X81594230Y-109280499D01*
X81853028Y-109280499D01*
X81853036Y-109280499D01*
X81972418Y-109269886D01*
X82168049Y-109213909D01*
X82348407Y-109119698D01*
X82506109Y-108991109D01*
X82634698Y-108833407D01*
X82728909Y-108653049D01*
X82784886Y-108457418D01*
X82795500Y-108338037D01*
X82795499Y-107621964D01*
X82784886Y-107502582D01*
X82729873Y-107310321D01*
X82728910Y-107306954D01*
X82728909Y-107306953D01*
X82728909Y-107306951D01*
X82634698Y-107126593D01*
X82564670Y-107040710D01*
X82506109Y-106968890D01*
X82348409Y-106840304D01*
X82348410Y-106840304D01*
X82348407Y-106840302D01*
X82168049Y-106746091D01*
X82168048Y-106746090D01*
X82168045Y-106746089D01*
X82050829Y-106712550D01*
X81972418Y-106690114D01*
X81972415Y-106690113D01*
X81972413Y-106690113D01*
X81899631Y-106683642D01*
X81853037Y-106679500D01*
X81853033Y-106679500D01*
X81594227Y-106679500D01*
X81555911Y-106673431D01*
X81431453Y-106632993D01*
X81372952Y-106613985D01*
X81264086Y-106596742D01*
X81155222Y-106579500D01*
X81155221Y-106579500D01*
X79653698Y-106579500D01*
X79602417Y-106568399D01*
X79539681Y-106539903D01*
X79539678Y-106539902D01*
X79321420Y-106484905D01*
X79321413Y-106484904D01*
X79189222Y-106474500D01*
X79189217Y-106474500D01*
X79123011Y-106474500D01*
X79084694Y-106468431D01*
X78932284Y-106418910D01*
X78932282Y-106418909D01*
X78932280Y-106418909D01*
X78758549Y-106391392D01*
X78683462Y-106379500D01*
X78431538Y-106379500D01*
X78348597Y-106392636D01*
X78182714Y-106418910D01*
X78030303Y-106468431D01*
X77991986Y-106474500D01*
X77810792Y-106474500D01*
X77810776Y-106474501D01*
X77678586Y-106484904D01*
X77678579Y-106484905D01*
X77460321Y-106539902D01*
X77460318Y-106539903D01*
X77255377Y-106632991D01*
X77255367Y-106632997D01*
X77070354Y-106761174D01*
X77070342Y-106761184D01*
X76911184Y-106920342D01*
X76911174Y-106920354D01*
X76782997Y-107105367D01*
X76782991Y-107105377D01*
X76689903Y-107310318D01*
X76689902Y-107310321D01*
X76634905Y-107528579D01*
X76634904Y-107528586D01*
X76624500Y-107660777D01*
X74892719Y-107660777D01*
X74841810Y-107594432D01*
X74841002Y-107593330D01*
X74829557Y-107561700D01*
X74817425Y-107530318D01*
X74817706Y-107528945D01*
X74817230Y-107527629D01*
X74824702Y-107494836D01*
X74831463Y-107461873D01*
X74832625Y-107460063D01*
X74832753Y-107459505D01*
X74833379Y-107458890D01*
X74842620Y-107444513D01*
X74924844Y-107337357D01*
X75052848Y-107115646D01*
X75052850Y-107115643D01*
X75150822Y-106879118D01*
X75217083Y-106631829D01*
X75250500Y-106378006D01*
X75250500Y-106121994D01*
X75217083Y-105868171D01*
X75150822Y-105620882D01*
X75073871Y-105435106D01*
X75052854Y-105384365D01*
X75051054Y-105380715D01*
X75052442Y-105380030D01*
X75037479Y-105318376D01*
X75060325Y-105252347D01*
X75065217Y-105245929D01*
X75089698Y-105215907D01*
X75183909Y-105035549D01*
X75239886Y-104839918D01*
X75250500Y-104720537D01*
X75250499Y-102699464D01*
X75239886Y-102580082D01*
X75183909Y-102384451D01*
X75093017Y-102210447D01*
X75079427Y-102141916D01*
X75105046Y-102076912D01*
X75115237Y-102065367D01*
X75399239Y-101781366D01*
X77205907Y-101781366D01*
X77205907Y-102429211D01*
X78122895Y-102429211D01*
X78089982Y-102486218D01*
X78055907Y-102613385D01*
X78055907Y-102745037D01*
X78089982Y-102872204D01*
X78122895Y-102929211D01*
X77205907Y-102929211D01*
X77205907Y-103577055D01*
X77212308Y-103636583D01*
X77212310Y-103636590D01*
X77262552Y-103771297D01*
X77262556Y-103771304D01*
X77348716Y-103886398D01*
X77348719Y-103886401D01*
X77463813Y-103972561D01*
X77463820Y-103972565D01*
X77598527Y-104022807D01*
X77598534Y-104022809D01*
X77658062Y-104029210D01*
X77658079Y-104029211D01*
X78305907Y-104029211D01*
X78305907Y-103112223D01*
X78362914Y-103145136D01*
X78490081Y-103179211D01*
X78621733Y-103179211D01*
X78748900Y-103145136D01*
X78805907Y-103112223D01*
X78805907Y-104029211D01*
X79453735Y-104029211D01*
X79453751Y-104029210D01*
X79513279Y-104022809D01*
X79513286Y-104022807D01*
X79647993Y-103972565D01*
X79648000Y-103972561D01*
X79763094Y-103886401D01*
X79763097Y-103886398D01*
X79849257Y-103771304D01*
X79849261Y-103771297D01*
X79899503Y-103636590D01*
X79899505Y-103636583D01*
X79905906Y-103577055D01*
X79905907Y-103577038D01*
X79905907Y-102929211D01*
X78988919Y-102929211D01*
X79021832Y-102872204D01*
X79055907Y-102745037D01*
X79055907Y-102613385D01*
X79021832Y-102486218D01*
X78988919Y-102429211D01*
X79905907Y-102429211D01*
X79905907Y-101781383D01*
X79905906Y-101781366D01*
X79899505Y-101721838D01*
X79899503Y-101721831D01*
X79849261Y-101587124D01*
X79849257Y-101587117D01*
X79763097Y-101472023D01*
X79763094Y-101472020D01*
X79648000Y-101385860D01*
X79647993Y-101385856D01*
X79513286Y-101335614D01*
X79513279Y-101335612D01*
X79453751Y-101329211D01*
X78805907Y-101329211D01*
X78805907Y-102246199D01*
X78748900Y-102213286D01*
X78621733Y-102179211D01*
X78490081Y-102179211D01*
X78362914Y-102213286D01*
X78305907Y-102246199D01*
X78305907Y-101329211D01*
X77658062Y-101329211D01*
X77598534Y-101335612D01*
X77598527Y-101335614D01*
X77463820Y-101385856D01*
X77463813Y-101385860D01*
X77348719Y-101472020D01*
X77348716Y-101472023D01*
X77262556Y-101587117D01*
X77262552Y-101587124D01*
X77212310Y-101721831D01*
X77212308Y-101721838D01*
X77205907Y-101781366D01*
X75399239Y-101781366D01*
X76143787Y-101036819D01*
X76205110Y-101003334D01*
X76231468Y-101000500D01*
X81568532Y-101000500D01*
X81635571Y-101020185D01*
G37*
%TD.AperFunction*%
%TD*%
%TA.AperFunction,NonConductor*%
G36*
X93406249Y-23346790D02*
G01*
X93869669Y-23364998D01*
X93879343Y-23365759D01*
X94337501Y-23419987D01*
X94347105Y-23421508D01*
X94799585Y-23511512D01*
X94809045Y-23513783D01*
X95253061Y-23639009D01*
X95262314Y-23642015D01*
X95695143Y-23801693D01*
X95704132Y-23805417D01*
X96123102Y-23998565D01*
X96123105Y-23998566D01*
X96131757Y-24002974D01*
X96534307Y-24228413D01*
X96542572Y-24233478D01*
X96926171Y-24489791D01*
X96934048Y-24495514D01*
X97296343Y-24781125D01*
X97303746Y-24787448D01*
X97473129Y-24944024D01*
X97642515Y-25100603D01*
X97649392Y-25107480D01*
X97776052Y-25244500D01*
X97962551Y-25446253D01*
X97968874Y-25453656D01*
X98254485Y-25815951D01*
X98260208Y-25823828D01*
X98516515Y-26207418D01*
X98521590Y-26215699D01*
X98747020Y-26618233D01*
X98751433Y-26626894D01*
X98944581Y-27045864D01*
X98948307Y-27054860D01*
X99107983Y-27487682D01*
X99110991Y-27496941D01*
X99236215Y-27940950D01*
X99238488Y-27950418D01*
X99328490Y-28402888D01*
X99330013Y-28412504D01*
X99384238Y-28870640D01*
X99385002Y-28880347D01*
X99403210Y-29343750D01*
X99403306Y-29348618D01*
X99403306Y-125997575D01*
X99403210Y-126002443D01*
X99385003Y-126465848D01*
X99384239Y-126475555D01*
X99330014Y-126933690D01*
X99328491Y-126943306D01*
X99238491Y-127395767D01*
X99236218Y-127405235D01*
X99110991Y-127849258D01*
X99107983Y-127858518D01*
X98948306Y-128291340D01*
X98944580Y-128300335D01*
X98751440Y-128719291D01*
X98747019Y-128727966D01*
X98521597Y-129130485D01*
X98516510Y-129138787D01*
X98260210Y-129522368D01*
X98254487Y-129530244D01*
X97968876Y-129892541D01*
X97962553Y-129899945D01*
X97649400Y-130238711D01*
X97642515Y-130245596D01*
X97303748Y-130558749D01*
X97296345Y-130565072D01*
X96934050Y-130850683D01*
X96926173Y-130856406D01*
X96542582Y-131112714D01*
X96534289Y-131117795D01*
X96518041Y-131126896D01*
X96131781Y-131343212D01*
X96123106Y-131347632D01*
X95704140Y-131540778D01*
X95695145Y-131544504D01*
X95262316Y-131704184D01*
X95253056Y-131707192D01*
X94809049Y-131832415D01*
X94799581Y-131834688D01*
X94347111Y-131924690D01*
X94337495Y-131926213D01*
X93879359Y-131980438D01*
X93869652Y-131981202D01*
X93406402Y-131999404D01*
X93401534Y-131999500D01*
X63702425Y-131999500D01*
X63697557Y-131999404D01*
X63234152Y-131981197D01*
X63224445Y-131980433D01*
X62766309Y-131926208D01*
X62756693Y-131924685D01*
X62304233Y-131834685D01*
X62294765Y-131832412D01*
X61850742Y-131707185D01*
X61841482Y-131704177D01*
X61408660Y-131544500D01*
X61399665Y-131540774D01*
X60980699Y-131347629D01*
X60972038Y-131343216D01*
X60569504Y-131117786D01*
X60561223Y-131112711D01*
X60177632Y-130856403D01*
X60169756Y-130850680D01*
X59807460Y-130565070D01*
X59800060Y-130558750D01*
X59461284Y-130245588D01*
X59454407Y-130238711D01*
X59141247Y-129899937D01*
X59134929Y-129892539D01*
X58849319Y-129530243D01*
X58843596Y-129522367D01*
X58832112Y-129505180D01*
X58587282Y-129138767D01*
X58582217Y-129130502D01*
X58356778Y-128727952D01*
X58352370Y-128719300D01*
X58334567Y-128680683D01*
X58159225Y-128300334D01*
X58155499Y-128291339D01*
X57995822Y-127858517D01*
X57992814Y-127849257D01*
X57867587Y-127405234D01*
X57865316Y-127395775D01*
X57775313Y-126943300D01*
X57773791Y-126933690D01*
X57719564Y-126475535D01*
X57718803Y-126465865D01*
X57700596Y-126002443D01*
X57700500Y-125997575D01*
X57700500Y-107323998D01*
X61094500Y-107323998D01*
X61094500Y-128625989D01*
X61094566Y-128637579D01*
X61094567Y-128637593D01*
X61117481Y-128839745D01*
X61128685Y-128891246D01*
X61153217Y-128982941D01*
X61234306Y-129169524D01*
X61234310Y-129169531D01*
X61349793Y-129333830D01*
X61351300Y-129335974D01*
X61397055Y-129388778D01*
X61509532Y-129498694D01*
X61516169Y-129505180D01*
X61553633Y-129530244D01*
X61685264Y-129618308D01*
X61873671Y-129695083D01*
X61873677Y-129695085D01*
X61888687Y-129699492D01*
X61940710Y-129714768D01*
X62021594Y-129734917D01*
X62156531Y-129748639D01*
X62223999Y-129755500D01*
X62224000Y-129755500D01*
X78875990Y-129755500D01*
X78876000Y-129755500D01*
X78887588Y-129755433D01*
X79089743Y-129732519D01*
X79141254Y-129721313D01*
X79232938Y-129696784D01*
X79419527Y-129615692D01*
X79585974Y-129498700D01*
X79638778Y-129452945D01*
X79755179Y-129333832D01*
X79868308Y-129164736D01*
X79945083Y-128976329D01*
X79964768Y-128909290D01*
X79984917Y-128828406D01*
X80005500Y-128626000D01*
X80005500Y-126524500D01*
X80025185Y-126457461D01*
X80077989Y-126411706D01*
X80129500Y-126400500D01*
X83384643Y-126400500D01*
X83384667Y-126400501D01*
X83389778Y-126400501D01*
X83610221Y-126400501D01*
X83610222Y-126400501D01*
X83827951Y-126366015D01*
X84037606Y-126297895D01*
X84037606Y-126297894D01*
X84037611Y-126297893D01*
X84131559Y-126250023D01*
X84234022Y-126197815D01*
X84240393Y-126193186D01*
X84412365Y-126068242D01*
X84568242Y-125912365D01*
X84568243Y-125912363D01*
X84575303Y-125905303D01*
X84575309Y-125905296D01*
X89110296Y-121370309D01*
X89110303Y-121370303D01*
X89117363Y-121363243D01*
X89117365Y-121363242D01*
X89273242Y-121207365D01*
X89402815Y-121029022D01*
X89502895Y-120832606D01*
X89571015Y-120622951D01*
X89572873Y-120611222D01*
X89605501Y-120405222D01*
X89605501Y-120184778D01*
X89605501Y-120180377D01*
X89605500Y-120180362D01*
X89605500Y-112393486D01*
X89625185Y-112326447D01*
X89677989Y-112280692D01*
X89739227Y-112269868D01*
X89810783Y-112275500D01*
X91189216Y-112275499D01*
X91321412Y-112265096D01*
X91539683Y-112210096D01*
X91744626Y-112117007D01*
X91929654Y-111988819D01*
X92088819Y-111829654D01*
X92217007Y-111644626D01*
X92310096Y-111439683D01*
X92365096Y-111221412D01*
X92375500Y-111089217D01*
X92375499Y-110335784D01*
X92365096Y-110203588D01*
X92354607Y-110161963D01*
X92310097Y-109985321D01*
X92310096Y-109985318D01*
X92306729Y-109977906D01*
X92217007Y-109780374D01*
X92088819Y-109595346D01*
X91929654Y-109436181D01*
X91808039Y-109351926D01*
X91764146Y-109297570D01*
X91756606Y-109228108D01*
X91787817Y-109165597D01*
X91808035Y-109148076D01*
X91929654Y-109063819D01*
X92088819Y-108904654D01*
X92217007Y-108719626D01*
X92310096Y-108514683D01*
X92365096Y-108296412D01*
X92375500Y-108164217D01*
X92375499Y-107410784D01*
X92365096Y-107278588D01*
X92326795Y-107126590D01*
X92310097Y-107060321D01*
X92310096Y-107060318D01*
X92270739Y-106973671D01*
X92217007Y-106855374D01*
X92168435Y-106785264D01*
X92088825Y-106670354D01*
X92088822Y-106670350D01*
X92088819Y-106670346D01*
X91929654Y-106511181D01*
X91929650Y-106511178D01*
X91929645Y-106511174D01*
X91744632Y-106382997D01*
X91744630Y-106382995D01*
X91744626Y-106382993D01*
X91733662Y-106378013D01*
X91539681Y-106289903D01*
X91539678Y-106289902D01*
X91321420Y-106234905D01*
X91321413Y-106234904D01*
X91277347Y-106231436D01*
X91189217Y-106224500D01*
X91189215Y-106224500D01*
X89810791Y-106224500D01*
X89810776Y-106224501D01*
X89678586Y-106234904D01*
X89678579Y-106234905D01*
X89460321Y-106289902D01*
X89460318Y-106289903D01*
X89255377Y-106382991D01*
X89255367Y-106382997D01*
X89070354Y-106511174D01*
X89070342Y-106511184D01*
X89067181Y-106514346D01*
X89005858Y-106547831D01*
X88936166Y-106542847D01*
X88880233Y-106500975D01*
X88855816Y-106435511D01*
X88855500Y-106426665D01*
X88855500Y-104744778D01*
X88851660Y-104720533D01*
X88821015Y-104527049D01*
X88752895Y-104317394D01*
X88752895Y-104317393D01*
X88718237Y-104249375D01*
X88652815Y-104120978D01*
X88586142Y-104029210D01*
X88523247Y-103942641D01*
X88523243Y-103942636D01*
X88367364Y-103786757D01*
X83272582Y-98691976D01*
X83272573Y-98691966D01*
X83268242Y-98687635D01*
X83112365Y-98531758D01*
X83112361Y-98531755D01*
X83112357Y-98531751D01*
X82934025Y-98402187D01*
X82934024Y-98402186D01*
X82934022Y-98402185D01*
X82871096Y-98370122D01*
X82737606Y-98302104D01*
X82737603Y-98302103D01*
X82527952Y-98233985D01*
X82419086Y-98216742D01*
X82310222Y-98199499D01*
X82089778Y-98199499D01*
X82084667Y-98199499D01*
X82084643Y-98199500D01*
X75715357Y-98199500D01*
X75715333Y-98199499D01*
X75710222Y-98199499D01*
X75489778Y-98199499D01*
X75417201Y-98210994D01*
X75272047Y-98233985D01*
X75062396Y-98302103D01*
X75062393Y-98302104D01*
X74865974Y-98402187D01*
X74687641Y-98531752D01*
X74687636Y-98531756D01*
X72181756Y-101037636D01*
X72181752Y-101037641D01*
X72052187Y-101215974D01*
X71952104Y-101412393D01*
X71952103Y-101412396D01*
X71883986Y-101622043D01*
X71883984Y-101622051D01*
X71859577Y-101776141D01*
X71857508Y-101780504D01*
X71857764Y-101785326D01*
X71842687Y-101811766D01*
X71829647Y-101839275D01*
X71824889Y-101842982D01*
X71823156Y-101846022D01*
X71794517Y-101866649D01*
X71781913Y-101873233D01*
X71713378Y-101886825D01*
X71648374Y-101861207D01*
X71607540Y-101804512D01*
X71600500Y-101763325D01*
X71600500Y-101214311D01*
X71620185Y-101147272D01*
X71636819Y-101126630D01*
X75126630Y-97636819D01*
X75187953Y-97603334D01*
X75214311Y-97600500D01*
X85601279Y-97600500D01*
X85668318Y-97620185D01*
X85714073Y-97672989D01*
X85721852Y-97695549D01*
X85738732Y-97765860D01*
X85738734Y-97765867D01*
X85738736Y-97765874D01*
X85896578Y-98251664D01*
X85958926Y-98402185D01*
X86092060Y-98723598D01*
X86323963Y-99178733D01*
X86323968Y-99178741D01*
X86323970Y-99178745D01*
X86323973Y-99178752D01*
X86590855Y-99614261D01*
X86590862Y-99614272D01*
X86891102Y-100027518D01*
X86891112Y-100027532D01*
X87222847Y-100415942D01*
X87222853Y-100415949D01*
X87584051Y-100777147D01*
X87584057Y-100777152D01*
X87972467Y-101108887D01*
X87972474Y-101108892D01*
X88385729Y-101409139D01*
X88512417Y-101486773D01*
X88821247Y-101676026D01*
X88821253Y-101676028D01*
X88821267Y-101676037D01*
X89276402Y-101907940D01*
X89748330Y-102103419D01*
X89748335Y-102103421D01*
X89866285Y-102141745D01*
X90234140Y-102261268D01*
X90730837Y-102380514D01*
X91235359Y-102460423D01*
X91744595Y-102500500D01*
X91744603Y-102500500D01*
X92255397Y-102500500D01*
X92255405Y-102500500D01*
X92764641Y-102460423D01*
X93269163Y-102380514D01*
X93765860Y-102261268D01*
X94251670Y-102103419D01*
X94723598Y-101907940D01*
X95178733Y-101676037D01*
X95178748Y-101676027D01*
X95178752Y-101676026D01*
X95336905Y-101579108D01*
X95614271Y-101409139D01*
X96027526Y-101108892D01*
X96415949Y-100777147D01*
X96777147Y-100415949D01*
X97108892Y-100027526D01*
X97409139Y-99614271D01*
X97579108Y-99336905D01*
X97676026Y-99178752D01*
X97676027Y-99178748D01*
X97676037Y-99178733D01*
X97907940Y-98723598D01*
X98103419Y-98251670D01*
X98261268Y-97765860D01*
X98380514Y-97269163D01*
X98460423Y-96764641D01*
X98500500Y-96255405D01*
X98500500Y-95744595D01*
X98460423Y-95235359D01*
X98380514Y-94730837D01*
X98261268Y-94234140D01*
X98136616Y-93850500D01*
X98103421Y-93748335D01*
X98068166Y-93663222D01*
X97907940Y-93276402D01*
X97676037Y-92821267D01*
X97676028Y-92821253D01*
X97676026Y-92821247D01*
X97486773Y-92512417D01*
X97409139Y-92385729D01*
X97108892Y-91972474D01*
X97108887Y-91972467D01*
X96777152Y-91584057D01*
X96777147Y-91584051D01*
X96415949Y-91222853D01*
X96415942Y-91222847D01*
X96027532Y-90891112D01*
X96027518Y-90891102D01*
X95859337Y-90768911D01*
X95614271Y-90590861D01*
X95582786Y-90571567D01*
X95178752Y-90323973D01*
X95178745Y-90323970D01*
X95178741Y-90323968D01*
X95178733Y-90323963D01*
X94723598Y-90092060D01*
X94572398Y-90029431D01*
X94251664Y-89896578D01*
X93906007Y-89784268D01*
X93765860Y-89738732D01*
X93269163Y-89619486D01*
X92764641Y-89539577D01*
X92255410Y-89499500D01*
X92255405Y-89499500D01*
X91744595Y-89499500D01*
X91744589Y-89499500D01*
X91235358Y-89539577D01*
X91235357Y-89539577D01*
X90730842Y-89619485D01*
X90730839Y-89619485D01*
X90730837Y-89619486D01*
X90552958Y-89662190D01*
X90234151Y-89738729D01*
X90234145Y-89738730D01*
X90234140Y-89738732D01*
X90234128Y-89738736D01*
X89748335Y-89896578D01*
X89276404Y-90092059D01*
X89276402Y-90092060D01*
X88821267Y-90323963D01*
X88821263Y-90323965D01*
X88821254Y-90323970D01*
X88821247Y-90323973D01*
X88385738Y-90590855D01*
X88385727Y-90590862D01*
X87972481Y-90891102D01*
X87972467Y-90891112D01*
X87584057Y-91222847D01*
X87584043Y-91222860D01*
X87222860Y-91584043D01*
X87222847Y-91584057D01*
X86891112Y-91972467D01*
X86891102Y-91972481D01*
X86590862Y-92385727D01*
X86590855Y-92385738D01*
X86323973Y-92821247D01*
X86323970Y-92821254D01*
X86092059Y-93276404D01*
X85896578Y-93748335D01*
X85738736Y-94234125D01*
X85738733Y-94234135D01*
X85738732Y-94234140D01*
X85721853Y-94304448D01*
X85687062Y-94365039D01*
X85625035Y-94397203D01*
X85601279Y-94399500D01*
X74374038Y-94399500D01*
X74249626Y-94419205D01*
X74125214Y-94438910D01*
X73885616Y-94516760D01*
X73661154Y-94631130D01*
X73592537Y-94680983D01*
X73523920Y-94730837D01*
X73523919Y-94730838D01*
X73457347Y-94779203D01*
X68779205Y-99457345D01*
X68779201Y-99457350D01*
X68631132Y-99661151D01*
X68516760Y-99885616D01*
X68438910Y-100125214D01*
X68399500Y-100374038D01*
X68399500Y-104325961D01*
X68438910Y-104574785D01*
X68516760Y-104814383D01*
X68631132Y-105038848D01*
X68759772Y-105215906D01*
X68759772Y-105215908D01*
X68779201Y-105242649D01*
X68779208Y-105242657D01*
X69519370Y-105982819D01*
X69552855Y-106044142D01*
X69547871Y-106113834D01*
X69505999Y-106169767D01*
X69440535Y-106194184D01*
X69431689Y-106194500D01*
X62224000Y-106194500D01*
X62223347Y-106194503D01*
X62212420Y-106194566D01*
X62212406Y-106194567D01*
X62010254Y-106217481D01*
X61958753Y-106228685D01*
X61867058Y-106253217D01*
X61680475Y-106334306D01*
X61680468Y-106334310D01*
X61514033Y-106451294D01*
X61514020Y-106451305D01*
X61461225Y-106497052D01*
X61344819Y-106616169D01*
X61231693Y-106785261D01*
X61231690Y-106785268D01*
X61154916Y-106973671D01*
X61154914Y-106973677D01*
X61135233Y-107040706D01*
X61115082Y-107121597D01*
X61094500Y-107323998D01*
X57700500Y-107323998D01*
X57700500Y-91878711D01*
X76149500Y-91878711D01*
X76149500Y-92121288D01*
X76181161Y-92361785D01*
X76243947Y-92596104D01*
X76336773Y-92820205D01*
X76336777Y-92820214D01*
X76337385Y-92821267D01*
X76458064Y-93030289D01*
X76458066Y-93030292D01*
X76458067Y-93030293D01*
X76605733Y-93222736D01*
X76605739Y-93222743D01*
X76777256Y-93394260D01*
X76777262Y-93394265D01*
X76969711Y-93541936D01*
X77179788Y-93663224D01*
X77403900Y-93756054D01*
X77638211Y-93818838D01*
X77818586Y-93842584D01*
X77878711Y-93850500D01*
X77878712Y-93850500D01*
X78121289Y-93850500D01*
X78169388Y-93844167D01*
X78361789Y-93818838D01*
X78596100Y-93756054D01*
X78820212Y-93663224D01*
X79030289Y-93541936D01*
X79222738Y-93394265D01*
X79394265Y-93222738D01*
X79541936Y-93030289D01*
X79663224Y-92820212D01*
X79756054Y-92596100D01*
X79818838Y-92361789D01*
X79850500Y-92121288D01*
X79850500Y-91878712D01*
X79818838Y-91638211D01*
X79756054Y-91403900D01*
X79663224Y-91179788D01*
X79541936Y-90969711D01*
X79394265Y-90777262D01*
X79394260Y-90777256D01*
X79222743Y-90605739D01*
X79222736Y-90605733D01*
X79030293Y-90458067D01*
X79030292Y-90458066D01*
X79030289Y-90458064D01*
X78820212Y-90336776D01*
X78789279Y-90323963D01*
X78596104Y-90243947D01*
X78361785Y-90181161D01*
X78121289Y-90149500D01*
X78121288Y-90149500D01*
X77878712Y-90149500D01*
X77878711Y-90149500D01*
X77638214Y-90181161D01*
X77403895Y-90243947D01*
X77179794Y-90336773D01*
X77179785Y-90336777D01*
X76969706Y-90458067D01*
X76777263Y-90605733D01*
X76777256Y-90605739D01*
X76605739Y-90777256D01*
X76605733Y-90777263D01*
X76458067Y-90969706D01*
X76336777Y-91179785D01*
X76336773Y-91179794D01*
X76243947Y-91403895D01*
X76181161Y-91638214D01*
X76149500Y-91878711D01*
X57700500Y-91878711D01*
X57700500Y-47672672D01*
X76149500Y-47672672D01*
X76149500Y-47915249D01*
X76181161Y-48155746D01*
X76243947Y-48390065D01*
X76336773Y-48614166D01*
X76336776Y-48614173D01*
X76458064Y-48824250D01*
X76458066Y-48824253D01*
X76458067Y-48824254D01*
X76605733Y-49016697D01*
X76605739Y-49016704D01*
X76777256Y-49188221D01*
X76777262Y-49188226D01*
X76969711Y-49335897D01*
X77179788Y-49457185D01*
X77403900Y-49550015D01*
X77638211Y-49612799D01*
X77818586Y-49636545D01*
X77878711Y-49644461D01*
X77878712Y-49644461D01*
X78121289Y-49644461D01*
X78169388Y-49638128D01*
X78361789Y-49612799D01*
X78596100Y-49550015D01*
X78820212Y-49457185D01*
X79030289Y-49335897D01*
X79222738Y-49188226D01*
X79394265Y-49016699D01*
X79541936Y-48824250D01*
X79663224Y-48614173D01*
X79756054Y-48390061D01*
X79818838Y-48155750D01*
X79850500Y-47915249D01*
X79850500Y-47672673D01*
X79818838Y-47432172D01*
X79756054Y-47197861D01*
X79663224Y-46973749D01*
X79541936Y-46763672D01*
X79394265Y-46571223D01*
X79394260Y-46571217D01*
X79222743Y-46399700D01*
X79222736Y-46399694D01*
X79030293Y-46252028D01*
X79030292Y-46252027D01*
X79030289Y-46252025D01*
X78820212Y-46130737D01*
X78820205Y-46130734D01*
X78596104Y-46037908D01*
X78361785Y-45975122D01*
X78121289Y-45943461D01*
X78121288Y-45943461D01*
X77878712Y-45943461D01*
X77878711Y-45943461D01*
X77638214Y-45975122D01*
X77403895Y-46037908D01*
X77179794Y-46130734D01*
X77179785Y-46130738D01*
X76969706Y-46252028D01*
X76777263Y-46399694D01*
X76777256Y-46399700D01*
X76605739Y-46571217D01*
X76605733Y-46571224D01*
X76458067Y-46763667D01*
X76336777Y-46973746D01*
X76336773Y-46973755D01*
X76243947Y-47197856D01*
X76181161Y-47432175D01*
X76149500Y-47672672D01*
X57700500Y-47672672D01*
X57700500Y-29348618D01*
X57700596Y-29343750D01*
X57703089Y-29280301D01*
X57718804Y-28880328D01*
X57719565Y-28870658D01*
X57773793Y-28412495D01*
X57775315Y-28402889D01*
X57775316Y-28402888D01*
X57865319Y-27950409D01*
X57867590Y-27940951D01*
X57867591Y-27940950D01*
X57992815Y-27496937D01*
X57995821Y-27487685D01*
X58126291Y-27134031D01*
X58155503Y-27054847D01*
X58159226Y-27045861D01*
X58334570Y-26665512D01*
X58352378Y-26626882D01*
X58356774Y-26618254D01*
X58493564Y-26373998D01*
X61094500Y-26373998D01*
X61094500Y-33625989D01*
X61094566Y-33637579D01*
X61094567Y-33637593D01*
X61117481Y-33839745D01*
X61128685Y-33891246D01*
X61153217Y-33982941D01*
X61234306Y-34169524D01*
X61234310Y-34169531D01*
X61349793Y-34333830D01*
X61351300Y-34335974D01*
X61397055Y-34388778D01*
X61516168Y-34505179D01*
X61685264Y-34618308D01*
X61873671Y-34695083D01*
X61873677Y-34695085D01*
X61888687Y-34699492D01*
X61940710Y-34714768D01*
X62021594Y-34734917D01*
X62156531Y-34748639D01*
X62223999Y-34755500D01*
X62224000Y-34755500D01*
X78875990Y-34755500D01*
X78876000Y-34755500D01*
X78887588Y-34755433D01*
X79089743Y-34732519D01*
X79141254Y-34721313D01*
X79232938Y-34696784D01*
X79419527Y-34615692D01*
X79585974Y-34498700D01*
X79638778Y-34452945D01*
X79755179Y-34333832D01*
X79868308Y-34164736D01*
X79945083Y-33976329D01*
X79964768Y-33909290D01*
X79984917Y-33828406D01*
X80005500Y-33626000D01*
X80005500Y-26374000D01*
X80005433Y-26362412D01*
X79982519Y-26160257D01*
X79971313Y-26108746D01*
X79946784Y-26017062D01*
X79865692Y-25830473D01*
X79865691Y-25830471D01*
X79865689Y-25830468D01*
X79748705Y-25664033D01*
X79748704Y-25664032D01*
X79748700Y-25664026D01*
X79702945Y-25611222D01*
X79583832Y-25494821D01*
X79583830Y-25494819D01*
X79414738Y-25381693D01*
X79414731Y-25381690D01*
X79226328Y-25304916D01*
X79226322Y-25304914D01*
X79159293Y-25285233D01*
X79159295Y-25285233D01*
X79159290Y-25285232D01*
X79078406Y-25265083D01*
X79078402Y-25265082D01*
X79078403Y-25265082D01*
X78876001Y-25244500D01*
X78876000Y-25244500D01*
X62224000Y-25244500D01*
X62223347Y-25244503D01*
X62212420Y-25244566D01*
X62212406Y-25244567D01*
X62010254Y-25267481D01*
X61958753Y-25278685D01*
X61867058Y-25303217D01*
X61680475Y-25384306D01*
X61680468Y-25384310D01*
X61514033Y-25501294D01*
X61514020Y-25501305D01*
X61461225Y-25547052D01*
X61344819Y-25666169D01*
X61231693Y-25835261D01*
X61231690Y-25835268D01*
X61154916Y-26023671D01*
X61154914Y-26023677D01*
X61135233Y-26090706D01*
X61115082Y-26171597D01*
X61094500Y-26373998D01*
X58493564Y-26373998D01*
X58582215Y-26215701D01*
X58587277Y-26207440D01*
X58843607Y-25823815D01*
X58849308Y-25815968D01*
X59134936Y-25453651D01*
X59141254Y-25446255D01*
X59141256Y-25446253D01*
X59454426Y-25107468D01*
X59461272Y-25100622D01*
X59800076Y-24787434D01*
X59807442Y-24781143D01*
X60169772Y-24495505D01*
X60177618Y-24489804D01*
X60561231Y-24233484D01*
X60569517Y-24228407D01*
X60972035Y-24002986D01*
X60980688Y-23998575D01*
X61399682Y-23805416D01*
X61408653Y-23801701D01*
X61841498Y-23642016D01*
X61850736Y-23639015D01*
X62294766Y-23513785D01*
X62304214Y-23511517D01*
X62756703Y-23421512D01*
X62766300Y-23419992D01*
X63224466Y-23365764D01*
X63234132Y-23365003D01*
X63492901Y-23354836D01*
X63697725Y-23346790D01*
X63702593Y-23346694D01*
X63765892Y-23346694D01*
X93337913Y-23346694D01*
X93401381Y-23346694D01*
X93406249Y-23346790D01*
G37*
%TD.AperFunction*%
%TA.AperFunction,NonConductor*%
G36*
X70810703Y-107274598D02*
G01*
X70817181Y-107280630D01*
X71007345Y-107470794D01*
X71007350Y-107470798D01*
X71211150Y-107618867D01*
X71211152Y-107618868D01*
X71211155Y-107618870D01*
X71413363Y-107721900D01*
X71464158Y-107769873D01*
X71480953Y-107837694D01*
X71464455Y-107894382D01*
X71447153Y-107924351D01*
X71447144Y-107924368D01*
X71349177Y-108160883D01*
X71282917Y-108408172D01*
X71249500Y-108661986D01*
X71249500Y-108918011D01*
X71249552Y-108918407D01*
X71249533Y-108918525D01*
X71249765Y-108922056D01*
X71248974Y-108922107D01*
X71238777Y-108987441D01*
X71214292Y-109022257D01*
X70873370Y-109363181D01*
X70846442Y-109377884D01*
X70820624Y-109394477D01*
X70814423Y-109395368D01*
X70812047Y-109396666D01*
X70785689Y-109399500D01*
X70729500Y-109399500D01*
X70662461Y-109379815D01*
X70616706Y-109327011D01*
X70605500Y-109275500D01*
X70605500Y-107368311D01*
X70625185Y-107301272D01*
X70677989Y-107255517D01*
X70747147Y-107245573D01*
X70810703Y-107274598D01*
G37*
%TD.AperFunction*%
%TA.AperFunction,Conductor*%
%TO.N,Net-(J2-Pin_1)*%
G36*
X81635571Y-101020185D02*
G01*
X81656213Y-101036819D01*
X86018181Y-105398787D01*
X86051666Y-105460110D01*
X86054500Y-105486468D01*
X86054500Y-106860582D01*
X86034815Y-106927621D01*
X86008865Y-106956681D01*
X85993891Y-106968891D01*
X85865304Y-107126590D01*
X85771089Y-107306954D01*
X85727616Y-107458890D01*
X85717331Y-107494836D01*
X85715114Y-107502583D01*
X85715113Y-107502586D01*
X85704500Y-107621966D01*
X85704500Y-108338028D01*
X85704501Y-108338034D01*
X85715113Y-108457415D01*
X85771089Y-108653045D01*
X85771090Y-108653048D01*
X85771091Y-108653049D01*
X85865302Y-108833407D01*
X85865304Y-108833409D01*
X85993890Y-108991109D01*
X86063959Y-109048242D01*
X86151593Y-109119698D01*
X86190636Y-109140092D01*
X86240942Y-109188578D01*
X86257049Y-109256566D01*
X86233842Y-109322469D01*
X86190637Y-109359906D01*
X86151593Y-109380302D01*
X86151591Y-109380303D01*
X86151590Y-109380304D01*
X85993890Y-109508890D01*
X85865304Y-109666590D01*
X85771089Y-109846954D01*
X85715114Y-110042583D01*
X85715113Y-110042586D01*
X85704500Y-110161966D01*
X85704500Y-110878028D01*
X85704501Y-110878034D01*
X85715113Y-110997415D01*
X85771089Y-111193045D01*
X85771090Y-111193048D01*
X85771091Y-111193049D01*
X85865302Y-111373407D01*
X85865304Y-111373409D01*
X85993890Y-111531109D01*
X86063959Y-111588242D01*
X86151593Y-111659698D01*
X86331951Y-111753909D01*
X86527582Y-111809886D01*
X86646963Y-111820500D01*
X86680499Y-111820499D01*
X86747537Y-111840182D01*
X86793293Y-111892984D01*
X86804500Y-111944499D01*
X86804500Y-119663532D01*
X86784815Y-119730571D01*
X86768181Y-119751213D01*
X82956213Y-123563181D01*
X82894890Y-123596666D01*
X82868532Y-123599500D01*
X80129500Y-123599500D01*
X80062461Y-123579815D01*
X80016706Y-123527011D01*
X80005500Y-123475500D01*
X80005500Y-121374010D01*
X80005433Y-121362420D01*
X80005433Y-121362412D01*
X79982519Y-121160257D01*
X79971313Y-121108746D01*
X79946784Y-121017062D01*
X79865692Y-120830473D01*
X79865691Y-120830471D01*
X79865689Y-120830468D01*
X79748705Y-120664033D01*
X79748704Y-120664032D01*
X79748700Y-120664026D01*
X79702945Y-120611222D01*
X79583832Y-120494821D01*
X79583830Y-120494819D01*
X79414738Y-120381693D01*
X79414731Y-120381690D01*
X79226328Y-120304916D01*
X79226322Y-120304914D01*
X79159293Y-120285233D01*
X79159295Y-120285233D01*
X79159290Y-120285232D01*
X79078406Y-120265083D01*
X79078402Y-120265082D01*
X79078403Y-120265082D01*
X78876001Y-120244500D01*
X78876000Y-120244500D01*
X70729500Y-120244500D01*
X70662461Y-120224815D01*
X70616706Y-120172011D01*
X70605500Y-120120500D01*
X70605500Y-112724500D01*
X70625185Y-112657461D01*
X70677989Y-112611706D01*
X70729500Y-112600500D01*
X71625961Y-112600500D01*
X71625962Y-112600500D01*
X71874785Y-112561090D01*
X72114379Y-112483241D01*
X72338845Y-112368870D01*
X72542656Y-112220793D01*
X72720793Y-112042656D01*
X74281627Y-110481820D01*
X74307306Y-110462117D01*
X74322079Y-110453588D01*
X74384857Y-110417344D01*
X74587965Y-110261493D01*
X74768993Y-110080465D01*
X74924844Y-109877357D01*
X74943326Y-109845346D01*
X74977601Y-109785978D01*
X75052850Y-109655643D01*
X75150822Y-109419118D01*
X75217083Y-109171829D01*
X75250500Y-108918006D01*
X75250500Y-108661994D01*
X75217083Y-108408171D01*
X75150822Y-108160882D01*
X75052850Y-107924357D01*
X74924844Y-107702643D01*
X74892719Y-107660777D01*
X76624500Y-107660777D01*
X76624500Y-108414208D01*
X76624501Y-108414223D01*
X76634904Y-108546413D01*
X76634905Y-108546420D01*
X76689902Y-108764678D01*
X76689903Y-108764681D01*
X76782991Y-108969622D01*
X76782997Y-108969632D01*
X76911174Y-109154645D01*
X76911178Y-109154650D01*
X76911181Y-109154654D01*
X77070346Y-109313819D01*
X77070350Y-109313822D01*
X77070354Y-109313825D01*
X77191956Y-109398072D01*
X77235853Y-109452431D01*
X77243392Y-109521893D01*
X77212181Y-109584404D01*
X77191956Y-109601928D01*
X77070354Y-109686174D01*
X77070342Y-109686184D01*
X76911184Y-109845342D01*
X76911174Y-109845354D01*
X76782997Y-110030367D01*
X76782991Y-110030377D01*
X76689903Y-110235318D01*
X76689902Y-110235321D01*
X76634905Y-110453579D01*
X76634904Y-110453586D01*
X76624500Y-110585777D01*
X76624500Y-111339208D01*
X76624501Y-111339223D01*
X76634904Y-111471413D01*
X76634905Y-111471420D01*
X76689902Y-111689678D01*
X76689903Y-111689681D01*
X76782991Y-111894622D01*
X76782997Y-111894632D01*
X76911174Y-112079645D01*
X76911178Y-112079650D01*
X76911181Y-112079654D01*
X76911184Y-112079657D01*
X77063181Y-112231654D01*
X77096666Y-112292977D01*
X77099500Y-112319335D01*
X77099500Y-112980761D01*
X77079815Y-113047800D01*
X77053862Y-113076862D01*
X77003045Y-113118299D01*
X77003043Y-113118300D01*
X77003042Y-113118302D01*
X76931828Y-113205638D01*
X76874455Y-113276001D01*
X76780240Y-113456365D01*
X76724265Y-113651994D01*
X76724264Y-113651997D01*
X76713651Y-113771377D01*
X76713651Y-115587439D01*
X76713652Y-115587445D01*
X76724264Y-115706826D01*
X76780240Y-115902456D01*
X76780241Y-115902459D01*
X76780242Y-115902460D01*
X76874453Y-116082818D01*
X76874455Y-116082820D01*
X77003041Y-116240520D01*
X77096954Y-116317095D01*
X77160744Y-116369109D01*
X77341102Y-116463320D01*
X77536733Y-116519297D01*
X77656114Y-116529911D01*
X79472187Y-116529910D01*
X79591569Y-116519297D01*
X79787200Y-116463320D01*
X79967558Y-116369109D01*
X80125260Y-116240520D01*
X80253849Y-116082818D01*
X80348060Y-115902460D01*
X80404037Y-115706829D01*
X80414651Y-115587448D01*
X80414650Y-113771375D01*
X80404037Y-113651993D01*
X80348060Y-113456362D01*
X80253849Y-113276004D01*
X80201835Y-113212214D01*
X80125260Y-113118301D01*
X79967553Y-112989709D01*
X79967076Y-112989460D01*
X79966862Y-112989253D01*
X79962306Y-112986251D01*
X79962865Y-112985401D01*
X79916774Y-112940968D01*
X79900500Y-112879558D01*
X79900500Y-112319335D01*
X79920185Y-112252296D01*
X79936819Y-112231654D01*
X79947680Y-112220793D01*
X80088819Y-112079654D01*
X80217007Y-111894626D01*
X80310096Y-111689683D01*
X80365096Y-111471412D01*
X80368019Y-111434269D01*
X80392904Y-111368982D01*
X80449135Y-111327511D01*
X80491637Y-111320000D01*
X80795000Y-111320000D01*
X81295000Y-111320000D01*
X81842828Y-111320000D01*
X81842844Y-111319999D01*
X81902372Y-111313598D01*
X81902379Y-111313596D01*
X82037086Y-111263354D01*
X82037093Y-111263350D01*
X82152187Y-111177190D01*
X82152190Y-111177187D01*
X82238350Y-111062093D01*
X82238354Y-111062086D01*
X82288596Y-110927379D01*
X82288598Y-110927372D01*
X82294999Y-110867844D01*
X82295000Y-110867827D01*
X82295000Y-110770000D01*
X81295000Y-110770000D01*
X81295000Y-111320000D01*
X80795000Y-111320000D01*
X80795000Y-110270000D01*
X81295000Y-110270000D01*
X82295000Y-110270000D01*
X82295000Y-110172172D01*
X82294999Y-110172155D01*
X82288598Y-110112627D01*
X82288596Y-110112620D01*
X82238354Y-109977913D01*
X82238350Y-109977906D01*
X82152190Y-109862812D01*
X82152187Y-109862809D01*
X82037093Y-109776649D01*
X82037086Y-109776645D01*
X81902379Y-109726403D01*
X81902372Y-109726401D01*
X81842844Y-109720000D01*
X81295000Y-109720000D01*
X81295000Y-110270000D01*
X80795000Y-110270000D01*
X80795000Y-109720000D01*
X80247155Y-109720000D01*
X80187627Y-109726401D01*
X80187619Y-109726403D01*
X80103692Y-109757706D01*
X80093353Y-109758445D01*
X80084153Y-109763220D01*
X80059096Y-109760895D01*
X80034000Y-109762690D01*
X80023054Y-109757551D01*
X80014582Y-109756765D01*
X79997620Y-109745609D01*
X79983969Y-109739200D01*
X79978021Y-109734548D01*
X79929654Y-109686181D01*
X79811586Y-109604383D01*
X79808764Y-109602176D01*
X79790430Y-109576575D01*
X79770641Y-109552070D01*
X79770240Y-109548383D01*
X79768083Y-109545370D01*
X79766499Y-109513915D01*
X79763102Y-109482608D01*
X79764757Y-109479292D01*
X79764571Y-109475589D01*
X79780247Y-109448268D01*
X79794313Y-109420097D01*
X79797499Y-109418202D01*
X79799344Y-109414987D01*
X79827296Y-109400481D01*
X79854365Y-109384383D01*
X79859586Y-109383724D01*
X79861360Y-109382804D01*
X79864543Y-109383099D01*
X79885154Y-109380500D01*
X81155221Y-109380500D01*
X81155222Y-109380500D01*
X81372951Y-109346015D01*
X81555912Y-109286567D01*
X81594230Y-109280499D01*
X81853028Y-109280499D01*
X81853036Y-109280499D01*
X81972418Y-109269886D01*
X82168049Y-109213909D01*
X82348407Y-109119698D01*
X82506109Y-108991109D01*
X82634698Y-108833407D01*
X82728909Y-108653049D01*
X82784886Y-108457418D01*
X82795500Y-108338037D01*
X82795499Y-107621964D01*
X82784886Y-107502582D01*
X82729873Y-107310321D01*
X82728910Y-107306954D01*
X82728909Y-107306953D01*
X82728909Y-107306951D01*
X82634698Y-107126593D01*
X82510007Y-106973671D01*
X82506109Y-106968890D01*
X82348409Y-106840304D01*
X82348410Y-106840304D01*
X82348407Y-106840302D01*
X82168049Y-106746091D01*
X82168048Y-106746090D01*
X82168045Y-106746089D01*
X82050829Y-106712550D01*
X81972418Y-106690114D01*
X81972415Y-106690113D01*
X81972413Y-106690113D01*
X81899631Y-106683642D01*
X81853037Y-106679500D01*
X81853033Y-106679500D01*
X81594227Y-106679500D01*
X81555911Y-106673431D01*
X81431453Y-106632993D01*
X81372952Y-106613985D01*
X81264086Y-106596742D01*
X81155222Y-106579500D01*
X81155221Y-106579500D01*
X79653698Y-106579500D01*
X79602417Y-106568399D01*
X79539681Y-106539903D01*
X79539678Y-106539902D01*
X79321420Y-106484905D01*
X79321413Y-106484904D01*
X79189222Y-106474500D01*
X79189217Y-106474500D01*
X79123011Y-106474500D01*
X79084694Y-106468431D01*
X78932284Y-106418910D01*
X78932282Y-106418909D01*
X78932280Y-106418909D01*
X78758549Y-106391392D01*
X78683462Y-106379500D01*
X78431538Y-106379500D01*
X78348597Y-106392636D01*
X78182714Y-106418910D01*
X78030303Y-106468431D01*
X77991986Y-106474500D01*
X77810792Y-106474500D01*
X77810776Y-106474501D01*
X77678586Y-106484904D01*
X77678579Y-106484905D01*
X77460321Y-106539902D01*
X77460318Y-106539903D01*
X77255377Y-106632991D01*
X77255367Y-106632997D01*
X77070354Y-106761174D01*
X77070342Y-106761184D01*
X76911184Y-106920342D01*
X76911174Y-106920354D01*
X76782997Y-107105367D01*
X76782991Y-107105377D01*
X76689903Y-107310318D01*
X76689902Y-107310321D01*
X76634905Y-107528579D01*
X76634904Y-107528586D01*
X76624500Y-107660777D01*
X74892719Y-107660777D01*
X74841810Y-107594432D01*
X74841002Y-107593330D01*
X74829557Y-107561700D01*
X74817425Y-107530318D01*
X74817706Y-107528945D01*
X74817230Y-107527629D01*
X74824702Y-107494836D01*
X74831463Y-107461873D01*
X74832625Y-107460063D01*
X74832753Y-107459505D01*
X74833379Y-107458890D01*
X74842620Y-107444513D01*
X74924844Y-107337357D01*
X75052848Y-107115646D01*
X75052850Y-107115643D01*
X75150822Y-106879118D01*
X75217083Y-106631829D01*
X75250500Y-106378006D01*
X75250500Y-106121994D01*
X75217083Y-105868171D01*
X75150822Y-105620882D01*
X75073871Y-105435106D01*
X75052854Y-105384365D01*
X75051054Y-105380715D01*
X75052442Y-105380030D01*
X75037479Y-105318376D01*
X75060325Y-105252347D01*
X75065217Y-105245929D01*
X75089698Y-105215907D01*
X75183909Y-105035549D01*
X75239886Y-104839918D01*
X75250500Y-104720537D01*
X75250499Y-102699464D01*
X75239886Y-102580082D01*
X75183909Y-102384451D01*
X75093017Y-102210447D01*
X75079427Y-102141916D01*
X75105046Y-102076912D01*
X75115237Y-102065367D01*
X75399239Y-101781366D01*
X77205907Y-101781366D01*
X77205907Y-102429211D01*
X78122895Y-102429211D01*
X78089982Y-102486218D01*
X78055907Y-102613385D01*
X78055907Y-102745037D01*
X78089982Y-102872204D01*
X78122895Y-102929211D01*
X77205907Y-102929211D01*
X77205907Y-103577055D01*
X77212308Y-103636583D01*
X77212310Y-103636590D01*
X77262552Y-103771297D01*
X77262556Y-103771304D01*
X77348716Y-103886398D01*
X77348719Y-103886401D01*
X77463813Y-103972561D01*
X77463820Y-103972565D01*
X77598527Y-104022807D01*
X77598534Y-104022809D01*
X77658062Y-104029210D01*
X77658079Y-104029211D01*
X78305907Y-104029211D01*
X78305907Y-103112223D01*
X78362914Y-103145136D01*
X78490081Y-103179211D01*
X78621733Y-103179211D01*
X78748900Y-103145136D01*
X78805907Y-103112223D01*
X78805907Y-104029211D01*
X79453735Y-104029211D01*
X79453751Y-104029210D01*
X79513279Y-104022809D01*
X79513286Y-104022807D01*
X79647993Y-103972565D01*
X79648000Y-103972561D01*
X79763094Y-103886401D01*
X79763097Y-103886398D01*
X79849257Y-103771304D01*
X79849261Y-103771297D01*
X79899503Y-103636590D01*
X79899505Y-103636583D01*
X79905906Y-103577055D01*
X79905907Y-103577038D01*
X79905907Y-102929211D01*
X78988919Y-102929211D01*
X79021832Y-102872204D01*
X79055907Y-102745037D01*
X79055907Y-102613385D01*
X79021832Y-102486218D01*
X78988919Y-102429211D01*
X79905907Y-102429211D01*
X79905907Y-101781383D01*
X79905906Y-101781366D01*
X79899505Y-101721838D01*
X79899503Y-101721831D01*
X79849261Y-101587124D01*
X79849257Y-101587117D01*
X79763097Y-101472023D01*
X79763094Y-101472020D01*
X79648000Y-101385860D01*
X79647993Y-101385856D01*
X79513286Y-101335614D01*
X79513279Y-101335612D01*
X79453751Y-101329211D01*
X78805907Y-101329211D01*
X78805907Y-102246199D01*
X78748900Y-102213286D01*
X78621733Y-102179211D01*
X78490081Y-102179211D01*
X78362914Y-102213286D01*
X78305907Y-102246199D01*
X78305907Y-101329211D01*
X77658062Y-101329211D01*
X77598534Y-101335612D01*
X77598527Y-101335614D01*
X77463820Y-101385856D01*
X77463813Y-101385860D01*
X77348719Y-101472020D01*
X77348716Y-101472023D01*
X77262556Y-101587117D01*
X77262552Y-101587124D01*
X77212310Y-101721831D01*
X77212308Y-101721838D01*
X77205907Y-101781366D01*
X75399239Y-101781366D01*
X76143787Y-101036819D01*
X76205110Y-101003334D01*
X76231468Y-101000500D01*
X81568532Y-101000500D01*
X81635571Y-101020185D01*
G37*
%TD.AperFunction*%
%TD*%
M02*
