M48
; DRILL file {KiCad 9.0.2} date 2026-01-01T17:21:31+0700
; FORMAT={-:-/ absolute / metric / decimal}
; #@! TF.CreationDate,2026-01-01T17:21:31+07:00
; #@! TF.GenerationSoftware,Kicad,Pcbnew,9.0.2
; #@! TF.FileFunction,Plated,1,2,PTH
FMAT,2
METRIC
; #@! TA.AperFunction,Plated,PTH,ViaDrill
T1C0.600
; #@! TA.AperFunction,Plated,PTH,ComponentDrill
T2C0.950
; #@! TA.AperFunction,Plated,PTH,ComponentDrill
T3C1.000
; #@! TA.AperFunction,Plated,PTH,ComponentDrill
T4C1.800
; #@! TA.AperFunction,Plated,PTH,ComponentDrill
T5C3.200
%
G90
G05
T1
X171.75Y-179.75
X171.75Y-182.75
X173.45Y-139.8
X174.65Y-131.5
X174.75Y-179.75
X174.75Y-182.75
X176.2Y-131.5
X177.5Y-179.75
X177.5Y-182.75
X177.75Y-143.5
X179.551Y-169.5
X180.0Y-179.75
X180.0Y-182.75
X180.101Y-143.505
X180.25Y-138.5
X185.65Y-133.975
X185.669Y-135.749
X185.75Y-167.5
X186.25Y-138.5
X188.5Y-156.25
X188.5Y-160.0
X192.25Y-129.0
X193.5Y-179.75
X193.5Y-182.75
X194.75Y-143.5
X195.75Y-129.0
X195.75Y-165.0
X196.5Y-156.25
X197.25Y-174.25
X199.75Y-144.25
X203.0Y-138.0
X204.5Y-155.0
X204.5Y-158.5
X204.8Y-132.45
X205.0Y-151.25
X205.5Y-138.0
X208.5Y-155.0
X208.75Y-167.25
X209.5Y-138.0
X212.875Y-150.352
X213.0Y-143.5
X213.078Y-140.0
X216.694Y-140.0
X218.5Y-156.25
X222.0Y-176.5
X227.75Y-156.25
X227.75Y-163.25
X241.5Y-153.25
T2
X210.75Y-171.25
X213.25Y-171.25
X215.75Y-171.25
X218.25Y-171.25
T3
X171.21Y-147.26
X171.21Y-162.5
X173.75Y-147.26
X173.75Y-162.5
X176.29Y-147.26
X176.29Y-162.5
X178.83Y-147.26
X178.83Y-162.5
X181.37Y-147.26
X181.37Y-162.5
X183.91Y-147.26
X183.91Y-162.5
X186.45Y-147.26
X186.45Y-162.5
X188.99Y-147.26
X188.99Y-162.5
X189.735Y-150.93
X191.53Y-147.26
X191.53Y-162.5
X192.248Y-158.456
X192.275Y-150.93
X194.07Y-147.26
X194.07Y-162.5
X194.788Y-158.456
X194.815Y-150.93
X196.61Y-162.5
X197.328Y-158.456
X197.355Y-150.93
X199.15Y-147.26
X199.15Y-162.5
X199.733Y-127.431
X199.868Y-158.456
X199.895Y-150.93
X201.69Y-147.26
X201.69Y-162.5
X202.273Y-127.431
X202.435Y-150.93
X204.23Y-147.26
X204.23Y-162.5
X204.813Y-127.431
X206.77Y-147.26
X206.77Y-162.5
X207.353Y-127.431
X209.31Y-147.26
X209.893Y-127.431
X211.85Y-147.26
X211.85Y-162.5
X212.433Y-127.431
X214.39Y-147.26
X214.39Y-162.5
X216.93Y-147.26
X216.93Y-162.5
X219.47Y-147.26
X219.47Y-162.5
T4
X231.589Y-134.7
X231.589Y-138.9
X231.589Y-143.1
X231.589Y-147.3
X231.7Y-154.4
X231.7Y-158.6
X231.725Y-165.795
X231.725Y-169.995
X231.725Y-174.195
X237.089Y-134.7
X237.089Y-138.9
X237.089Y-143.1
X237.089Y-147.3
X237.2Y-154.4
X237.2Y-158.6
X237.225Y-165.795
X237.225Y-169.995
X237.225Y-174.195
T5
X186.558Y-127.956
X186.558Y-180.956
X242.632Y-127.956
X242.632Y-180.956
M30
