%TF.GenerationSoftware,KiCad,Pcbnew,9.0.2*%
%TF.CreationDate,2026-01-01T17:21:28+07:00*%
%TF.ProjectId,ControlMikon,436f6e74-726f-46c4-9d69-6b6f6e2e6b69,rev?*%
%TF.SameCoordinates,Original*%
%TF.FileFunction,Legend,Bot*%
%TF.FilePolarity,Positive*%
%FSLAX46Y46*%
G04 Gerber Fmt 4.6, Leading zero omitted, Abs format (unit mm)*
G04 Created by KiCad (PCBNEW 9.0.2) date 2026-01-01 17:21:28*
%MOMM*%
%LPD*%
G01*
G04 APERTURE LIST*
%ADD10C,0.300000*%
%ADD11C,0.100000*%
%ADD12C,0.150000*%
%ADD13C,0.120000*%
G04 APERTURE END LIST*
D10*
X181447369Y-178970870D02*
X182161655Y-178970870D01*
X182161655Y-178970870D02*
X182161655Y-177470870D01*
X180661654Y-177470870D02*
X180375940Y-177470870D01*
X180375940Y-177470870D02*
X180233083Y-177542299D01*
X180233083Y-177542299D02*
X180090226Y-177685156D01*
X180090226Y-177685156D02*
X180018797Y-177970870D01*
X180018797Y-177970870D02*
X180018797Y-178470870D01*
X180018797Y-178470870D02*
X180090226Y-178756584D01*
X180090226Y-178756584D02*
X180233083Y-178899442D01*
X180233083Y-178899442D02*
X180375940Y-178970870D01*
X180375940Y-178970870D02*
X180661654Y-178970870D01*
X180661654Y-178970870D02*
X180804512Y-178899442D01*
X180804512Y-178899442D02*
X180947369Y-178756584D01*
X180947369Y-178756584D02*
X181018797Y-178470870D01*
X181018797Y-178470870D02*
X181018797Y-177970870D01*
X181018797Y-177970870D02*
X180947369Y-177685156D01*
X180947369Y-177685156D02*
X180804512Y-177542299D01*
X180804512Y-177542299D02*
X180661654Y-177470870D01*
X179518797Y-177470870D02*
X179161654Y-178970870D01*
X179161654Y-178970870D02*
X178875940Y-177899442D01*
X178875940Y-177899442D02*
X178590225Y-178970870D01*
X178590225Y-178970870D02*
X178233083Y-177470870D01*
X177661654Y-178828013D02*
X177590225Y-178899442D01*
X177590225Y-178899442D02*
X177661654Y-178970870D01*
X177661654Y-178970870D02*
X177733082Y-178899442D01*
X177733082Y-178899442D02*
X177661654Y-178828013D01*
X177661654Y-178828013D02*
X177661654Y-178970870D01*
X177161653Y-177470870D02*
X176661653Y-178970870D01*
X176661653Y-178970870D02*
X176161653Y-177470870D01*
X175375939Y-177470870D02*
X175090225Y-177470870D01*
X175090225Y-177470870D02*
X174947368Y-177542299D01*
X174947368Y-177542299D02*
X174804511Y-177685156D01*
X174804511Y-177685156D02*
X174733082Y-177970870D01*
X174733082Y-177970870D02*
X174733082Y-178470870D01*
X174733082Y-178470870D02*
X174804511Y-178756584D01*
X174804511Y-178756584D02*
X174947368Y-178899442D01*
X174947368Y-178899442D02*
X175090225Y-178970870D01*
X175090225Y-178970870D02*
X175375939Y-178970870D01*
X175375939Y-178970870D02*
X175518797Y-178899442D01*
X175518797Y-178899442D02*
X175661654Y-178756584D01*
X175661654Y-178756584D02*
X175733082Y-178470870D01*
X175733082Y-178470870D02*
X175733082Y-177970870D01*
X175733082Y-177970870D02*
X175661654Y-177685156D01*
X175661654Y-177685156D02*
X175518797Y-177542299D01*
X175518797Y-177542299D02*
X175375939Y-177470870D01*
X173375939Y-178970870D02*
X174090225Y-178970870D01*
X174090225Y-178970870D02*
X174090225Y-177470870D01*
X173090224Y-177470870D02*
X172233082Y-177470870D01*
X172661653Y-178970870D02*
X172661653Y-177470870D01*
X171804510Y-178542299D02*
X171090225Y-178542299D01*
X171947367Y-178970870D02*
X171447367Y-177470870D01*
X171447367Y-177470870D02*
X170947367Y-178970870D01*
X169661653Y-177542299D02*
X169804511Y-177470870D01*
X169804511Y-177470870D02*
X170018796Y-177470870D01*
X170018796Y-177470870D02*
X170233082Y-177542299D01*
X170233082Y-177542299D02*
X170375939Y-177685156D01*
X170375939Y-177685156D02*
X170447368Y-177828013D01*
X170447368Y-177828013D02*
X170518796Y-178113727D01*
X170518796Y-178113727D02*
X170518796Y-178328013D01*
X170518796Y-178328013D02*
X170447368Y-178613727D01*
X170447368Y-178613727D02*
X170375939Y-178756584D01*
X170375939Y-178756584D02*
X170233082Y-178899442D01*
X170233082Y-178899442D02*
X170018796Y-178970870D01*
X170018796Y-178970870D02*
X169875939Y-178970870D01*
X169875939Y-178970870D02*
X169661653Y-178899442D01*
X169661653Y-178899442D02*
X169590225Y-178828013D01*
X169590225Y-178828013D02*
X169590225Y-178328013D01*
X169590225Y-178328013D02*
X169875939Y-178328013D01*
X168947368Y-178185156D02*
X168447368Y-178185156D01*
X168233082Y-178970870D02*
X168947368Y-178970870D01*
X168947368Y-178970870D02*
X168947368Y-177470870D01*
X168947368Y-177470870D02*
X168233082Y-177470870D01*
X176018795Y-181314358D02*
X175804510Y-181385786D01*
X175804510Y-181385786D02*
X175447367Y-181385786D01*
X175447367Y-181385786D02*
X175304510Y-181314358D01*
X175304510Y-181314358D02*
X175233081Y-181242929D01*
X175233081Y-181242929D02*
X175161652Y-181100072D01*
X175161652Y-181100072D02*
X175161652Y-180957215D01*
X175161652Y-180957215D02*
X175233081Y-180814358D01*
X175233081Y-180814358D02*
X175304510Y-180742929D01*
X175304510Y-180742929D02*
X175447367Y-180671500D01*
X175447367Y-180671500D02*
X175733081Y-180600072D01*
X175733081Y-180600072D02*
X175875938Y-180528643D01*
X175875938Y-180528643D02*
X175947367Y-180457215D01*
X175947367Y-180457215D02*
X176018795Y-180314358D01*
X176018795Y-180314358D02*
X176018795Y-180171500D01*
X176018795Y-180171500D02*
X175947367Y-180028643D01*
X175947367Y-180028643D02*
X175875938Y-179957215D01*
X175875938Y-179957215D02*
X175733081Y-179885786D01*
X175733081Y-179885786D02*
X175375938Y-179885786D01*
X175375938Y-179885786D02*
X175161652Y-179957215D01*
X174233081Y-180671500D02*
X174233081Y-181385786D01*
X174733081Y-179885786D02*
X174233081Y-180671500D01*
X174233081Y-180671500D02*
X173733081Y-179885786D01*
X173304510Y-181314358D02*
X173090225Y-181385786D01*
X173090225Y-181385786D02*
X172733082Y-181385786D01*
X172733082Y-181385786D02*
X172590225Y-181314358D01*
X172590225Y-181314358D02*
X172518796Y-181242929D01*
X172518796Y-181242929D02*
X172447367Y-181100072D01*
X172447367Y-181100072D02*
X172447367Y-180957215D01*
X172447367Y-180957215D02*
X172518796Y-180814358D01*
X172518796Y-180814358D02*
X172590225Y-180742929D01*
X172590225Y-180742929D02*
X172733082Y-180671500D01*
X172733082Y-180671500D02*
X173018796Y-180600072D01*
X173018796Y-180600072D02*
X173161653Y-180528643D01*
X173161653Y-180528643D02*
X173233082Y-180457215D01*
X173233082Y-180457215D02*
X173304510Y-180314358D01*
X173304510Y-180314358D02*
X173304510Y-180171500D01*
X173304510Y-180171500D02*
X173233082Y-180028643D01*
X173233082Y-180028643D02*
X173161653Y-179957215D01*
X173161653Y-179957215D02*
X173018796Y-179885786D01*
X173018796Y-179885786D02*
X172661653Y-179885786D01*
X172661653Y-179885786D02*
X172447367Y-179957215D01*
X172018796Y-179885786D02*
X171161654Y-179885786D01*
X171590225Y-181385786D02*
X171590225Y-179885786D01*
X170661654Y-180600072D02*
X170161654Y-180600072D01*
X169947368Y-181385786D02*
X170661654Y-181385786D01*
X170661654Y-181385786D02*
X170661654Y-179885786D01*
X170661654Y-179885786D02*
X169947368Y-179885786D01*
X169304511Y-181385786D02*
X169304511Y-179885786D01*
X169304511Y-179885786D02*
X168804511Y-180957215D01*
X168804511Y-180957215D02*
X168304511Y-179885786D01*
X168304511Y-179885786D02*
X168304511Y-181385786D01*
D11*
X191132580Y-156168094D02*
X190323057Y-156168094D01*
X190323057Y-156168094D02*
X190227819Y-156120475D01*
X190227819Y-156120475D02*
X190180200Y-156072856D01*
X190180200Y-156072856D02*
X190132580Y-155977618D01*
X190132580Y-155977618D02*
X190132580Y-155787142D01*
X190132580Y-155787142D02*
X190180200Y-155691904D01*
X190180200Y-155691904D02*
X190227819Y-155644285D01*
X190227819Y-155644285D02*
X190323057Y-155596666D01*
X190323057Y-155596666D02*
X191132580Y-155596666D01*
X191037342Y-155168094D02*
X191084961Y-155120475D01*
X191084961Y-155120475D02*
X191132580Y-155025237D01*
X191132580Y-155025237D02*
X191132580Y-154787142D01*
X191132580Y-154787142D02*
X191084961Y-154691904D01*
X191084961Y-154691904D02*
X191037342Y-154644285D01*
X191037342Y-154644285D02*
X190942104Y-154596666D01*
X190942104Y-154596666D02*
X190846866Y-154596666D01*
X190846866Y-154596666D02*
X190704009Y-154644285D01*
X190704009Y-154644285D02*
X190132580Y-155215713D01*
X190132580Y-155215713D02*
X190132580Y-154596666D01*
X191132580Y-154263332D02*
X191132580Y-153644285D01*
X191132580Y-153644285D02*
X190751628Y-153977618D01*
X190751628Y-153977618D02*
X190751628Y-153834761D01*
X190751628Y-153834761D02*
X190704009Y-153739523D01*
X190704009Y-153739523D02*
X190656390Y-153691904D01*
X190656390Y-153691904D02*
X190561152Y-153644285D01*
X190561152Y-153644285D02*
X190323057Y-153644285D01*
X190323057Y-153644285D02*
X190227819Y-153691904D01*
X190227819Y-153691904D02*
X190180200Y-153739523D01*
X190180200Y-153739523D02*
X190132580Y-153834761D01*
X190132580Y-153834761D02*
X190132580Y-154120475D01*
X190132580Y-154120475D02*
X190180200Y-154215713D01*
X190180200Y-154215713D02*
X190227819Y-154263332D01*
D12*
X172967171Y-156441396D02*
X172838600Y-156489015D01*
X172838600Y-156489015D02*
X172624314Y-156489015D01*
X172624314Y-156489015D02*
X172538600Y-156441396D01*
X172538600Y-156441396D02*
X172495742Y-156393776D01*
X172495742Y-156393776D02*
X172452885Y-156298538D01*
X172452885Y-156298538D02*
X172452885Y-156203300D01*
X172452885Y-156203300D02*
X172495742Y-156108062D01*
X172495742Y-156108062D02*
X172538600Y-156060443D01*
X172538600Y-156060443D02*
X172624314Y-156012824D01*
X172624314Y-156012824D02*
X172795742Y-155965205D01*
X172795742Y-155965205D02*
X172881457Y-155917586D01*
X172881457Y-155917586D02*
X172924314Y-155869967D01*
X172924314Y-155869967D02*
X172967171Y-155774729D01*
X172967171Y-155774729D02*
X172967171Y-155679491D01*
X172967171Y-155679491D02*
X172924314Y-155584253D01*
X172924314Y-155584253D02*
X172881457Y-155536634D01*
X172881457Y-155536634D02*
X172795742Y-155489015D01*
X172795742Y-155489015D02*
X172581457Y-155489015D01*
X172581457Y-155489015D02*
X172452885Y-155536634D01*
X172152885Y-155489015D02*
X171938599Y-156489015D01*
X171938599Y-156489015D02*
X171767171Y-155774729D01*
X171767171Y-155774729D02*
X171595742Y-156489015D01*
X171595742Y-156489015D02*
X171381457Y-155489015D01*
X170524314Y-156393776D02*
X170567171Y-156441396D01*
X170567171Y-156441396D02*
X170695743Y-156489015D01*
X170695743Y-156489015D02*
X170781457Y-156489015D01*
X170781457Y-156489015D02*
X170910028Y-156441396D01*
X170910028Y-156441396D02*
X170995743Y-156346157D01*
X170995743Y-156346157D02*
X171038600Y-156250919D01*
X171038600Y-156250919D02*
X171081457Y-156060443D01*
X171081457Y-156060443D02*
X171081457Y-155917586D01*
X171081457Y-155917586D02*
X171038600Y-155727110D01*
X171038600Y-155727110D02*
X170995743Y-155631872D01*
X170995743Y-155631872D02*
X170910028Y-155536634D01*
X170910028Y-155536634D02*
X170781457Y-155489015D01*
X170781457Y-155489015D02*
X170695743Y-155489015D01*
X170695743Y-155489015D02*
X170567171Y-155536634D01*
X170567171Y-155536634D02*
X170524314Y-155584253D01*
X169710028Y-156489015D02*
X170138600Y-156489015D01*
X170138600Y-156489015D02*
X170138600Y-155489015D01*
X169410029Y-156489015D02*
X169410029Y-155489015D01*
X168895743Y-156489015D02*
X169281457Y-155917586D01*
X168895743Y-155489015D02*
X169410029Y-156060443D01*
X172807743Y-150409015D02*
X172250600Y-150409015D01*
X172250600Y-150409015D02*
X172550600Y-150789967D01*
X172550600Y-150789967D02*
X172422029Y-150789967D01*
X172422029Y-150789967D02*
X172336315Y-150837586D01*
X172336315Y-150837586D02*
X172293457Y-150885205D01*
X172293457Y-150885205D02*
X172250600Y-150980443D01*
X172250600Y-150980443D02*
X172250600Y-151218538D01*
X172250600Y-151218538D02*
X172293457Y-151313776D01*
X172293457Y-151313776D02*
X172336315Y-151361396D01*
X172336315Y-151361396D02*
X172422029Y-151409015D01*
X172422029Y-151409015D02*
X172679172Y-151409015D01*
X172679172Y-151409015D02*
X172764886Y-151361396D01*
X172764886Y-151361396D02*
X172807743Y-151313776D01*
X171993457Y-150409015D02*
X171693457Y-151409015D01*
X171693457Y-151409015D02*
X171393457Y-150409015D01*
X171179171Y-150409015D02*
X170622028Y-150409015D01*
X170622028Y-150409015D02*
X170922028Y-150789967D01*
X170922028Y-150789967D02*
X170793457Y-150789967D01*
X170793457Y-150789967D02*
X170707743Y-150837586D01*
X170707743Y-150837586D02*
X170664885Y-150885205D01*
X170664885Y-150885205D02*
X170622028Y-150980443D01*
X170622028Y-150980443D02*
X170622028Y-151218538D01*
X170622028Y-151218538D02*
X170664885Y-151313776D01*
X170664885Y-151313776D02*
X170707743Y-151361396D01*
X170707743Y-151361396D02*
X170793457Y-151409015D01*
X170793457Y-151409015D02*
X171050600Y-151409015D01*
X171050600Y-151409015D02*
X171136314Y-151361396D01*
X171136314Y-151361396D02*
X171179171Y-151313776D01*
X172379171Y-158076634D02*
X172464886Y-158029015D01*
X172464886Y-158029015D02*
X172593457Y-158029015D01*
X172593457Y-158029015D02*
X172722028Y-158076634D01*
X172722028Y-158076634D02*
X172807743Y-158171872D01*
X172807743Y-158171872D02*
X172850600Y-158267110D01*
X172850600Y-158267110D02*
X172893457Y-158457586D01*
X172893457Y-158457586D02*
X172893457Y-158600443D01*
X172893457Y-158600443D02*
X172850600Y-158790919D01*
X172850600Y-158790919D02*
X172807743Y-158886157D01*
X172807743Y-158886157D02*
X172722028Y-158981396D01*
X172722028Y-158981396D02*
X172593457Y-159029015D01*
X172593457Y-159029015D02*
X172507743Y-159029015D01*
X172507743Y-159029015D02*
X172379171Y-158981396D01*
X172379171Y-158981396D02*
X172336314Y-158933776D01*
X172336314Y-158933776D02*
X172336314Y-158600443D01*
X172336314Y-158600443D02*
X172507743Y-158600443D01*
X171950600Y-159029015D02*
X171950600Y-158029015D01*
X171950600Y-158029015D02*
X171436314Y-159029015D01*
X171436314Y-159029015D02*
X171436314Y-158029015D01*
X171007743Y-159029015D02*
X171007743Y-158029015D01*
X171007743Y-158029015D02*
X170793457Y-158029015D01*
X170793457Y-158029015D02*
X170664886Y-158076634D01*
X170664886Y-158076634D02*
X170579171Y-158171872D01*
X170579171Y-158171872D02*
X170536314Y-158267110D01*
X170536314Y-158267110D02*
X170493457Y-158457586D01*
X170493457Y-158457586D02*
X170493457Y-158600443D01*
X170493457Y-158600443D02*
X170536314Y-158790919D01*
X170536314Y-158790919D02*
X170579171Y-158886157D01*
X170579171Y-158886157D02*
X170664886Y-158981396D01*
X170664886Y-158981396D02*
X170793457Y-159029015D01*
X170793457Y-159029015D02*
X171007743Y-159029015D01*
X172936314Y-153901396D02*
X172807743Y-153949015D01*
X172807743Y-153949015D02*
X172593457Y-153949015D01*
X172593457Y-153949015D02*
X172507743Y-153901396D01*
X172507743Y-153901396D02*
X172464885Y-153853776D01*
X172464885Y-153853776D02*
X172422028Y-153758538D01*
X172422028Y-153758538D02*
X172422028Y-153663300D01*
X172422028Y-153663300D02*
X172464885Y-153568062D01*
X172464885Y-153568062D02*
X172507743Y-153520443D01*
X172507743Y-153520443D02*
X172593457Y-153472824D01*
X172593457Y-153472824D02*
X172764885Y-153425205D01*
X172764885Y-153425205D02*
X172850600Y-153377586D01*
X172850600Y-153377586D02*
X172893457Y-153329967D01*
X172893457Y-153329967D02*
X172936314Y-153234729D01*
X172936314Y-153234729D02*
X172936314Y-153139491D01*
X172936314Y-153139491D02*
X172893457Y-153044253D01*
X172893457Y-153044253D02*
X172850600Y-152996634D01*
X172850600Y-152996634D02*
X172764885Y-152949015D01*
X172764885Y-152949015D02*
X172550600Y-152949015D01*
X172550600Y-152949015D02*
X172422028Y-152996634D01*
X172122028Y-152949015D02*
X171907742Y-153949015D01*
X171907742Y-153949015D02*
X171736314Y-153234729D01*
X171736314Y-153234729D02*
X171564885Y-153949015D01*
X171564885Y-153949015D02*
X171350600Y-152949015D01*
X170836314Y-152949015D02*
X170664886Y-152949015D01*
X170664886Y-152949015D02*
X170579171Y-152996634D01*
X170579171Y-152996634D02*
X170493457Y-153091872D01*
X170493457Y-153091872D02*
X170450600Y-153282348D01*
X170450600Y-153282348D02*
X170450600Y-153615681D01*
X170450600Y-153615681D02*
X170493457Y-153806157D01*
X170493457Y-153806157D02*
X170579171Y-153901396D01*
X170579171Y-153901396D02*
X170664886Y-153949015D01*
X170664886Y-153949015D02*
X170836314Y-153949015D01*
X170836314Y-153949015D02*
X170922029Y-153901396D01*
X170922029Y-153901396D02*
X171007743Y-153806157D01*
X171007743Y-153806157D02*
X171050600Y-153615681D01*
X171050600Y-153615681D02*
X171050600Y-153282348D01*
X171050600Y-153282348D02*
X171007743Y-153091872D01*
X171007743Y-153091872D02*
X170922029Y-152996634D01*
X170922029Y-152996634D02*
X170836314Y-152949015D01*
D13*
%TO.C,U23*%
X168765000Y-143505000D02*
X221915000Y-143505000D01*
X168765000Y-166255000D02*
X168765000Y-143505000D01*
X173690000Y-149740000D02*
X173690000Y-160020000D01*
X173690000Y-160020000D02*
X176350000Y-160020000D01*
X176350000Y-149740000D02*
X173690000Y-149740000D01*
X176350000Y-160020000D02*
X176350000Y-149740000D01*
X179817191Y-151087718D02*
X179817191Y-158887718D01*
X179817191Y-158887718D02*
X179817193Y-158888337D01*
X179817193Y-151087100D02*
X179817191Y-151087718D01*
X179817196Y-158888666D02*
X179817191Y-158887718D01*
X180726149Y-151094188D02*
X180726149Y-151280774D01*
X180926149Y-151071800D02*
X182208233Y-151071800D01*
X182008233Y-151680774D02*
X181126149Y-151680774D01*
X182408233Y-151280774D02*
X182408233Y-151094188D01*
X183217191Y-150987718D02*
X179917191Y-150987718D01*
X183217191Y-158987718D02*
X179917191Y-158987718D01*
X183217191Y-158987718D02*
X183217810Y-158987717D01*
X183217810Y-150987720D02*
X183217191Y-150987718D01*
X183317189Y-158888337D02*
X183317191Y-158887718D01*
X183317191Y-151087718D02*
X183317189Y-151087100D01*
X183317191Y-151087718D02*
X183317191Y-158887718D01*
X183327191Y-152487718D02*
X183327191Y-151987718D01*
X183327191Y-157487718D02*
X183327191Y-157987718D01*
X184022412Y-151767950D02*
X184022412Y-158067950D01*
X184447412Y-158067950D02*
X184447412Y-151767950D01*
X188547412Y-151767950D02*
X188547412Y-158067950D01*
X188972412Y-158067950D02*
X188972412Y-151767950D01*
X190088834Y-153883127D02*
X190300966Y-153670995D01*
X190088834Y-153883127D02*
X190795940Y-154590233D01*
X190088834Y-156145868D02*
X190795940Y-155438762D01*
X190300966Y-153670995D02*
X191008072Y-154378101D01*
X190300966Y-156358000D02*
X190088834Y-156145868D01*
X190300966Y-156358000D02*
X191008072Y-155650894D01*
X190421676Y-154964498D02*
X190421676Y-155064498D01*
X190442387Y-153529573D02*
X190654519Y-153317441D01*
X190442387Y-153529573D02*
X191149494Y-154236680D01*
X190442387Y-156499422D02*
X191149494Y-155792315D01*
X190654519Y-153317441D02*
X191361626Y-154024548D01*
X190654519Y-156711554D02*
X190442387Y-156499422D01*
X190654519Y-156711554D02*
X191361626Y-156004447D01*
X190795940Y-153176020D02*
X191008072Y-152963888D01*
X190795940Y-153176020D02*
X191503047Y-153883127D01*
X190795940Y-156852975D02*
X191503047Y-156145868D01*
X191008072Y-152963888D02*
X191715179Y-153670995D01*
X191008072Y-157065107D02*
X190795940Y-156852975D01*
X191008072Y-157065107D02*
X191715179Y-156358000D01*
X191149494Y-152822467D02*
X191361626Y-152610334D01*
X191149494Y-152822467D02*
X191856601Y-153529573D01*
X191149494Y-157206529D02*
X191856601Y-156499422D01*
X191361626Y-152610334D02*
X192068733Y-153317441D01*
X191361626Y-157418661D02*
X191149494Y-157206529D01*
X191361626Y-157418661D02*
X192068733Y-156711554D01*
X191503047Y-152468913D02*
X191715179Y-152256781D01*
X191503047Y-152468913D02*
X192210154Y-153176020D01*
X191503047Y-157560082D02*
X192210154Y-156852975D01*
X191715179Y-152256781D02*
X192422286Y-152963888D01*
X191715179Y-157772214D02*
X191503047Y-157560082D01*
X191715179Y-157772214D02*
X192422286Y-157065107D01*
X191856601Y-152115360D02*
X192068733Y-151903228D01*
X191856601Y-152115360D02*
X192563707Y-152822467D01*
X191856601Y-157913635D02*
X192563707Y-157206529D01*
X192068733Y-151903228D02*
X192775839Y-152610334D01*
X192068733Y-158125767D02*
X191856601Y-157913635D01*
X192068733Y-158125767D02*
X192775839Y-157418661D01*
X192210154Y-151761806D02*
X192422286Y-151549674D01*
X192210154Y-151761806D02*
X192917261Y-152468913D01*
X192210154Y-158267189D02*
X192917261Y-157560082D01*
X192422286Y-151549674D02*
X193129393Y-152256781D01*
X192422286Y-158479321D02*
X192210154Y-158267189D01*
X192422286Y-158479321D02*
X193129393Y-157772214D01*
X192563707Y-151408253D02*
X192775839Y-151196121D01*
X192563707Y-151408253D02*
X193270814Y-152115360D01*
X192563707Y-158620742D02*
X193270814Y-157913635D01*
X192775839Y-151196121D02*
X193482946Y-151903228D01*
X192775839Y-158832874D02*
X192563707Y-158620742D01*
X192775839Y-158832874D02*
X193482946Y-158125767D01*
X192917261Y-151054700D02*
X193129393Y-150842568D01*
X192917261Y-151054700D02*
X193624368Y-151761806D01*
X192917261Y-158974296D02*
X193624368Y-158267189D01*
X193129393Y-150842568D02*
X193836500Y-151549674D01*
X193129393Y-159186428D02*
X192917261Y-158974296D01*
X193129393Y-159186428D02*
X193836500Y-158479321D01*
X193270814Y-150701146D02*
X193482946Y-150489014D01*
X193270814Y-150701146D02*
X193977921Y-151408253D01*
X193270814Y-159327849D02*
X193977921Y-158620742D01*
X193482946Y-150489014D02*
X194190053Y-151196121D01*
X193482946Y-159539981D02*
X193270814Y-159327849D01*
X193482946Y-159539981D02*
X194190053Y-158832874D01*
X193624368Y-150347593D02*
X193836500Y-150135461D01*
X193624368Y-150347593D02*
X194331474Y-151054700D01*
X193624368Y-159681402D02*
X194331474Y-158974296D01*
X193836500Y-150135461D02*
X194543606Y-150842568D01*
X193836500Y-159893534D02*
X193624368Y-159681402D01*
X193836500Y-159893534D02*
X194543606Y-159186428D01*
X193977921Y-149994039D02*
X194190053Y-149781907D01*
X193977921Y-149994039D02*
X194685028Y-150701146D01*
X193977921Y-160034956D02*
X194685028Y-159327849D01*
X194190053Y-149781907D02*
X194897160Y-150489014D01*
X194190053Y-160247088D02*
X193977921Y-160034956D01*
X194190053Y-160247088D02*
X194897160Y-159539981D01*
X194975088Y-154561054D02*
X195070276Y-154656241D01*
X194984543Y-154266037D02*
X195042341Y-154177483D01*
X194984543Y-154266037D02*
X195042341Y-154177483D01*
X195042341Y-154177483D02*
X195071551Y-154099140D01*
X195042341Y-154177483D02*
X195071551Y-154099140D01*
X195070276Y-154656241D02*
X195505419Y-154221099D01*
X195071551Y-154099140D02*
X195201584Y-153699692D01*
X195074632Y-153658154D02*
X194985393Y-153932243D01*
X195201584Y-153699692D02*
X195074632Y-153658154D01*
X195271424Y-150114750D02*
X190421676Y-154964498D01*
X195271424Y-150114750D02*
X195371424Y-150114750D01*
X195271424Y-159914245D02*
X190421676Y-155064498D01*
X195315044Y-154030724D02*
X195410231Y-154125911D01*
X195371424Y-159914245D02*
X195271424Y-159914245D01*
X195371424Y-159914245D02*
X200221171Y-155064498D01*
X195410231Y-153935536D02*
X195315044Y-154030724D01*
X195410231Y-154125911D02*
X194975088Y-154561054D01*
X195505419Y-154221099D02*
X195600606Y-154316286D01*
X195577565Y-154505782D02*
X195564486Y-154579327D01*
X195577565Y-154505782D02*
X195564486Y-154579327D01*
X195600606Y-154316286D02*
X195695793Y-154221099D01*
X195627271Y-154425603D02*
X195577565Y-154505782D01*
X195627271Y-154425603D02*
X195577565Y-154505782D01*
X195695793Y-154221099D02*
X195410231Y-153935536D01*
X195710773Y-155121449D02*
X195744488Y-155319237D01*
X195710773Y-155121449D02*
X195744488Y-155319237D01*
X195715128Y-155004058D02*
X195777392Y-154895031D01*
X195715128Y-155004058D02*
X195777392Y-154895031D01*
X195744488Y-155319237D02*
X195835175Y-155448337D01*
X195744488Y-155319237D02*
X195835175Y-155448337D01*
X195777392Y-154895031D02*
X195780888Y-154795729D01*
X195777392Y-154895031D02*
X195780888Y-154795729D01*
X195780888Y-154795729D02*
X195873505Y-154773372D01*
X195780888Y-154795729D02*
X195873505Y-154773372D01*
X195849517Y-155118049D02*
X195710773Y-155121449D01*
X195873505Y-154773372D02*
X195934718Y-154730075D01*
X195873505Y-154773372D02*
X195934718Y-154730075D01*
X196059333Y-154768639D02*
X196062414Y-154905152D01*
X196062414Y-154905152D02*
X196204997Y-154926234D01*
X196062414Y-154905152D02*
X196204997Y-154926234D01*
X196204997Y-154926234D02*
X196299745Y-154988229D01*
X196204997Y-154926234D02*
X196299745Y-154988229D01*
X196217824Y-154785568D02*
X196059333Y-154768639D01*
X196217824Y-154785568D02*
X196059333Y-154768639D01*
X196391214Y-154889323D02*
X196217824Y-154785568D01*
X196391214Y-154889323D02*
X196217824Y-154785568D01*
X196446351Y-155714246D02*
X196470861Y-155696296D01*
X196446351Y-155714246D02*
X196470861Y-155696296D01*
X196452795Y-149781907D02*
X195745688Y-150489014D01*
X196452795Y-160247088D02*
X195745688Y-159539981D01*
X196452795Y-160247088D02*
X196664927Y-160034956D01*
X196470861Y-155696296D02*
X196499742Y-155686916D01*
X196470861Y-155696296D02*
X196499742Y-155686916D01*
X196499742Y-155686916D02*
X196560041Y-155691770D01*
X196499742Y-155686916D02*
X196560041Y-155691770D01*
X196560041Y-155691770D02*
X196661266Y-155757696D01*
X196560041Y-155691770D02*
X196661266Y-155757696D01*
X196661266Y-155757696D02*
X196749655Y-155669308D01*
X196664927Y-149994039D02*
X195957820Y-150701146D01*
X196664927Y-149994039D02*
X196452795Y-149781907D01*
X196664927Y-160034956D02*
X195957820Y-159327849D01*
X196693056Y-155543670D02*
X196699794Y-155521006D01*
X196693056Y-155543670D02*
X196699794Y-155521006D01*
X196697971Y-155590451D02*
X196693056Y-155543670D01*
X196697971Y-155590451D02*
X196693056Y-155543670D01*
X196699794Y-155521006D02*
X196713322Y-155501667D01*
X196699794Y-155521006D02*
X196713322Y-155501667D01*
X196703116Y-156206539D02*
X196705874Y-156272564D01*
X196703116Y-156206539D02*
X196705874Y-156272564D01*
X196705874Y-156272564D02*
X196730965Y-156333696D01*
X196705874Y-156272564D02*
X196730965Y-156333696D01*
X196715659Y-155975267D02*
X196620472Y-155880080D01*
X196718767Y-156142190D02*
X196703116Y-156206539D01*
X196718767Y-156142190D02*
X196703116Y-156206539D01*
X196730965Y-156333696D02*
X196772283Y-156385445D01*
X196730965Y-156333696D02*
X196772283Y-156385445D01*
X196749655Y-155669308D02*
X196697971Y-155590451D01*
X196749655Y-155669308D02*
X196697971Y-155590451D01*
X196772283Y-156385445D02*
X196823582Y-156426557D01*
X196772283Y-156385445D02*
X196823582Y-156426557D01*
X196783780Y-156027084D02*
X196718767Y-156142190D01*
X196783780Y-156027084D02*
X196718767Y-156142190D01*
X196806348Y-150135461D02*
X196099241Y-150842568D01*
X196806348Y-159893534D02*
X196099241Y-159186428D01*
X196806348Y-159893534D02*
X197018480Y-159681402D01*
X196823582Y-156426557D02*
X196883974Y-156452241D01*
X196823582Y-156426557D02*
X196883974Y-156452241D01*
X196831244Y-155614915D02*
X196926431Y-155710102D01*
X196846223Y-156196132D02*
X196904183Y-156092677D01*
X196846223Y-156196132D02*
X196904183Y-156092677D01*
X196871826Y-155927886D02*
X196783780Y-156027084D01*
X196871826Y-155927886D02*
X196783780Y-156027084D01*
X196883974Y-156452241D02*
X196949406Y-156457266D01*
X196883974Y-156452241D02*
X196949406Y-156457266D01*
X196899962Y-156311859D02*
X196867895Y-156290682D01*
X196899962Y-156311859D02*
X196867895Y-156290682D01*
X196904183Y-156092677D02*
X196967013Y-156023074D01*
X196904183Y-156092677D02*
X196967013Y-156023074D01*
X196926431Y-155710102D02*
X196966921Y-155638996D01*
X196926431Y-155710102D02*
X196966921Y-155638996D01*
X196937879Y-156318209D02*
X196899962Y-156311859D01*
X196937879Y-156318209D02*
X196899962Y-156311859D01*
X196949406Y-156457266D02*
X197013729Y-156443761D01*
X196949406Y-156457266D02*
X197013729Y-156443761D01*
X196958734Y-155475259D02*
X196911346Y-155409455D01*
X196958734Y-155475259D02*
X196911346Y-155409455D01*
X196966921Y-155638996D02*
X196979231Y-155575926D01*
X196966921Y-155638996D02*
X196979231Y-155575926D01*
X196967013Y-156023074D02*
X197088611Y-155922563D01*
X196967013Y-156023074D02*
X197088611Y-155922563D01*
X196971541Y-155839465D02*
X196871826Y-155927886D01*
X196971541Y-155839465D02*
X196871826Y-155927886D01*
X196979231Y-155575926D02*
X196958734Y-155475259D01*
X196979231Y-155575926D02*
X196958734Y-155475259D01*
X197011238Y-156296368D02*
X196937879Y-156318209D01*
X197011238Y-156296368D02*
X196937879Y-156318209D01*
X197013729Y-156443761D02*
X197128685Y-156380602D01*
X197013729Y-156443761D02*
X197128685Y-156380602D01*
X197018480Y-150347593D02*
X196311373Y-151054700D01*
X197018480Y-150347593D02*
X196806348Y-150135461D01*
X197018480Y-159681402D02*
X196311373Y-158974296D01*
X197087430Y-155774603D02*
X196971541Y-155839465D01*
X197087430Y-155774603D02*
X196971541Y-155839465D01*
X197088611Y-155922563D02*
X197162911Y-155897809D01*
X197088611Y-155922563D02*
X197162911Y-155897809D01*
X197128685Y-156380602D02*
X197227185Y-156293232D01*
X197128685Y-156380602D02*
X197227185Y-156293232D01*
X197130936Y-156199107D02*
X197011238Y-156296368D01*
X197130936Y-156199107D02*
X197011238Y-156296368D01*
X197137203Y-156723169D02*
X197232391Y-156818356D01*
X197152391Y-155760244D02*
X197087430Y-155774603D01*
X197152391Y-155760244D02*
X197087430Y-155774603D01*
X197159901Y-150489014D02*
X196452795Y-151196121D01*
X197159901Y-159539981D02*
X196452795Y-158832874D01*
X197159901Y-159539981D02*
X197372033Y-159327849D01*
X197162911Y-155897809D02*
X197201944Y-155902479D01*
X197162911Y-155897809D02*
X197201944Y-155902479D01*
X197201944Y-155902479D02*
X197235047Y-155923531D01*
X197201944Y-155902479D02*
X197235047Y-155923531D01*
X197218652Y-155764728D02*
X197152391Y-155760244D01*
X197218652Y-155764728D02*
X197152391Y-155760244D01*
X197227185Y-156293232D02*
X197339199Y-156161107D01*
X197227185Y-156293232D02*
X197339199Y-156161107D01*
X197232391Y-156818356D02*
X197674333Y-156376415D01*
X197235047Y-155923531D02*
X197257419Y-155957552D01*
X197235047Y-155923531D02*
X197257419Y-155957552D01*
X197236153Y-156073989D02*
X197130936Y-156199107D01*
X197236153Y-156073989D02*
X197130936Y-156199107D01*
X197252788Y-153588782D02*
X197606342Y-153942336D01*
X197257419Y-155957552D02*
X197263953Y-155997725D01*
X197257419Y-155957552D02*
X197263953Y-155997725D01*
X197263953Y-155997725D02*
X197236153Y-156073989D01*
X197263953Y-155997725D02*
X197236153Y-156073989D01*
X197280267Y-155789572D02*
X197218652Y-155764728D01*
X197280267Y-155789572D02*
X197218652Y-155764728D01*
X197332571Y-155830680D02*
X197280267Y-155789572D01*
X197332571Y-155830680D02*
X197280267Y-155789572D01*
X197339199Y-156161107D02*
X197395463Y-156037840D01*
X197339199Y-156161107D02*
X197395463Y-156037840D01*
X197341177Y-153500394D02*
X197252788Y-153588782D01*
X197372033Y-150701146D02*
X196664927Y-151408253D01*
X197372033Y-150701146D02*
X197159901Y-150489014D01*
X197372033Y-159327849D02*
X196664927Y-158620742D01*
X197387224Y-155913010D02*
X197332571Y-155830680D01*
X197387224Y-155913010D02*
X197332571Y-155830680D01*
X197395463Y-156037840D02*
X197387224Y-155913010D01*
X197395463Y-156037840D02*
X197387224Y-155913010D01*
X197513455Y-150842568D02*
X196806348Y-151549674D01*
X197513455Y-159186428D02*
X196806348Y-158479321D01*
X197513455Y-159186428D02*
X197725587Y-158974296D01*
X197519653Y-153678870D02*
X197341177Y-153500394D01*
X197527727Y-153560098D02*
X197519653Y-153678870D01*
X197599542Y-157185508D02*
X197694730Y-157280695D01*
X197606342Y-153942336D02*
X197654573Y-153894104D01*
X197654573Y-153894104D02*
X197664665Y-153569978D01*
X197664665Y-153569978D02*
X197679950Y-153418478D01*
X197664665Y-153569978D02*
X197679950Y-153418478D01*
X197667534Y-156192839D02*
X197137203Y-156723169D01*
X197674333Y-156376415D02*
X197783118Y-156485200D01*
X197674333Y-156784361D02*
X197837511Y-156947539D01*
X197679950Y-153418478D02*
X197732975Y-153312569D01*
X197679950Y-153418478D02*
X197732975Y-153312569D01*
X197694730Y-157280695D02*
X198225060Y-156750365D01*
X197725587Y-151054700D02*
X197018480Y-151761806D01*
X197725587Y-151054700D02*
X197513455Y-150842568D01*
X197725587Y-158974296D02*
X197018480Y-158267189D01*
X197769520Y-156689173D02*
X197674333Y-156784361D01*
X197783118Y-156485200D02*
X197814670Y-156339976D01*
X197814670Y-156339976D02*
X197667534Y-156192839D01*
X197837511Y-156947539D02*
X197599542Y-157185508D01*
X197851109Y-153479996D02*
X197946297Y-153575184D01*
X197867008Y-151196121D02*
X197159901Y-151903228D01*
X197867008Y-158832874D02*
X197159901Y-158125767D01*
X197867008Y-158832874D02*
X198079140Y-158620742D01*
X197871507Y-156587187D02*
X198034685Y-156750365D01*
X197872888Y-153311400D02*
X197897702Y-153357327D01*
X197872888Y-153311400D02*
X197897702Y-153357327D01*
X197894449Y-153409758D02*
X197851109Y-153479996D01*
X197894449Y-153409758D02*
X197851109Y-153479996D01*
X197897702Y-153357327D02*
X197894449Y-153409758D01*
X197897702Y-153357327D02*
X197894449Y-153409758D01*
X197908158Y-153926081D02*
X197932668Y-153908131D01*
X197908158Y-153926081D02*
X197932668Y-153908131D01*
X197932668Y-153908131D02*
X197961549Y-153898751D01*
X197932668Y-153908131D02*
X197961549Y-153898751D01*
X197932699Y-156852352D02*
X197769520Y-156689173D01*
X197961549Y-153898751D02*
X198021848Y-153903606D01*
X197961549Y-153898751D02*
X198021848Y-153903606D01*
X197966694Y-156491999D02*
X197871507Y-156587187D01*
X198021848Y-153903606D02*
X198123073Y-153969532D01*
X198021848Y-153903606D02*
X198123073Y-153969532D01*
X198034685Y-156750365D02*
X197932699Y-156852352D01*
X198061882Y-154397875D02*
X198158238Y-154494231D01*
X198079140Y-151408253D02*
X197372033Y-152115360D01*
X198079140Y-151408253D02*
X197867008Y-151196121D01*
X198079140Y-158620742D02*
X197372033Y-157913635D01*
X198123073Y-153969532D02*
X198211462Y-153881144D01*
X198154863Y-153755506D02*
X198161601Y-153732842D01*
X198154863Y-153755506D02*
X198161601Y-153732842D01*
X198158238Y-154494231D02*
X198549823Y-154215893D01*
X198159778Y-153802287D02*
X198154863Y-153755506D01*
X198159778Y-153802287D02*
X198154863Y-153755506D01*
X198161601Y-153732842D02*
X198175129Y-153713503D01*
X198161601Y-153732842D02*
X198175129Y-153713503D01*
X198177466Y-154187103D02*
X198082279Y-154091916D01*
X198211462Y-153881144D02*
X198159778Y-153802287D01*
X198211462Y-153881144D02*
X198159778Y-153802287D01*
X198220562Y-151549674D02*
X197513455Y-152256781D01*
X198220562Y-158479321D02*
X197513455Y-157772214D01*
X198220562Y-158479321D02*
X198432694Y-158267189D01*
X198225060Y-156750365D02*
X197966694Y-156491999D01*
X198293051Y-153826751D02*
X198388239Y-153921938D01*
X198325134Y-154661128D02*
X198417985Y-154753979D01*
X198388239Y-153921938D02*
X198428729Y-153850832D01*
X198388239Y-153921938D02*
X198428729Y-153850832D01*
X198417985Y-154753979D02*
X198862582Y-154528652D01*
X198420541Y-153687095D02*
X198373153Y-153621290D01*
X198420541Y-153687095D02*
X198373153Y-153621290D01*
X198428729Y-153850832D02*
X198441038Y-153787762D01*
X198428729Y-153850832D02*
X198441038Y-153787762D01*
X198432694Y-151761806D02*
X197725587Y-152468913D01*
X198432694Y-151761806D02*
X198220562Y-151549674D01*
X198432694Y-158267189D02*
X197725587Y-157560082D01*
X198441038Y-153787762D02*
X198420541Y-153687095D01*
X198441038Y-153787762D02*
X198420541Y-153687095D01*
X198531657Y-154546818D02*
X198779718Y-154055052D01*
X198549823Y-154215893D02*
X198325134Y-154661128D01*
X198574115Y-151903228D02*
X197867008Y-152610334D01*
X198574115Y-158125767D02*
X197867008Y-157418661D01*
X198574115Y-158125767D02*
X198786247Y-157913635D01*
X198584138Y-154920132D02*
X198680600Y-155016594D01*
X198680600Y-155016594D02*
X199121373Y-154396707D01*
X198681875Y-153957209D02*
X198061882Y-154397875D01*
X198779718Y-154055052D02*
X198681875Y-153957209D01*
X198786247Y-152115360D02*
X198079140Y-152822467D01*
X198786247Y-152115360D02*
X198574115Y-151903228D01*
X198786247Y-157913635D02*
X198079140Y-157206529D01*
X198802984Y-155138978D02*
X198898171Y-155234165D01*
X198862582Y-154528652D02*
X198584138Y-154920132D01*
X198898171Y-155234165D02*
X199333314Y-154799023D01*
X198927668Y-152256781D02*
X198220562Y-152963888D01*
X198927668Y-157772214D02*
X198220562Y-157065107D01*
X198927668Y-157772214D02*
X199139800Y-157560082D01*
X199022574Y-154297907D02*
X198531657Y-154546818D01*
X199121373Y-154396707D02*
X199022574Y-154297907D01*
X199139800Y-152468913D02*
X198432694Y-153176020D01*
X199139800Y-152468913D02*
X198927668Y-152256781D01*
X199139800Y-157560082D02*
X198432694Y-156852975D01*
X199142939Y-154608648D02*
X199238126Y-154703835D01*
X199238126Y-154513460D02*
X199142939Y-154608648D01*
X199238126Y-154703835D02*
X198802984Y-155138978D01*
X199241602Y-155184959D02*
X199171517Y-155232784D01*
X199241602Y-155184959D02*
X199171517Y-155232784D01*
X199281222Y-152610334D02*
X198574115Y-153317441D01*
X199281222Y-157418661D02*
X198574115Y-156711554D01*
X199281222Y-157418661D02*
X199493354Y-157206529D01*
X199301068Y-155464597D02*
X199271485Y-155444300D01*
X199301068Y-155464597D02*
X199271485Y-155444300D01*
X199333314Y-154799023D02*
X199428501Y-154894210D01*
X199335815Y-155473743D02*
X199301068Y-155464597D01*
X199335815Y-155473743D02*
X199301068Y-155464597D01*
X199347974Y-155165962D02*
X199241602Y-155184959D01*
X199347974Y-155165962D02*
X199241602Y-155184959D01*
X199405003Y-155168084D02*
X199347974Y-155165962D01*
X199405003Y-155168084D02*
X199347974Y-155165962D01*
X199426377Y-155463210D02*
X199335815Y-155473743D01*
X199426377Y-155463210D02*
X199335815Y-155473743D01*
X199428501Y-154894210D02*
X199523689Y-154799023D01*
X199459841Y-155597174D02*
X199426377Y-155463210D01*
X199477476Y-155173080D02*
X199405003Y-155168084D01*
X199477476Y-155173080D02*
X199405003Y-155168084D01*
X199493354Y-152822467D02*
X198786247Y-153529573D01*
X199493354Y-152822467D02*
X199281222Y-152610334D01*
X199493354Y-157206529D02*
X198786247Y-156499422D01*
X199507222Y-154924275D02*
X199513278Y-155060576D01*
X199523689Y-154799023D02*
X199238126Y-154513460D01*
X199539245Y-155176718D02*
X199477476Y-155173080D01*
X199539245Y-155176718D02*
X199477476Y-155173080D01*
X199617920Y-155176692D02*
X199539245Y-155176718D01*
X199617920Y-155176692D02*
X199539245Y-155176718D01*
X199634259Y-155172121D02*
X199617920Y-155176692D01*
X199634259Y-155172121D02*
X199617920Y-155176692D01*
X199634775Y-152963888D02*
X198927668Y-153670995D01*
X199634775Y-157065107D02*
X198927668Y-156358000D01*
X199634775Y-157065107D02*
X199846907Y-156852975D01*
X199652128Y-155160119D02*
X199634259Y-155172121D01*
X199652128Y-155160119D02*
X199634259Y-155172121D01*
X199846907Y-153176020D02*
X199139800Y-153883127D01*
X199846907Y-153176020D02*
X199634775Y-152963888D01*
X199846907Y-156852975D02*
X199139800Y-156145868D01*
X199988329Y-153317441D02*
X199281222Y-154024548D01*
X199988329Y-156711554D02*
X199281222Y-156004447D01*
X199988329Y-156711554D02*
X200200461Y-156499422D01*
X200200461Y-153529573D02*
X199493354Y-154236680D01*
X200200461Y-153529573D02*
X199988329Y-153317441D01*
X200200461Y-156499422D02*
X199493354Y-155792315D01*
X200221171Y-154964498D02*
X195371424Y-150114750D01*
X200221171Y-155064498D02*
X200221171Y-154964498D01*
X200341882Y-153670995D02*
X199634775Y-154378101D01*
X200341882Y-156358000D02*
X199634775Y-155650894D01*
X200341882Y-156358000D02*
X200554014Y-156145868D01*
X200554014Y-153883127D02*
X199846907Y-154590233D01*
X200554014Y-153883127D02*
X200341882Y-153670995D01*
X200554014Y-156145868D02*
X199846907Y-155438762D01*
X205740000Y-154810000D02*
X205740000Y-159290000D01*
X205740000Y-159290000D02*
X206040000Y-159590000D01*
X206040000Y-154510000D02*
X205740000Y-154810000D01*
X206040000Y-159590000D02*
X207980000Y-159590000D01*
X206691802Y-155461801D02*
X207328199Y-155461801D01*
X206691802Y-156098198D02*
X206691802Y-155461801D01*
X206691802Y-158001801D02*
X207328199Y-158001801D01*
X206691802Y-158638198D02*
X206691802Y-158001801D01*
X207328199Y-155461801D02*
X207328199Y-156098198D01*
X207328199Y-156098198D02*
X206691802Y-156098198D01*
X207328199Y-158001801D02*
X207328199Y-158638198D01*
X207328199Y-158638198D02*
X206691802Y-158638198D01*
X207667723Y-149717533D02*
X207667723Y-153017533D01*
X207767723Y-153117533D02*
X213567723Y-153117533D01*
X207817723Y-152267533D02*
X207817723Y-150467533D01*
X207917723Y-150367533D02*
X208567723Y-150367533D01*
X207980000Y-154510000D02*
X206040000Y-154510000D01*
X207980000Y-159590000D02*
X208380000Y-159590000D01*
X208280000Y-156950000D02*
X208280000Y-154610000D01*
X208280000Y-156950000D02*
X213348600Y-156950000D01*
X208280000Y-159490000D02*
X208280000Y-157150000D01*
X208380000Y-154510000D02*
X207980000Y-154510000D01*
X208380000Y-154510000D02*
X213260000Y-154510000D01*
X208567723Y-152367533D02*
X207917723Y-152367533D01*
X208667723Y-150467533D02*
X208667723Y-152267533D01*
X208950000Y-155180000D02*
X212690000Y-155180000D01*
X208950000Y-156380000D02*
X208950000Y-155180000D01*
X208950000Y-157720000D02*
X212690000Y-157720000D01*
X208950000Y-158920000D02*
X208950000Y-157720000D01*
X209167723Y-152267533D02*
X209167723Y-150467533D01*
X209231802Y-155461801D02*
X209868199Y-155461801D01*
X209231802Y-156098198D02*
X209231802Y-155461801D01*
X209231802Y-158001801D02*
X209868199Y-158001801D01*
X209231802Y-158638198D02*
X209231802Y-158001801D01*
X209267723Y-150367533D02*
X212067723Y-150367533D01*
X209868199Y-155461801D02*
X209868199Y-156098198D01*
X209868199Y-156098198D02*
X209231802Y-156098198D01*
X209868199Y-158001801D02*
X209868199Y-158638198D01*
X209868199Y-158638198D02*
X209231802Y-158638198D01*
X211771802Y-155461801D02*
X212408199Y-155461801D01*
X211771802Y-156098198D02*
X211771802Y-155461801D01*
X211771802Y-158001801D02*
X212408199Y-158001801D01*
X211771802Y-158638198D02*
X211771802Y-158001801D01*
X212067723Y-152367533D02*
X209267723Y-152367533D01*
X212155497Y-154509000D02*
X212110625Y-154509000D01*
X212167723Y-150467533D02*
X212167723Y-152267533D01*
X212238830Y-154509000D02*
X212204876Y-154509000D01*
X212408199Y-155461801D02*
X212408199Y-156098198D01*
X212408199Y-156098198D02*
X211771802Y-156098198D01*
X212408199Y-158001801D02*
X212408199Y-158638198D01*
X212408199Y-158638198D02*
X211771802Y-158638198D01*
X212667723Y-152267533D02*
X212667723Y-150467533D01*
X212690000Y-155180000D02*
X212690000Y-156380000D01*
X212690000Y-156380000D02*
X208950000Y-156380000D01*
X212690000Y-157720000D02*
X212690000Y-158920000D01*
X212690000Y-158920000D02*
X208950000Y-158920000D01*
X212767723Y-150367533D02*
X213417723Y-150367533D01*
X212767723Y-152367533D02*
X212667723Y-152267533D01*
X212967997Y-154509000D02*
X212778894Y-154509000D01*
X213260000Y-159590000D02*
X208380000Y-159590000D01*
X213348600Y-157150000D02*
X208280000Y-157150000D01*
X213360000Y-154610000D02*
X213360000Y-159490000D01*
X213361000Y-156591472D02*
X213361000Y-156402369D01*
X213417723Y-152367533D02*
X212767723Y-152367533D01*
X213517723Y-150467533D02*
X213517723Y-152267533D01*
X213567723Y-149617533D02*
X207767723Y-149617533D01*
X213667622Y-153022017D02*
X213667723Y-153017533D01*
X213667723Y-153017533D02*
X213667723Y-149717533D01*
X216180000Y-151529989D02*
X216180000Y-158430012D01*
X216190000Y-151283590D02*
X216190000Y-158676411D01*
X221190000Y-151290104D02*
X221190000Y-151780000D01*
X221190000Y-151529989D02*
X221194215Y-151529989D01*
X221190000Y-151780000D02*
X221190064Y-151783590D01*
X221190000Y-158180000D02*
X221190064Y-158176411D01*
X221190000Y-158430012D02*
X221194215Y-158430012D01*
X221190000Y-158669897D02*
X221190000Y-158180000D01*
X221190064Y-151783590D02*
X216180000Y-151783590D01*
X221190064Y-158176411D02*
X216180000Y-158176411D01*
X221190331Y-151288514D02*
X221190000Y-151290104D01*
X221190331Y-158671487D02*
X221190000Y-158669897D01*
X221195575Y-151283590D02*
X216190000Y-151283590D01*
X221195575Y-151283590D02*
X221198500Y-151283573D01*
X221195575Y-158676411D02*
X216190000Y-158676411D01*
X221195575Y-158676411D02*
X221198500Y-158676428D01*
X221198500Y-151283573D02*
X221190331Y-151288514D01*
X221198500Y-158676428D02*
X221190331Y-158671487D01*
X221211175Y-151841536D02*
X221211175Y-158118465D01*
X221290000Y-151520729D02*
X221290000Y-151265073D01*
X221290000Y-158439272D02*
X221290000Y-158694928D01*
X221354569Y-158080000D02*
X221354569Y-151880000D01*
X221489531Y-151107785D02*
X221652422Y-151292660D01*
X221489531Y-158852216D02*
X221652422Y-158667341D01*
X221524759Y-151405143D02*
X221840000Y-151127388D01*
X221524759Y-158554858D02*
X221840000Y-158832613D01*
X221635211Y-151880000D02*
X221290000Y-151880000D01*
X221635211Y-158080000D02*
X221290000Y-158080000D01*
X221677108Y-150942513D02*
X221360847Y-151221167D01*
X221677108Y-159017488D02*
X221360847Y-158738834D01*
X221696605Y-152130000D02*
X221696605Y-157830000D01*
X221696605Y-152130000D02*
X221840000Y-152130000D01*
X221696605Y-157830000D02*
X221840000Y-157830000D01*
X221840000Y-151127388D02*
X221677108Y-150942513D01*
X221840000Y-152130000D02*
X221840000Y-157830000D01*
X221840000Y-158832613D02*
X221677108Y-159017488D01*
X221915000Y-143505000D02*
X221915000Y-166255000D01*
X221915000Y-166255000D02*
X168765000Y-166255000D01*
D11*
X175174940Y-151331620D02*
X174666940Y-151331620D01*
X174666940Y-150823620D01*
X175174940Y-150823620D01*
X175174940Y-151331620D01*
G36*
X175174940Y-151331620D02*
G01*
X174666940Y-151331620D01*
X174666940Y-150823620D01*
X175174940Y-150823620D01*
X175174940Y-151331620D01*
G37*
X175174940Y-153871620D02*
X174666940Y-153871620D01*
X174666940Y-153363620D01*
X175174940Y-153363620D01*
X175174940Y-153871620D01*
G36*
X175174940Y-153871620D02*
G01*
X174666940Y-153871620D01*
X174666940Y-153363620D01*
X175174940Y-153363620D01*
X175174940Y-153871620D01*
G37*
X175174940Y-156411620D02*
X174666940Y-156411620D01*
X174666940Y-155903620D01*
X175174940Y-155903620D01*
X175174940Y-156411620D01*
G36*
X175174940Y-156411620D02*
G01*
X174666940Y-156411620D01*
X174666940Y-155903620D01*
X175174940Y-155903620D01*
X175174940Y-156411620D01*
G37*
X175174940Y-158951620D02*
X174666940Y-158951620D01*
X174666940Y-158443620D01*
X175174940Y-158443620D01*
X175174940Y-158951620D01*
G36*
X175174940Y-158951620D02*
G01*
X174666940Y-158951620D01*
X174666940Y-158443620D01*
X175174940Y-158443620D01*
X175174940Y-158951620D01*
G37*
D13*
X179817193Y-151087099D02*
G75*
G02*
X179916572Y-150987720I99997J-618D01*
G01*
X179916572Y-158987716D02*
G75*
G02*
X179817184Y-158888337I628J100016D01*
G01*
X180726149Y-151094188D02*
G75*
G02*
X180926149Y-151071800I148598J-422951D01*
G01*
X181126149Y-151680774D02*
G75*
G02*
X180726149Y-151280774I-1J399999D01*
G01*
X182208233Y-151071800D02*
G75*
G02*
X182408233Y-151094188I49376J-463439D01*
G01*
X182408233Y-151280774D02*
G75*
G02*
X182008233Y-151680774I-399999J-1D01*
G01*
X183217811Y-150987720D02*
G75*
G02*
X183317189Y-151087100I-620J-99998D01*
G01*
X183317190Y-158888337D02*
G75*
G02*
X183217810Y-158987690I-99990J637D01*
G01*
X184022412Y-151767950D02*
G75*
G02*
X188972412Y-151767950I2475000J0D01*
G01*
X184447412Y-151767950D02*
G75*
G02*
X188547412Y-151767950I2050000J0D01*
G01*
X188547412Y-158067950D02*
G75*
G02*
X184447412Y-158067950I-2050000J0D01*
G01*
X188972412Y-158067950D02*
G75*
G02*
X184022412Y-158067950I-2475000J0D01*
G01*
X194654681Y-154267843D02*
G75*
G02*
X194657442Y-153940423I161820J162357D01*
G01*
X194657443Y-153940423D02*
G75*
G02*
X194985393Y-153932243I167956J-155513D01*
G01*
X194751674Y-154174461D02*
G75*
G02*
X194758048Y-154030192I73655J69021D01*
G01*
X194758048Y-154030193D02*
G75*
G02*
X194901573Y-154025200I74128J-65489D01*
G01*
X194894030Y-154166175D02*
G75*
G02*
X194751674Y-154174461I-75298J66640D01*
G01*
X194901573Y-154025200D02*
G75*
G02*
X194894029Y-154166174I-72284J-66821D01*
G01*
X194984543Y-154266037D02*
G75*
G02*
X194654680Y-154267843I-165833J163776D01*
G01*
X195354776Y-154643706D02*
G75*
G02*
X195564485Y-154579327I163506J-158863D01*
G01*
X195371561Y-154984723D02*
G75*
G02*
X195354776Y-154643706I145194J178068D01*
G01*
X195456444Y-154732413D02*
G75*
G02*
X195616116Y-154739744I76290J-80890D01*
G01*
X195467705Y-154890492D02*
G75*
G02*
X195456443Y-154732413I65657J84118D01*
G01*
X195616116Y-154739743D02*
G75*
G02*
X195628546Y-154900265I-73027J-86397D01*
G01*
X195627271Y-154425603D02*
G75*
G02*
X195929619Y-154427727I150168J-144275D01*
G01*
X195628546Y-154900265D02*
G75*
G02*
X195467705Y-154890491I-75740J81915D01*
G01*
X195712579Y-154645830D02*
G75*
G02*
X195717891Y-154525359I58874J57757D01*
G01*
X195715128Y-155004058D02*
G75*
G02*
X195371562Y-154984722I-163511J156645D01*
G01*
X195717891Y-154525359D02*
G75*
G02*
X195836769Y-154525253I59487J-54047D01*
G01*
X195832732Y-154641687D02*
G75*
G02*
X195712579Y-154645831I-62060J55432D01*
G01*
X195836769Y-154525252D02*
G75*
G02*
X195832732Y-154641688I-56650J-56324D01*
G01*
X195929619Y-154427728D02*
G75*
G02*
X195934718Y-154730076I-138328J-153550D01*
G01*
X195930787Y-155353574D02*
G75*
G02*
X195849518Y-155118049I207303J203314D01*
G01*
X196295177Y-155348688D02*
G75*
G02*
X195930787Y-155353574I-184475J167591D01*
G01*
X196299745Y-154988229D02*
G75*
G02*
X196295178Y-155348689I-176645J-178021D01*
G01*
X196350207Y-155620014D02*
G75*
G02*
X196584030Y-155582517I141063J-131856D01*
G01*
X196362424Y-155975586D02*
G75*
G02*
X196350203Y-155620011I164636J183656D01*
G01*
X196390152Y-155444088D02*
G75*
G02*
X195835175Y-155448337I-279456J254874D01*
G01*
X196391214Y-154889323D02*
G75*
G02*
X196390151Y-155444087I-268400J-276869D01*
G01*
X196452406Y-155875193D02*
G75*
G02*
X196446351Y-155714245I73764J83363D01*
G01*
X196584033Y-155582513D02*
G75*
G02*
X196624186Y-155400421I162397J59663D01*
G01*
X196620472Y-155880080D02*
G75*
G02*
X196452410Y-155875191I-81532J88350D01*
G01*
X196624190Y-155400425D02*
G75*
G02*
X196911345Y-155409455I139155J-145151D01*
G01*
X196713322Y-155501667D02*
G75*
G02*
X196816797Y-155505279I50058J-49923D01*
G01*
X196715659Y-155975267D02*
G75*
G02*
X196362426Y-155975585I-176769J169327D01*
G01*
X196816796Y-155505279D02*
G75*
G02*
X196831259Y-155614923I-66296J-64521D01*
G01*
X196867895Y-156290682D02*
G75*
G02*
X196846267Y-156196147I65305J64682D01*
G01*
X197527727Y-153560098D02*
G75*
G02*
X197644480Y-153210688I513440J22649D01*
G01*
X197644480Y-153210688D02*
G75*
G02*
X197962658Y-153210794I159037J-156067D01*
G01*
X197732975Y-153312569D02*
G75*
G02*
X197872887Y-153311400I70498J-64281D01*
G01*
X197812014Y-153831850D02*
G75*
G02*
X198045839Y-153794349I141067J-131856D01*
G01*
X197824232Y-154187422D02*
G75*
G02*
X197812014Y-153831851I164638J183653D01*
G01*
X197914214Y-154087029D02*
G75*
G02*
X197908158Y-153926082I73758J83363D01*
G01*
X197962657Y-153210794D02*
G75*
G02*
X197946297Y-153575184I-179234J-174515D01*
G01*
X198045840Y-153794349D02*
G75*
G02*
X198085997Y-153612261I162393J59658D01*
G01*
X198082279Y-154091916D02*
G75*
G02*
X197914214Y-154087029I-81535J88348D01*
G01*
X198085997Y-153612260D02*
G75*
G02*
X198373154Y-153621290I139156J-145154D01*
G01*
X198175129Y-153713503D02*
G75*
G02*
X198278603Y-153717116I50057J-49925D01*
G01*
X198177466Y-154187103D02*
G75*
G02*
X197824231Y-154187421I-176770J169331D01*
G01*
X198278603Y-153717115D02*
G75*
G02*
X198293051Y-153826751I-66287J-64505D01*
G01*
X199179803Y-155542993D02*
G75*
G02*
X199171521Y-155232789I140097J158953D01*
G01*
X199261180Y-155333496D02*
G75*
G02*
X199422977Y-155312356I106180J-182924D01*
G01*
X199271485Y-155444300D02*
G75*
G02*
X199261180Y-155333497I50855J60610D01*
G01*
X199459841Y-155597174D02*
G75*
G02*
X199179802Y-155542993I-100928J229140D01*
G01*
X199507222Y-154924275D02*
G75*
G02*
X199738072Y-154986212I55598J-253955D01*
G01*
X199513278Y-155060576D02*
G75*
G02*
X199643948Y-155082461I45887J-127063D01*
G01*
X199643948Y-155082460D02*
G75*
G02*
X199652126Y-155160118I-34948J-42940D01*
G01*
X199738073Y-154986210D02*
G75*
G02*
X199742748Y-155259874I-131873J-139125D01*
G01*
X199742747Y-155259874D02*
G75*
G02*
X199422977Y-155312355I-211137J286044D01*
G01*
X207667723Y-149717533D02*
G75*
G02*
X207767723Y-149617533I99999J1D01*
G01*
X207767723Y-153117533D02*
G75*
G02*
X207667723Y-153017533I-1J99999D01*
G01*
X207817723Y-150467533D02*
G75*
G02*
X207917723Y-150367533I99999J1D01*
G01*
X207917723Y-152367533D02*
G75*
G02*
X207817723Y-152267533I-1J99999D01*
G01*
X208280000Y-154610000D02*
G75*
G02*
X208380000Y-154510000I99999J1D01*
G01*
X208380000Y-159589999D02*
G75*
G02*
X208280001Y-159490000I0J99999D01*
G01*
X208567723Y-150367533D02*
G75*
G02*
X208667723Y-150467533I1J-99999D01*
G01*
X208667723Y-152267533D02*
G75*
G02*
X208567723Y-152367533I-99999J-1D01*
G01*
X209167723Y-150467533D02*
G75*
G02*
X209267723Y-150367533I99999J1D01*
G01*
X209267723Y-152367533D02*
G75*
G02*
X209167723Y-152267533I-1J99999D01*
G01*
X212067723Y-150367533D02*
G75*
G02*
X212167723Y-150467533I1J-99999D01*
G01*
X212167723Y-152267533D02*
G75*
G02*
X212067723Y-152367533I-99999J-1D01*
G01*
X212667723Y-150467533D02*
G75*
G02*
X212767723Y-150367533I99999J1D01*
G01*
X213260000Y-154510000D02*
G75*
G02*
X213360000Y-154610000I1J-99999D01*
G01*
X213360000Y-159490000D02*
G75*
G02*
X213260000Y-159590000I-100000J0D01*
G01*
X213417723Y-150367533D02*
G75*
G02*
X213517723Y-150467533I1J-99999D01*
G01*
X213517723Y-152267533D02*
G75*
G02*
X213417723Y-152367533I-99999J-1D01*
G01*
X213567723Y-149617533D02*
G75*
G02*
X213667723Y-149717533I1J-99999D01*
G01*
X213667723Y-153017533D02*
G75*
G02*
X213567723Y-153117533I-99999J-1D01*
G01*
X221190064Y-158176411D02*
G75*
G02*
X221289999Y-158080000I99936J-3589D01*
G01*
X221194215Y-158430012D02*
G75*
G02*
X221524751Y-158554868I-15J-499988D01*
G01*
X221198500Y-158676428D02*
G75*
G02*
X221360856Y-158738824I-2900J-249972D01*
G01*
X221290000Y-151880001D02*
G75*
G02*
X221190062Y-151783590I0J100002D01*
G01*
X221360847Y-151221167D02*
G75*
G02*
X221198500Y-151283573I-165302J187656D01*
G01*
X221491817Y-151880001D02*
G75*
G02*
X221696606Y-152130000I-25093J-229432D01*
G01*
X221524759Y-151405143D02*
G75*
G02*
X221194215Y-151529989I-330507J375056D01*
G01*
X221635211Y-151880001D02*
G75*
G02*
X221839999Y-152130000I-25099J-229436D01*
G01*
X221696605Y-157830000D02*
G75*
G02*
X221491817Y-158079994I-229885J-20560D01*
G01*
X221840000Y-157830000D02*
G75*
G02*
X221635212Y-158079999I-229890J-20560D01*
G01*
X181993067Y-158039145D02*
G75*
G02*
X181141315Y-158039145I-425876J0D01*
G01*
X181141315Y-158039145D02*
G75*
G02*
X181993067Y-158039145I425876J0D01*
G01*
X191571424Y-155014498D02*
G75*
G02*
X191071424Y-155014498I-250000J0D01*
G01*
X191071424Y-155014498D02*
G75*
G02*
X191571424Y-155014498I250000J0D01*
G01*
%TD*%
M02*
