%TF.GenerationSoftware,KiCad,Pcbnew,9.0.2*%
%TF.CreationDate,2026-01-01T17:21:28+07:00*%
%TF.ProjectId,ControlMikon,436f6e74-726f-46c4-9d69-6b6f6e2e6b69,rev?*%
%TF.SameCoordinates,Original*%
%TF.FileFunction,Copper,L2,Bot*%
%TF.FilePolarity,Positive*%
%FSLAX46Y46*%
G04 Gerber Fmt 4.6, Leading zero omitted, Abs format (unit mm)*
G04 Created by KiCad (PCBNEW 9.0.2) date 2026-01-01 17:21:28*
%MOMM*%
%LPD*%
G01*
G04 APERTURE LIST*
G04 Aperture macros list*
%AMRoundRect*
0 Rectangle with rounded corners*
0 $1 Rounding radius*
0 $2 $3 $4 $5 $6 $7 $8 $9 X,Y pos of 4 corners*
0 Add a 4 corners polygon primitive as box body*
4,1,4,$2,$3,$4,$5,$6,$7,$8,$9,$2,$3,0*
0 Add four circle primitives for the rounded corners*
1,1,$1+$1,$2,$3*
1,1,$1+$1,$4,$5*
1,1,$1+$1,$6,$7*
1,1,$1+$1,$8,$9*
0 Add four rect primitives between the rounded corners*
20,1,$1+$1,$2,$3,$4,$5,0*
20,1,$1+$1,$4,$5,$6,$7,0*
20,1,$1+$1,$6,$7,$8,$9,0*
20,1,$1+$1,$8,$9,$2,$3,0*%
G04 Aperture macros list end*
%TA.AperFunction,ComponentPad*%
%ADD10C,6.400000*%
%TD*%
%TA.AperFunction,ComponentPad*%
%ADD11O,3.700000X2.700000*%
%TD*%
%TA.AperFunction,ComponentPad*%
%ADD12RoundRect,0.250001X-1.599999X1.099999X-1.599999X-1.099999X1.599999X-1.099999X1.599999X1.099999X0*%
%TD*%
%TA.AperFunction,ComponentPad*%
%ADD13RoundRect,0.250000X0.600000X0.725000X-0.600000X0.725000X-0.600000X-0.725000X0.600000X-0.725000X0*%
%TD*%
%TA.AperFunction,ComponentPad*%
%ADD14O,1.700000X1.950000*%
%TD*%
%TA.AperFunction,ComponentPad*%
%ADD15C,1.700000*%
%TD*%
%TA.AperFunction,ComponentPad*%
%ADD16R,1.700000X1.700000*%
%TD*%
%TA.AperFunction,ViaPad*%
%ADD17C,1.000000*%
%TD*%
%TA.AperFunction,Conductor*%
%ADD18C,0.800000*%
%TD*%
%TA.AperFunction,Conductor*%
%ADD19C,0.600000*%
%TD*%
G04 APERTURE END LIST*
D10*
%TO.P,H1,1*%
%TO.N,N/C*%
X242631658Y-127955542D03*
%TD*%
%TO.P,H2,1*%
%TO.N,N/C*%
X186557801Y-127955542D03*
%TD*%
%TO.P,H3,1*%
%TO.N,N/C*%
X242631658Y-180955542D03*
%TD*%
%TO.P,H4,1*%
%TO.N,N/C*%
X186557801Y-180955542D03*
%TD*%
D11*
%TO.P,J1,6,Pin_6*%
%TO.N,GND_Isolated*%
X231725000Y-174195000D03*
%TO.P,J1,5,Pin_5*%
X231725000Y-169995000D03*
%TO.P,J1,4,Pin_4*%
X231725000Y-165795000D03*
%TO.P,J1,3,Pin_3*%
%TO.N,Net-(J1-Pin_3)*%
X237225000Y-174195000D03*
%TO.P,J1,2,Pin_2*%
%TO.N,Net-(J1-Pin_2)*%
X237225000Y-169995000D03*
D12*
%TO.P,J1,1,Pin_1*%
%TO.N,5VDigital_Isolated*%
X237225000Y-165795000D03*
%TD*%
D11*
%TO.P,J6,8,Pin_8*%
%TO.N,Out*%
X231588942Y-147300000D03*
%TO.P,J6,7,Pin_7*%
%TO.N,GND_Isolated*%
X231588942Y-143100000D03*
%TO.P,J6,6,Pin_6*%
X231588942Y-138900000D03*
%TO.P,J6,5,Pin_5*%
%TO.N,3V3*%
X231588942Y-134700000D03*
%TO.P,J6,4,Pin_4*%
%TO.N,Net-(J6-Pin_4)*%
X237088942Y-147300000D03*
%TO.P,J6,3,Pin_3*%
%TO.N,Net-(J6-Pin_3)*%
X237088942Y-143100000D03*
%TO.P,J6,2,Pin_2*%
%TO.N,SDA*%
X237088942Y-138900000D03*
D12*
%TO.P,J6,1,Pin_1*%
%TO.N,SCL*%
X237088942Y-134700000D03*
%TD*%
D11*
%TO.P,J10,4,Pin_4*%
%TO.N,CAN_L_Out*%
X231700000Y-158600000D03*
%TO.P,J10,3,Pin_3*%
X231700000Y-154400000D03*
%TO.P,J10,2,Pin_2*%
%TO.N,CAN_H_Out*%
X237200000Y-158600000D03*
D12*
%TO.P,J10,1,Pin_1*%
X237200000Y-154400000D03*
%TD*%
D13*
%TO.P,J2,1,Pin_1*%
%TO.N,3V3*%
X218250000Y-171250000D03*
D14*
%TO.P,J2,2,Pin_2*%
%TO.N,Net-(J2-Pin_2)*%
X215750000Y-171250000D03*
%TO.P,J2,3,Pin_3*%
%TO.N,GND_Isolated*%
X213250000Y-171250000D03*
%TO.P,J2,4,Pin_4*%
%TO.N,Net-(J2-Pin_4)*%
X210750000Y-171250000D03*
%TD*%
D15*
%TO.P,U23,1,VBAT*%
%TO.N,5VDigital_Isolated*%
X171210000Y-162500000D03*
%TO.P,U23,2,PC13*%
%TO.N,unconnected-(U23-PC13-Pad2)*%
X173750000Y-162500000D03*
%TO.P,U23,3,PC14*%
%TO.N,unconnected-(U23-PC14-Pad3)*%
X176290000Y-162500000D03*
%TO.P,U23,4,PC15*%
%TO.N,unconnected-(U23-PC15-Pad4)*%
X178830000Y-162500000D03*
%TO.P,U23,8,VSSA*%
%TO.N,GND_Isolated*%
X173750000Y-147260000D03*
%TO.P,U23,9,VDDA*%
%TO.N,Net-(U23-VDDA)*%
X214390000Y-162500000D03*
%TO.P,U23,10,ADC1_IN0*%
%TO.N,VoltageSensor*%
X181370000Y-162500000D03*
%TO.P,U23,11,ADC1_IN1*%
%TO.N,CurrentSensor*%
X183910000Y-162500000D03*
%TO.P,U23,12,ADC1_IN2*%
%TO.N,BATTV_Out*%
X186450000Y-162500000D03*
%TO.P,U23,13,ADC1_IN3*%
%TO.N,CTRLV_Out*%
X188990000Y-162500000D03*
%TO.P,U23,14,ADC1_IN4*%
%TO.N,Aux1*%
X191530000Y-162500000D03*
%TO.P,U23,15,ADC1_IN5*%
%TO.N,Aux2*%
X194070000Y-162500000D03*
%TO.P,U23,16,ADC1_IN6*%
%TO.N,Out*%
X196610000Y-162500000D03*
%TO.P,U23,17,ADC1_IN7*%
%TO.N,Aux3*%
X199150000Y-162500000D03*
%TO.P,U23,18,ADC1_IN8*%
%TO.N,Out1*%
X201690000Y-162500000D03*
%TO.P,U23,19,PB1*%
%TO.N,FinishLV*%
X204230000Y-162500000D03*
%TO.P,U23,20,PB2*%
%TO.N,Ready*%
X206770000Y-162500000D03*
%TO.P,U23,22,PB11*%
%TO.N,unconnected-(U23-PB11-Pad22)*%
X211850000Y-162500000D03*
%TO.P,U23,23,VSS*%
%TO.N,GND_Isolated*%
X216930000Y-162500000D03*
%TO.P,U23,24,VDD*%
%TO.N,5VDigital_Isolated*%
X219470000Y-162500000D03*
D16*
%TO.P,U23,25,PB12*%
%TO.N,Failure_Mikon*%
X219470000Y-147260000D03*
D15*
%TO.P,U23,26,PB13*%
%TO.N,/PRECHARGE_FINISH_TRIG*%
X216930000Y-147260000D03*
%TO.P,U23,27,PB14*%
%TO.N,DIR*%
X214390000Y-147260000D03*
%TO.P,U23,28,PB15*%
%TO.N,GPO*%
X211850000Y-147260000D03*
%TO.P,U23,29,TIM1_CH1*%
%TO.N,HIN1_Mikon*%
X209310000Y-147260000D03*
%TO.P,U23,30,TIM1_CH2*%
%TO.N,LIN1_Mikon*%
X206770000Y-147260000D03*
%TO.P,U23,31,TIM1_CH3*%
%TO.N,HIN2_Mikon*%
X204230000Y-147260000D03*
%TO.P,U23,32,TIM1_CH4*%
%TO.N,LIN2_Mikon*%
X201690000Y-147260000D03*
%TO.P,U23,33,PA12*%
%TO.N,unconnected-(U23-PA12-Pad33)*%
X199150000Y-147260000D03*
%TO.P,U23,36,VDD*%
%TO.N,5VDigital_Isolated*%
X176290000Y-147260000D03*
%TO.P,U23,39,PB3*%
%TO.N,unconnected-(U23-PB3-Pad39)*%
X194070000Y-147260000D03*
%TO.P,U23,40,PB4*%
%TO.N,unconnected-(U23-PB4-Pad40)*%
X191530000Y-147260000D03*
%TO.P,U23,41,PB5*%
%TO.N,unconnected-(U23-PB5-Pad41)*%
X188990000Y-147260000D03*
%TO.P,U23,42,I2C1_SCL*%
%TO.N,SCL*%
X186450000Y-147260000D03*
%TO.P,U23,43,I2C1_SDA*%
%TO.N,SDA*%
X183910000Y-147260000D03*
%TO.P,U23,45,CAN_RX*%
%TO.N,CAN_Tx*%
X181370000Y-147260000D03*
%TO.P,U23,46,CAN_TX*%
%TO.N,CAN_Rx*%
X178830000Y-147260000D03*
%TO.P,U23,48,VDD*%
%TO.N,Net-(U23-VDDA)*%
X171210000Y-147260000D03*
%TD*%
D16*
%TO.P,J3,1,Pin_1*%
%TO.N,HIN1_Mikon*%
X199732801Y-127430542D03*
D15*
%TO.P,J3,2,Pin_2*%
%TO.N,GND_Isolated*%
X202272801Y-127430542D03*
%TO.P,J3,3,Pin_3*%
%TO.N,HIN2_Mikon*%
X204812801Y-127430542D03*
%TO.P,J3,4,Pin_4*%
%TO.N,LIN2_Mikon*%
X207352801Y-127430542D03*
%TO.P,J3,5,Pin_5*%
%TO.N,GND_Isolated*%
X209892801Y-127430542D03*
%TO.P,J3,6,Pin_6*%
%TO.N,LIN1_Mikon*%
X212432801Y-127430542D03*
%TD*%
D16*
%TO.P,J20,1,Pin_1*%
%TO.N,BATTV_Out*%
X192247801Y-158455542D03*
D15*
%TO.P,J20,2,Pin_2*%
%TO.N,CTRLV_Out*%
X194787801Y-158455542D03*
%TO.P,J20,3,Pin_3*%
%TO.N,Ready*%
X197327801Y-158455542D03*
%TO.P,J20,4,Pin_4*%
%TO.N,FinishLV*%
X199867801Y-158455542D03*
%TD*%
D16*
%TO.P,J18,1,Pin_1*%
%TO.N,/PRECHARGE_FINISH_TRIG*%
X189735381Y-150929775D03*
D15*
%TO.P,J18,2,Pin_2*%
%TO.N,12V_Isolated*%
X192275381Y-150929775D03*
%TO.P,J18,3,Pin_3*%
%TO.N,GND_Isolated*%
X194815381Y-150929775D03*
%TO.P,J18,4,Pin_4*%
%TO.N,3V3*%
X197355381Y-150929775D03*
%TO.P,J18,5,Pin_5*%
%TO.N,Aux2*%
X199895381Y-150929775D03*
%TO.P,J18,6,Pin_6*%
%TO.N,Aux1*%
X202435381Y-150929775D03*
%TD*%
D17*
%TO.N,GND_Isolated*%
X208500000Y-155000000D03*
X205000000Y-151250000D03*
%TO.N,12V_Isolated*%
X212875000Y-150352500D03*
%TO.N,5VDigital_Isolated*%
X197250000Y-174250000D03*
X227750000Y-163250000D03*
%TO.N,GND_Isolated*%
X213000000Y-143500000D03*
X204500000Y-158500000D03*
X171750000Y-182750000D03*
X174750000Y-179750000D03*
X180000000Y-179750000D03*
X177500000Y-182750000D03*
X171750000Y-179750000D03*
X218500000Y-156250000D03*
X203000000Y-138000000D03*
X177750000Y-143500000D03*
X192250000Y-129000000D03*
X177500000Y-179750000D03*
X193500000Y-182750000D03*
X188500000Y-160000000D03*
X188500000Y-156250000D03*
X180100558Y-143505296D03*
X195750000Y-129000000D03*
X195750000Y-165000000D03*
X174750000Y-182750000D03*
X180000000Y-182750000D03*
X205500000Y-138000000D03*
X227750000Y-156250000D03*
X186250000Y-138500000D03*
X193500000Y-179750000D03*
X196500000Y-156250000D03*
X180250000Y-138500000D03*
X194750000Y-143500000D03*
%TO.N,CAL_L*%
X176200000Y-131500000D03*
X185650000Y-133975000D03*
%TO.N,CAN_H*%
X174650000Y-131500000D03*
X185668900Y-135748539D03*
%TO.N,3V3*%
X209500000Y-138000000D03*
%TO.N,Aux1*%
X208750000Y-167250000D03*
%TO.N,Out*%
X241500000Y-153250000D03*
%TO.N,Net-(J2-Pin_4)*%
X179551000Y-169500000D03*
%TO.N,Net-(J2-Pin_2)*%
X185750000Y-167500000D03*
%TO.N,CAN_Tx*%
X173450000Y-139800000D03*
%TO.N,HIN1_Mikon*%
X199750000Y-144250000D03*
%TO.N,HIN2_Mikon*%
X204800000Y-132450000D03*
%TO.N,Net-(U23-VDDA)*%
X222000000Y-176500000D03*
%TO.N,Net-(J6-Pin_4)*%
X216693960Y-140000000D03*
%TO.N,Net-(J6-Pin_3)*%
X213078220Y-140000000D03*
%TO.N,GND_Isolated*%
X204500000Y-155000000D03*
%TD*%
D18*
%TO.N,12V_Isolated*%
X212001275Y-149478775D02*
X212875000Y-150352500D01*
X193726381Y-149478775D02*
X212001275Y-149478775D01*
X192275381Y-150929775D02*
X193726381Y-149478775D01*
D19*
%TO.N,5VDigital_Isolated*%
X225500000Y-174250000D02*
X227750000Y-172000000D01*
X227750000Y-172000000D02*
X227750000Y-163250000D01*
X197250000Y-174250000D02*
X225500000Y-174250000D01*
X171210000Y-168460000D02*
X177000000Y-174250000D01*
X171210000Y-162500000D02*
X171210000Y-168460000D01*
X177000000Y-174250000D02*
X197250000Y-174250000D01*
%TO.N,CAL_L*%
X185650000Y-133975000D02*
X185625000Y-134000000D01*
X178700000Y-134000000D02*
X176200000Y-131500000D01*
X185625000Y-134000000D02*
X178700000Y-134000000D01*
%TO.N,CAN_H*%
X185668900Y-135748539D02*
X185667439Y-135750000D01*
X177000000Y-135750000D02*
X174650000Y-133400000D01*
X174650000Y-133400000D02*
X174650000Y-131500000D01*
X185667439Y-135750000D02*
X177000000Y-135750000D01*
%TO.N,3V3*%
X229550000Y-134700000D02*
X231588942Y-134700000D01*
X226250000Y-138000000D02*
X229550000Y-134700000D01*
X209500000Y-138000000D02*
X226250000Y-138000000D01*
%TO.N,SDA*%
X240750000Y-137750000D02*
X240750000Y-133000000D01*
X191000000Y-126500000D02*
X191000000Y-137000000D01*
X237088942Y-138900000D02*
X239600000Y-138900000D01*
X193500000Y-124000000D02*
X191000000Y-126500000D01*
X191000000Y-137000000D02*
X183910000Y-144090000D01*
X231750000Y-124000000D02*
X193500000Y-124000000D01*
X183910000Y-144090000D02*
X183910000Y-147260000D01*
X240750000Y-133000000D02*
X231750000Y-124000000D01*
X239600000Y-138900000D02*
X240750000Y-137750000D01*
%TO.N,SCL*%
X237088942Y-133338942D02*
X229250000Y-125500000D01*
X237088942Y-134700000D02*
X237088942Y-133338942D01*
X186450000Y-145050000D02*
X186450000Y-147260000D01*
X195750000Y-125500000D02*
X193500000Y-127750000D01*
X229250000Y-125500000D02*
X195750000Y-125500000D01*
X193500000Y-127750000D02*
X193500000Y-138000000D01*
X193500000Y-138000000D02*
X186450000Y-145050000D01*
%TO.N,Aux1*%
X195000000Y-167250000D02*
X191530000Y-163780000D01*
X208750000Y-167250000D02*
X195000000Y-167250000D01*
X191530000Y-163780000D02*
X191530000Y-162500000D01*
%TO.N,Out*%
X221500000Y-165000000D02*
X224500000Y-162000000D01*
X196610000Y-163360000D02*
X198250000Y-165000000D01*
X198250000Y-165000000D02*
X221500000Y-165000000D01*
X239500000Y-162000000D02*
X241500000Y-160000000D01*
X241500000Y-160000000D02*
X241500000Y-153250000D01*
X224500000Y-162000000D02*
X239500000Y-162000000D01*
X196610000Y-162500000D02*
X196610000Y-163360000D01*
%TO.N,Net-(J2-Pin_4)*%
X210750000Y-171250000D02*
X210500000Y-171500000D01*
X180750000Y-171500000D02*
X179551000Y-170301000D01*
X179551000Y-170301000D02*
X179551000Y-169500000D01*
X210500000Y-171500000D02*
X180750000Y-171500000D01*
%TO.N,Net-(J2-Pin_2)*%
X214000000Y-169500000D02*
X215750000Y-171250000D01*
X187750000Y-169500000D02*
X214000000Y-169500000D01*
X215750000Y-171775000D02*
X215750000Y-171250000D01*
X185750000Y-167500000D02*
X187750000Y-169500000D01*
%TO.N,CAN_Tx*%
X179800000Y-139800000D02*
X181390000Y-141390000D01*
X181390000Y-141390000D02*
X181390000Y-147130000D01*
X173450000Y-139800000D02*
X179800000Y-139800000D01*
D18*
%TO.N,HIN1_Mikon*%
X199750000Y-144250000D02*
X199750000Y-127447741D01*
X199750000Y-127447741D02*
X199732801Y-127430542D01*
%TO.N,LIN2_Mikon*%
X207352801Y-127430542D02*
X201710000Y-133073343D01*
X201710000Y-133073343D02*
X201710000Y-147130000D01*
%TO.N,HIN2_Mikon*%
X204800000Y-132450000D02*
X204250000Y-133000000D01*
X204250000Y-133000000D02*
X204250000Y-147130000D01*
D19*
%TO.N,/PRECHARGE_FINISH_TRIG*%
X216950000Y-151800000D02*
X216950000Y-147130000D01*
X189735381Y-150929775D02*
X191805606Y-153000000D01*
X215750000Y-153000000D02*
X216950000Y-151800000D01*
X191805606Y-153000000D02*
X215750000Y-153000000D01*
D18*
%TO.N,LIN1_Mikon*%
X206790000Y-133073343D02*
X206790000Y-147130000D01*
X212432801Y-127430542D02*
X206790000Y-133073343D01*
D19*
%TO.N,Ready*%
X199283343Y-156500000D02*
X204750000Y-156500000D01*
X204750000Y-156500000D02*
X206770000Y-158520000D01*
X197327801Y-158455542D02*
X199283343Y-156500000D01*
X206770000Y-158520000D02*
X206770000Y-162500000D01*
%TO.N,FinishLV*%
X202205542Y-158455542D02*
X199867801Y-158455542D01*
X204230000Y-162500000D02*
X204230000Y-160480000D01*
X204230000Y-160480000D02*
X202205542Y-158455542D01*
%TO.N,Net-(U23-VDDA)*%
X174500000Y-176500000D02*
X168250000Y-170250000D01*
X169990000Y-147260000D02*
X171210000Y-147260000D01*
X222000000Y-176500000D02*
X174500000Y-176500000D01*
X168250000Y-149000000D02*
X169990000Y-147260000D01*
X168250000Y-170250000D02*
X168250000Y-149000000D01*
%TO.N,Net-(J6-Pin_4)*%
X222000000Y-142500000D02*
X229750000Y-150250000D01*
X237225000Y-149275000D02*
X237225000Y-147855000D01*
X236250000Y-150250000D02*
X237225000Y-149275000D01*
X229750000Y-150250000D02*
X236250000Y-150250000D01*
X219193960Y-142500000D02*
X222000000Y-142500000D01*
X216693960Y-140000000D02*
X219193960Y-142500000D01*
%TO.N,Net-(J6-Pin_3)*%
X241000000Y-150250000D02*
X239000000Y-152250000D01*
X237225000Y-143655000D02*
X239405000Y-143655000D01*
X228750000Y-152250000D02*
X221000000Y-144500000D01*
X241000000Y-145250000D02*
X241000000Y-150250000D01*
X239000000Y-152250000D02*
X228750000Y-152250000D01*
X217578220Y-144500000D02*
X213078220Y-140000000D01*
X221000000Y-144500000D02*
X217578220Y-144500000D01*
X239405000Y-143655000D02*
X241000000Y-145250000D01*
%TD*%
%TA.AperFunction,Conductor*%
%TO.N,GND_Isolated*%
G36*
X226735621Y-162820185D02*
G01*
X226781376Y-162872989D01*
X226791320Y-162942147D01*
X226789089Y-162952181D01*
X226789137Y-162952191D01*
X226749500Y-163151456D01*
X226749500Y-163151459D01*
X226749500Y-163348541D01*
X226749500Y-163348543D01*
X226749499Y-163348543D01*
X226787947Y-163541829D01*
X226787950Y-163541839D01*
X226863364Y-163723907D01*
X226863371Y-163723919D01*
X226928602Y-163821543D01*
X226949480Y-163888220D01*
X226949500Y-163890434D01*
X226949500Y-171617060D01*
X226929815Y-171684099D01*
X226913181Y-171704741D01*
X225204741Y-173413181D01*
X225143418Y-173446666D01*
X225117060Y-173449500D01*
X197890435Y-173449500D01*
X197823396Y-173429815D01*
X197821544Y-173428602D01*
X197723911Y-173363366D01*
X197541839Y-173287950D01*
X197541829Y-173287947D01*
X197348543Y-173249500D01*
X197348541Y-173249500D01*
X197151459Y-173249500D01*
X197151457Y-173249500D01*
X196958170Y-173287947D01*
X196958160Y-173287950D01*
X196776088Y-173363366D01*
X196678456Y-173428602D01*
X196611778Y-173449480D01*
X196609565Y-173449500D01*
X177382940Y-173449500D01*
X177315901Y-173429815D01*
X177295259Y-173413181D01*
X173480621Y-169598543D01*
X178550499Y-169598543D01*
X178588947Y-169791829D01*
X178588950Y-169791839D01*
X178664364Y-169973907D01*
X178664371Y-169973919D01*
X178729602Y-170071543D01*
X178750480Y-170138220D01*
X178750500Y-170140434D01*
X178750500Y-170379846D01*
X178781261Y-170534489D01*
X178781264Y-170534501D01*
X178841602Y-170680172D01*
X178841609Y-170680185D01*
X178929210Y-170811288D01*
X178929213Y-170811292D01*
X180128211Y-172010289D01*
X180191663Y-172073741D01*
X180239712Y-172121790D01*
X180370814Y-172209390D01*
X180370827Y-172209397D01*
X180479618Y-172254459D01*
X180516503Y-172269737D01*
X180612731Y-172288878D01*
X180671153Y-172300499D01*
X180671156Y-172300500D01*
X180671158Y-172300500D01*
X209714242Y-172300500D01*
X209781281Y-172320185D01*
X209801923Y-172336819D01*
X209870213Y-172405109D01*
X210042179Y-172530048D01*
X210042181Y-172530049D01*
X210042184Y-172530051D01*
X210231588Y-172626557D01*
X210433757Y-172692246D01*
X210643713Y-172725500D01*
X210643714Y-172725500D01*
X210856286Y-172725500D01*
X210856287Y-172725500D01*
X211066243Y-172692246D01*
X211268412Y-172626557D01*
X211457816Y-172530051D01*
X211534342Y-172474452D01*
X211629786Y-172405109D01*
X211629788Y-172405106D01*
X211629792Y-172405104D01*
X211780104Y-172254792D01*
X211899991Y-172089779D01*
X211955320Y-172047115D01*
X212024933Y-172041136D01*
X212086729Y-172073741D01*
X212100627Y-172089781D01*
X212220272Y-172254459D01*
X212220276Y-172254464D01*
X212370535Y-172404723D01*
X212370540Y-172404727D01*
X212542442Y-172529620D01*
X212731782Y-172626095D01*
X212933871Y-172691757D01*
X213000000Y-172702231D01*
X213000000Y-171654145D01*
X213066657Y-171692630D01*
X213187465Y-171725000D01*
X213312535Y-171725000D01*
X213433343Y-171692630D01*
X213500000Y-171654145D01*
X213500000Y-172702230D01*
X213566126Y-172691757D01*
X213566129Y-172691757D01*
X213768217Y-172626095D01*
X213957557Y-172529620D01*
X214129459Y-172404727D01*
X214129464Y-172404723D01*
X214279721Y-172254466D01*
X214399371Y-172089781D01*
X214454701Y-172047115D01*
X214524314Y-172041136D01*
X214586110Y-172073741D01*
X214600008Y-172089781D01*
X214719890Y-172254785D01*
X214719894Y-172254790D01*
X214870213Y-172405109D01*
X215042179Y-172530048D01*
X215042181Y-172530049D01*
X215042184Y-172530051D01*
X215231588Y-172626557D01*
X215433757Y-172692246D01*
X215643713Y-172725500D01*
X215643714Y-172725500D01*
X215856286Y-172725500D01*
X215856287Y-172725500D01*
X216066243Y-172692246D01*
X216268412Y-172626557D01*
X216457816Y-172530051D01*
X216576729Y-172443656D01*
X216629784Y-172405110D01*
X216629784Y-172405109D01*
X216629792Y-172405104D01*
X216768604Y-172266291D01*
X216829923Y-172232809D01*
X216899615Y-172237793D01*
X216955549Y-172279664D01*
X216961821Y-172288878D01*
X216965185Y-172294333D01*
X216965186Y-172294334D01*
X217057288Y-172443656D01*
X217181344Y-172567712D01*
X217330666Y-172659814D01*
X217497203Y-172714999D01*
X217599991Y-172725500D01*
X218900008Y-172725499D01*
X219002797Y-172714999D01*
X219169334Y-172659814D01*
X219318656Y-172567712D01*
X219442712Y-172443656D01*
X219534814Y-172294334D01*
X219589999Y-172127797D01*
X219600500Y-172025009D01*
X219600499Y-170474992D01*
X219589999Y-170372203D01*
X219534814Y-170205666D01*
X219442712Y-170056344D01*
X219318656Y-169932288D01*
X219169334Y-169840186D01*
X219002797Y-169785001D01*
X219002795Y-169785000D01*
X218900010Y-169774500D01*
X217599998Y-169774500D01*
X217599981Y-169774501D01*
X217497203Y-169785000D01*
X217497200Y-169785001D01*
X217330668Y-169840185D01*
X217330663Y-169840187D01*
X217181342Y-169932289D01*
X217057289Y-170056342D01*
X216961821Y-170211121D01*
X216909873Y-170257845D01*
X216840910Y-170269068D01*
X216776828Y-170241224D01*
X216768601Y-170233705D01*
X216629786Y-170094890D01*
X216457820Y-169969951D01*
X216268414Y-169873444D01*
X216268413Y-169873443D01*
X216268412Y-169873443D01*
X216066243Y-169807754D01*
X216066241Y-169807753D01*
X216066240Y-169807753D01*
X215904957Y-169782208D01*
X215856287Y-169774500D01*
X215643713Y-169774500D01*
X215643708Y-169774500D01*
X215501404Y-169797039D01*
X215432111Y-169788085D01*
X215394325Y-169762247D01*
X214510292Y-168878213D01*
X214510288Y-168878210D01*
X214379185Y-168790609D01*
X214379172Y-168790602D01*
X214233501Y-168730264D01*
X214233489Y-168730261D01*
X214078845Y-168699500D01*
X214078842Y-168699500D01*
X188132940Y-168699500D01*
X188065901Y-168679815D01*
X188045259Y-168663181D01*
X186768893Y-167386815D01*
X186735408Y-167325492D01*
X186734986Y-167323468D01*
X186712051Y-167208165D01*
X186688562Y-167151456D01*
X186636635Y-167026092D01*
X186636628Y-167026079D01*
X186527139Y-166862218D01*
X186527136Y-166862214D01*
X186387785Y-166722863D01*
X186387781Y-166722860D01*
X186223920Y-166613371D01*
X186223907Y-166613364D01*
X186041839Y-166537950D01*
X186041829Y-166537947D01*
X185848543Y-166499500D01*
X185848541Y-166499500D01*
X185651459Y-166499500D01*
X185651457Y-166499500D01*
X185458170Y-166537947D01*
X185458160Y-166537950D01*
X185276092Y-166613364D01*
X185276079Y-166613371D01*
X185112218Y-166722860D01*
X185112214Y-166722863D01*
X184972863Y-166862214D01*
X184972860Y-166862218D01*
X184863371Y-167026079D01*
X184863364Y-167026092D01*
X184787950Y-167208160D01*
X184787947Y-167208170D01*
X184749500Y-167401456D01*
X184749500Y-167401459D01*
X184749500Y-167598541D01*
X184749500Y-167598543D01*
X184749499Y-167598543D01*
X184787947Y-167791829D01*
X184787950Y-167791839D01*
X184863364Y-167973907D01*
X184863371Y-167973920D01*
X184972860Y-168137781D01*
X184972863Y-168137785D01*
X185112214Y-168277136D01*
X185112218Y-168277139D01*
X185276079Y-168386628D01*
X185276092Y-168386635D01*
X185361250Y-168421908D01*
X185458165Y-168462051D01*
X185573328Y-168484958D01*
X185635235Y-168517341D01*
X185636815Y-168518893D01*
X187128211Y-170010289D01*
X187189465Y-170071543D01*
X187239712Y-170121790D01*
X187370814Y-170209390D01*
X187370827Y-170209397D01*
X187456782Y-170245000D01*
X187516503Y-170269737D01*
X187671153Y-170300499D01*
X187671156Y-170300500D01*
X187671158Y-170300500D01*
X187828842Y-170300500D01*
X209452053Y-170300500D01*
X209453700Y-170300983D01*
X209455361Y-170300544D01*
X209487113Y-170310794D01*
X209519092Y-170320185D01*
X209520215Y-170321481D01*
X209521852Y-170322010D01*
X209543034Y-170347816D01*
X209564847Y-170372989D01*
X209565091Y-170374687D01*
X209566182Y-170376016D01*
X209570046Y-170409147D01*
X209574791Y-170442147D01*
X209574140Y-170444256D01*
X209574276Y-170445415D01*
X209567354Y-170466278D01*
X209563433Y-170479002D01*
X209562991Y-170479903D01*
X209498443Y-170606588D01*
X209493389Y-170622142D01*
X209489543Y-170630002D01*
X209471633Y-170649589D01*
X209456655Y-170671494D01*
X209448426Y-170674971D01*
X209442396Y-170681567D01*
X209416739Y-170688362D01*
X209392297Y-170698692D01*
X209378163Y-170699500D01*
X181132940Y-170699500D01*
X181065901Y-170679815D01*
X181045259Y-170663181D01*
X180472307Y-170090229D01*
X180438822Y-170028906D01*
X180443806Y-169959214D01*
X180445427Y-169955096D01*
X180493023Y-169840187D01*
X180513051Y-169791835D01*
X180551500Y-169598541D01*
X180551500Y-169401459D01*
X180551500Y-169401456D01*
X180513052Y-169208170D01*
X180513051Y-169208169D01*
X180513051Y-169208165D01*
X180513049Y-169208160D01*
X180437635Y-169026092D01*
X180437628Y-169026079D01*
X180328139Y-168862218D01*
X180328136Y-168862214D01*
X180188785Y-168722863D01*
X180188781Y-168722860D01*
X180024920Y-168613371D01*
X180024907Y-168613364D01*
X179842839Y-168537950D01*
X179842829Y-168537947D01*
X179649543Y-168499500D01*
X179649541Y-168499500D01*
X179452459Y-168499500D01*
X179452457Y-168499500D01*
X179259170Y-168537947D01*
X179259160Y-168537950D01*
X179077092Y-168613364D01*
X179077079Y-168613371D01*
X178913218Y-168722860D01*
X178913214Y-168722863D01*
X178773863Y-168862214D01*
X178773860Y-168862218D01*
X178664371Y-169026079D01*
X178664364Y-169026092D01*
X178588950Y-169208160D01*
X178588947Y-169208170D01*
X178550500Y-169401456D01*
X178550500Y-169401459D01*
X178550500Y-169598541D01*
X178550500Y-169598543D01*
X178550499Y-169598543D01*
X173480621Y-169598543D01*
X172046819Y-168164741D01*
X172013334Y-168103418D01*
X172010500Y-168077060D01*
X172010500Y-163650893D01*
X172030185Y-163583854D01*
X172061614Y-163550576D01*
X172089792Y-163530104D01*
X172240104Y-163379792D01*
X172240106Y-163379788D01*
X172240109Y-163379786D01*
X172365048Y-163207820D01*
X172365047Y-163207820D01*
X172365051Y-163207816D01*
X172369514Y-163199054D01*
X172417488Y-163148259D01*
X172485308Y-163131463D01*
X172551444Y-163153999D01*
X172590486Y-163199056D01*
X172594951Y-163207820D01*
X172719890Y-163379786D01*
X172870213Y-163530109D01*
X173042179Y-163655048D01*
X173042181Y-163655049D01*
X173042184Y-163655051D01*
X173231588Y-163751557D01*
X173433757Y-163817246D01*
X173643713Y-163850500D01*
X173643714Y-163850500D01*
X173856286Y-163850500D01*
X173856287Y-163850500D01*
X174066243Y-163817246D01*
X174268412Y-163751557D01*
X174457816Y-163655051D01*
X174509922Y-163617194D01*
X174629786Y-163530109D01*
X174629788Y-163530106D01*
X174629792Y-163530104D01*
X174780104Y-163379792D01*
X174780106Y-163379788D01*
X174780109Y-163379786D01*
X174905048Y-163207820D01*
X174905047Y-163207820D01*
X174905051Y-163207816D01*
X174909514Y-163199054D01*
X174957488Y-163148259D01*
X175025308Y-163131463D01*
X175091444Y-163153999D01*
X175130486Y-163199056D01*
X175134951Y-163207820D01*
X175259890Y-163379786D01*
X175410213Y-163530109D01*
X175582179Y-163655048D01*
X175582181Y-163655049D01*
X175582184Y-163655051D01*
X175771588Y-163751557D01*
X175973757Y-163817246D01*
X176183713Y-163850500D01*
X176183714Y-163850500D01*
X176396286Y-163850500D01*
X176396287Y-163850500D01*
X176606243Y-163817246D01*
X176808412Y-163751557D01*
X176997816Y-163655051D01*
X177049922Y-163617194D01*
X177169786Y-163530109D01*
X177169788Y-163530106D01*
X177169792Y-163530104D01*
X177320104Y-163379792D01*
X177320106Y-163379788D01*
X177320109Y-163379786D01*
X177445048Y-163207820D01*
X177445047Y-163207820D01*
X177445051Y-163207816D01*
X177449514Y-163199054D01*
X177497488Y-163148259D01*
X177565308Y-163131463D01*
X177631444Y-163153999D01*
X177670486Y-163199056D01*
X177674951Y-163207820D01*
X177799890Y-163379786D01*
X177950213Y-163530109D01*
X178122179Y-163655048D01*
X178122181Y-163655049D01*
X178122184Y-163655051D01*
X178311588Y-163751557D01*
X178513757Y-163817246D01*
X178723713Y-163850500D01*
X178723714Y-163850500D01*
X178936286Y-163850500D01*
X178936287Y-163850500D01*
X179146243Y-163817246D01*
X179348412Y-163751557D01*
X179537816Y-163655051D01*
X179589922Y-163617194D01*
X179709786Y-163530109D01*
X179709788Y-163530106D01*
X179709792Y-163530104D01*
X179860104Y-163379792D01*
X179860106Y-163379788D01*
X179860109Y-163379786D01*
X179985048Y-163207820D01*
X179985047Y-163207820D01*
X179985051Y-163207816D01*
X179989514Y-163199054D01*
X180037488Y-163148259D01*
X180105308Y-163131463D01*
X180171444Y-163153999D01*
X180210486Y-163199056D01*
X180214951Y-163207820D01*
X180339890Y-163379786D01*
X180490213Y-163530109D01*
X180662179Y-163655048D01*
X180662181Y-163655049D01*
X180662184Y-163655051D01*
X180851588Y-163751557D01*
X181053757Y-163817246D01*
X181263713Y-163850500D01*
X181263714Y-163850500D01*
X181476286Y-163850500D01*
X181476287Y-163850500D01*
X181686243Y-163817246D01*
X181888412Y-163751557D01*
X182077816Y-163655051D01*
X182129922Y-163617194D01*
X182249786Y-163530109D01*
X182249788Y-163530106D01*
X182249792Y-163530104D01*
X182400104Y-163379792D01*
X182400106Y-163379788D01*
X182400109Y-163379786D01*
X182525048Y-163207820D01*
X182525047Y-163207820D01*
X182525051Y-163207816D01*
X182529514Y-163199054D01*
X182577488Y-163148259D01*
X182645308Y-163131463D01*
X182711444Y-163153999D01*
X182750486Y-163199056D01*
X182754951Y-163207820D01*
X182879890Y-163379786D01*
X183030213Y-163530109D01*
X183202179Y-163655048D01*
X183202181Y-163655049D01*
X183202184Y-163655051D01*
X183391588Y-163751557D01*
X183593757Y-163817246D01*
X183803713Y-163850500D01*
X183803714Y-163850500D01*
X184016286Y-163850500D01*
X184016287Y-163850500D01*
X184226243Y-163817246D01*
X184428412Y-163751557D01*
X184617816Y-163655051D01*
X184669922Y-163617194D01*
X184789786Y-163530109D01*
X184789788Y-163530106D01*
X184789792Y-163530104D01*
X184940104Y-163379792D01*
X184940106Y-163379788D01*
X184940109Y-163379786D01*
X185065048Y-163207820D01*
X185065047Y-163207820D01*
X185065051Y-163207816D01*
X185069514Y-163199054D01*
X185117488Y-163148259D01*
X185185308Y-163131463D01*
X185251444Y-163153999D01*
X185290486Y-163199056D01*
X185294951Y-163207820D01*
X185419890Y-163379786D01*
X185570213Y-163530109D01*
X185742179Y-163655048D01*
X185742181Y-163655049D01*
X185742184Y-163655051D01*
X185931588Y-163751557D01*
X186133757Y-163817246D01*
X186343713Y-163850500D01*
X186343714Y-163850500D01*
X186556286Y-163850500D01*
X186556287Y-163850500D01*
X186766243Y-163817246D01*
X186968412Y-163751557D01*
X187157816Y-163655051D01*
X187209922Y-163617194D01*
X187329786Y-163530109D01*
X187329788Y-163530106D01*
X187329792Y-163530104D01*
X187480104Y-163379792D01*
X187480106Y-163379788D01*
X187480109Y-163379786D01*
X187605048Y-163207820D01*
X187605047Y-163207820D01*
X187605051Y-163207816D01*
X187609514Y-163199054D01*
X187657488Y-163148259D01*
X187725308Y-163131463D01*
X187791444Y-163153999D01*
X187830486Y-163199056D01*
X187834951Y-163207820D01*
X187959890Y-163379786D01*
X188110213Y-163530109D01*
X188282179Y-163655048D01*
X188282181Y-163655049D01*
X188282184Y-163655051D01*
X188471588Y-163751557D01*
X188673757Y-163817246D01*
X188883713Y-163850500D01*
X188883714Y-163850500D01*
X189096286Y-163850500D01*
X189096287Y-163850500D01*
X189306243Y-163817246D01*
X189508412Y-163751557D01*
X189697816Y-163655051D01*
X189749922Y-163617194D01*
X189869786Y-163530109D01*
X189869788Y-163530106D01*
X189869792Y-163530104D01*
X190020104Y-163379792D01*
X190020106Y-163379788D01*
X190020109Y-163379786D01*
X190145048Y-163207820D01*
X190145047Y-163207820D01*
X190145051Y-163207816D01*
X190149514Y-163199054D01*
X190197488Y-163148259D01*
X190265308Y-163131463D01*
X190331444Y-163153999D01*
X190370486Y-163199056D01*
X190374951Y-163207820D01*
X190499890Y-163379786D01*
X190499896Y-163379792D01*
X190650208Y-163530104D01*
X190678384Y-163550575D01*
X190721050Y-163605902D01*
X190729500Y-163650893D01*
X190729500Y-163858846D01*
X190760261Y-164013489D01*
X190760264Y-164013501D01*
X190820602Y-164159172D01*
X190820609Y-164159185D01*
X190908210Y-164290288D01*
X190908213Y-164290292D01*
X194378211Y-167760289D01*
X194489711Y-167871789D01*
X194489712Y-167871790D01*
X194620814Y-167959390D01*
X194620827Y-167959397D01*
X194766498Y-168019735D01*
X194766503Y-168019737D01*
X194921153Y-168050499D01*
X194921156Y-168050500D01*
X194921158Y-168050500D01*
X208109565Y-168050500D01*
X208176604Y-168070185D01*
X208178456Y-168071398D01*
X208276086Y-168136632D01*
X208276087Y-168136632D01*
X208276088Y-168136633D01*
X208372706Y-168176653D01*
X208458165Y-168212051D01*
X208458169Y-168212051D01*
X208458170Y-168212052D01*
X208651456Y-168250500D01*
X208651459Y-168250500D01*
X208848543Y-168250500D01*
X208978582Y-168224632D01*
X209041835Y-168212051D01*
X209204919Y-168144500D01*
X209223907Y-168136635D01*
X209223907Y-168136634D01*
X209223914Y-168136632D01*
X209387782Y-168027139D01*
X209527139Y-167887782D01*
X209636632Y-167723914D01*
X209712051Y-167541835D01*
X209739974Y-167401459D01*
X209750500Y-167348543D01*
X209750500Y-167151456D01*
X209712052Y-166958170D01*
X209712051Y-166958169D01*
X209712051Y-166958165D01*
X209672307Y-166862214D01*
X209636635Y-166776092D01*
X209636628Y-166776079D01*
X209527139Y-166612218D01*
X209527136Y-166612214D01*
X209387785Y-166472863D01*
X209387781Y-166472860D01*
X209223920Y-166363371D01*
X209223907Y-166363364D01*
X209041839Y-166287950D01*
X209041829Y-166287947D01*
X208848543Y-166249500D01*
X208848541Y-166249500D01*
X208651459Y-166249500D01*
X208651457Y-166249500D01*
X208458170Y-166287947D01*
X208458160Y-166287950D01*
X208276088Y-166363366D01*
X208178456Y-166428602D01*
X208111778Y-166449480D01*
X208109565Y-166449500D01*
X195382940Y-166449500D01*
X195315901Y-166429815D01*
X195295259Y-166413181D01*
X192498668Y-163616590D01*
X192465183Y-163555267D01*
X192470167Y-163485575D01*
X192498668Y-163441228D01*
X192560104Y-163379792D01*
X192560106Y-163379788D01*
X192560109Y-163379786D01*
X192685048Y-163207820D01*
X192685047Y-163207820D01*
X192685051Y-163207816D01*
X192689514Y-163199054D01*
X192737488Y-163148259D01*
X192805308Y-163131463D01*
X192871444Y-163153999D01*
X192910486Y-163199056D01*
X192914951Y-163207820D01*
X193039890Y-163379786D01*
X193190213Y-163530109D01*
X193362179Y-163655048D01*
X193362181Y-163655049D01*
X193362184Y-163655051D01*
X193551588Y-163751557D01*
X193753757Y-163817246D01*
X193963713Y-163850500D01*
X193963714Y-163850500D01*
X194176286Y-163850500D01*
X194176287Y-163850500D01*
X194386243Y-163817246D01*
X194588412Y-163751557D01*
X194777816Y-163655051D01*
X194829922Y-163617194D01*
X194949786Y-163530109D01*
X194949788Y-163530106D01*
X194949792Y-163530104D01*
X195100104Y-163379792D01*
X195100106Y-163379788D01*
X195100109Y-163379786D01*
X195225048Y-163207820D01*
X195225047Y-163207820D01*
X195225051Y-163207816D01*
X195229514Y-163199054D01*
X195277488Y-163148259D01*
X195345308Y-163131463D01*
X195411444Y-163153999D01*
X195450486Y-163199056D01*
X195454951Y-163207820D01*
X195579890Y-163379786D01*
X195579896Y-163379792D01*
X195730208Y-163530104D01*
X195809499Y-163587712D01*
X195821784Y-163596637D01*
X195863460Y-163649502D01*
X195900606Y-163739179D01*
X195900609Y-163739185D01*
X195988210Y-163870288D01*
X195988213Y-163870292D01*
X197628211Y-165510289D01*
X197739708Y-165621786D01*
X197739712Y-165621790D01*
X197870814Y-165709390D01*
X197870827Y-165709397D01*
X198016498Y-165769735D01*
X198016503Y-165769737D01*
X198016507Y-165769737D01*
X198016508Y-165769738D01*
X198171154Y-165800500D01*
X198171157Y-165800500D01*
X221578844Y-165800500D01*
X221578845Y-165800499D01*
X221733497Y-165769737D01*
X221879179Y-165709394D01*
X222010289Y-165621789D01*
X224795259Y-162836819D01*
X224856582Y-162803334D01*
X224882940Y-162800500D01*
X226668582Y-162800500D01*
X226735621Y-162820185D01*
G37*
%TD.AperFunction*%
%TA.AperFunction,Conductor*%
G36*
X204434099Y-157320185D02*
G01*
X204454741Y-157336819D01*
X205933181Y-158815259D01*
X205966666Y-158876582D01*
X205969500Y-158902940D01*
X205969500Y-161349106D01*
X205949815Y-161416145D01*
X205918387Y-161449422D01*
X205890208Y-161469896D01*
X205890206Y-161469898D01*
X205890205Y-161469898D01*
X205739890Y-161620213D01*
X205614949Y-161792182D01*
X205610484Y-161800946D01*
X205562509Y-161851742D01*
X205494688Y-161868536D01*
X205428553Y-161845998D01*
X205389516Y-161800946D01*
X205385050Y-161792182D01*
X205260109Y-161620213D01*
X205109794Y-161469898D01*
X205109792Y-161469896D01*
X205081613Y-161449422D01*
X205038949Y-161394094D01*
X205030500Y-161349106D01*
X205030500Y-160401155D01*
X205030499Y-160401153D01*
X205003063Y-160263224D01*
X204999737Y-160246503D01*
X204999735Y-160246498D01*
X204939397Y-160100827D01*
X204939390Y-160100814D01*
X204851790Y-159969712D01*
X204851789Y-159969711D01*
X204740289Y-159858211D01*
X203733656Y-158851578D01*
X202715834Y-157833755D01*
X202715830Y-157833752D01*
X202584727Y-157746151D01*
X202584714Y-157746144D01*
X202439043Y-157685806D01*
X202439031Y-157685803D01*
X202284387Y-157655042D01*
X202284384Y-157655042D01*
X201018695Y-157655042D01*
X200986481Y-157645582D01*
X200954062Y-157636865D01*
X200952788Y-157635689D01*
X200951656Y-157635357D01*
X200926866Y-157614369D01*
X200922337Y-157609378D01*
X200897905Y-157575750D01*
X200832207Y-157510052D01*
X200830188Y-157507827D01*
X200816206Y-157478979D01*
X200800851Y-157450858D01*
X200801072Y-157447754D01*
X200799715Y-157444953D01*
X200803548Y-157413133D01*
X200805835Y-157381166D01*
X200807700Y-157378673D01*
X200808073Y-157375585D01*
X200828495Y-157350895D01*
X200847707Y-157325233D01*
X200850623Y-157324145D01*
X200852607Y-157321747D01*
X200883138Y-157312017D01*
X200913171Y-157300816D01*
X200918936Y-157300610D01*
X200919178Y-157300533D01*
X200919402Y-157300593D01*
X200922017Y-157300500D01*
X204367060Y-157300500D01*
X204434099Y-157320185D01*
G37*
%TD.AperFunction*%
%TA.AperFunction,Conductor*%
G36*
X249163446Y-123246525D02*
G01*
X249626860Y-123264733D01*
X249636530Y-123265494D01*
X250094690Y-123319721D01*
X250104294Y-123321242D01*
X250556773Y-123411246D01*
X250566233Y-123413517D01*
X251010242Y-123538741D01*
X251019502Y-123541749D01*
X251452331Y-123701428D01*
X251461326Y-123705154D01*
X251880291Y-123898299D01*
X251888962Y-123902718D01*
X252291473Y-124128136D01*
X252299757Y-124133211D01*
X252641572Y-124361606D01*
X252683356Y-124389525D01*
X252691233Y-124395248D01*
X253053527Y-124680859D01*
X253060930Y-124687182D01*
X253183517Y-124800500D01*
X253399702Y-125000340D01*
X253406574Y-125007212D01*
X253719732Y-125345986D01*
X253726050Y-125353383D01*
X253815961Y-125467435D01*
X254011670Y-125715692D01*
X254017392Y-125723568D01*
X254034046Y-125748492D01*
X254273692Y-126107151D01*
X254278771Y-126115437D01*
X254497328Y-126505703D01*
X254504195Y-126517964D01*
X254508614Y-126526637D01*
X254599135Y-126722994D01*
X254701756Y-126945597D01*
X254705482Y-126954593D01*
X254865154Y-127387407D01*
X254868163Y-127396667D01*
X254993389Y-127840694D01*
X254995661Y-127850161D01*
X255085657Y-128302610D01*
X255087181Y-128312227D01*
X255141406Y-128770385D01*
X255142169Y-128780092D01*
X255160398Y-129244120D01*
X255160494Y-129249005D01*
X255153316Y-179830441D01*
X255153315Y-179837876D01*
X255153306Y-179837913D01*
X255153306Y-179901364D01*
X255153306Y-179901381D01*
X255153210Y-179906249D01*
X255135002Y-180369652D01*
X255134238Y-180379359D01*
X255080013Y-180837495D01*
X255078490Y-180847111D01*
X254988488Y-181299581D01*
X254986215Y-181309049D01*
X254860991Y-181753058D01*
X254857983Y-181762317D01*
X254698307Y-182195139D01*
X254694581Y-182204135D01*
X254501433Y-182623105D01*
X254497014Y-182631776D01*
X254271602Y-183034280D01*
X254266515Y-183042581D01*
X254010208Y-183426171D01*
X254004485Y-183434048D01*
X253718874Y-183796343D01*
X253712551Y-183803746D01*
X253399398Y-184142513D01*
X253392513Y-184149398D01*
X253053746Y-184462551D01*
X253046343Y-184468874D01*
X252684048Y-184754485D01*
X252676171Y-184760208D01*
X252292581Y-185016515D01*
X252284288Y-185021596D01*
X251881780Y-185247013D01*
X251873105Y-185251433D01*
X251454135Y-185444581D01*
X251445139Y-185448307D01*
X251012317Y-185607983D01*
X251003058Y-185610991D01*
X250559049Y-185736215D01*
X250549581Y-185738488D01*
X250097111Y-185828490D01*
X250087495Y-185830013D01*
X249629359Y-185884238D01*
X249619652Y-185885002D01*
X249156401Y-185903204D01*
X249151533Y-185903300D01*
X171502423Y-185903304D01*
X171497555Y-185903208D01*
X171034151Y-185885003D01*
X171024444Y-185884239D01*
X170566309Y-185830014D01*
X170556693Y-185828491D01*
X170104232Y-185738491D01*
X170094764Y-185736218D01*
X169650741Y-185610991D01*
X169641481Y-185607983D01*
X169208659Y-185448306D01*
X169199664Y-185444580D01*
X168780708Y-185251440D01*
X168772033Y-185247019D01*
X168369514Y-185021597D01*
X168361212Y-185016510D01*
X167977631Y-184760210D01*
X167969755Y-184754487D01*
X167607458Y-184468876D01*
X167600054Y-184462553D01*
X167579905Y-184443927D01*
X167261282Y-184149394D01*
X167254409Y-184142521D01*
X167059251Y-183931401D01*
X166941250Y-183803748D01*
X166934927Y-183796345D01*
X166684143Y-183478228D01*
X166649313Y-183434047D01*
X166643593Y-183426173D01*
X166467473Y-183162591D01*
X166387279Y-183042573D01*
X166382214Y-183034308D01*
X166156775Y-182631758D01*
X166152367Y-182623106D01*
X166113879Y-182539620D01*
X165959219Y-182204135D01*
X165955495Y-182195145D01*
X165795815Y-181762316D01*
X165792807Y-181753056D01*
X165667584Y-181309049D01*
X165665311Y-181299581D01*
X165635072Y-181147560D01*
X165575308Y-180847105D01*
X165573786Y-180837495D01*
X165519559Y-180379341D01*
X165518798Y-180369671D01*
X165500596Y-179906426D01*
X165500500Y-179901558D01*
X165500500Y-131598543D01*
X173649499Y-131598543D01*
X173687947Y-131791829D01*
X173687950Y-131791839D01*
X173763364Y-131973907D01*
X173763371Y-131973919D01*
X173828602Y-132071543D01*
X173849480Y-132138220D01*
X173849500Y-132140434D01*
X173849500Y-133478846D01*
X173880261Y-133633489D01*
X173880264Y-133633501D01*
X173940602Y-133779172D01*
X173940609Y-133779185D01*
X174028210Y-133910288D01*
X174028213Y-133910292D01*
X176378211Y-136260289D01*
X176479079Y-136361157D01*
X176489712Y-136371790D01*
X176620814Y-136459390D01*
X176620827Y-136459397D01*
X176766498Y-136519735D01*
X176766503Y-136519737D01*
X176921153Y-136550499D01*
X176921156Y-136550500D01*
X176921158Y-136550500D01*
X185030652Y-136550500D01*
X185097691Y-136570185D01*
X185099543Y-136571398D01*
X185194979Y-136635167D01*
X185194992Y-136635174D01*
X185362944Y-136704741D01*
X185377065Y-136710590D01*
X185377069Y-136710590D01*
X185377070Y-136710591D01*
X185570356Y-136749039D01*
X185570359Y-136749039D01*
X185767443Y-136749039D01*
X185897482Y-136723171D01*
X185960735Y-136710590D01*
X186142814Y-136635171D01*
X186306682Y-136525678D01*
X186446039Y-136386321D01*
X186555532Y-136222453D01*
X186630951Y-136040374D01*
X186666620Y-135861057D01*
X186669400Y-135847082D01*
X186669400Y-135649995D01*
X186630952Y-135456709D01*
X186630951Y-135456708D01*
X186630951Y-135456704D01*
X186564429Y-135296104D01*
X186555535Y-135274631D01*
X186555528Y-135274618D01*
X186446039Y-135110757D01*
X186446036Y-135110753D01*
X186306684Y-134971401D01*
X186297684Y-134965387D01*
X186287461Y-134958557D01*
X186242657Y-134904946D01*
X186233948Y-134835621D01*
X186264102Y-134772594D01*
X186283147Y-134756092D01*
X186283074Y-134756003D01*
X186286428Y-134753249D01*
X186287472Y-134752346D01*
X186287782Y-134752139D01*
X186427139Y-134612782D01*
X186536632Y-134448914D01*
X186612051Y-134266835D01*
X186649571Y-134078211D01*
X186650500Y-134073543D01*
X186650500Y-133876456D01*
X186612052Y-133683170D01*
X186612051Y-133683169D01*
X186612051Y-133683165D01*
X186591475Y-133633489D01*
X186536635Y-133501092D01*
X186536628Y-133501079D01*
X186427139Y-133337218D01*
X186427136Y-133337214D01*
X186287785Y-133197863D01*
X186287781Y-133197860D01*
X186123920Y-133088371D01*
X186123907Y-133088364D01*
X185941839Y-133012950D01*
X185941829Y-133012947D01*
X185748543Y-132974500D01*
X185748541Y-132974500D01*
X185551459Y-132974500D01*
X185551457Y-132974500D01*
X185358170Y-133012947D01*
X185358160Y-133012950D01*
X185176092Y-133088364D01*
X185176079Y-133088371D01*
X185041041Y-133178602D01*
X184974364Y-133199480D01*
X184972150Y-133199500D01*
X179082940Y-133199500D01*
X179015901Y-133179815D01*
X178995259Y-133163181D01*
X177218893Y-131386815D01*
X177185408Y-131325492D01*
X177184986Y-131323468D01*
X177162051Y-131208165D01*
X177131083Y-131133401D01*
X177086635Y-131026092D01*
X177086628Y-131026079D01*
X176977139Y-130862218D01*
X176977136Y-130862214D01*
X176837785Y-130722863D01*
X176837781Y-130722860D01*
X176673920Y-130613371D01*
X176673907Y-130613364D01*
X176491839Y-130537950D01*
X176491829Y-130537947D01*
X176298543Y-130499500D01*
X176298541Y-130499500D01*
X176101459Y-130499500D01*
X176101457Y-130499500D01*
X175908170Y-130537947D01*
X175908160Y-130537950D01*
X175726092Y-130613364D01*
X175726079Y-130613371D01*
X175562218Y-130722860D01*
X175562214Y-130722863D01*
X175512681Y-130772397D01*
X175451358Y-130805882D01*
X175381666Y-130800898D01*
X175337319Y-130772397D01*
X175287785Y-130722863D01*
X175287781Y-130722860D01*
X175123920Y-130613371D01*
X175123907Y-130613364D01*
X174941839Y-130537950D01*
X174941829Y-130537947D01*
X174748543Y-130499500D01*
X174748541Y-130499500D01*
X174551459Y-130499500D01*
X174551457Y-130499500D01*
X174358170Y-130537947D01*
X174358160Y-130537950D01*
X174176092Y-130613364D01*
X174176079Y-130613371D01*
X174012218Y-130722860D01*
X174012214Y-130722863D01*
X173872863Y-130862214D01*
X173872860Y-130862218D01*
X173763371Y-131026079D01*
X173763364Y-131026092D01*
X173687950Y-131208160D01*
X173687947Y-131208170D01*
X173649500Y-131401456D01*
X173649500Y-131401459D01*
X173649500Y-131598541D01*
X173649500Y-131598543D01*
X173649499Y-131598543D01*
X165500500Y-131598543D01*
X165500500Y-129252423D01*
X165500596Y-129247555D01*
X165510483Y-128995909D01*
X165518803Y-128784132D01*
X165519564Y-128774466D01*
X165573792Y-128316299D01*
X165575314Y-128306693D01*
X165665317Y-127854218D01*
X165667587Y-127844765D01*
X165792814Y-127400742D01*
X165795822Y-127391482D01*
X165955502Y-126958651D01*
X165959225Y-126949665D01*
X166152376Y-126530685D01*
X166156772Y-126522057D01*
X166382224Y-126119485D01*
X166387275Y-126111243D01*
X166643606Y-125727617D01*
X166649319Y-125719756D01*
X166934934Y-125357453D01*
X166941235Y-125350074D01*
X167254424Y-125011270D01*
X167261270Y-125004424D01*
X167600074Y-124691235D01*
X167607453Y-124684934D01*
X167969758Y-124399317D01*
X167977617Y-124393606D01*
X168361243Y-124137275D01*
X168369485Y-124132224D01*
X168772057Y-123906772D01*
X168780685Y-123902376D01*
X169199673Y-123709221D01*
X169208651Y-123705502D01*
X169641489Y-123545819D01*
X169650742Y-123542814D01*
X170094765Y-123417587D01*
X170104218Y-123415317D01*
X170556703Y-123325312D01*
X170566299Y-123323792D01*
X171024466Y-123269564D01*
X171034132Y-123268803D01*
X171497557Y-123250596D01*
X171502416Y-123250500D01*
X171565892Y-123250500D01*
X171565906Y-123250496D01*
X192819171Y-123249382D01*
X192886211Y-123269063D01*
X192931969Y-123321865D01*
X192941916Y-123391023D01*
X192912894Y-123454580D01*
X192906858Y-123461063D01*
X191687063Y-124680859D01*
X190489711Y-125878211D01*
X190433960Y-125933962D01*
X190378209Y-125989712D01*
X190290609Y-126120814D01*
X190290602Y-126120827D01*
X190230264Y-126266498D01*
X190230261Y-126266510D01*
X190199500Y-126421153D01*
X190199500Y-126454118D01*
X190179815Y-126521157D01*
X190127011Y-126566912D01*
X190057853Y-126576856D01*
X189994297Y-126547831D01*
X189960939Y-126501571D01*
X189946964Y-126467833D01*
X189907048Y-126371466D01*
X189767945Y-126111223D01*
X189735660Y-126050821D01*
X189735659Y-126050819D01*
X189735654Y-126050810D01*
X189533655Y-125748498D01*
X189302998Y-125467441D01*
X189302997Y-125467440D01*
X189302993Y-125467435D01*
X189045907Y-125210349D01*
X188764850Y-124979692D01*
X188764849Y-124979691D01*
X188764845Y-124979688D01*
X188462533Y-124777689D01*
X188462528Y-124777686D01*
X188462521Y-124777682D01*
X188141884Y-124606298D01*
X188141879Y-124606296D01*
X187805966Y-124467156D01*
X187458024Y-124361609D01*
X187458013Y-124361606D01*
X187101431Y-124290679D01*
X186828912Y-124263838D01*
X186739595Y-124255042D01*
X186376007Y-124255042D01*
X186293480Y-124263170D01*
X186014170Y-124290679D01*
X185657588Y-124361606D01*
X185657577Y-124361609D01*
X185309635Y-124467156D01*
X184973722Y-124606296D01*
X184973717Y-124606298D01*
X184653080Y-124777682D01*
X184653062Y-124777693D01*
X184350765Y-124979682D01*
X184350751Y-124979692D01*
X184069694Y-125210349D01*
X183812608Y-125467435D01*
X183581951Y-125748492D01*
X183581941Y-125748506D01*
X183379952Y-126050803D01*
X183379941Y-126050821D01*
X183208557Y-126371458D01*
X183208555Y-126371463D01*
X183069415Y-126707376D01*
X182963868Y-127055318D01*
X182963865Y-127055329D01*
X182892938Y-127411911D01*
X182873693Y-127607319D01*
X182857301Y-127773748D01*
X182857301Y-128137336D01*
X182866444Y-128230168D01*
X182892938Y-128499172D01*
X182963865Y-128855754D01*
X182963868Y-128855765D01*
X182963870Y-128855774D01*
X182963871Y-128855775D01*
X182974357Y-128890345D01*
X183069415Y-129203707D01*
X183208555Y-129539620D01*
X183208557Y-129539625D01*
X183379941Y-129860262D01*
X183379952Y-129860280D01*
X183581941Y-130162577D01*
X183581951Y-130162591D01*
X183812608Y-130443648D01*
X184069694Y-130700734D01*
X184069699Y-130700738D01*
X184069700Y-130700739D01*
X184350757Y-130931396D01*
X184653069Y-131133395D01*
X184653078Y-131133400D01*
X184653080Y-131133401D01*
X184973717Y-131304785D01*
X184973719Y-131304785D01*
X184973725Y-131304789D01*
X185309637Y-131443928D01*
X185657568Y-131549472D01*
X185657574Y-131549473D01*
X185657577Y-131549474D01*
X185657588Y-131549477D01*
X186014170Y-131620404D01*
X186376007Y-131656042D01*
X186376010Y-131656042D01*
X186739592Y-131656042D01*
X186739595Y-131656042D01*
X187101432Y-131620404D01*
X187211346Y-131598541D01*
X187458013Y-131549477D01*
X187458024Y-131549474D01*
X187458024Y-131549473D01*
X187458034Y-131549472D01*
X187805965Y-131443928D01*
X188141877Y-131304789D01*
X188462533Y-131133395D01*
X188764845Y-130931396D01*
X189045902Y-130700739D01*
X189302998Y-130443643D01*
X189533655Y-130162586D01*
X189735654Y-129860274D01*
X189907048Y-129539618D01*
X189960939Y-129409512D01*
X190004780Y-129355109D01*
X190071074Y-129333044D01*
X190138773Y-129350323D01*
X190186384Y-129401460D01*
X190199500Y-129456965D01*
X190199500Y-136617060D01*
X190179815Y-136684099D01*
X190163181Y-136704741D01*
X183399711Y-143468211D01*
X183343960Y-143523962D01*
X183288209Y-143579712D01*
X183200609Y-143710814D01*
X183200602Y-143710827D01*
X183140264Y-143856498D01*
X183140261Y-143856510D01*
X183109500Y-144011153D01*
X183109500Y-146109106D01*
X183089815Y-146176145D01*
X183058387Y-146209422D01*
X183030208Y-146229896D01*
X183030206Y-146229898D01*
X183030205Y-146229898D01*
X182879890Y-146380213D01*
X182754949Y-146552182D01*
X182750484Y-146560946D01*
X182702509Y-146611742D01*
X182634688Y-146628536D01*
X182568553Y-146605998D01*
X182529516Y-146560946D01*
X182525050Y-146552182D01*
X182400109Y-146380213D01*
X182249790Y-146229894D01*
X182241614Y-146223954D01*
X182198949Y-146168624D01*
X182190500Y-146123636D01*
X182190500Y-141311157D01*
X182190499Y-141311153D01*
X182184631Y-141281653D01*
X182159738Y-141156503D01*
X182099394Y-141010821D01*
X182099392Y-141010818D01*
X182099390Y-141010814D01*
X182011789Y-140879711D01*
X182011786Y-140879707D01*
X180310292Y-139178213D01*
X180310288Y-139178210D01*
X180179185Y-139090609D01*
X180179172Y-139090602D01*
X180033501Y-139030264D01*
X180033489Y-139030261D01*
X179878845Y-138999500D01*
X179878842Y-138999500D01*
X174090435Y-138999500D01*
X174023396Y-138979815D01*
X174021544Y-138978602D01*
X173923911Y-138913366D01*
X173741839Y-138837950D01*
X173741829Y-138837947D01*
X173548543Y-138799500D01*
X173548541Y-138799500D01*
X173351459Y-138799500D01*
X173351457Y-138799500D01*
X173158170Y-138837947D01*
X173158160Y-138837950D01*
X172976092Y-138913364D01*
X172976079Y-138913371D01*
X172812218Y-139022860D01*
X172812214Y-139022863D01*
X172672863Y-139162214D01*
X172672860Y-139162218D01*
X172563371Y-139326079D01*
X172563364Y-139326092D01*
X172487950Y-139508160D01*
X172487947Y-139508170D01*
X172449500Y-139701456D01*
X172449500Y-139701459D01*
X172449500Y-139898541D01*
X172449500Y-139898543D01*
X172449499Y-139898543D01*
X172487947Y-140091829D01*
X172487950Y-140091839D01*
X172563364Y-140273907D01*
X172563371Y-140273920D01*
X172672860Y-140437781D01*
X172672863Y-140437785D01*
X172812214Y-140577136D01*
X172812218Y-140577139D01*
X172976079Y-140686628D01*
X172976092Y-140686635D01*
X173129066Y-140749998D01*
X173158165Y-140762051D01*
X173158169Y-140762051D01*
X173158170Y-140762052D01*
X173351456Y-140800500D01*
X173351459Y-140800500D01*
X173548543Y-140800500D01*
X173678582Y-140774632D01*
X173741835Y-140762051D01*
X173923914Y-140686632D01*
X174021544Y-140621398D01*
X174088222Y-140600520D01*
X174090435Y-140600500D01*
X179417060Y-140600500D01*
X179484099Y-140620185D01*
X179504741Y-140636819D01*
X180553181Y-141685259D01*
X180586666Y-141746582D01*
X180589500Y-141772940D01*
X180589500Y-146094575D01*
X180569815Y-146161614D01*
X180538387Y-146194891D01*
X180490208Y-146229896D01*
X180490206Y-146229898D01*
X180490205Y-146229898D01*
X180339890Y-146380213D01*
X180214949Y-146552182D01*
X180210484Y-146560946D01*
X180162509Y-146611742D01*
X180094688Y-146628536D01*
X180028553Y-146605998D01*
X179989516Y-146560946D01*
X179985050Y-146552182D01*
X179860109Y-146380213D01*
X179709786Y-146229890D01*
X179537820Y-146104951D01*
X179348414Y-146008444D01*
X179348413Y-146008443D01*
X179348412Y-146008443D01*
X179146243Y-145942754D01*
X179146241Y-145942753D01*
X179146240Y-145942753D01*
X178984957Y-145917208D01*
X178936287Y-145909500D01*
X178723713Y-145909500D01*
X178675042Y-145917208D01*
X178513760Y-145942753D01*
X178311585Y-146008444D01*
X178122179Y-146104951D01*
X177950213Y-146229890D01*
X177799890Y-146380213D01*
X177674949Y-146552182D01*
X177670484Y-146560946D01*
X177622509Y-146611742D01*
X177554688Y-146628536D01*
X177488553Y-146605998D01*
X177449516Y-146560946D01*
X177445050Y-146552182D01*
X177320109Y-146380213D01*
X177169786Y-146229890D01*
X176997820Y-146104951D01*
X176808414Y-146008444D01*
X176808413Y-146008443D01*
X176808412Y-146008443D01*
X176606243Y-145942754D01*
X176606241Y-145942753D01*
X176606240Y-145942753D01*
X176444957Y-145917208D01*
X176396287Y-145909500D01*
X176183713Y-145909500D01*
X176135042Y-145917208D01*
X175973760Y-145942753D01*
X175771585Y-146008444D01*
X175582179Y-146104951D01*
X175410213Y-146229890D01*
X175259890Y-146380213D01*
X175134949Y-146552182D01*
X175130202Y-146561499D01*
X175082227Y-146612293D01*
X175014405Y-146629087D01*
X174948271Y-146606548D01*
X174909234Y-146561495D01*
X174904626Y-146552452D01*
X174865270Y-146498282D01*
X174865269Y-146498282D01*
X174232962Y-147130590D01*
X174215925Y-147067007D01*
X174150099Y-146952993D01*
X174057007Y-146859901D01*
X173942993Y-146794075D01*
X173879409Y-146777037D01*
X174511716Y-146144728D01*
X174457550Y-146105375D01*
X174268217Y-146008904D01*
X174066129Y-145943242D01*
X173856246Y-145910000D01*
X173643754Y-145910000D01*
X173433872Y-145943242D01*
X173433869Y-145943242D01*
X173231782Y-146008904D01*
X173042439Y-146105380D01*
X172988282Y-146144727D01*
X172988282Y-146144728D01*
X173620591Y-146777037D01*
X173557007Y-146794075D01*
X173442993Y-146859901D01*
X173349901Y-146952993D01*
X173284075Y-147067007D01*
X173267037Y-147130591D01*
X172634728Y-146498282D01*
X172634727Y-146498282D01*
X172595380Y-146552440D01*
X172595376Y-146552446D01*
X172590760Y-146561505D01*
X172542781Y-146612297D01*
X172474959Y-146629087D01*
X172408826Y-146606543D01*
X172369794Y-146561493D01*
X172365051Y-146552184D01*
X172365049Y-146552181D01*
X172365048Y-146552179D01*
X172240109Y-146380213D01*
X172089786Y-146229890D01*
X171917820Y-146104951D01*
X171728414Y-146008444D01*
X171728413Y-146008443D01*
X171728412Y-146008443D01*
X171526243Y-145942754D01*
X171526241Y-145942753D01*
X171526240Y-145942753D01*
X171364957Y-145917208D01*
X171316287Y-145909500D01*
X171103713Y-145909500D01*
X171055042Y-145917208D01*
X170893760Y-145942753D01*
X170691585Y-146008444D01*
X170502179Y-146104951D01*
X170330213Y-146229890D01*
X170179898Y-146380205D01*
X170179898Y-146380206D01*
X170179896Y-146380208D01*
X170159422Y-146408386D01*
X170104094Y-146451051D01*
X170059106Y-146459500D01*
X169911153Y-146459500D01*
X169756510Y-146490260D01*
X169756502Y-146490262D01*
X169610824Y-146550604D01*
X169610814Y-146550609D01*
X169479711Y-146638210D01*
X169479707Y-146638213D01*
X168159422Y-147958500D01*
X167739711Y-148378211D01*
X167708636Y-148409286D01*
X167628209Y-148489712D01*
X167540609Y-148620814D01*
X167540602Y-148620827D01*
X167480264Y-148766498D01*
X167480261Y-148766510D01*
X167449500Y-148921153D01*
X167449500Y-170328846D01*
X167480261Y-170483489D01*
X167480264Y-170483501D01*
X167540602Y-170629172D01*
X167540609Y-170629185D01*
X167628210Y-170760288D01*
X167628213Y-170760292D01*
X173989707Y-177121786D01*
X173989711Y-177121789D01*
X174120814Y-177209390D01*
X174120818Y-177209392D01*
X174120821Y-177209394D01*
X174266503Y-177269738D01*
X174421153Y-177300499D01*
X174421157Y-177300500D01*
X174421158Y-177300500D01*
X185088590Y-177300500D01*
X185155629Y-177320185D01*
X185201384Y-177372989D01*
X185211328Y-177442147D01*
X185182303Y-177505703D01*
X185136043Y-177539061D01*
X184973722Y-177606296D01*
X184973717Y-177606298D01*
X184653080Y-177777682D01*
X184653062Y-177777693D01*
X184350765Y-177979682D01*
X184350751Y-177979692D01*
X184069694Y-178210349D01*
X183812608Y-178467435D01*
X183581951Y-178748492D01*
X183581941Y-178748506D01*
X183379952Y-179050803D01*
X183379941Y-179050821D01*
X183208557Y-179371458D01*
X183208555Y-179371463D01*
X183069415Y-179707376D01*
X182963868Y-180055318D01*
X182963865Y-180055329D01*
X182892938Y-180411911D01*
X182857301Y-180773751D01*
X182857301Y-181137332D01*
X182892938Y-181499172D01*
X182963865Y-181855754D01*
X182963868Y-181855765D01*
X183069415Y-182203707D01*
X183208555Y-182539620D01*
X183208557Y-182539625D01*
X183379941Y-182860262D01*
X183379952Y-182860280D01*
X183581941Y-183162577D01*
X183581951Y-183162591D01*
X183812608Y-183443648D01*
X184069694Y-183700734D01*
X184069699Y-183700738D01*
X184069700Y-183700739D01*
X184350757Y-183931396D01*
X184653069Y-184133395D01*
X184653078Y-184133400D01*
X184653080Y-184133401D01*
X184973717Y-184304785D01*
X184973719Y-184304785D01*
X184973725Y-184304789D01*
X185309637Y-184443928D01*
X185657568Y-184549472D01*
X185657574Y-184549473D01*
X185657577Y-184549474D01*
X185657588Y-184549477D01*
X186014170Y-184620404D01*
X186376007Y-184656042D01*
X186376010Y-184656042D01*
X186739592Y-184656042D01*
X186739595Y-184656042D01*
X187101432Y-184620404D01*
X187170846Y-184606596D01*
X187458013Y-184549477D01*
X187458024Y-184549474D01*
X187458024Y-184549473D01*
X187458034Y-184549472D01*
X187805965Y-184443928D01*
X188141877Y-184304789D01*
X188462533Y-184133395D01*
X188764845Y-183931396D01*
X189045902Y-183700739D01*
X189302998Y-183443643D01*
X189533655Y-183162586D01*
X189735654Y-182860274D01*
X189907048Y-182539618D01*
X190046187Y-182203706D01*
X190151731Y-181855775D01*
X190151733Y-181855765D01*
X190151736Y-181855754D01*
X190222663Y-181499172D01*
X190258301Y-181137336D01*
X190258301Y-180773751D01*
X238931158Y-180773751D01*
X238931158Y-181137332D01*
X238966795Y-181499172D01*
X239037722Y-181855754D01*
X239037725Y-181855765D01*
X239143272Y-182203707D01*
X239282412Y-182539620D01*
X239282414Y-182539625D01*
X239453798Y-182860262D01*
X239453809Y-182860280D01*
X239655798Y-183162577D01*
X239655808Y-183162591D01*
X239886465Y-183443648D01*
X240143551Y-183700734D01*
X240143556Y-183700738D01*
X240143557Y-183700739D01*
X240424614Y-183931396D01*
X240726926Y-184133395D01*
X240726935Y-184133400D01*
X240726937Y-184133401D01*
X241047574Y-184304785D01*
X241047576Y-184304785D01*
X241047582Y-184304789D01*
X241383494Y-184443928D01*
X241731425Y-184549472D01*
X241731431Y-184549473D01*
X241731434Y-184549474D01*
X241731445Y-184549477D01*
X242088027Y-184620404D01*
X242449864Y-184656042D01*
X242449867Y-184656042D01*
X242813449Y-184656042D01*
X242813452Y-184656042D01*
X243175289Y-184620404D01*
X243244703Y-184606596D01*
X243531870Y-184549477D01*
X243531881Y-184549474D01*
X243531881Y-184549473D01*
X243531891Y-184549472D01*
X243879822Y-184443928D01*
X244215734Y-184304789D01*
X244536390Y-184133395D01*
X244838702Y-183931396D01*
X245119759Y-183700739D01*
X245376855Y-183443643D01*
X245607512Y-183162586D01*
X245809511Y-182860274D01*
X245980905Y-182539618D01*
X246120044Y-182203706D01*
X246225588Y-181855775D01*
X246225590Y-181855765D01*
X246225593Y-181855754D01*
X246296520Y-181499172D01*
X246332158Y-181137336D01*
X246332158Y-180773748D01*
X246296520Y-180411911D01*
X246289083Y-180374521D01*
X246225593Y-180055329D01*
X246225590Y-180055318D01*
X246225589Y-180055315D01*
X246225588Y-180055309D01*
X246120044Y-179707378D01*
X245980905Y-179371466D01*
X245809511Y-179050810D01*
X245607512Y-178748498D01*
X245376855Y-178467441D01*
X245376854Y-178467440D01*
X245376850Y-178467435D01*
X245119764Y-178210349D01*
X244838707Y-177979692D01*
X244838706Y-177979691D01*
X244838702Y-177979688D01*
X244536390Y-177777689D01*
X244536385Y-177777686D01*
X244536378Y-177777682D01*
X244215741Y-177606298D01*
X244215736Y-177606296D01*
X243879823Y-177467156D01*
X243531881Y-177361609D01*
X243531870Y-177361606D01*
X243175288Y-177290679D01*
X242902769Y-177263838D01*
X242813452Y-177255042D01*
X242449864Y-177255042D01*
X242367337Y-177263170D01*
X242088027Y-177290679D01*
X241731445Y-177361606D01*
X241731434Y-177361609D01*
X241383492Y-177467156D01*
X241047579Y-177606296D01*
X241047574Y-177606298D01*
X240726937Y-177777682D01*
X240726919Y-177777693D01*
X240424622Y-177979682D01*
X240424608Y-177979692D01*
X240143551Y-178210349D01*
X239886465Y-178467435D01*
X239655808Y-178748492D01*
X239655798Y-178748506D01*
X239453809Y-179050803D01*
X239453798Y-179050821D01*
X239282414Y-179371458D01*
X239282412Y-179371463D01*
X239143272Y-179707376D01*
X239037725Y-180055318D01*
X239037722Y-180055329D01*
X238966795Y-180411911D01*
X238931158Y-180773751D01*
X190258301Y-180773751D01*
X190258301Y-180773748D01*
X190222663Y-180411911D01*
X190215226Y-180374521D01*
X190151736Y-180055329D01*
X190151733Y-180055318D01*
X190151732Y-180055315D01*
X190151731Y-180055309D01*
X190046187Y-179707378D01*
X189907048Y-179371466D01*
X189735654Y-179050810D01*
X189533655Y-178748498D01*
X189302998Y-178467441D01*
X189302997Y-178467440D01*
X189302993Y-178467435D01*
X189045907Y-178210349D01*
X188764850Y-177979692D01*
X188764849Y-177979691D01*
X188764845Y-177979688D01*
X188462533Y-177777689D01*
X188462528Y-177777686D01*
X188462521Y-177777682D01*
X188141884Y-177606298D01*
X188141879Y-177606296D01*
X187979559Y-177539061D01*
X187925156Y-177495220D01*
X187903091Y-177428926D01*
X187920370Y-177361227D01*
X187971507Y-177313616D01*
X188027012Y-177300500D01*
X221359565Y-177300500D01*
X221426604Y-177320185D01*
X221428456Y-177321398D01*
X221526086Y-177386632D01*
X221526087Y-177386632D01*
X221526088Y-177386633D01*
X221660112Y-177442147D01*
X221708165Y-177462051D01*
X221708169Y-177462051D01*
X221708170Y-177462052D01*
X221901456Y-177500500D01*
X221901459Y-177500500D01*
X222098543Y-177500500D01*
X222228582Y-177474632D01*
X222291835Y-177462051D01*
X222473914Y-177386632D01*
X222637782Y-177277139D01*
X222777139Y-177137782D01*
X222886632Y-176973914D01*
X222962051Y-176791835D01*
X223000500Y-176598541D01*
X223000500Y-176401459D01*
X223000500Y-176401456D01*
X222962052Y-176208170D01*
X222962051Y-176208169D01*
X222962051Y-176208165D01*
X222962049Y-176208160D01*
X222886635Y-176026092D01*
X222886628Y-176026079D01*
X222777139Y-175862218D01*
X222777136Y-175862214D01*
X222637785Y-175722863D01*
X222637781Y-175722860D01*
X222473920Y-175613371D01*
X222473907Y-175613364D01*
X222291839Y-175537950D01*
X222291829Y-175537947D01*
X222098543Y-175499500D01*
X222098541Y-175499500D01*
X221901459Y-175499500D01*
X221901457Y-175499500D01*
X221708170Y-175537947D01*
X221708160Y-175537950D01*
X221526088Y-175613366D01*
X221428456Y-175678602D01*
X221361778Y-175699480D01*
X221359565Y-175699500D01*
X174882940Y-175699500D01*
X174815901Y-175679815D01*
X174795259Y-175663181D01*
X169086819Y-169954741D01*
X169053334Y-169893418D01*
X169050500Y-169867060D01*
X169050500Y-162393713D01*
X169859500Y-162393713D01*
X169859500Y-162606286D01*
X169890486Y-162801927D01*
X169892754Y-162816243D01*
X169938867Y-162958165D01*
X169958444Y-163018414D01*
X170054951Y-163207820D01*
X170179890Y-163379786D01*
X170179896Y-163379792D01*
X170330208Y-163530104D01*
X170358384Y-163550575D01*
X170401050Y-163605902D01*
X170409500Y-163650893D01*
X170409500Y-168538846D01*
X170440261Y-168693489D01*
X170440264Y-168693501D01*
X170500602Y-168839172D01*
X170500609Y-168839185D01*
X170588210Y-168970288D01*
X170588213Y-168970292D01*
X176489707Y-174871786D01*
X176489711Y-174871789D01*
X176620814Y-174959390D01*
X176620818Y-174959392D01*
X176620821Y-174959394D01*
X176766503Y-175019738D01*
X176921153Y-175050499D01*
X176921157Y-175050500D01*
X176921158Y-175050500D01*
X196609565Y-175050500D01*
X196676604Y-175070185D01*
X196678456Y-175071398D01*
X196776086Y-175136632D01*
X196958165Y-175212051D01*
X196958169Y-175212051D01*
X196958170Y-175212052D01*
X197151456Y-175250500D01*
X197151459Y-175250500D01*
X197348543Y-175250500D01*
X197478582Y-175224632D01*
X197541835Y-175212051D01*
X197723914Y-175136632D01*
X197821544Y-175071398D01*
X197888222Y-175050520D01*
X197890435Y-175050500D01*
X225578844Y-175050500D01*
X225578845Y-175050499D01*
X225733497Y-175019737D01*
X225879179Y-174959394D01*
X226010289Y-174871789D01*
X226260768Y-174621310D01*
X226564278Y-174317801D01*
X226937079Y-173945000D01*
X229391950Y-173945000D01*
X230857096Y-173945000D01*
X230825000Y-174106358D01*
X230825000Y-174283642D01*
X230857096Y-174445000D01*
X229391950Y-174445000D01*
X229406653Y-174556687D01*
X229469421Y-174790939D01*
X229562220Y-175014978D01*
X229562227Y-175014993D01*
X229683480Y-175225009D01*
X229831110Y-175417405D01*
X229831116Y-175417412D01*
X230002587Y-175588883D01*
X230002594Y-175588889D01*
X230194990Y-175736519D01*
X230405006Y-175857772D01*
X230405021Y-175857779D01*
X230629060Y-175950578D01*
X230863312Y-176013346D01*
X231103735Y-176044998D01*
X231103752Y-176045000D01*
X231475000Y-176045000D01*
X231475000Y-175062904D01*
X231636358Y-175095000D01*
X231813642Y-175095000D01*
X231975000Y-175062904D01*
X231975000Y-176045000D01*
X232346248Y-176045000D01*
X232346264Y-176044998D01*
X232586687Y-176013346D01*
X232820939Y-175950578D01*
X233044978Y-175857779D01*
X233044993Y-175857772D01*
X233255009Y-175736519D01*
X233447405Y-175588889D01*
X233447412Y-175588883D01*
X233618883Y-175417412D01*
X233618889Y-175417405D01*
X233766519Y-175225009D01*
X233887772Y-175014993D01*
X233887779Y-175014978D01*
X233980578Y-174790939D01*
X234043346Y-174556687D01*
X234058050Y-174445000D01*
X232592904Y-174445000D01*
X232625000Y-174283642D01*
X232625000Y-174106358D01*
X232618506Y-174073711D01*
X234874500Y-174073711D01*
X234874500Y-174316288D01*
X234906161Y-174556785D01*
X234968947Y-174791104D01*
X235061773Y-175015205D01*
X235061777Y-175015214D01*
X235064389Y-175019738D01*
X235183064Y-175225289D01*
X235183066Y-175225292D01*
X235183067Y-175225293D01*
X235330733Y-175417736D01*
X235330739Y-175417743D01*
X235502256Y-175589260D01*
X235502263Y-175589266D01*
X235598591Y-175663181D01*
X235694711Y-175736936D01*
X235904788Y-175858224D01*
X236128900Y-175951054D01*
X236363211Y-176013838D01*
X236543586Y-176037584D01*
X236603711Y-176045500D01*
X236603712Y-176045500D01*
X237846289Y-176045500D01*
X237894388Y-176039167D01*
X238086789Y-176013838D01*
X238321100Y-175951054D01*
X238545212Y-175858224D01*
X238755289Y-175736936D01*
X238947738Y-175589265D01*
X239119265Y-175417738D01*
X239266936Y-175225289D01*
X239388224Y-175015212D01*
X239481054Y-174791100D01*
X239543838Y-174556789D01*
X239575500Y-174316288D01*
X239575500Y-174080258D01*
X242774500Y-174080258D01*
X242774500Y-174309741D01*
X242792308Y-174445000D01*
X242804452Y-174537238D01*
X242809690Y-174556785D01*
X242863842Y-174758887D01*
X242951650Y-174970876D01*
X242951657Y-174970890D01*
X243066392Y-175169617D01*
X243206081Y-175351661D01*
X243206089Y-175351670D01*
X243368330Y-175513911D01*
X243368338Y-175513918D01*
X243550382Y-175653607D01*
X243550385Y-175653608D01*
X243550388Y-175653611D01*
X243749112Y-175768344D01*
X243749117Y-175768346D01*
X243749123Y-175768349D01*
X243840480Y-175806190D01*
X243961113Y-175856158D01*
X244182762Y-175915548D01*
X244410266Y-175945500D01*
X244410273Y-175945500D01*
X244639727Y-175945500D01*
X244639734Y-175945500D01*
X244867238Y-175915548D01*
X245088887Y-175856158D01*
X245300888Y-175768344D01*
X245499612Y-175653611D01*
X245681661Y-175513919D01*
X245681665Y-175513914D01*
X245681670Y-175513911D01*
X245843911Y-175351670D01*
X245843914Y-175351665D01*
X245843919Y-175351661D01*
X245983611Y-175169612D01*
X246098344Y-174970888D01*
X246186158Y-174758887D01*
X246245548Y-174537238D01*
X246275500Y-174309734D01*
X246275500Y-174080266D01*
X246245548Y-173852762D01*
X246186158Y-173631113D01*
X246110923Y-173449480D01*
X246098349Y-173419123D01*
X246098346Y-173419117D01*
X246098344Y-173419112D01*
X245983611Y-173220388D01*
X245983608Y-173220385D01*
X245983607Y-173220382D01*
X245843918Y-173038338D01*
X245843911Y-173038330D01*
X245681670Y-172876089D01*
X245681661Y-172876081D01*
X245499617Y-172736392D01*
X245480751Y-172725500D01*
X245355294Y-172653067D01*
X245300890Y-172621657D01*
X245300876Y-172621650D01*
X245088887Y-172533842D01*
X245082860Y-172532227D01*
X244867238Y-172474452D01*
X244829215Y-172469446D01*
X244639741Y-172444500D01*
X244639734Y-172444500D01*
X244410266Y-172444500D01*
X244410258Y-172444500D01*
X244193715Y-172473009D01*
X244182762Y-172474452D01*
X244089076Y-172499554D01*
X243961112Y-172533842D01*
X243749123Y-172621650D01*
X243749109Y-172621657D01*
X243550382Y-172736392D01*
X243368338Y-172876081D01*
X243206081Y-173038338D01*
X243066392Y-173220382D01*
X242951657Y-173419109D01*
X242951650Y-173419123D01*
X242863842Y-173631112D01*
X242804453Y-173852759D01*
X242804451Y-173852770D01*
X242774500Y-174080258D01*
X239575500Y-174080258D01*
X239575500Y-174073712D01*
X239543838Y-173833211D01*
X239481054Y-173598900D01*
X239388224Y-173374788D01*
X239266936Y-173164711D01*
X239119520Y-172972594D01*
X239119266Y-172972263D01*
X239119260Y-172972256D01*
X238947743Y-172800739D01*
X238947736Y-172800733D01*
X238755293Y-172653067D01*
X238755292Y-172653066D01*
X238755289Y-172653064D01*
X238583661Y-172553974D01*
X238545214Y-172531777D01*
X238545205Y-172531773D01*
X238321104Y-172438947D01*
X238098048Y-172379179D01*
X238086789Y-172376162D01*
X238086788Y-172376161D01*
X238086785Y-172376161D01*
X237846289Y-172344500D01*
X237846288Y-172344500D01*
X236603712Y-172344500D01*
X236603711Y-172344500D01*
X236363214Y-172376161D01*
X236128895Y-172438947D01*
X235904794Y-172531773D01*
X235904785Y-172531777D01*
X235694706Y-172653067D01*
X235502263Y-172800733D01*
X235502256Y-172800739D01*
X235330739Y-172972256D01*
X235330733Y-172972263D01*
X235183067Y-173164706D01*
X235061777Y-173374785D01*
X235061773Y-173374794D01*
X234968947Y-173598895D01*
X234906161Y-173833214D01*
X234874500Y-174073711D01*
X232618506Y-174073711D01*
X232592904Y-173945000D01*
X234058049Y-173945000D01*
X234043346Y-173833312D01*
X233980578Y-173599060D01*
X233887779Y-173375021D01*
X233887772Y-173375006D01*
X233766519Y-173164990D01*
X233618889Y-172972594D01*
X233618883Y-172972587D01*
X233447412Y-172801116D01*
X233447405Y-172801110D01*
X233255009Y-172653480D01*
X233044993Y-172532227D01*
X233044978Y-172532220D01*
X232820939Y-172439421D01*
X232586687Y-172376653D01*
X232346264Y-172345001D01*
X232346248Y-172345000D01*
X231975000Y-172345000D01*
X231975000Y-173327095D01*
X231813642Y-173295000D01*
X231636358Y-173295000D01*
X231475000Y-173327095D01*
X231475000Y-172345000D01*
X231103752Y-172345000D01*
X231103735Y-172345001D01*
X230863312Y-172376653D01*
X230629060Y-172439421D01*
X230405021Y-172532220D01*
X230405006Y-172532227D01*
X230194990Y-172653480D01*
X230002594Y-172801110D01*
X230002587Y-172801116D01*
X229831116Y-172972587D01*
X229831110Y-172972594D01*
X229683480Y-173164990D01*
X229562227Y-173375006D01*
X229562220Y-173375021D01*
X229469421Y-173599060D01*
X229406653Y-173833312D01*
X229391950Y-173945000D01*
X226937079Y-173945000D01*
X226985242Y-173896837D01*
X228371786Y-172510292D01*
X228371789Y-172510289D01*
X228459394Y-172379179D01*
X228519738Y-172233497D01*
X228550500Y-172078842D01*
X228550500Y-171921157D01*
X228550500Y-169745000D01*
X229391950Y-169745000D01*
X230857096Y-169745000D01*
X230825000Y-169906358D01*
X230825000Y-170083642D01*
X230857096Y-170245000D01*
X229391950Y-170245000D01*
X229406653Y-170356687D01*
X229469421Y-170590939D01*
X229562220Y-170814978D01*
X229562227Y-170814993D01*
X229683480Y-171025009D01*
X229831110Y-171217405D01*
X229831116Y-171217412D01*
X230002587Y-171388883D01*
X230002594Y-171388889D01*
X230194990Y-171536519D01*
X230405006Y-171657772D01*
X230405021Y-171657779D01*
X230629060Y-171750578D01*
X230863312Y-171813346D01*
X231103735Y-171844998D01*
X231103752Y-171845000D01*
X231475000Y-171845000D01*
X231475000Y-170862904D01*
X231636358Y-170895000D01*
X231813642Y-170895000D01*
X231975000Y-170862904D01*
X231975000Y-171845000D01*
X232346248Y-171845000D01*
X232346264Y-171844998D01*
X232586687Y-171813346D01*
X232820939Y-171750578D01*
X233044978Y-171657779D01*
X233044993Y-171657772D01*
X233255009Y-171536519D01*
X233447405Y-171388889D01*
X233447412Y-171388883D01*
X233618883Y-171217412D01*
X233618889Y-171217405D01*
X233766519Y-171025009D01*
X233887772Y-170814993D01*
X233887779Y-170814978D01*
X233980578Y-170590939D01*
X234043346Y-170356687D01*
X234058050Y-170245000D01*
X232592904Y-170245000D01*
X232625000Y-170083642D01*
X232625000Y-169906358D01*
X232618506Y-169873711D01*
X234874500Y-169873711D01*
X234874500Y-170116288D01*
X234906161Y-170356785D01*
X234968947Y-170591104D01*
X235052397Y-170792570D01*
X235061776Y-170815212D01*
X235183064Y-171025289D01*
X235183066Y-171025292D01*
X235183067Y-171025293D01*
X235330733Y-171217736D01*
X235330739Y-171217743D01*
X235502256Y-171389260D01*
X235502262Y-171389265D01*
X235694711Y-171536936D01*
X235904788Y-171658224D01*
X236128900Y-171751054D01*
X236363211Y-171813838D01*
X236543586Y-171837584D01*
X236603711Y-171845500D01*
X236603712Y-171845500D01*
X237846289Y-171845500D01*
X237894388Y-171839167D01*
X238086789Y-171813838D01*
X238321100Y-171751054D01*
X238545212Y-171658224D01*
X238755289Y-171536936D01*
X238947738Y-171389265D01*
X239119265Y-171217738D01*
X239266936Y-171025289D01*
X239388224Y-170815212D01*
X239481054Y-170591100D01*
X239543838Y-170356789D01*
X239575500Y-170116288D01*
X239575500Y-169873712D01*
X239543838Y-169633211D01*
X239481054Y-169398900D01*
X239388224Y-169174788D01*
X239266936Y-168964711D01*
X239119520Y-168772594D01*
X239119266Y-168772263D01*
X239119260Y-168772256D01*
X238947743Y-168600739D01*
X238947736Y-168600733D01*
X238755293Y-168453067D01*
X238755292Y-168453066D01*
X238755289Y-168453064D01*
X238545212Y-168331776D01*
X238545205Y-168331773D01*
X238321104Y-168238947D01*
X238086785Y-168176161D01*
X237846289Y-168144500D01*
X237846288Y-168144500D01*
X236603712Y-168144500D01*
X236603711Y-168144500D01*
X236363214Y-168176161D01*
X236128895Y-168238947D01*
X235904794Y-168331773D01*
X235904785Y-168331777D01*
X235694706Y-168453067D01*
X235502263Y-168600733D01*
X235502256Y-168600739D01*
X235330739Y-168772256D01*
X235330733Y-168772263D01*
X235183067Y-168964706D01*
X235061777Y-169174785D01*
X235061773Y-169174794D01*
X234968947Y-169398895D01*
X234906161Y-169633214D01*
X234874500Y-169873711D01*
X232618506Y-169873711D01*
X232592904Y-169745000D01*
X234058049Y-169745000D01*
X234043346Y-169633312D01*
X233980578Y-169399060D01*
X233887779Y-169175021D01*
X233887772Y-169175006D01*
X233766519Y-168964990D01*
X233618889Y-168772594D01*
X233618883Y-168772587D01*
X233447412Y-168601116D01*
X233447405Y-168601110D01*
X233255009Y-168453480D01*
X233044993Y-168332227D01*
X233044978Y-168332220D01*
X232820939Y-168239421D01*
X232586687Y-168176653D01*
X232346264Y-168145001D01*
X232346248Y-168145000D01*
X231975000Y-168145000D01*
X231975000Y-169127095D01*
X231813642Y-169095000D01*
X231636358Y-169095000D01*
X231475000Y-169127095D01*
X231475000Y-168145000D01*
X231103752Y-168145000D01*
X231103735Y-168145001D01*
X230863312Y-168176653D01*
X230629060Y-168239421D01*
X230405021Y-168332220D01*
X230405006Y-168332227D01*
X230194990Y-168453480D01*
X230002594Y-168601110D01*
X230002587Y-168601116D01*
X229831116Y-168772587D01*
X229831110Y-168772594D01*
X229683480Y-168964990D01*
X229562227Y-169175006D01*
X229562220Y-169175021D01*
X229469421Y-169399060D01*
X229406653Y-169633312D01*
X229391950Y-169745000D01*
X228550500Y-169745000D01*
X228550500Y-165545000D01*
X229391950Y-165545000D01*
X230857096Y-165545000D01*
X230825000Y-165706358D01*
X230825000Y-165883642D01*
X230857096Y-166045000D01*
X229391950Y-166045000D01*
X229406653Y-166156687D01*
X229469421Y-166390939D01*
X229562220Y-166614978D01*
X229562227Y-166614993D01*
X229683480Y-166825009D01*
X229831110Y-167017405D01*
X229831116Y-167017412D01*
X230002587Y-167188883D01*
X230002594Y-167188889D01*
X230194990Y-167336519D01*
X230405006Y-167457772D01*
X230405021Y-167457779D01*
X230629060Y-167550578D01*
X230863312Y-167613346D01*
X231103735Y-167644998D01*
X231103752Y-167645000D01*
X231475000Y-167645000D01*
X231475000Y-166662904D01*
X231636358Y-166695000D01*
X231813642Y-166695000D01*
X231975000Y-166662904D01*
X231975000Y-167645000D01*
X232346248Y-167645000D01*
X232346264Y-167644998D01*
X232586687Y-167613346D01*
X232820939Y-167550578D01*
X233044978Y-167457779D01*
X233044993Y-167457772D01*
X233255009Y-167336519D01*
X233447405Y-167188889D01*
X233447412Y-167188883D01*
X233618883Y-167017412D01*
X233618889Y-167017405D01*
X233766519Y-166825009D01*
X233887772Y-166614993D01*
X233887779Y-166614978D01*
X233980578Y-166390939D01*
X234043346Y-166156687D01*
X234058050Y-166045000D01*
X232592904Y-166045000D01*
X232625000Y-165883642D01*
X232625000Y-165706358D01*
X232592904Y-165545000D01*
X234058049Y-165545000D01*
X234043346Y-165433312D01*
X233980578Y-165199060D01*
X233887779Y-164975021D01*
X233887772Y-164975006D01*
X233766519Y-164764990D01*
X233729942Y-164717321D01*
X233674436Y-164644984D01*
X234874500Y-164644984D01*
X234874500Y-166945015D01*
X234885000Y-167047795D01*
X234885001Y-167047796D01*
X234940186Y-167214335D01*
X234940187Y-167214337D01*
X235032286Y-167363651D01*
X235032289Y-167363655D01*
X235156344Y-167487710D01*
X235156348Y-167487713D01*
X235305662Y-167579812D01*
X235305664Y-167579813D01*
X235305666Y-167579814D01*
X235472203Y-167634999D01*
X235574992Y-167645500D01*
X235574997Y-167645500D01*
X238875003Y-167645500D01*
X238875008Y-167645500D01*
X238977797Y-167634999D01*
X239144334Y-167579814D01*
X239293655Y-167487711D01*
X239417711Y-167363655D01*
X239509814Y-167214334D01*
X239564999Y-167047797D01*
X239575500Y-166945008D01*
X239575500Y-165680258D01*
X242774500Y-165680258D01*
X242774500Y-165909741D01*
X242792308Y-166045000D01*
X242804452Y-166137238D01*
X242844835Y-166287950D01*
X242863842Y-166358887D01*
X242951650Y-166570876D01*
X242951657Y-166570890D01*
X243066392Y-166769617D01*
X243206081Y-166951661D01*
X243206089Y-166951670D01*
X243368330Y-167113911D01*
X243368338Y-167113918D01*
X243550382Y-167253607D01*
X243550385Y-167253608D01*
X243550388Y-167253611D01*
X243749112Y-167368344D01*
X243749117Y-167368346D01*
X243749123Y-167368349D01*
X243829051Y-167401456D01*
X243961113Y-167456158D01*
X244182762Y-167515548D01*
X244410266Y-167545500D01*
X244410273Y-167545500D01*
X244639727Y-167545500D01*
X244639734Y-167545500D01*
X244867238Y-167515548D01*
X245088887Y-167456158D01*
X245300888Y-167368344D01*
X245499612Y-167253611D01*
X245681661Y-167113919D01*
X245681665Y-167113914D01*
X245681670Y-167113911D01*
X245843911Y-166951670D01*
X245843914Y-166951665D01*
X245843919Y-166951661D01*
X245983611Y-166769612D01*
X246098344Y-166570888D01*
X246186158Y-166358887D01*
X246245548Y-166137238D01*
X246275500Y-165909734D01*
X246275500Y-165680266D01*
X246245548Y-165452762D01*
X246186158Y-165231113D01*
X246098344Y-165019112D01*
X245983611Y-164820388D01*
X245983608Y-164820385D01*
X245983607Y-164820382D01*
X245843918Y-164638338D01*
X245843911Y-164638330D01*
X245681670Y-164476089D01*
X245681661Y-164476081D01*
X245499617Y-164336392D01*
X245300890Y-164221657D01*
X245300876Y-164221650D01*
X245088887Y-164133842D01*
X245082860Y-164132227D01*
X244867238Y-164074452D01*
X244829215Y-164069446D01*
X244639741Y-164044500D01*
X244639734Y-164044500D01*
X244410266Y-164044500D01*
X244410258Y-164044500D01*
X244193715Y-164073009D01*
X244182762Y-164074452D01*
X244089076Y-164099554D01*
X243961112Y-164133842D01*
X243749123Y-164221650D01*
X243749109Y-164221657D01*
X243550382Y-164336392D01*
X243368338Y-164476081D01*
X243206081Y-164638338D01*
X243066392Y-164820382D01*
X242951657Y-165019109D01*
X242951650Y-165019123D01*
X242863842Y-165231112D01*
X242804453Y-165452759D01*
X242804451Y-165452770D01*
X242774500Y-165680258D01*
X239575500Y-165680258D01*
X239575500Y-164644992D01*
X239564999Y-164542203D01*
X239509814Y-164375666D01*
X239485589Y-164336392D01*
X239417713Y-164226348D01*
X239417710Y-164226344D01*
X239293655Y-164102289D01*
X239293651Y-164102286D01*
X239144337Y-164010187D01*
X239144335Y-164010186D01*
X239043138Y-163976653D01*
X238977797Y-163955001D01*
X238977795Y-163955000D01*
X238875015Y-163944500D01*
X238875008Y-163944500D01*
X235574992Y-163944500D01*
X235574984Y-163944500D01*
X235472204Y-163955000D01*
X235472203Y-163955001D01*
X235305664Y-164010186D01*
X235305662Y-164010187D01*
X235156348Y-164102286D01*
X235156344Y-164102289D01*
X235032289Y-164226344D01*
X235032286Y-164226348D01*
X234940187Y-164375662D01*
X234940186Y-164375664D01*
X234885001Y-164542203D01*
X234885000Y-164542204D01*
X234874500Y-164644984D01*
X233674436Y-164644984D01*
X233618889Y-164572594D01*
X233618883Y-164572587D01*
X233447412Y-164401116D01*
X233447405Y-164401110D01*
X233255009Y-164253480D01*
X233044993Y-164132227D01*
X233044978Y-164132220D01*
X232820939Y-164039421D01*
X232586687Y-163976653D01*
X232346264Y-163945001D01*
X232346248Y-163945000D01*
X231975000Y-163945000D01*
X231975000Y-164927095D01*
X231813642Y-164895000D01*
X231636358Y-164895000D01*
X231475000Y-164927095D01*
X231475000Y-163945000D01*
X231103752Y-163945000D01*
X231103735Y-163945001D01*
X230863312Y-163976653D01*
X230629060Y-164039421D01*
X230405021Y-164132220D01*
X230405006Y-164132227D01*
X230194990Y-164253480D01*
X230002594Y-164401110D01*
X230002587Y-164401116D01*
X229831116Y-164572587D01*
X229831110Y-164572594D01*
X229683480Y-164764990D01*
X229562227Y-164975006D01*
X229562220Y-164975021D01*
X229469421Y-165199060D01*
X229406653Y-165433312D01*
X229391950Y-165545000D01*
X228550500Y-165545000D01*
X228550500Y-163890434D01*
X228570185Y-163823395D01*
X228571398Y-163821543D01*
X228618161Y-163751557D01*
X228636632Y-163723914D01*
X228712051Y-163541835D01*
X228732063Y-163441228D01*
X228750500Y-163348543D01*
X228750500Y-163151456D01*
X228710863Y-162952191D01*
X228712684Y-162951828D01*
X228712129Y-162890647D01*
X228749368Y-162831528D01*
X228812657Y-162801927D01*
X228831418Y-162800500D01*
X239578844Y-162800500D01*
X239578845Y-162800499D01*
X239733497Y-162769737D01*
X239879179Y-162709394D01*
X240010289Y-162621789D01*
X242121789Y-160510289D01*
X242209394Y-160379179D01*
X242269737Y-160233497D01*
X242300500Y-160078842D01*
X242300500Y-156385258D01*
X242749500Y-156385258D01*
X242749500Y-156614741D01*
X242771411Y-156781161D01*
X242779452Y-156842238D01*
X242837282Y-157058064D01*
X242838842Y-157063887D01*
X242926650Y-157275876D01*
X242926657Y-157275890D01*
X242940862Y-157300493D01*
X243012998Y-157425438D01*
X243041392Y-157474617D01*
X243181081Y-157656661D01*
X243181089Y-157656670D01*
X243343330Y-157818911D01*
X243343338Y-157818918D01*
X243343339Y-157818919D01*
X243362670Y-157833752D01*
X243525382Y-157958607D01*
X243525385Y-157958608D01*
X243525388Y-157958611D01*
X243724112Y-158073344D01*
X243724117Y-158073346D01*
X243724123Y-158073349D01*
X243815480Y-158111190D01*
X243936113Y-158161158D01*
X244157762Y-158220548D01*
X244385266Y-158250500D01*
X244385273Y-158250500D01*
X244614727Y-158250500D01*
X244614734Y-158250500D01*
X244842238Y-158220548D01*
X245063887Y-158161158D01*
X245275888Y-158073344D01*
X245474612Y-157958611D01*
X245656661Y-157818919D01*
X245656665Y-157818914D01*
X245656670Y-157818911D01*
X245818911Y-157656670D01*
X245818914Y-157656665D01*
X245818919Y-157656661D01*
X245958611Y-157474612D01*
X246073344Y-157275888D01*
X246161158Y-157063887D01*
X246220548Y-156842238D01*
X246250500Y-156614734D01*
X246250500Y-156385266D01*
X246220548Y-156157762D01*
X246161158Y-155936113D01*
X246102403Y-155794266D01*
X246073349Y-155724123D01*
X246073346Y-155724117D01*
X246073344Y-155724112D01*
X245958611Y-155525388D01*
X245958608Y-155525385D01*
X245958607Y-155525382D01*
X245818918Y-155343338D01*
X245818911Y-155343330D01*
X245656670Y-155181089D01*
X245656661Y-155181081D01*
X245474617Y-155041392D01*
X245275890Y-154926657D01*
X245275876Y-154926650D01*
X245063887Y-154838842D01*
X244842238Y-154779452D01*
X244804215Y-154774446D01*
X244614741Y-154749500D01*
X244614734Y-154749500D01*
X244385266Y-154749500D01*
X244385258Y-154749500D01*
X244168715Y-154778009D01*
X244157762Y-154779452D01*
X244064076Y-154804554D01*
X243936112Y-154838842D01*
X243724123Y-154926650D01*
X243724109Y-154926657D01*
X243525382Y-155041392D01*
X243343338Y-155181081D01*
X243181081Y-155343338D01*
X243041392Y-155525382D01*
X242926657Y-155724109D01*
X242926650Y-155724123D01*
X242838842Y-155936112D01*
X242779453Y-156157759D01*
X242779451Y-156157770D01*
X242749500Y-156385258D01*
X242300500Y-156385258D01*
X242300500Y-153890434D01*
X242320185Y-153823395D01*
X242321398Y-153821543D01*
X242333190Y-153803895D01*
X242386632Y-153723914D01*
X242462051Y-153541835D01*
X242500500Y-153348541D01*
X242500500Y-153151459D01*
X242500500Y-153151456D01*
X242462052Y-152958170D01*
X242462051Y-152958169D01*
X242462051Y-152958165D01*
X242423022Y-152863940D01*
X242386635Y-152776092D01*
X242386628Y-152776079D01*
X242277139Y-152612218D01*
X242277136Y-152612214D01*
X242137785Y-152472863D01*
X242137781Y-152472860D01*
X241973920Y-152363371D01*
X241973907Y-152363364D01*
X241791839Y-152287950D01*
X241791829Y-152287947D01*
X241598543Y-152249500D01*
X241598541Y-152249500D01*
X241401459Y-152249500D01*
X241401457Y-152249500D01*
X241208170Y-152287947D01*
X241208160Y-152287950D01*
X241026092Y-152363364D01*
X241026079Y-152363371D01*
X240862218Y-152472860D01*
X240862214Y-152472863D01*
X240722863Y-152612214D01*
X240722860Y-152612218D01*
X240613371Y-152776079D01*
X240613364Y-152776092D01*
X240537950Y-152958160D01*
X240537947Y-152958170D01*
X240499500Y-153151456D01*
X240499500Y-153151459D01*
X240499500Y-153348541D01*
X240499500Y-153348543D01*
X240499499Y-153348543D01*
X240537947Y-153541829D01*
X240537950Y-153541839D01*
X240613364Y-153723907D01*
X240613371Y-153723919D01*
X240678602Y-153821543D01*
X240699480Y-153888220D01*
X240699500Y-153890434D01*
X240699500Y-159617060D01*
X240679815Y-159684099D01*
X240663181Y-159704741D01*
X239204741Y-161163181D01*
X239143418Y-161196666D01*
X239117060Y-161199500D01*
X224421153Y-161199500D01*
X224266510Y-161230260D01*
X224266502Y-161230262D01*
X224120824Y-161290604D01*
X224120814Y-161290609D01*
X223989711Y-161378210D01*
X223989707Y-161378213D01*
X221204741Y-164163181D01*
X221143418Y-164196666D01*
X221117060Y-164199500D01*
X198632940Y-164199500D01*
X198565901Y-164179815D01*
X198545259Y-164163181D01*
X197766230Y-163384152D01*
X197732745Y-163322829D01*
X197737729Y-163253137D01*
X197753590Y-163223590D01*
X197765051Y-163207816D01*
X197769514Y-163199054D01*
X197817488Y-163148259D01*
X197885308Y-163131463D01*
X197951444Y-163153999D01*
X197990486Y-163199056D01*
X197994951Y-163207820D01*
X198119890Y-163379786D01*
X198270213Y-163530109D01*
X198442179Y-163655048D01*
X198442181Y-163655049D01*
X198442184Y-163655051D01*
X198631588Y-163751557D01*
X198833757Y-163817246D01*
X199043713Y-163850500D01*
X199043714Y-163850500D01*
X199256286Y-163850500D01*
X199256287Y-163850500D01*
X199466243Y-163817246D01*
X199668412Y-163751557D01*
X199857816Y-163655051D01*
X199909922Y-163617194D01*
X200029786Y-163530109D01*
X200029788Y-163530106D01*
X200029792Y-163530104D01*
X200180104Y-163379792D01*
X200180106Y-163379788D01*
X200180109Y-163379786D01*
X200305048Y-163207820D01*
X200305047Y-163207820D01*
X200305051Y-163207816D01*
X200309514Y-163199054D01*
X200357488Y-163148259D01*
X200425308Y-163131463D01*
X200491444Y-163153999D01*
X200530486Y-163199056D01*
X200534951Y-163207820D01*
X200659890Y-163379786D01*
X200810213Y-163530109D01*
X200982179Y-163655048D01*
X200982181Y-163655049D01*
X200982184Y-163655051D01*
X201171588Y-163751557D01*
X201373757Y-163817246D01*
X201583713Y-163850500D01*
X201583714Y-163850500D01*
X201796286Y-163850500D01*
X201796287Y-163850500D01*
X202006243Y-163817246D01*
X202208412Y-163751557D01*
X202397816Y-163655051D01*
X202449922Y-163617194D01*
X202569786Y-163530109D01*
X202569788Y-163530106D01*
X202569792Y-163530104D01*
X202720104Y-163379792D01*
X202720106Y-163379788D01*
X202720109Y-163379786D01*
X202845048Y-163207820D01*
X202845047Y-163207820D01*
X202845051Y-163207816D01*
X202849514Y-163199054D01*
X202897488Y-163148259D01*
X202965308Y-163131463D01*
X203031444Y-163153999D01*
X203070486Y-163199056D01*
X203074951Y-163207820D01*
X203199890Y-163379786D01*
X203350213Y-163530109D01*
X203522179Y-163655048D01*
X203522181Y-163655049D01*
X203522184Y-163655051D01*
X203711588Y-163751557D01*
X203913757Y-163817246D01*
X204123713Y-163850500D01*
X204123714Y-163850500D01*
X204336286Y-163850500D01*
X204336287Y-163850500D01*
X204546243Y-163817246D01*
X204748412Y-163751557D01*
X204937816Y-163655051D01*
X204989922Y-163617194D01*
X205109786Y-163530109D01*
X205109788Y-163530106D01*
X205109792Y-163530104D01*
X205260104Y-163379792D01*
X205260106Y-163379788D01*
X205260109Y-163379786D01*
X205385048Y-163207820D01*
X205385047Y-163207820D01*
X205385051Y-163207816D01*
X205389514Y-163199054D01*
X205437488Y-163148259D01*
X205505308Y-163131463D01*
X205571444Y-163153999D01*
X205610486Y-163199056D01*
X205614951Y-163207820D01*
X205739890Y-163379786D01*
X205890213Y-163530109D01*
X206062179Y-163655048D01*
X206062181Y-163655049D01*
X206062184Y-163655051D01*
X206251588Y-163751557D01*
X206453757Y-163817246D01*
X206663713Y-163850500D01*
X206663714Y-163850500D01*
X206876286Y-163850500D01*
X206876287Y-163850500D01*
X207086243Y-163817246D01*
X207288412Y-163751557D01*
X207477816Y-163655051D01*
X207529922Y-163617194D01*
X207649786Y-163530109D01*
X207649788Y-163530106D01*
X207649792Y-163530104D01*
X207800104Y-163379792D01*
X207800106Y-163379788D01*
X207800109Y-163379786D01*
X207925048Y-163207820D01*
X207925047Y-163207820D01*
X207925051Y-163207816D01*
X208021557Y-163018412D01*
X208087246Y-162816243D01*
X208120500Y-162606287D01*
X208120500Y-162393713D01*
X210499500Y-162393713D01*
X210499500Y-162606286D01*
X210530486Y-162801927D01*
X210532754Y-162816243D01*
X210578867Y-162958165D01*
X210598444Y-163018414D01*
X210694951Y-163207820D01*
X210819890Y-163379786D01*
X210970213Y-163530109D01*
X211142179Y-163655048D01*
X211142181Y-163655049D01*
X211142184Y-163655051D01*
X211331588Y-163751557D01*
X211533757Y-163817246D01*
X211743713Y-163850500D01*
X211743714Y-163850500D01*
X211956286Y-163850500D01*
X211956287Y-163850500D01*
X212166243Y-163817246D01*
X212368412Y-163751557D01*
X212557816Y-163655051D01*
X212609922Y-163617194D01*
X212729786Y-163530109D01*
X212729788Y-163530106D01*
X212729792Y-163530104D01*
X212880104Y-163379792D01*
X212880106Y-163379788D01*
X212880109Y-163379786D01*
X213005048Y-163207820D01*
X213005047Y-163207820D01*
X213005051Y-163207816D01*
X213009514Y-163199054D01*
X213057488Y-163148259D01*
X213125308Y-163131463D01*
X213191444Y-163153999D01*
X213230486Y-163199056D01*
X213234951Y-163207820D01*
X213359890Y-163379786D01*
X213510213Y-163530109D01*
X213682179Y-163655048D01*
X213682181Y-163655049D01*
X213682184Y-163655051D01*
X213871588Y-163751557D01*
X214073757Y-163817246D01*
X214283713Y-163850500D01*
X214283714Y-163850500D01*
X214496286Y-163850500D01*
X214496287Y-163850500D01*
X214706243Y-163817246D01*
X214908412Y-163751557D01*
X215097816Y-163655051D01*
X215149922Y-163617194D01*
X215269786Y-163530109D01*
X215269788Y-163530106D01*
X215269792Y-163530104D01*
X215420104Y-163379792D01*
X215420106Y-163379788D01*
X215420109Y-163379786D01*
X215505890Y-163261717D01*
X215545051Y-163207816D01*
X215549793Y-163198508D01*
X215597763Y-163147711D01*
X215665583Y-163130911D01*
X215731719Y-163153445D01*
X215770763Y-163198500D01*
X215775373Y-163207547D01*
X215814728Y-163261716D01*
X216447037Y-162629408D01*
X216464075Y-162692993D01*
X216529901Y-162807007D01*
X216622993Y-162900099D01*
X216737007Y-162965925D01*
X216800590Y-162982962D01*
X216168282Y-163615269D01*
X216168282Y-163615270D01*
X216222449Y-163654624D01*
X216411782Y-163751095D01*
X216613870Y-163816757D01*
X216823754Y-163850000D01*
X217036246Y-163850000D01*
X217246127Y-163816757D01*
X217246130Y-163816757D01*
X217448217Y-163751095D01*
X217637554Y-163654622D01*
X217691716Y-163615270D01*
X217691717Y-163615270D01*
X217059408Y-162982962D01*
X217122993Y-162965925D01*
X217237007Y-162900099D01*
X217330099Y-162807007D01*
X217395925Y-162692993D01*
X217412962Y-162629408D01*
X218045270Y-163261717D01*
X218045270Y-163261716D01*
X218084622Y-163207555D01*
X218089232Y-163198507D01*
X218137205Y-163147709D01*
X218205025Y-163130912D01*
X218271161Y-163153447D01*
X218310204Y-163198504D01*
X218314949Y-163207817D01*
X218439890Y-163379786D01*
X218590213Y-163530109D01*
X218762179Y-163655048D01*
X218762181Y-163655049D01*
X218762184Y-163655051D01*
X218951588Y-163751557D01*
X219153757Y-163817246D01*
X219363713Y-163850500D01*
X219363714Y-163850500D01*
X219576286Y-163850500D01*
X219576287Y-163850500D01*
X219786243Y-163817246D01*
X219988412Y-163751557D01*
X220177816Y-163655051D01*
X220229922Y-163617194D01*
X220349786Y-163530109D01*
X220349788Y-163530106D01*
X220349792Y-163530104D01*
X220500104Y-163379792D01*
X220500106Y-163379788D01*
X220500109Y-163379786D01*
X220625048Y-163207820D01*
X220625047Y-163207820D01*
X220625051Y-163207816D01*
X220721557Y-163018412D01*
X220787246Y-162816243D01*
X220820500Y-162606287D01*
X220820500Y-162393713D01*
X220787246Y-162183757D01*
X220721557Y-161981588D01*
X220625051Y-161792184D01*
X220625049Y-161792181D01*
X220625048Y-161792179D01*
X220500109Y-161620213D01*
X220349786Y-161469890D01*
X220177820Y-161344951D01*
X219988414Y-161248444D01*
X219988413Y-161248443D01*
X219988412Y-161248443D01*
X219786243Y-161182754D01*
X219786241Y-161182753D01*
X219786240Y-161182753D01*
X219624957Y-161157208D01*
X219576287Y-161149500D01*
X219363713Y-161149500D01*
X219315042Y-161157208D01*
X219153760Y-161182753D01*
X218951585Y-161248444D01*
X218762179Y-161344951D01*
X218590213Y-161469890D01*
X218439890Y-161620213D01*
X218314949Y-161792182D01*
X218310202Y-161801499D01*
X218262227Y-161852293D01*
X218194405Y-161869087D01*
X218128271Y-161846548D01*
X218089234Y-161801495D01*
X218084626Y-161792452D01*
X218045270Y-161738282D01*
X218045269Y-161738282D01*
X217412962Y-162370590D01*
X217395925Y-162307007D01*
X217330099Y-162192993D01*
X217237007Y-162099901D01*
X217122993Y-162034075D01*
X217059409Y-162017037D01*
X217691716Y-161384728D01*
X217637550Y-161345375D01*
X217448217Y-161248904D01*
X217246129Y-161183242D01*
X217036246Y-161150000D01*
X216823754Y-161150000D01*
X216613872Y-161183242D01*
X216613869Y-161183242D01*
X216411782Y-161248904D01*
X216222439Y-161345380D01*
X216168282Y-161384727D01*
X216168282Y-161384728D01*
X216800591Y-162017037D01*
X216737007Y-162034075D01*
X216622993Y-162099901D01*
X216529901Y-162192993D01*
X216464075Y-162307007D01*
X216447037Y-162370591D01*
X215814728Y-161738282D01*
X215814727Y-161738282D01*
X215775380Y-161792440D01*
X215775376Y-161792446D01*
X215770760Y-161801505D01*
X215722781Y-161852297D01*
X215654959Y-161869087D01*
X215588826Y-161846543D01*
X215549794Y-161801493D01*
X215545051Y-161792184D01*
X215545049Y-161792181D01*
X215545048Y-161792179D01*
X215420109Y-161620213D01*
X215269786Y-161469890D01*
X215097820Y-161344951D01*
X214908414Y-161248444D01*
X214908413Y-161248443D01*
X214908412Y-161248443D01*
X214706243Y-161182754D01*
X214706241Y-161182753D01*
X214706240Y-161182753D01*
X214544957Y-161157208D01*
X214496287Y-161149500D01*
X214283713Y-161149500D01*
X214235042Y-161157208D01*
X214073760Y-161182753D01*
X213871585Y-161248444D01*
X213682179Y-161344951D01*
X213510213Y-161469890D01*
X213359890Y-161620213D01*
X213234949Y-161792182D01*
X213230484Y-161800946D01*
X213182509Y-161851742D01*
X213114688Y-161868536D01*
X213048553Y-161845998D01*
X213009516Y-161800946D01*
X213005050Y-161792182D01*
X212880109Y-161620213D01*
X212729786Y-161469890D01*
X212557820Y-161344951D01*
X212368414Y-161248444D01*
X212368413Y-161248443D01*
X212368412Y-161248443D01*
X212166243Y-161182754D01*
X212166241Y-161182753D01*
X212166240Y-161182753D01*
X212004957Y-161157208D01*
X211956287Y-161149500D01*
X211743713Y-161149500D01*
X211695042Y-161157208D01*
X211533760Y-161182753D01*
X211331585Y-161248444D01*
X211142179Y-161344951D01*
X210970213Y-161469890D01*
X210819890Y-161620213D01*
X210694951Y-161792179D01*
X210598444Y-161981585D01*
X210532753Y-162183760D01*
X210499500Y-162393713D01*
X208120500Y-162393713D01*
X208087246Y-162183757D01*
X208021557Y-161981588D01*
X207925051Y-161792184D01*
X207925049Y-161792181D01*
X207925048Y-161792179D01*
X207800109Y-161620213D01*
X207649794Y-161469898D01*
X207649792Y-161469896D01*
X207621613Y-161449422D01*
X207578949Y-161394094D01*
X207570500Y-161349106D01*
X207570500Y-158482338D01*
X207570500Y-158478711D01*
X229349500Y-158478711D01*
X229349500Y-158721288D01*
X229381161Y-158961785D01*
X229443947Y-159196104D01*
X229509107Y-159353414D01*
X229536776Y-159420212D01*
X229658064Y-159630289D01*
X229658066Y-159630292D01*
X229658067Y-159630293D01*
X229805733Y-159822736D01*
X229805739Y-159822743D01*
X229977256Y-159994260D01*
X229977262Y-159994265D01*
X230169711Y-160141936D01*
X230379788Y-160263224D01*
X230603900Y-160356054D01*
X230838211Y-160418838D01*
X231018586Y-160442584D01*
X231078711Y-160450500D01*
X231078712Y-160450500D01*
X232321289Y-160450500D01*
X232369388Y-160444167D01*
X232561789Y-160418838D01*
X232796100Y-160356054D01*
X233020212Y-160263224D01*
X233230289Y-160141936D01*
X233422738Y-159994265D01*
X233594265Y-159822738D01*
X233741936Y-159630289D01*
X233863224Y-159420212D01*
X233956054Y-159196100D01*
X234018838Y-158961789D01*
X234050500Y-158721288D01*
X234050500Y-158478712D01*
X234050500Y-158478711D01*
X234849500Y-158478711D01*
X234849500Y-158721288D01*
X234881161Y-158961785D01*
X234943947Y-159196104D01*
X235009107Y-159353414D01*
X235036776Y-159420212D01*
X235158064Y-159630289D01*
X235158066Y-159630292D01*
X235158067Y-159630293D01*
X235305733Y-159822736D01*
X235305739Y-159822743D01*
X235477256Y-159994260D01*
X235477262Y-159994265D01*
X235669711Y-160141936D01*
X235879788Y-160263224D01*
X236103900Y-160356054D01*
X236338211Y-160418838D01*
X236518586Y-160442584D01*
X236578711Y-160450500D01*
X236578712Y-160450500D01*
X237821289Y-160450500D01*
X237869388Y-160444167D01*
X238061789Y-160418838D01*
X238296100Y-160356054D01*
X238520212Y-160263224D01*
X238730289Y-160141936D01*
X238922738Y-159994265D01*
X239094265Y-159822738D01*
X239241936Y-159630289D01*
X239363224Y-159420212D01*
X239456054Y-159196100D01*
X239518838Y-158961789D01*
X239550500Y-158721288D01*
X239550500Y-158478712D01*
X239518838Y-158238211D01*
X239456054Y-158003900D01*
X239363224Y-157779788D01*
X239241936Y-157569711D01*
X239094265Y-157377262D01*
X239094260Y-157377256D01*
X238922743Y-157205739D01*
X238922736Y-157205733D01*
X238730293Y-157058067D01*
X238730292Y-157058066D01*
X238730289Y-157058064D01*
X238520212Y-156936776D01*
X238520205Y-156936773D01*
X238296104Y-156843947D01*
X238061785Y-156781161D01*
X237821289Y-156749500D01*
X237821288Y-156749500D01*
X236578712Y-156749500D01*
X236578711Y-156749500D01*
X236338214Y-156781161D01*
X236103895Y-156843947D01*
X235879794Y-156936773D01*
X235879785Y-156936777D01*
X235669706Y-157058067D01*
X235477263Y-157205733D01*
X235477256Y-157205739D01*
X235305739Y-157377256D01*
X235305733Y-157377263D01*
X235158067Y-157569706D01*
X235158064Y-157569710D01*
X235158064Y-157569711D01*
X235141817Y-157597851D01*
X235036777Y-157779785D01*
X235036773Y-157779794D01*
X234943947Y-158003895D01*
X234881161Y-158238214D01*
X234849500Y-158478711D01*
X234050500Y-158478711D01*
X234018838Y-158238211D01*
X233956054Y-158003900D01*
X233863224Y-157779788D01*
X233741936Y-157569711D01*
X233594265Y-157377262D01*
X233594260Y-157377256D01*
X233422743Y-157205739D01*
X233422736Y-157205733D01*
X233230293Y-157058067D01*
X233230292Y-157058066D01*
X233230289Y-157058064D01*
X233020212Y-156936776D01*
X233020205Y-156936773D01*
X232796104Y-156843947D01*
X232561785Y-156781161D01*
X232321289Y-156749500D01*
X232321288Y-156749500D01*
X231078712Y-156749500D01*
X231078711Y-156749500D01*
X230838214Y-156781161D01*
X230603895Y-156843947D01*
X230379794Y-156936773D01*
X230379785Y-156936777D01*
X230169706Y-157058067D01*
X229977263Y-157205733D01*
X229977256Y-157205739D01*
X229805739Y-157377256D01*
X229805733Y-157377263D01*
X229658067Y-157569706D01*
X229658064Y-157569710D01*
X229658064Y-157569711D01*
X229641817Y-157597851D01*
X229536777Y-157779785D01*
X229536773Y-157779794D01*
X229443947Y-158003895D01*
X229381161Y-158238214D01*
X229349500Y-158478711D01*
X207570500Y-158478711D01*
X207570500Y-158441158D01*
X207557679Y-158376700D01*
X207539737Y-158286502D01*
X207519735Y-158238214D01*
X207512418Y-158220548D01*
X207479395Y-158140823D01*
X207479390Y-158140814D01*
X207391790Y-158009712D01*
X207340685Y-157958607D01*
X207280289Y-157898211D01*
X206318851Y-156936773D01*
X205260292Y-155878213D01*
X205260288Y-155878210D01*
X205129185Y-155790609D01*
X205129172Y-155790602D01*
X204983501Y-155730264D01*
X204983489Y-155730261D01*
X204828845Y-155699500D01*
X204828842Y-155699500D01*
X199362185Y-155699500D01*
X199204501Y-155699500D01*
X199204498Y-155699500D01*
X199049853Y-155730261D01*
X199049841Y-155730264D01*
X198904170Y-155790602D01*
X198904157Y-155790609D01*
X198773054Y-155878210D01*
X198773050Y-155878213D01*
X197575565Y-157075698D01*
X197514242Y-157109183D01*
X197468487Y-157110490D01*
X197434088Y-157105042D01*
X197221514Y-157105042D01*
X197172843Y-157112750D01*
X197011561Y-157138295D01*
X196809386Y-157203986D01*
X196619980Y-157300493D01*
X196448014Y-157425432D01*
X196297691Y-157575755D01*
X196172750Y-157747724D01*
X196168285Y-157756488D01*
X196120310Y-157807284D01*
X196052489Y-157824078D01*
X195986354Y-157801540D01*
X195947317Y-157756488D01*
X195942851Y-157747724D01*
X195817910Y-157575755D01*
X195667587Y-157425432D01*
X195495621Y-157300493D01*
X195306215Y-157203986D01*
X195306214Y-157203985D01*
X195306213Y-157203985D01*
X195104044Y-157138296D01*
X195104042Y-157138295D01*
X195104041Y-157138295D01*
X194942758Y-157112750D01*
X194894088Y-157105042D01*
X194681514Y-157105042D01*
X194632843Y-157112750D01*
X194471561Y-157138295D01*
X194269386Y-157203986D01*
X194079980Y-157300493D01*
X193908016Y-157425431D01*
X193794474Y-157538973D01*
X193733151Y-157572457D01*
X193663459Y-157567473D01*
X193607526Y-157525601D01*
X193590611Y-157494624D01*
X193541598Y-157363213D01*
X193541594Y-157363206D01*
X193455348Y-157247997D01*
X193455345Y-157247994D01*
X193340136Y-157161748D01*
X193340129Y-157161744D01*
X193205283Y-157111450D01*
X193205284Y-157111450D01*
X193145684Y-157105043D01*
X193145682Y-157105042D01*
X193145674Y-157105042D01*
X193145665Y-157105042D01*
X191349930Y-157105042D01*
X191349924Y-157105043D01*
X191290317Y-157111450D01*
X191155472Y-157161744D01*
X191155465Y-157161748D01*
X191040256Y-157247994D01*
X191040253Y-157247997D01*
X190954007Y-157363206D01*
X190954003Y-157363213D01*
X190903709Y-157498059D01*
X190897302Y-157557658D01*
X190897301Y-157557677D01*
X190897301Y-159353412D01*
X190897302Y-159353418D01*
X190903709Y-159413025D01*
X190954003Y-159547870D01*
X190954007Y-159547877D01*
X191040253Y-159663086D01*
X191040256Y-159663089D01*
X191155465Y-159749335D01*
X191155472Y-159749339D01*
X191290318Y-159799633D01*
X191290317Y-159799633D01*
X191297245Y-159800377D01*
X191349928Y-159806042D01*
X193145673Y-159806041D01*
X193205284Y-159799633D01*
X193340132Y-159749338D01*
X193455347Y-159663088D01*
X193541597Y-159547873D01*
X193590611Y-159416458D01*
X193632482Y-159360526D01*
X193697946Y-159336108D01*
X193766219Y-159350959D01*
X193794474Y-159372111D01*
X193908014Y-159485651D01*
X194079980Y-159610590D01*
X194079982Y-159610591D01*
X194079985Y-159610593D01*
X194269389Y-159707099D01*
X194471558Y-159772788D01*
X194681514Y-159806042D01*
X194681515Y-159806042D01*
X194894087Y-159806042D01*
X194894088Y-159806042D01*
X195104044Y-159772788D01*
X195306213Y-159707099D01*
X195495617Y-159610593D01*
X195581939Y-159547877D01*
X195667587Y-159485651D01*
X195667589Y-159485648D01*
X195667593Y-159485646D01*
X195817905Y-159335334D01*
X195817907Y-159335330D01*
X195817910Y-159335328D01*
X195942849Y-159163362D01*
X195942848Y-159163362D01*
X195942852Y-159163358D01*
X195947315Y-159154596D01*
X195995289Y-159103801D01*
X196063109Y-159087005D01*
X196129245Y-159109541D01*
X196168287Y-159154598D01*
X196172752Y-159163362D01*
X196297691Y-159335328D01*
X196448014Y-159485651D01*
X196619980Y-159610590D01*
X196619982Y-159610591D01*
X196619985Y-159610593D01*
X196809389Y-159707099D01*
X197011558Y-159772788D01*
X197221514Y-159806042D01*
X197221515Y-159806042D01*
X197434087Y-159806042D01*
X197434088Y-159806042D01*
X197644044Y-159772788D01*
X197846213Y-159707099D01*
X198035617Y-159610593D01*
X198121939Y-159547877D01*
X198207587Y-159485651D01*
X198207589Y-159485648D01*
X198207593Y-159485646D01*
X198357905Y-159335334D01*
X198357907Y-159335330D01*
X198357910Y-159335328D01*
X198482849Y-159163362D01*
X198482848Y-159163362D01*
X198482852Y-159163358D01*
X198487315Y-159154596D01*
X198535289Y-159103801D01*
X198603109Y-159087005D01*
X198669245Y-159109541D01*
X198708287Y-159154598D01*
X198712752Y-159163362D01*
X198837691Y-159335328D01*
X198988014Y-159485651D01*
X199159980Y-159610590D01*
X199159982Y-159610591D01*
X199159985Y-159610593D01*
X199349389Y-159707099D01*
X199551558Y-159772788D01*
X199761514Y-159806042D01*
X199761515Y-159806042D01*
X199974087Y-159806042D01*
X199974088Y-159806042D01*
X200184044Y-159772788D01*
X200386213Y-159707099D01*
X200575617Y-159610593D01*
X200661939Y-159547877D01*
X200747587Y-159485651D01*
X200747589Y-159485648D01*
X200747593Y-159485646D01*
X200897905Y-159335334D01*
X200918378Y-159307155D01*
X200973707Y-159264491D01*
X201018695Y-159256042D01*
X201822602Y-159256042D01*
X201889641Y-159275727D01*
X201910283Y-159292361D01*
X203393181Y-160775259D01*
X203426666Y-160836582D01*
X203429500Y-160862940D01*
X203429500Y-161349106D01*
X203409815Y-161416145D01*
X203378387Y-161449422D01*
X203350208Y-161469896D01*
X203350206Y-161469898D01*
X203350205Y-161469898D01*
X203199890Y-161620213D01*
X203074949Y-161792182D01*
X203070484Y-161800946D01*
X203022509Y-161851742D01*
X202954688Y-161868536D01*
X202888553Y-161845998D01*
X202849516Y-161800946D01*
X202845050Y-161792182D01*
X202720109Y-161620213D01*
X202569786Y-161469890D01*
X202397820Y-161344951D01*
X202208414Y-161248444D01*
X202208413Y-161248443D01*
X202208412Y-161248443D01*
X202006243Y-161182754D01*
X202006241Y-161182753D01*
X202006240Y-161182753D01*
X201844957Y-161157208D01*
X201796287Y-161149500D01*
X201583713Y-161149500D01*
X201535042Y-161157208D01*
X201373760Y-161182753D01*
X201171585Y-161248444D01*
X200982179Y-161344951D01*
X200810213Y-161469890D01*
X200659890Y-161620213D01*
X200534949Y-161792182D01*
X200530484Y-161800946D01*
X200482509Y-161851742D01*
X200414688Y-161868536D01*
X200348553Y-161845998D01*
X200309516Y-161800946D01*
X200305050Y-161792182D01*
X200180109Y-161620213D01*
X200029786Y-161469890D01*
X199857820Y-161344951D01*
X199668414Y-161248444D01*
X199668413Y-161248443D01*
X199668412Y-161248443D01*
X199466243Y-161182754D01*
X199466241Y-161182753D01*
X199466240Y-161182753D01*
X199304957Y-161157208D01*
X199256287Y-161149500D01*
X199043713Y-161149500D01*
X198995042Y-161157208D01*
X198833760Y-161182753D01*
X198631585Y-161248444D01*
X198442179Y-161344951D01*
X198270213Y-161469890D01*
X198119890Y-161620213D01*
X197994949Y-161792182D01*
X197990484Y-161800946D01*
X197942509Y-161851742D01*
X197874688Y-161868536D01*
X197808553Y-161845998D01*
X197769516Y-161800946D01*
X197765050Y-161792182D01*
X197640109Y-161620213D01*
X197489786Y-161469890D01*
X197317820Y-161344951D01*
X197128414Y-161248444D01*
X197128413Y-161248443D01*
X197128412Y-161248443D01*
X196926243Y-161182754D01*
X196926241Y-161182753D01*
X196926240Y-161182753D01*
X196764957Y-161157208D01*
X196716287Y-161149500D01*
X196503713Y-161149500D01*
X196455042Y-161157208D01*
X196293760Y-161182753D01*
X196091585Y-161248444D01*
X195902179Y-161344951D01*
X195730213Y-161469890D01*
X195579890Y-161620213D01*
X195454949Y-161792182D01*
X195450484Y-161800946D01*
X195402509Y-161851742D01*
X195334688Y-161868536D01*
X195268553Y-161845998D01*
X195229516Y-161800946D01*
X195225050Y-161792182D01*
X195100109Y-161620213D01*
X194949786Y-161469890D01*
X194777820Y-161344951D01*
X194588414Y-161248444D01*
X194588413Y-161248443D01*
X194588412Y-161248443D01*
X194386243Y-161182754D01*
X194386241Y-161182753D01*
X194386240Y-161182753D01*
X194224957Y-161157208D01*
X194176287Y-161149500D01*
X193963713Y-161149500D01*
X193915042Y-161157208D01*
X193753760Y-161182753D01*
X193551585Y-161248444D01*
X193362179Y-161344951D01*
X193190213Y-161469890D01*
X193039890Y-161620213D01*
X192914949Y-161792182D01*
X192910484Y-161800946D01*
X192862509Y-161851742D01*
X192794688Y-161868536D01*
X192728553Y-161845998D01*
X192689516Y-161800946D01*
X192685050Y-161792182D01*
X192560109Y-161620213D01*
X192409786Y-161469890D01*
X192237820Y-161344951D01*
X192048414Y-161248444D01*
X192048413Y-161248443D01*
X192048412Y-161248443D01*
X191846243Y-161182754D01*
X191846241Y-161182753D01*
X191846240Y-161182753D01*
X191684957Y-161157208D01*
X191636287Y-161149500D01*
X191423713Y-161149500D01*
X191375042Y-161157208D01*
X191213760Y-161182753D01*
X191011585Y-161248444D01*
X190822179Y-161344951D01*
X190650213Y-161469890D01*
X190499890Y-161620213D01*
X190374949Y-161792182D01*
X190370484Y-161800946D01*
X190322509Y-161851742D01*
X190254688Y-161868536D01*
X190188553Y-161845998D01*
X190149516Y-161800946D01*
X190145050Y-161792182D01*
X190020109Y-161620213D01*
X189869786Y-161469890D01*
X189697820Y-161344951D01*
X189508414Y-161248444D01*
X189508413Y-161248443D01*
X189508412Y-161248443D01*
X189306243Y-161182754D01*
X189306241Y-161182753D01*
X189306240Y-161182753D01*
X189144957Y-161157208D01*
X189096287Y-161149500D01*
X188883713Y-161149500D01*
X188835042Y-161157208D01*
X188673760Y-161182753D01*
X188471585Y-161248444D01*
X188282179Y-161344951D01*
X188110213Y-161469890D01*
X187959890Y-161620213D01*
X187834949Y-161792182D01*
X187830484Y-161800946D01*
X187782509Y-161851742D01*
X187714688Y-161868536D01*
X187648553Y-161845998D01*
X187609516Y-161800946D01*
X187605050Y-161792182D01*
X187480109Y-161620213D01*
X187329786Y-161469890D01*
X187157820Y-161344951D01*
X186968414Y-161248444D01*
X186968413Y-161248443D01*
X186968412Y-161248443D01*
X186766243Y-161182754D01*
X186766241Y-161182753D01*
X186766240Y-161182753D01*
X186604957Y-161157208D01*
X186556287Y-161149500D01*
X186343713Y-161149500D01*
X186295042Y-161157208D01*
X186133760Y-161182753D01*
X185931585Y-161248444D01*
X185742179Y-161344951D01*
X185570213Y-161469890D01*
X185419890Y-161620213D01*
X185294949Y-161792182D01*
X185290484Y-161800946D01*
X185242509Y-161851742D01*
X185174688Y-161868536D01*
X185108553Y-161845998D01*
X185069516Y-161800946D01*
X185065050Y-161792182D01*
X184940109Y-161620213D01*
X184789786Y-161469890D01*
X184617820Y-161344951D01*
X184428414Y-161248444D01*
X184428413Y-161248443D01*
X184428412Y-161248443D01*
X184226243Y-161182754D01*
X184226241Y-161182753D01*
X184226240Y-161182753D01*
X184064957Y-161157208D01*
X184016287Y-161149500D01*
X183803713Y-161149500D01*
X183755042Y-161157208D01*
X183593760Y-161182753D01*
X183391585Y-161248444D01*
X183202179Y-161344951D01*
X183030213Y-161469890D01*
X182879890Y-161620213D01*
X182754949Y-161792182D01*
X182750484Y-161800946D01*
X182702509Y-161851742D01*
X182634688Y-161868536D01*
X182568553Y-161845998D01*
X182529516Y-161800946D01*
X182525050Y-161792182D01*
X182400109Y-161620213D01*
X182249786Y-161469890D01*
X182077820Y-161344951D01*
X181888414Y-161248444D01*
X181888413Y-161248443D01*
X181888412Y-161248443D01*
X181686243Y-161182754D01*
X181686241Y-161182753D01*
X181686240Y-161182753D01*
X181524957Y-161157208D01*
X181476287Y-161149500D01*
X181263713Y-161149500D01*
X181215042Y-161157208D01*
X181053760Y-161182753D01*
X180851585Y-161248444D01*
X180662179Y-161344951D01*
X180490213Y-161469890D01*
X180339890Y-161620213D01*
X180214949Y-161792182D01*
X180210484Y-161800946D01*
X180162509Y-161851742D01*
X180094688Y-161868536D01*
X180028553Y-161845998D01*
X179989516Y-161800946D01*
X179985050Y-161792182D01*
X179860109Y-161620213D01*
X179709786Y-161469890D01*
X179537820Y-161344951D01*
X179348414Y-161248444D01*
X179348413Y-161248443D01*
X179348412Y-161248443D01*
X179146243Y-161182754D01*
X179146241Y-161182753D01*
X179146240Y-161182753D01*
X178984957Y-161157208D01*
X178936287Y-161149500D01*
X178723713Y-161149500D01*
X178675042Y-161157208D01*
X178513760Y-161182753D01*
X178311585Y-161248444D01*
X178122179Y-161344951D01*
X177950213Y-161469890D01*
X177799890Y-161620213D01*
X177674949Y-161792182D01*
X177670484Y-161800946D01*
X177622509Y-161851742D01*
X177554688Y-161868536D01*
X177488553Y-161845998D01*
X177449516Y-161800946D01*
X177445050Y-161792182D01*
X177320109Y-161620213D01*
X177169786Y-161469890D01*
X176997820Y-161344951D01*
X176808414Y-161248444D01*
X176808413Y-161248443D01*
X176808412Y-161248443D01*
X176606243Y-161182754D01*
X176606241Y-161182753D01*
X176606240Y-161182753D01*
X176444957Y-161157208D01*
X176396287Y-161149500D01*
X176183713Y-161149500D01*
X176135042Y-161157208D01*
X175973760Y-161182753D01*
X175771585Y-161248444D01*
X175582179Y-161344951D01*
X175410213Y-161469890D01*
X175259890Y-161620213D01*
X175134949Y-161792182D01*
X175130484Y-161800946D01*
X175082509Y-161851742D01*
X175014688Y-161868536D01*
X174948553Y-161845998D01*
X174909516Y-161800946D01*
X174905050Y-161792182D01*
X174780109Y-161620213D01*
X174629786Y-161469890D01*
X174457820Y-161344951D01*
X174268414Y-161248444D01*
X174268413Y-161248443D01*
X174268412Y-161248443D01*
X174066243Y-161182754D01*
X174066241Y-161182753D01*
X174066240Y-161182753D01*
X173904957Y-161157208D01*
X173856287Y-161149500D01*
X173643713Y-161149500D01*
X173595042Y-161157208D01*
X173433760Y-161182753D01*
X173231585Y-161248444D01*
X173042179Y-161344951D01*
X172870213Y-161469890D01*
X172719890Y-161620213D01*
X172594949Y-161792182D01*
X172590484Y-161800946D01*
X172542509Y-161851742D01*
X172474688Y-161868536D01*
X172408553Y-161845998D01*
X172369516Y-161800946D01*
X172365050Y-161792182D01*
X172240109Y-161620213D01*
X172089786Y-161469890D01*
X171917820Y-161344951D01*
X171728414Y-161248444D01*
X171728413Y-161248443D01*
X171728412Y-161248443D01*
X171526243Y-161182754D01*
X171526241Y-161182753D01*
X171526240Y-161182753D01*
X171364957Y-161157208D01*
X171316287Y-161149500D01*
X171103713Y-161149500D01*
X171055042Y-161157208D01*
X170893760Y-161182753D01*
X170691585Y-161248444D01*
X170502179Y-161344951D01*
X170330213Y-161469890D01*
X170179890Y-161620213D01*
X170054951Y-161792179D01*
X169958444Y-161981585D01*
X169892753Y-162183760D01*
X169859500Y-162393713D01*
X169050500Y-162393713D01*
X169050500Y-149382940D01*
X169070185Y-149315901D01*
X169086819Y-149295259D01*
X170123410Y-148258668D01*
X170184733Y-148225183D01*
X170254425Y-148230167D01*
X170298772Y-148258668D01*
X170330213Y-148290109D01*
X170502179Y-148415048D01*
X170502181Y-148415049D01*
X170502184Y-148415051D01*
X170691588Y-148511557D01*
X170893757Y-148577246D01*
X171103713Y-148610500D01*
X171103714Y-148610500D01*
X171316286Y-148610500D01*
X171316287Y-148610500D01*
X171526243Y-148577246D01*
X171728412Y-148511557D01*
X171917816Y-148415051D01*
X171985342Y-148365991D01*
X172089786Y-148290109D01*
X172089788Y-148290106D01*
X172089792Y-148290104D01*
X172240104Y-148139792D01*
X172240106Y-148139788D01*
X172240109Y-148139786D01*
X172325890Y-148021717D01*
X172365051Y-147967816D01*
X172369793Y-147958508D01*
X172417763Y-147907711D01*
X172485583Y-147890911D01*
X172551719Y-147913445D01*
X172590763Y-147958500D01*
X172595373Y-147967547D01*
X172634728Y-148021716D01*
X173267037Y-147389408D01*
X173284075Y-147452993D01*
X173349901Y-147567007D01*
X173442993Y-147660099D01*
X173557007Y-147725925D01*
X173620590Y-147742962D01*
X172988282Y-148375269D01*
X172988282Y-148375270D01*
X173042449Y-148414624D01*
X173231782Y-148511095D01*
X173433870Y-148576757D01*
X173643754Y-148610000D01*
X173856246Y-148610000D01*
X174066127Y-148576757D01*
X174066130Y-148576757D01*
X174268217Y-148511095D01*
X174457554Y-148414622D01*
X174511716Y-148375270D01*
X174511717Y-148375270D01*
X173879408Y-147742962D01*
X173942993Y-147725925D01*
X174057007Y-147660099D01*
X174150099Y-147567007D01*
X174215925Y-147452993D01*
X174232962Y-147389408D01*
X174865270Y-148021717D01*
X174865270Y-148021716D01*
X174904622Y-147967555D01*
X174909232Y-147958507D01*
X174957205Y-147907709D01*
X175025025Y-147890912D01*
X175091161Y-147913447D01*
X175130204Y-147958504D01*
X175134949Y-147967817D01*
X175259890Y-148139786D01*
X175410213Y-148290109D01*
X175582179Y-148415048D01*
X175582181Y-148415049D01*
X175582184Y-148415051D01*
X175771588Y-148511557D01*
X175973757Y-148577246D01*
X176183713Y-148610500D01*
X176183714Y-148610500D01*
X176396286Y-148610500D01*
X176396287Y-148610500D01*
X176606243Y-148577246D01*
X176808412Y-148511557D01*
X176997816Y-148415051D01*
X177065342Y-148365991D01*
X177169786Y-148290109D01*
X177169788Y-148290106D01*
X177169792Y-148290104D01*
X177320104Y-148139792D01*
X177320106Y-148139788D01*
X177320109Y-148139786D01*
X177445048Y-147967820D01*
X177445047Y-147967820D01*
X177445051Y-147967816D01*
X177449514Y-147959054D01*
X177497488Y-147908259D01*
X177565308Y-147891463D01*
X177631444Y-147913999D01*
X177670486Y-147959056D01*
X177674951Y-147967820D01*
X177799890Y-148139786D01*
X177950213Y-148290109D01*
X178122179Y-148415048D01*
X178122181Y-148415049D01*
X178122184Y-148415051D01*
X178311588Y-148511557D01*
X178513757Y-148577246D01*
X178723713Y-148610500D01*
X178723714Y-148610500D01*
X178936286Y-148610500D01*
X178936287Y-148610500D01*
X179146243Y-148577246D01*
X179348412Y-148511557D01*
X179537816Y-148415051D01*
X179605342Y-148365991D01*
X179709786Y-148290109D01*
X179709788Y-148290106D01*
X179709792Y-148290104D01*
X179860104Y-148139792D01*
X179860106Y-148139788D01*
X179860109Y-148139786D01*
X179985048Y-147967820D01*
X179985047Y-147967820D01*
X179985051Y-147967816D01*
X179989514Y-147959054D01*
X180037488Y-147908259D01*
X180105308Y-147891463D01*
X180171444Y-147913999D01*
X180210486Y-147959056D01*
X180214951Y-147967820D01*
X180339890Y-148139786D01*
X180490213Y-148290109D01*
X180662179Y-148415048D01*
X180662181Y-148415049D01*
X180662184Y-148415051D01*
X180851588Y-148511557D01*
X181053757Y-148577246D01*
X181263713Y-148610500D01*
X181263714Y-148610500D01*
X181476286Y-148610500D01*
X181476287Y-148610500D01*
X181686243Y-148577246D01*
X181888412Y-148511557D01*
X182077816Y-148415051D01*
X182145342Y-148365991D01*
X182249786Y-148290109D01*
X182249788Y-148290106D01*
X182249792Y-148290104D01*
X182400104Y-148139792D01*
X182400106Y-148139788D01*
X182400109Y-148139786D01*
X182525048Y-147967820D01*
X182525047Y-147967820D01*
X182525051Y-147967816D01*
X182529514Y-147959054D01*
X182577488Y-147908259D01*
X182645308Y-147891463D01*
X182711444Y-147913999D01*
X182750486Y-147959056D01*
X182754951Y-147967820D01*
X182879890Y-148139786D01*
X183030213Y-148290109D01*
X183202179Y-148415048D01*
X183202181Y-148415049D01*
X183202184Y-148415051D01*
X183391588Y-148511557D01*
X183593757Y-148577246D01*
X183803713Y-148610500D01*
X183803714Y-148610500D01*
X184016286Y-148610500D01*
X184016287Y-148610500D01*
X184226243Y-148577246D01*
X184428412Y-148511557D01*
X184617816Y-148415051D01*
X184685342Y-148365991D01*
X184789786Y-148290109D01*
X184789788Y-148290106D01*
X184789792Y-148290104D01*
X184940104Y-148139792D01*
X184940106Y-148139788D01*
X184940109Y-148139786D01*
X185065048Y-147967820D01*
X185065047Y-147967820D01*
X185065051Y-147967816D01*
X185069514Y-147959054D01*
X185117488Y-147908259D01*
X185185308Y-147891463D01*
X185251444Y-147913999D01*
X185290486Y-147959056D01*
X185294951Y-147967820D01*
X185419890Y-148139786D01*
X185570213Y-148290109D01*
X185742179Y-148415048D01*
X185742181Y-148415049D01*
X185742184Y-148415051D01*
X185931588Y-148511557D01*
X186133757Y-148577246D01*
X186343713Y-148610500D01*
X186343714Y-148610500D01*
X186556286Y-148610500D01*
X186556287Y-148610500D01*
X186766243Y-148577246D01*
X186968412Y-148511557D01*
X187157816Y-148415051D01*
X187225342Y-148365991D01*
X187329786Y-148290109D01*
X187329788Y-148290106D01*
X187329792Y-148290104D01*
X187480104Y-148139792D01*
X187480106Y-148139788D01*
X187480109Y-148139786D01*
X187605048Y-147967820D01*
X187605047Y-147967820D01*
X187605051Y-147967816D01*
X187609514Y-147959054D01*
X187657488Y-147908259D01*
X187725308Y-147891463D01*
X187791444Y-147913999D01*
X187830486Y-147959056D01*
X187834951Y-147967820D01*
X187959890Y-148139786D01*
X188110213Y-148290109D01*
X188282179Y-148415048D01*
X188282181Y-148415049D01*
X188282184Y-148415051D01*
X188471588Y-148511557D01*
X188673757Y-148577246D01*
X188883713Y-148610500D01*
X188883714Y-148610500D01*
X189096286Y-148610500D01*
X189096287Y-148610500D01*
X189306243Y-148577246D01*
X189508412Y-148511557D01*
X189697816Y-148415051D01*
X189765342Y-148365991D01*
X189869786Y-148290109D01*
X189869788Y-148290106D01*
X189869792Y-148290104D01*
X190020104Y-148139792D01*
X190020106Y-148139788D01*
X190020109Y-148139786D01*
X190145048Y-147967820D01*
X190145047Y-147967820D01*
X190145051Y-147967816D01*
X190149514Y-147959054D01*
X190197488Y-147908259D01*
X190265308Y-147891463D01*
X190331444Y-147913999D01*
X190370486Y-147959056D01*
X190374951Y-147967820D01*
X190499890Y-148139786D01*
X190650213Y-148290109D01*
X190822179Y-148415048D01*
X190822181Y-148415049D01*
X190822184Y-148415051D01*
X191011588Y-148511557D01*
X191213757Y-148577246D01*
X191423713Y-148610500D01*
X191423714Y-148610500D01*
X191636286Y-148610500D01*
X191636287Y-148610500D01*
X191846243Y-148577246D01*
X192048412Y-148511557D01*
X192237816Y-148415051D01*
X192305342Y-148365991D01*
X192409786Y-148290109D01*
X192409788Y-148290106D01*
X192409792Y-148290104D01*
X192560104Y-148139792D01*
X192560106Y-148139788D01*
X192560109Y-148139786D01*
X192685048Y-147967820D01*
X192685047Y-147967820D01*
X192685051Y-147967816D01*
X192689514Y-147959054D01*
X192737488Y-147908259D01*
X192805308Y-147891463D01*
X192871444Y-147913999D01*
X192910486Y-147959056D01*
X192914951Y-147967820D01*
X193039890Y-148139786D01*
X193190213Y-148290109D01*
X193362179Y-148415048D01*
X193362181Y-148415049D01*
X193362184Y-148415051D01*
X193382211Y-148425255D01*
X193433007Y-148473227D01*
X193449803Y-148541048D01*
X193427267Y-148607183D01*
X193373371Y-148650300D01*
X193299842Y-148680757D01*
X193299827Y-148680765D01*
X193152345Y-148779310D01*
X193152341Y-148779313D01*
X192388700Y-149542956D01*
X192327377Y-149576441D01*
X192301019Y-149579275D01*
X192169094Y-149579275D01*
X192120423Y-149586983D01*
X191959141Y-149612528D01*
X191756966Y-149678219D01*
X191567560Y-149774726D01*
X191395596Y-149899664D01*
X191282054Y-150013206D01*
X191220731Y-150046690D01*
X191151039Y-150041706D01*
X191095106Y-149999834D01*
X191078191Y-149968857D01*
X191029178Y-149837446D01*
X191029174Y-149837439D01*
X190942928Y-149722230D01*
X190942925Y-149722227D01*
X190827716Y-149635981D01*
X190827709Y-149635977D01*
X190692863Y-149585683D01*
X190692864Y-149585683D01*
X190633264Y-149579276D01*
X190633262Y-149579275D01*
X190633254Y-149579275D01*
X190633245Y-149579275D01*
X188837510Y-149579275D01*
X188837504Y-149579276D01*
X188777897Y-149585683D01*
X188643052Y-149635977D01*
X188643045Y-149635981D01*
X188527836Y-149722227D01*
X188527833Y-149722230D01*
X188441587Y-149837439D01*
X188441583Y-149837446D01*
X188391289Y-149972292D01*
X188384882Y-150031891D01*
X188384881Y-150031910D01*
X188384881Y-151827645D01*
X188384882Y-151827651D01*
X188391289Y-151887258D01*
X188441583Y-152022103D01*
X188441587Y-152022110D01*
X188527833Y-152137319D01*
X188527836Y-152137322D01*
X188643045Y-152223568D01*
X188643052Y-152223572D01*
X188777898Y-152273866D01*
X188777897Y-152273866D01*
X188784825Y-152274610D01*
X188837508Y-152280275D01*
X189902440Y-152280274D01*
X189969479Y-152299958D01*
X189990121Y-152316593D01*
X191179476Y-153505947D01*
X191179497Y-153505970D01*
X191295313Y-153621786D01*
X191295317Y-153621789D01*
X191426420Y-153709390D01*
X191426433Y-153709397D01*
X191572104Y-153769735D01*
X191572109Y-153769737D01*
X191572113Y-153769737D01*
X191572114Y-153769738D01*
X191726760Y-153800500D01*
X191726763Y-153800500D01*
X215828844Y-153800500D01*
X215828845Y-153800499D01*
X215983497Y-153769737D01*
X216129179Y-153709394D01*
X216260289Y-153621789D01*
X217460286Y-152421790D01*
X217460289Y-152421789D01*
X217571789Y-152310289D01*
X217659394Y-152179179D01*
X217719737Y-152033497D01*
X217750500Y-151878842D01*
X217750500Y-148396363D01*
X217759418Y-148365991D01*
X217766654Y-148335164D01*
X217769358Y-148332137D01*
X217770185Y-148329324D01*
X217788265Y-148307259D01*
X217794544Y-148301181D01*
X217809792Y-148290104D01*
X217924088Y-148175807D01*
X217924772Y-148175146D01*
X217954857Y-148159351D01*
X217984648Y-148143084D01*
X217985700Y-148143159D01*
X217986634Y-148142669D01*
X218020449Y-148145644D01*
X218054340Y-148148068D01*
X218055185Y-148148700D01*
X218056235Y-148148793D01*
X218083083Y-148169585D01*
X218110273Y-148189939D01*
X218110937Y-148191156D01*
X218111476Y-148191573D01*
X218112050Y-148193194D01*
X218127189Y-148220917D01*
X218176202Y-148352328D01*
X218176206Y-148352335D01*
X218262452Y-148467544D01*
X218262455Y-148467547D01*
X218377664Y-148553793D01*
X218377671Y-148553797D01*
X218512517Y-148604091D01*
X218512516Y-148604091D01*
X218519444Y-148604835D01*
X218572127Y-148610500D01*
X220367872Y-148610499D01*
X220427483Y-148604091D01*
X220562331Y-148553796D01*
X220677546Y-148467546D01*
X220763796Y-148352331D01*
X220814091Y-148217483D01*
X220820500Y-148157873D01*
X220820499Y-146362128D01*
X220814091Y-146302517D01*
X220812810Y-146299083D01*
X220763797Y-146167671D01*
X220763793Y-146167664D01*
X220677547Y-146052455D01*
X220677544Y-146052452D01*
X220562335Y-145966206D01*
X220562328Y-145966202D01*
X220427482Y-145915908D01*
X220427483Y-145915908D01*
X220367883Y-145909501D01*
X220367881Y-145909500D01*
X220367873Y-145909500D01*
X220367864Y-145909500D01*
X218572129Y-145909500D01*
X218572123Y-145909501D01*
X218512516Y-145915908D01*
X218377671Y-145966202D01*
X218377664Y-145966206D01*
X218262455Y-146052452D01*
X218262452Y-146052455D01*
X218176206Y-146167664D01*
X218176203Y-146167669D01*
X218127189Y-146299083D01*
X218085317Y-146355016D01*
X218019853Y-146379433D01*
X217951580Y-146364581D01*
X217923326Y-146343430D01*
X217809786Y-146229890D01*
X217637820Y-146104951D01*
X217448414Y-146008444D01*
X217448413Y-146008443D01*
X217448412Y-146008443D01*
X217246243Y-145942754D01*
X217246241Y-145942753D01*
X217246240Y-145942753D01*
X217084957Y-145917208D01*
X217036287Y-145909500D01*
X216823713Y-145909500D01*
X216775042Y-145917208D01*
X216613760Y-145942753D01*
X216411585Y-146008444D01*
X216222179Y-146104951D01*
X216050213Y-146229890D01*
X215899890Y-146380213D01*
X215774949Y-146552182D01*
X215770484Y-146560946D01*
X215722509Y-146611742D01*
X215654688Y-146628536D01*
X215588553Y-146605998D01*
X215549516Y-146560946D01*
X215545050Y-146552182D01*
X215420109Y-146380213D01*
X215269786Y-146229890D01*
X215097820Y-146104951D01*
X214908414Y-146008444D01*
X214908413Y-146008443D01*
X214908412Y-146008443D01*
X214706243Y-145942754D01*
X214706241Y-145942753D01*
X214706240Y-145942753D01*
X214544957Y-145917208D01*
X214496287Y-145909500D01*
X214283713Y-145909500D01*
X214235042Y-145917208D01*
X214073760Y-145942753D01*
X213871585Y-146008444D01*
X213682179Y-146104951D01*
X213510213Y-146229890D01*
X213359890Y-146380213D01*
X213234949Y-146552182D01*
X213230484Y-146560946D01*
X213182509Y-146611742D01*
X213114688Y-146628536D01*
X213048553Y-146605998D01*
X213009516Y-146560946D01*
X213005050Y-146552182D01*
X212880109Y-146380213D01*
X212729786Y-146229890D01*
X212557820Y-146104951D01*
X212368414Y-146008444D01*
X212368413Y-146008443D01*
X212368412Y-146008443D01*
X212166243Y-145942754D01*
X212166241Y-145942753D01*
X212166240Y-145942753D01*
X212004957Y-145917208D01*
X211956287Y-145909500D01*
X211743713Y-145909500D01*
X211695042Y-145917208D01*
X211533760Y-145942753D01*
X211331585Y-146008444D01*
X211142179Y-146104951D01*
X210970213Y-146229890D01*
X210819890Y-146380213D01*
X210694949Y-146552182D01*
X210690484Y-146560946D01*
X210642509Y-146611742D01*
X210574688Y-146628536D01*
X210508553Y-146605998D01*
X210469516Y-146560946D01*
X210465050Y-146552182D01*
X210340109Y-146380213D01*
X210189786Y-146229890D01*
X210017820Y-146104951D01*
X209828414Y-146008444D01*
X209828413Y-146008443D01*
X209828412Y-146008443D01*
X209626243Y-145942754D01*
X209626241Y-145942753D01*
X209626240Y-145942753D01*
X209464957Y-145917208D01*
X209416287Y-145909500D01*
X209203713Y-145909500D01*
X209155042Y-145917208D01*
X208993760Y-145942753D01*
X208791585Y-146008444D01*
X208602179Y-146104951D01*
X208430213Y-146229890D01*
X208279890Y-146380213D01*
X208154949Y-146552182D01*
X208150484Y-146560946D01*
X208102509Y-146611742D01*
X208034688Y-146628536D01*
X207968553Y-146605998D01*
X207929516Y-146560946D01*
X207925050Y-146552182D01*
X207800109Y-146380213D01*
X207726819Y-146306923D01*
X207693334Y-146245600D01*
X207690500Y-146219242D01*
X207690500Y-138098543D01*
X208499499Y-138098543D01*
X208537947Y-138291829D01*
X208537950Y-138291839D01*
X208613364Y-138473907D01*
X208613371Y-138473920D01*
X208722860Y-138637781D01*
X208722863Y-138637785D01*
X208862214Y-138777136D01*
X208862218Y-138777139D01*
X209026079Y-138886628D01*
X209026092Y-138886635D01*
X209160112Y-138942147D01*
X209208165Y-138962051D01*
X209208169Y-138962051D01*
X209208170Y-138962052D01*
X209401456Y-139000500D01*
X209401459Y-139000500D01*
X209598543Y-139000500D01*
X209728582Y-138974632D01*
X209791835Y-138962051D01*
X209973914Y-138886632D01*
X210071544Y-138821398D01*
X210138222Y-138800520D01*
X210140435Y-138800500D01*
X212736248Y-138800500D01*
X212803287Y-138820185D01*
X212849042Y-138872989D01*
X212858986Y-138942147D01*
X212829961Y-139005703D01*
X212783700Y-139039061D01*
X212604312Y-139113364D01*
X212604299Y-139113371D01*
X212440438Y-139222860D01*
X212440434Y-139222863D01*
X212301083Y-139362214D01*
X212301080Y-139362218D01*
X212191591Y-139526079D01*
X212191584Y-139526092D01*
X212116170Y-139708160D01*
X212116167Y-139708170D01*
X212077720Y-139901456D01*
X212077720Y-139901459D01*
X212077720Y-140098541D01*
X212077720Y-140098543D01*
X212077719Y-140098543D01*
X212116167Y-140291829D01*
X212116170Y-140291839D01*
X212191584Y-140473907D01*
X212191591Y-140473920D01*
X212301080Y-140637781D01*
X212301083Y-140637785D01*
X212440434Y-140777136D01*
X212440438Y-140777139D01*
X212604299Y-140886628D01*
X212604312Y-140886635D01*
X212689470Y-140921908D01*
X212786385Y-140962051D01*
X212901548Y-140984958D01*
X212963455Y-141017341D01*
X212965035Y-141018893D01*
X216956431Y-145010289D01*
X217067931Y-145121789D01*
X217067932Y-145121790D01*
X217199034Y-145209390D01*
X217199047Y-145209397D01*
X217298280Y-145250500D01*
X217344723Y-145269737D01*
X217499373Y-145300499D01*
X217499376Y-145300500D01*
X217499378Y-145300500D01*
X220617060Y-145300500D01*
X220684099Y-145320185D01*
X220704741Y-145336819D01*
X228128211Y-152760289D01*
X228231862Y-152863940D01*
X228239712Y-152871790D01*
X228370814Y-152959390D01*
X228370827Y-152959397D01*
X228516498Y-153019735D01*
X228516503Y-153019737D01*
X228671153Y-153050499D01*
X228671156Y-153050500D01*
X228671158Y-153050500D01*
X229651556Y-153050500D01*
X229718595Y-153070185D01*
X229764350Y-153122989D01*
X229774294Y-153192147D01*
X229749932Y-153249986D01*
X229658067Y-153369706D01*
X229536777Y-153579785D01*
X229536773Y-153579794D01*
X229443947Y-153803895D01*
X229381161Y-154038214D01*
X229349500Y-154278711D01*
X229349500Y-154521288D01*
X229381161Y-154761785D01*
X229443947Y-154996104D01*
X229520567Y-155181081D01*
X229536776Y-155220212D01*
X229658064Y-155430289D01*
X229658066Y-155430292D01*
X229658067Y-155430293D01*
X229805733Y-155622736D01*
X229805739Y-155622743D01*
X229977256Y-155794260D01*
X229977263Y-155794266D01*
X230086661Y-155878210D01*
X230169711Y-155941936D01*
X230379788Y-156063224D01*
X230603900Y-156156054D01*
X230838211Y-156218838D01*
X230998940Y-156239998D01*
X231078711Y-156250500D01*
X231078712Y-156250500D01*
X232321289Y-156250500D01*
X232401052Y-156239999D01*
X232561789Y-156218838D01*
X232796100Y-156156054D01*
X233020212Y-156063224D01*
X233230289Y-155941936D01*
X233422738Y-155794265D01*
X233594265Y-155622738D01*
X233741936Y-155430289D01*
X233863224Y-155220212D01*
X233956054Y-154996100D01*
X234018838Y-154761789D01*
X234050500Y-154521288D01*
X234050500Y-154278712D01*
X234018838Y-154038211D01*
X233956054Y-153803900D01*
X233863224Y-153579788D01*
X233741936Y-153369711D01*
X233650068Y-153249986D01*
X233624874Y-153184817D01*
X233638912Y-153116372D01*
X233687726Y-153066383D01*
X233748444Y-153050500D01*
X234732567Y-153050500D01*
X234799606Y-153070185D01*
X234845361Y-153122989D01*
X234855924Y-153187102D01*
X234854594Y-153200122D01*
X234849500Y-153249984D01*
X234849500Y-155550015D01*
X234860000Y-155652795D01*
X234860001Y-155652797D01*
X234883636Y-155724123D01*
X234915186Y-155819335D01*
X234915187Y-155819337D01*
X235007286Y-155968651D01*
X235007289Y-155968655D01*
X235131344Y-156092710D01*
X235131348Y-156092713D01*
X235280662Y-156184812D01*
X235280664Y-156184813D01*
X235280666Y-156184814D01*
X235447203Y-156239999D01*
X235549992Y-156250500D01*
X235549997Y-156250500D01*
X238850003Y-156250500D01*
X238850008Y-156250500D01*
X238952797Y-156239999D01*
X239119334Y-156184814D01*
X239268655Y-156092711D01*
X239392711Y-155968655D01*
X239484814Y-155819334D01*
X239539999Y-155652797D01*
X239550500Y-155550008D01*
X239550500Y-153249992D01*
X239539999Y-153147203D01*
X239488112Y-152990621D01*
X239485711Y-152920797D01*
X239518138Y-152863940D01*
X241621786Y-150760292D01*
X241621789Y-150760289D01*
X241709394Y-150629179D01*
X241769737Y-150483497D01*
X241800500Y-150328842D01*
X241800500Y-147185258D01*
X242638442Y-147185258D01*
X242638442Y-147414741D01*
X242658489Y-147567007D01*
X242668394Y-147642238D01*
X242668395Y-147642240D01*
X242727784Y-147863887D01*
X242815592Y-148075876D01*
X242815599Y-148075890D01*
X242930334Y-148274617D01*
X243070023Y-148456661D01*
X243070031Y-148456670D01*
X243232272Y-148618911D01*
X243232280Y-148618918D01*
X243414324Y-148758607D01*
X243414327Y-148758608D01*
X243414330Y-148758611D01*
X243613054Y-148873344D01*
X243613059Y-148873346D01*
X243613065Y-148873349D01*
X243704422Y-148911190D01*
X243825055Y-148961158D01*
X244046704Y-149020548D01*
X244274208Y-149050500D01*
X244274215Y-149050500D01*
X244503669Y-149050500D01*
X244503676Y-149050500D01*
X244731180Y-149020548D01*
X244952829Y-148961158D01*
X245164830Y-148873344D01*
X245363554Y-148758611D01*
X245545603Y-148618919D01*
X245545607Y-148618914D01*
X245545612Y-148618911D01*
X245707853Y-148456670D01*
X245707856Y-148456665D01*
X245707861Y-148456661D01*
X245847553Y-148274612D01*
X245962286Y-148075888D01*
X246050100Y-147863887D01*
X246109490Y-147642238D01*
X246139442Y-147414734D01*
X246139442Y-147185266D01*
X246109490Y-146957762D01*
X246050100Y-146736113D01*
X245977775Y-146561505D01*
X245962291Y-146524123D01*
X245962288Y-146524117D01*
X245962286Y-146524112D01*
X245847553Y-146325388D01*
X245847550Y-146325385D01*
X245847549Y-146325382D01*
X245741224Y-146186818D01*
X245707861Y-146143339D01*
X245707860Y-146143338D01*
X245707853Y-146143330D01*
X245545612Y-145981089D01*
X245545603Y-145981081D01*
X245363559Y-145841392D01*
X245164832Y-145726657D01*
X245164818Y-145726650D01*
X244952829Y-145638842D01*
X244930802Y-145632940D01*
X244731180Y-145579452D01*
X244693157Y-145574446D01*
X244503683Y-145549500D01*
X244503676Y-145549500D01*
X244274208Y-145549500D01*
X244274200Y-145549500D01*
X244057657Y-145578009D01*
X244046704Y-145579452D01*
X244038770Y-145581578D01*
X243825054Y-145638842D01*
X243613065Y-145726650D01*
X243613051Y-145726657D01*
X243414324Y-145841392D01*
X243232280Y-145981081D01*
X243070023Y-146143338D01*
X242930334Y-146325382D01*
X242815599Y-146524109D01*
X242815592Y-146524123D01*
X242727784Y-146736112D01*
X242668395Y-146957759D01*
X242668393Y-146957770D01*
X242638442Y-147185258D01*
X241800500Y-147185258D01*
X241800500Y-145171158D01*
X241798435Y-145160779D01*
X241796391Y-145150497D01*
X241796391Y-145150496D01*
X241778541Y-145060761D01*
X241769738Y-145016503D01*
X241709394Y-144870821D01*
X241709392Y-144870818D01*
X241709390Y-144870814D01*
X241621789Y-144739711D01*
X241621786Y-144739707D01*
X239915292Y-143033213D01*
X239915288Y-143033210D01*
X239784185Y-142945609D01*
X239784172Y-142945602D01*
X239638501Y-142885264D01*
X239638491Y-142885261D01*
X239508604Y-142859425D01*
X239446694Y-142827040D01*
X239412119Y-142766324D01*
X239409860Y-142754014D01*
X239407780Y-142738211D01*
X239344996Y-142503900D01*
X239252166Y-142279788D01*
X239130878Y-142069711D01*
X238983935Y-141878211D01*
X238983208Y-141877263D01*
X238983202Y-141877256D01*
X238811685Y-141705739D01*
X238811678Y-141705733D01*
X238619235Y-141558067D01*
X238619234Y-141558066D01*
X238619231Y-141558064D01*
X238409154Y-141436776D01*
X238409147Y-141436773D01*
X238185046Y-141343947D01*
X237950727Y-141281161D01*
X237710231Y-141249500D01*
X237710230Y-141249500D01*
X236467654Y-141249500D01*
X236467653Y-141249500D01*
X236227156Y-141281161D01*
X235992837Y-141343947D01*
X235768736Y-141436773D01*
X235768727Y-141436777D01*
X235558648Y-141558067D01*
X235366205Y-141705733D01*
X235366198Y-141705739D01*
X235194681Y-141877256D01*
X235194675Y-141877263D01*
X235047009Y-142069706D01*
X234925719Y-142279785D01*
X234925715Y-142279794D01*
X234832889Y-142503895D01*
X234770103Y-142738214D01*
X234738442Y-142978711D01*
X234738442Y-143221288D01*
X234770103Y-143461785D01*
X234832889Y-143696104D01*
X234908321Y-143878213D01*
X234925718Y-143920212D01*
X235047006Y-144130289D01*
X235047008Y-144130292D01*
X235047009Y-144130293D01*
X235194675Y-144322736D01*
X235194681Y-144322743D01*
X235366198Y-144494260D01*
X235366205Y-144494266D01*
X235428204Y-144541839D01*
X235558653Y-144641936D01*
X235768730Y-144763224D01*
X235992842Y-144856054D01*
X236227153Y-144918838D01*
X236407528Y-144942584D01*
X236467653Y-144950500D01*
X236467654Y-144950500D01*
X237710231Y-144950500D01*
X237758330Y-144944167D01*
X237950731Y-144918838D01*
X238185042Y-144856054D01*
X238409154Y-144763224D01*
X238619231Y-144641936D01*
X238811680Y-144494265D01*
X238812062Y-144493883D01*
X238814127Y-144491819D01*
X238841054Y-144477115D01*
X238866873Y-144460523D01*
X238873073Y-144459631D01*
X238875450Y-144458334D01*
X238901808Y-144455500D01*
X239022060Y-144455500D01*
X239089099Y-144475185D01*
X239109741Y-144491819D01*
X240163181Y-145545259D01*
X240196666Y-145606582D01*
X240199500Y-145632940D01*
X240199500Y-149867060D01*
X240179815Y-149934099D01*
X240163181Y-149954741D01*
X238704741Y-151413181D01*
X238643418Y-151446666D01*
X238617060Y-151449500D01*
X229132940Y-151449500D01*
X229065901Y-151429815D01*
X229045259Y-151413181D01*
X221510292Y-143878213D01*
X221510288Y-143878210D01*
X221379185Y-143790609D01*
X221379172Y-143790602D01*
X221233501Y-143730264D01*
X221233489Y-143730261D01*
X221078845Y-143699500D01*
X221078842Y-143699500D01*
X217961160Y-143699500D01*
X217894121Y-143679815D01*
X217873479Y-143663181D01*
X214097113Y-139886815D01*
X214063628Y-139825492D01*
X214063206Y-139823468D01*
X214040271Y-139708165D01*
X213999359Y-139609394D01*
X213964855Y-139526092D01*
X213964848Y-139526079D01*
X213855359Y-139362218D01*
X213855356Y-139362214D01*
X213716005Y-139222863D01*
X213716001Y-139222860D01*
X213552140Y-139113371D01*
X213552127Y-139113364D01*
X213372740Y-139039061D01*
X213318336Y-138995220D01*
X213296271Y-138928926D01*
X213313550Y-138861227D01*
X213364687Y-138813616D01*
X213420192Y-138800500D01*
X216351988Y-138800500D01*
X216419027Y-138820185D01*
X216464782Y-138872989D01*
X216474726Y-138942147D01*
X216445701Y-139005703D01*
X216399440Y-139039061D01*
X216220052Y-139113364D01*
X216220039Y-139113371D01*
X216056178Y-139222860D01*
X216056174Y-139222863D01*
X215916823Y-139362214D01*
X215916820Y-139362218D01*
X215807331Y-139526079D01*
X215807324Y-139526092D01*
X215731910Y-139708160D01*
X215731907Y-139708170D01*
X215693460Y-139901456D01*
X215693460Y-139901459D01*
X215693460Y-140098541D01*
X215693460Y-140098543D01*
X215693459Y-140098543D01*
X215731907Y-140291829D01*
X215731910Y-140291839D01*
X215807324Y-140473907D01*
X215807331Y-140473920D01*
X215916820Y-140637781D01*
X215916823Y-140637785D01*
X216056174Y-140777136D01*
X216056178Y-140777139D01*
X216220039Y-140886628D01*
X216220052Y-140886635D01*
X216305210Y-140921908D01*
X216402125Y-140962051D01*
X216517288Y-140984958D01*
X216579195Y-141017341D01*
X216580775Y-141018893D01*
X218683667Y-143121786D01*
X218683671Y-143121789D01*
X218814774Y-143209390D01*
X218814787Y-143209397D01*
X218960458Y-143269735D01*
X218960463Y-143269737D01*
X219115113Y-143300499D01*
X219115116Y-143300500D01*
X219115118Y-143300500D01*
X219272802Y-143300500D01*
X221617060Y-143300500D01*
X221684099Y-143320185D01*
X221704741Y-143336819D01*
X229128211Y-150760289D01*
X229191410Y-150823488D01*
X229239712Y-150871790D01*
X229370814Y-150959390D01*
X229370827Y-150959397D01*
X229516498Y-151019735D01*
X229516503Y-151019737D01*
X229671153Y-151050499D01*
X229671156Y-151050500D01*
X229671158Y-151050500D01*
X236328844Y-151050500D01*
X236328845Y-151050499D01*
X236483497Y-151019737D01*
X236629179Y-150959394D01*
X236760289Y-150871789D01*
X237846789Y-149785289D01*
X237853848Y-149774724D01*
X237934394Y-149654179D01*
X237994737Y-149508497D01*
X238000353Y-149480263D01*
X238015460Y-149404317D01*
X238025500Y-149353845D01*
X238025500Y-149193951D01*
X238045185Y-149126912D01*
X238097989Y-149081157D01*
X238117399Y-149074178D01*
X238185042Y-149056054D01*
X238409154Y-148963224D01*
X238619231Y-148841936D01*
X238811680Y-148694265D01*
X238983207Y-148522738D01*
X239130878Y-148330289D01*
X239252166Y-148120212D01*
X239344996Y-147896100D01*
X239407780Y-147661789D01*
X239439442Y-147421288D01*
X239439442Y-147178712D01*
X239407780Y-146938211D01*
X239344996Y-146703900D01*
X239252166Y-146479788D01*
X239130878Y-146269711D01*
X239004779Y-146105375D01*
X238983208Y-146077263D01*
X238983202Y-146077256D01*
X238811685Y-145905739D01*
X238811678Y-145905733D01*
X238619235Y-145758067D01*
X238619234Y-145758066D01*
X238619231Y-145758064D01*
X238447603Y-145658974D01*
X238409156Y-145636777D01*
X238409147Y-145636773D01*
X238185046Y-145543947D01*
X237950727Y-145481161D01*
X237710231Y-145449500D01*
X237710230Y-145449500D01*
X236467654Y-145449500D01*
X236467653Y-145449500D01*
X236227156Y-145481161D01*
X235992837Y-145543947D01*
X235768736Y-145636773D01*
X235768727Y-145636777D01*
X235558648Y-145758067D01*
X235366205Y-145905733D01*
X235366198Y-145905739D01*
X235194681Y-146077256D01*
X235194675Y-146077263D01*
X235047009Y-146269706D01*
X235047006Y-146269710D01*
X235047006Y-146269711D01*
X235030759Y-146297851D01*
X234925719Y-146479785D01*
X234925715Y-146479794D01*
X234832889Y-146703895D01*
X234770103Y-146938214D01*
X234738442Y-147178711D01*
X234738442Y-147421288D01*
X234770103Y-147661785D01*
X234832889Y-147896104D01*
X234925715Y-148120205D01*
X234925719Y-148120214D01*
X234938923Y-148143084D01*
X235047006Y-148330289D01*
X235047008Y-148330292D01*
X235047009Y-148330293D01*
X235194675Y-148522736D01*
X235194681Y-148522743D01*
X235366198Y-148694260D01*
X235366205Y-148694266D01*
X235460340Y-148766498D01*
X235558653Y-148841936D01*
X235768730Y-148963224D01*
X235907118Y-149020546D01*
X235992839Y-149056053D01*
X235992840Y-149056053D01*
X235992842Y-149056054D01*
X236036993Y-149067884D01*
X236042177Y-149071043D01*
X236048233Y-149071477D01*
X236071663Y-149089016D01*
X236096654Y-149104249D01*
X236099306Y-149109709D01*
X236104167Y-149113348D01*
X236114395Y-149140772D01*
X236127183Y-149167096D01*
X236126462Y-149173123D01*
X236128584Y-149178812D01*
X236122362Y-149207410D01*
X236118888Y-149236471D01*
X236114692Y-149242670D01*
X236113732Y-149247085D01*
X236092583Y-149275337D01*
X235954739Y-149413182D01*
X235893419Y-149446666D01*
X235867060Y-149449500D01*
X230132940Y-149449500D01*
X230065901Y-149429815D01*
X230045259Y-149413181D01*
X227894412Y-147262334D01*
X227810789Y-147178711D01*
X229238442Y-147178711D01*
X229238442Y-147421288D01*
X229270103Y-147661785D01*
X229332889Y-147896104D01*
X229425715Y-148120205D01*
X229425719Y-148120214D01*
X229438923Y-148143084D01*
X229547006Y-148330289D01*
X229547008Y-148330292D01*
X229547009Y-148330293D01*
X229694675Y-148522736D01*
X229694681Y-148522743D01*
X229866198Y-148694260D01*
X229866205Y-148694266D01*
X229960340Y-148766498D01*
X230058653Y-148841936D01*
X230268730Y-148963224D01*
X230492842Y-149056054D01*
X230727153Y-149118838D01*
X230893761Y-149140772D01*
X230967653Y-149150500D01*
X230967654Y-149150500D01*
X232210231Y-149150500D01*
X232258330Y-149144167D01*
X232450731Y-149118838D01*
X232685042Y-149056054D01*
X232909154Y-148963224D01*
X233119231Y-148841936D01*
X233311680Y-148694265D01*
X233483207Y-148522738D01*
X233630878Y-148330289D01*
X233752166Y-148120212D01*
X233844996Y-147896100D01*
X233907780Y-147661789D01*
X233939442Y-147421288D01*
X233939442Y-147178712D01*
X233907780Y-146938211D01*
X233844996Y-146703900D01*
X233752166Y-146479788D01*
X233630878Y-146269711D01*
X233504779Y-146105375D01*
X233483208Y-146077263D01*
X233483202Y-146077256D01*
X233311685Y-145905739D01*
X233311678Y-145905733D01*
X233119235Y-145758067D01*
X233119234Y-145758066D01*
X233119231Y-145758064D01*
X232947603Y-145658974D01*
X232909156Y-145636777D01*
X232909147Y-145636773D01*
X232685046Y-145543947D01*
X232450727Y-145481161D01*
X232210231Y-145449500D01*
X232210230Y-145449500D01*
X230967654Y-145449500D01*
X230967653Y-145449500D01*
X230727156Y-145481161D01*
X230492837Y-145543947D01*
X230268736Y-145636773D01*
X230268727Y-145636777D01*
X230058648Y-145758067D01*
X229866205Y-145905733D01*
X229866198Y-145905739D01*
X229694681Y-146077256D01*
X229694675Y-146077263D01*
X229547009Y-146269706D01*
X229547006Y-146269710D01*
X229547006Y-146269711D01*
X229530759Y-146297851D01*
X229425719Y-146479785D01*
X229425715Y-146479794D01*
X229332889Y-146703895D01*
X229270103Y-146938214D01*
X229238442Y-147178711D01*
X227810789Y-147178711D01*
X224030242Y-143398163D01*
X223482079Y-142850000D01*
X229255892Y-142850000D01*
X230721038Y-142850000D01*
X230688942Y-143011358D01*
X230688942Y-143188642D01*
X230721038Y-143350000D01*
X229255892Y-143350000D01*
X229270595Y-143461687D01*
X229333363Y-143695939D01*
X229426162Y-143919978D01*
X229426169Y-143919993D01*
X229547422Y-144130009D01*
X229695052Y-144322405D01*
X229695058Y-144322412D01*
X229866529Y-144493883D01*
X229866536Y-144493889D01*
X230058932Y-144641519D01*
X230268948Y-144762772D01*
X230268963Y-144762779D01*
X230493002Y-144855578D01*
X230727254Y-144918346D01*
X230967677Y-144949998D01*
X230967694Y-144950000D01*
X231338942Y-144950000D01*
X231338942Y-143967904D01*
X231500300Y-144000000D01*
X231677584Y-144000000D01*
X231838942Y-143967904D01*
X231838942Y-144950000D01*
X232210190Y-144950000D01*
X232210206Y-144949998D01*
X232450629Y-144918346D01*
X232684881Y-144855578D01*
X232908920Y-144762779D01*
X232908935Y-144762772D01*
X233118951Y-144641519D01*
X233311347Y-144493889D01*
X233311354Y-144493883D01*
X233482825Y-144322412D01*
X233482831Y-144322405D01*
X233630461Y-144130009D01*
X233751714Y-143919993D01*
X233751721Y-143919978D01*
X233844520Y-143695939D01*
X233907288Y-143461687D01*
X233921992Y-143350000D01*
X232456846Y-143350000D01*
X232488942Y-143188642D01*
X232488942Y-143011358D01*
X232456846Y-142850000D01*
X233921991Y-142850000D01*
X233907288Y-142738312D01*
X233844520Y-142504060D01*
X233751721Y-142280021D01*
X233751714Y-142280006D01*
X233630461Y-142069990D01*
X233482831Y-141877594D01*
X233482825Y-141877587D01*
X233311354Y-141706116D01*
X233311347Y-141706110D01*
X233118951Y-141558480D01*
X232908935Y-141437227D01*
X232908920Y-141437220D01*
X232684881Y-141344421D01*
X232450629Y-141281653D01*
X232210206Y-141250001D01*
X232210190Y-141250000D01*
X231838942Y-141250000D01*
X231838942Y-142232095D01*
X231677584Y-142200000D01*
X231500300Y-142200000D01*
X231338942Y-142232095D01*
X231338942Y-141250000D01*
X230967694Y-141250000D01*
X230967677Y-141250001D01*
X230727254Y-141281653D01*
X230493002Y-141344421D01*
X230268963Y-141437220D01*
X230268948Y-141437227D01*
X230058932Y-141558480D01*
X229866536Y-141706110D01*
X229866529Y-141706116D01*
X229695058Y-141877587D01*
X229695052Y-141877594D01*
X229547422Y-142069990D01*
X229426169Y-142280006D01*
X229426162Y-142280021D01*
X229333363Y-142504060D01*
X229270595Y-142738312D01*
X229255892Y-142850000D01*
X223482079Y-142850000D01*
X222510292Y-141878213D01*
X222510288Y-141878210D01*
X222379185Y-141790609D01*
X222379172Y-141790602D01*
X222233501Y-141730264D01*
X222233489Y-141730261D01*
X222078845Y-141699500D01*
X222078842Y-141699500D01*
X219576900Y-141699500D01*
X219509861Y-141679815D01*
X219489219Y-141663181D01*
X217712853Y-139886815D01*
X217679368Y-139825492D01*
X217678946Y-139823468D01*
X217656011Y-139708165D01*
X217615099Y-139609394D01*
X217580595Y-139526092D01*
X217580588Y-139526079D01*
X217471099Y-139362218D01*
X217471096Y-139362214D01*
X217331745Y-139222863D01*
X217331739Y-139222858D01*
X217317858Y-139213583D01*
X217167880Y-139113371D01*
X217167867Y-139113364D01*
X216988480Y-139039061D01*
X216934076Y-138995220D01*
X216912011Y-138928926D01*
X216929290Y-138861227D01*
X216980427Y-138813616D01*
X217035932Y-138800500D01*
X226328844Y-138800500D01*
X226328845Y-138800499D01*
X226483497Y-138769737D01*
X226629179Y-138709394D01*
X226718068Y-138650000D01*
X229255892Y-138650000D01*
X230721038Y-138650000D01*
X230688942Y-138811358D01*
X230688942Y-138988642D01*
X230721038Y-139150000D01*
X229255892Y-139150000D01*
X229270595Y-139261687D01*
X229333363Y-139495939D01*
X229426162Y-139719978D01*
X229426169Y-139719993D01*
X229547422Y-139930009D01*
X229695052Y-140122405D01*
X229695058Y-140122412D01*
X229866529Y-140293883D01*
X229866536Y-140293889D01*
X230058932Y-140441519D01*
X230268948Y-140562772D01*
X230268963Y-140562779D01*
X230493002Y-140655578D01*
X230727254Y-140718346D01*
X230967677Y-140749998D01*
X230967694Y-140750000D01*
X231338942Y-140750000D01*
X231338942Y-139767904D01*
X231500300Y-139800000D01*
X231677584Y-139800000D01*
X231838942Y-139767904D01*
X231838942Y-140750000D01*
X232210190Y-140750000D01*
X232210206Y-140749998D01*
X232450629Y-140718346D01*
X232684881Y-140655578D01*
X232908920Y-140562779D01*
X232908935Y-140562772D01*
X233118951Y-140441519D01*
X233311347Y-140293889D01*
X233311354Y-140293883D01*
X233482825Y-140122412D01*
X233482831Y-140122405D01*
X233630461Y-139930009D01*
X233751714Y-139719993D01*
X233751721Y-139719978D01*
X233844520Y-139495939D01*
X233907288Y-139261687D01*
X233921992Y-139150000D01*
X232456846Y-139150000D01*
X232488942Y-138988642D01*
X232488942Y-138811358D01*
X232456846Y-138650000D01*
X233921991Y-138650000D01*
X233907288Y-138538312D01*
X233844520Y-138304060D01*
X233751721Y-138080021D01*
X233751714Y-138080006D01*
X233630461Y-137869990D01*
X233482831Y-137677594D01*
X233482825Y-137677587D01*
X233311354Y-137506116D01*
X233311347Y-137506110D01*
X233118951Y-137358480D01*
X232908935Y-137237227D01*
X232908920Y-137237220D01*
X232684881Y-137144421D01*
X232450629Y-137081653D01*
X232210206Y-137050001D01*
X232210190Y-137050000D01*
X231838942Y-137050000D01*
X231838942Y-138032095D01*
X231677584Y-138000000D01*
X231500300Y-138000000D01*
X231338942Y-138032095D01*
X231338942Y-137050000D01*
X230967694Y-137050000D01*
X230967677Y-137050001D01*
X230727254Y-137081653D01*
X230493002Y-137144421D01*
X230268963Y-137237220D01*
X230268948Y-137237227D01*
X230058932Y-137358480D01*
X229866536Y-137506110D01*
X229866529Y-137506116D01*
X229695058Y-137677587D01*
X229695052Y-137677594D01*
X229547422Y-137869990D01*
X229426169Y-138080006D01*
X229426162Y-138080021D01*
X229333363Y-138304060D01*
X229270595Y-138538312D01*
X229255892Y-138650000D01*
X226718068Y-138650000D01*
X226760289Y-138621789D01*
X226760292Y-138621786D01*
X226780242Y-138601837D01*
X228117617Y-137264460D01*
X229492520Y-135889556D01*
X229553841Y-135856073D01*
X229623532Y-135861057D01*
X229678572Y-135901749D01*
X229694677Y-135922738D01*
X229694681Y-135922742D01*
X229694685Y-135922747D01*
X229866198Y-136094260D01*
X229866205Y-136094266D01*
X229979263Y-136181018D01*
X230058653Y-136241936D01*
X230268730Y-136363224D01*
X230492842Y-136456054D01*
X230727153Y-136518838D01*
X230887882Y-136539998D01*
X230967653Y-136550500D01*
X230967654Y-136550500D01*
X232210231Y-136550500D01*
X232289994Y-136539999D01*
X232450731Y-136518838D01*
X232685042Y-136456054D01*
X232909154Y-136363224D01*
X233119231Y-136241936D01*
X233311680Y-136094265D01*
X233483207Y-135922738D01*
X233630878Y-135730289D01*
X233752166Y-135520212D01*
X233844996Y-135296100D01*
X233907780Y-135061789D01*
X233939442Y-134821288D01*
X233939442Y-134578712D01*
X233907780Y-134338211D01*
X233844996Y-134103900D01*
X233752166Y-133879788D01*
X233630878Y-133669711D01*
X233539015Y-133549992D01*
X233483208Y-133477263D01*
X233483202Y-133477256D01*
X233311685Y-133305739D01*
X233311678Y-133305733D01*
X233119235Y-133158067D01*
X233119234Y-133158066D01*
X233119231Y-133158064D01*
X232920658Y-133043418D01*
X232909156Y-133036777D01*
X232909147Y-133036773D01*
X232685046Y-132943947D01*
X232476056Y-132887948D01*
X232450731Y-132881162D01*
X232450730Y-132881161D01*
X232450727Y-132881161D01*
X232210231Y-132849500D01*
X232210230Y-132849500D01*
X230967654Y-132849500D01*
X230967653Y-132849500D01*
X230727156Y-132881161D01*
X230492837Y-132943947D01*
X230268736Y-133036773D01*
X230268727Y-133036777D01*
X230058648Y-133158067D01*
X229866205Y-133305733D01*
X229866198Y-133305739D01*
X229694681Y-133477256D01*
X229694675Y-133477263D01*
X229547009Y-133669706D01*
X229547006Y-133669710D01*
X229547006Y-133669711D01*
X229539236Y-133683170D01*
X229435058Y-133863611D01*
X229384491Y-133911827D01*
X229351863Y-133923228D01*
X229316508Y-133930260D01*
X229316502Y-133930262D01*
X229170824Y-133990604D01*
X229170814Y-133990609D01*
X229039711Y-134078210D01*
X229039707Y-134078213D01*
X225954741Y-137163181D01*
X225893418Y-137196666D01*
X225867060Y-137199500D01*
X210140435Y-137199500D01*
X210073396Y-137179815D01*
X210071544Y-137178602D01*
X209973911Y-137113366D01*
X209791839Y-137037950D01*
X209791829Y-137037947D01*
X209598543Y-136999500D01*
X209598541Y-136999500D01*
X209401459Y-136999500D01*
X209401457Y-136999500D01*
X209208170Y-137037947D01*
X209208160Y-137037950D01*
X209026092Y-137113364D01*
X209026079Y-137113371D01*
X208862218Y-137222860D01*
X208862214Y-137222863D01*
X208722863Y-137362214D01*
X208722860Y-137362218D01*
X208613371Y-137526079D01*
X208613364Y-137526092D01*
X208537950Y-137708160D01*
X208537947Y-137708170D01*
X208499500Y-137901456D01*
X208499500Y-137901459D01*
X208499500Y-138098541D01*
X208499500Y-138098543D01*
X208499499Y-138098543D01*
X207690500Y-138098543D01*
X207690500Y-133497704D01*
X207710185Y-133430665D01*
X207726819Y-133410023D01*
X212319481Y-128817361D01*
X212380804Y-128783876D01*
X212407162Y-128781042D01*
X212539087Y-128781042D01*
X212539088Y-128781042D01*
X212749044Y-128747788D01*
X212951213Y-128682099D01*
X213140617Y-128585593D01*
X213226939Y-128522877D01*
X213312587Y-128460651D01*
X213312589Y-128460648D01*
X213312593Y-128460646D01*
X213462905Y-128310334D01*
X213462907Y-128310330D01*
X213462910Y-128310328D01*
X213587849Y-128138362D01*
X213587848Y-128138362D01*
X213587852Y-128138358D01*
X213684358Y-127948954D01*
X213750047Y-127746785D01*
X213783301Y-127536829D01*
X213783301Y-127324255D01*
X213750047Y-127114299D01*
X213684358Y-126912130D01*
X213587852Y-126722726D01*
X213587850Y-126722723D01*
X213587849Y-126722721D01*
X213462910Y-126550755D01*
X213424336Y-126512181D01*
X213390851Y-126450858D01*
X213395835Y-126381166D01*
X213437707Y-126325233D01*
X213503171Y-126300816D01*
X213512017Y-126300500D01*
X228867060Y-126300500D01*
X228934099Y-126320185D01*
X228954741Y-126336819D01*
X235300483Y-132682561D01*
X235333968Y-132743884D01*
X235328984Y-132813576D01*
X235287112Y-132869509D01*
X235251806Y-132887948D01*
X235169607Y-132915186D01*
X235169604Y-132915187D01*
X235020290Y-133007286D01*
X235020286Y-133007289D01*
X234896231Y-133131344D01*
X234896228Y-133131348D01*
X234804129Y-133280662D01*
X234804128Y-133280664D01*
X234748943Y-133447203D01*
X234748942Y-133447204D01*
X234738442Y-133549984D01*
X234738442Y-135850015D01*
X234748942Y-135952795D01*
X234748943Y-135952796D01*
X234804128Y-136119335D01*
X234804129Y-136119337D01*
X234896228Y-136268651D01*
X234896231Y-136268655D01*
X235020286Y-136392710D01*
X235020290Y-136392713D01*
X235169604Y-136484812D01*
X235169606Y-136484813D01*
X235169608Y-136484814D01*
X235336145Y-136539999D01*
X235438934Y-136550500D01*
X235438939Y-136550500D01*
X238738945Y-136550500D01*
X238738950Y-136550500D01*
X238841739Y-136539999D01*
X239008276Y-136484814D01*
X239157597Y-136392711D01*
X239281653Y-136268655D01*
X239373756Y-136119334D01*
X239428941Y-135952797D01*
X239439442Y-135850008D01*
X239439442Y-133549992D01*
X239428941Y-133447203D01*
X239373756Y-133280666D01*
X239349531Y-133241392D01*
X239281655Y-133131348D01*
X239281652Y-133131344D01*
X239157597Y-133007289D01*
X239157593Y-133007286D01*
X239008279Y-132915187D01*
X239008277Y-132915186D01*
X238918801Y-132885537D01*
X238841739Y-132860001D01*
X238841737Y-132860000D01*
X238738957Y-132849500D01*
X238738950Y-132849500D01*
X237782940Y-132849500D01*
X237753499Y-132840855D01*
X237723513Y-132834332D01*
X237718497Y-132830577D01*
X237715901Y-132829815D01*
X237695259Y-132813181D01*
X237599231Y-132717153D01*
X229894260Y-125012181D01*
X229860775Y-124950858D01*
X229865759Y-124881166D01*
X229907631Y-124825233D01*
X229973095Y-124800816D01*
X229981941Y-124800500D01*
X231367060Y-124800500D01*
X231434099Y-124820185D01*
X231454741Y-124836819D01*
X239913181Y-133295259D01*
X239946666Y-133356582D01*
X239949500Y-133382940D01*
X239949500Y-137367060D01*
X239929815Y-137434099D01*
X239913181Y-137454741D01*
X239379599Y-137988322D01*
X239318276Y-138021807D01*
X239248584Y-138016823D01*
X239192651Y-137974951D01*
X239184531Y-137962641D01*
X239160580Y-137921157D01*
X239130878Y-137869711D01*
X239069960Y-137790321D01*
X238983208Y-137677263D01*
X238983202Y-137677256D01*
X238811685Y-137505739D01*
X238811678Y-137505733D01*
X238619235Y-137358067D01*
X238619234Y-137358066D01*
X238619231Y-137358064D01*
X238409154Y-137236776D01*
X238375565Y-137222863D01*
X238185046Y-137143947D01*
X237950727Y-137081161D01*
X237710231Y-137049500D01*
X237710230Y-137049500D01*
X236467654Y-137049500D01*
X236467653Y-137049500D01*
X236227156Y-137081161D01*
X235992837Y-137143947D01*
X235768736Y-137236773D01*
X235768727Y-137236777D01*
X235558648Y-137358067D01*
X235366205Y-137505733D01*
X235366198Y-137505739D01*
X235194681Y-137677256D01*
X235194675Y-137677263D01*
X235047009Y-137869706D01*
X234925719Y-138079785D01*
X234925715Y-138079794D01*
X234832889Y-138303895D01*
X234770103Y-138538214D01*
X234738442Y-138778711D01*
X234738442Y-139021288D01*
X234770090Y-139261687D01*
X234770104Y-139261789D01*
X234787334Y-139326092D01*
X234832889Y-139496104D01*
X234925621Y-139719978D01*
X234925718Y-139720212D01*
X235047006Y-139930289D01*
X235047008Y-139930292D01*
X235047009Y-139930293D01*
X235194675Y-140122736D01*
X235194681Y-140122743D01*
X235366198Y-140294260D01*
X235366204Y-140294265D01*
X235558653Y-140441936D01*
X235768730Y-140563224D01*
X235992842Y-140656054D01*
X236227153Y-140718838D01*
X236407528Y-140742584D01*
X236467653Y-140750500D01*
X236467654Y-140750500D01*
X237710231Y-140750500D01*
X237758330Y-140744167D01*
X237950731Y-140718838D01*
X238185042Y-140656054D01*
X238409154Y-140563224D01*
X238619231Y-140441936D01*
X238811680Y-140294265D01*
X238983207Y-140122738D01*
X239130878Y-139930289D01*
X239227751Y-139762499D01*
X239278318Y-139714284D01*
X239335138Y-139700500D01*
X239678844Y-139700500D01*
X239678845Y-139700499D01*
X239833497Y-139669737D01*
X239979179Y-139609394D01*
X240110289Y-139521789D01*
X241371789Y-138260289D01*
X241459394Y-138129179D01*
X241519738Y-137983497D01*
X241550500Y-137828842D01*
X241550500Y-137671157D01*
X241550500Y-134585258D01*
X242638442Y-134585258D01*
X242638442Y-134814741D01*
X242657377Y-134958558D01*
X242668394Y-135042238D01*
X242727784Y-135263887D01*
X242815592Y-135475876D01*
X242815599Y-135475890D01*
X242930334Y-135674617D01*
X243070023Y-135856661D01*
X243070031Y-135856670D01*
X243232272Y-136018911D01*
X243232280Y-136018918D01*
X243414324Y-136158607D01*
X243414327Y-136158608D01*
X243414330Y-136158611D01*
X243613054Y-136273344D01*
X243613059Y-136273346D01*
X243613065Y-136273349D01*
X243704422Y-136311190D01*
X243825055Y-136361158D01*
X244046704Y-136420548D01*
X244274208Y-136450500D01*
X244274215Y-136450500D01*
X244503669Y-136450500D01*
X244503676Y-136450500D01*
X244731180Y-136420548D01*
X244952829Y-136361158D01*
X245164830Y-136273344D01*
X245363554Y-136158611D01*
X245545603Y-136018919D01*
X245545607Y-136018914D01*
X245545612Y-136018911D01*
X245707853Y-135856670D01*
X245707856Y-135856665D01*
X245707861Y-135856661D01*
X245847553Y-135674612D01*
X245962286Y-135475888D01*
X246050100Y-135263887D01*
X246109490Y-135042238D01*
X246139442Y-134814734D01*
X246139442Y-134585266D01*
X246109490Y-134357762D01*
X246050100Y-134136113D01*
X245989828Y-133990604D01*
X245962291Y-133924123D01*
X245962288Y-133924117D01*
X245962286Y-133924112D01*
X245847553Y-133725388D01*
X245847550Y-133725385D01*
X245847549Y-133725382D01*
X245707860Y-133543338D01*
X245707853Y-133543330D01*
X245545612Y-133381089D01*
X245545603Y-133381081D01*
X245363559Y-133241392D01*
X245164832Y-133126657D01*
X245164818Y-133126650D01*
X244952829Y-133038842D01*
X244916374Y-133029074D01*
X244731180Y-132979452D01*
X244693157Y-132974446D01*
X244503683Y-132949500D01*
X244503676Y-132949500D01*
X244274208Y-132949500D01*
X244274200Y-132949500D01*
X244057657Y-132978009D01*
X244046704Y-132979452D01*
X243983945Y-132996268D01*
X243825054Y-133038842D01*
X243613065Y-133126650D01*
X243613051Y-133126657D01*
X243414324Y-133241392D01*
X243232280Y-133381081D01*
X243070023Y-133543338D01*
X242930334Y-133725382D01*
X242815599Y-133924109D01*
X242815592Y-133924123D01*
X242727784Y-134136112D01*
X242668395Y-134357759D01*
X242668393Y-134357770D01*
X242638442Y-134585258D01*
X241550500Y-134585258D01*
X241550500Y-132921158D01*
X241550500Y-132921155D01*
X241550499Y-132921153D01*
X241536246Y-132849500D01*
X241519737Y-132766503D01*
X241490079Y-132694901D01*
X241459397Y-132620827D01*
X241459390Y-132620814D01*
X241371790Y-132489712D01*
X241316557Y-132434479D01*
X241260289Y-132378211D01*
X239044655Y-130162577D01*
X236740464Y-127858385D01*
X236655827Y-127773748D01*
X238931158Y-127773748D01*
X238931158Y-128137336D01*
X238940301Y-128230168D01*
X238966795Y-128499172D01*
X239037722Y-128855754D01*
X239037725Y-128855765D01*
X239037727Y-128855774D01*
X239037728Y-128855775D01*
X239048214Y-128890345D01*
X239143272Y-129203707D01*
X239282412Y-129539620D01*
X239282414Y-129539625D01*
X239453798Y-129860262D01*
X239453809Y-129860280D01*
X239655798Y-130162577D01*
X239655808Y-130162591D01*
X239886465Y-130443648D01*
X240143551Y-130700734D01*
X240143556Y-130700738D01*
X240143557Y-130700739D01*
X240424614Y-130931396D01*
X240726926Y-131133395D01*
X240726935Y-131133400D01*
X240726937Y-131133401D01*
X241047574Y-131304785D01*
X241047576Y-131304785D01*
X241047582Y-131304789D01*
X241383494Y-131443928D01*
X241731425Y-131549472D01*
X241731431Y-131549473D01*
X241731434Y-131549474D01*
X241731445Y-131549477D01*
X242088027Y-131620404D01*
X242449864Y-131656042D01*
X242449867Y-131656042D01*
X242813449Y-131656042D01*
X242813452Y-131656042D01*
X243175289Y-131620404D01*
X243285203Y-131598541D01*
X243531870Y-131549477D01*
X243531881Y-131549474D01*
X243531881Y-131549473D01*
X243531891Y-131549472D01*
X243879822Y-131443928D01*
X244215734Y-131304789D01*
X244536390Y-131133395D01*
X244838702Y-130931396D01*
X245119759Y-130700739D01*
X245376855Y-130443643D01*
X245607512Y-130162586D01*
X245809511Y-129860274D01*
X245980905Y-129539618D01*
X246120044Y-129203706D01*
X246225588Y-128855775D01*
X246225590Y-128855765D01*
X246225593Y-128855754D01*
X246296520Y-128499172D01*
X246300314Y-128460651D01*
X246332158Y-128137336D01*
X246332158Y-127773748D01*
X246296520Y-127411911D01*
X246292556Y-127391982D01*
X246225593Y-127055329D01*
X246225590Y-127055318D01*
X246225589Y-127055315D01*
X246225588Y-127055309D01*
X246120044Y-126707378D01*
X245980905Y-126371466D01*
X245841802Y-126111223D01*
X245809517Y-126050821D01*
X245809516Y-126050819D01*
X245809511Y-126050810D01*
X245607512Y-125748498D01*
X245376855Y-125467441D01*
X245376854Y-125467440D01*
X245376850Y-125467435D01*
X245119764Y-125210349D01*
X244838707Y-124979692D01*
X244838706Y-124979691D01*
X244838702Y-124979688D01*
X244536390Y-124777689D01*
X244536385Y-124777686D01*
X244536378Y-124777682D01*
X244215741Y-124606298D01*
X244215736Y-124606296D01*
X243879823Y-124467156D01*
X243531881Y-124361609D01*
X243531870Y-124361606D01*
X243175288Y-124290679D01*
X242902769Y-124263838D01*
X242813452Y-124255042D01*
X242449864Y-124255042D01*
X242367337Y-124263170D01*
X242088027Y-124290679D01*
X241731445Y-124361606D01*
X241731434Y-124361609D01*
X241383492Y-124467156D01*
X241047579Y-124606296D01*
X241047574Y-124606298D01*
X240726937Y-124777682D01*
X240726919Y-124777693D01*
X240424622Y-124979682D01*
X240424608Y-124979692D01*
X240143551Y-125210349D01*
X239886465Y-125467435D01*
X239655808Y-125748492D01*
X239655798Y-125748506D01*
X239453809Y-126050803D01*
X239453798Y-126050821D01*
X239282414Y-126371458D01*
X239282412Y-126371463D01*
X239143272Y-126707376D01*
X239037725Y-127055318D01*
X239037722Y-127055329D01*
X238966795Y-127411911D01*
X238947550Y-127607319D01*
X238931158Y-127773748D01*
X236655827Y-127773748D01*
X232341066Y-123458987D01*
X232307581Y-123397664D01*
X232312565Y-123327972D01*
X232354437Y-123272039D01*
X232419901Y-123247622D01*
X232428717Y-123247306D01*
X249158584Y-123246430D01*
X249163446Y-123246525D01*
G37*
%TD.AperFunction*%
%TA.AperFunction,Conductor*%
G36*
X194349456Y-151122768D02*
G01*
X194415282Y-151236782D01*
X194508374Y-151329874D01*
X194622388Y-151395700D01*
X194685971Y-151412737D01*
X194053663Y-152045044D01*
X194055295Y-152065770D01*
X194040931Y-152134147D01*
X193991880Y-152183905D01*
X193931677Y-152199500D01*
X193206996Y-152199500D01*
X193139957Y-152179815D01*
X193094202Y-152127011D01*
X193084258Y-152057853D01*
X193113283Y-151994297D01*
X193134112Y-151975181D01*
X193155169Y-151959882D01*
X193155169Y-151959881D01*
X193155173Y-151959879D01*
X193305485Y-151809567D01*
X193305487Y-151809563D01*
X193305490Y-151809561D01*
X193391271Y-151691492D01*
X193430432Y-151637591D01*
X193435174Y-151628283D01*
X193483144Y-151577486D01*
X193550964Y-151560686D01*
X193617100Y-151583220D01*
X193656144Y-151628275D01*
X193660754Y-151637322D01*
X193700109Y-151691491D01*
X194332417Y-151059182D01*
X194349456Y-151122768D01*
G37*
%TD.AperFunction*%
%TA.AperFunction,Conductor*%
G36*
X195930651Y-151691492D02*
G01*
X195930651Y-151691491D01*
X195970003Y-151637330D01*
X195974613Y-151628282D01*
X196022586Y-151577484D01*
X196090406Y-151560687D01*
X196156542Y-151583222D01*
X196195585Y-151628279D01*
X196200330Y-151637592D01*
X196325271Y-151809561D01*
X196475592Y-151959882D01*
X196496650Y-151975181D01*
X196539317Y-152030510D01*
X196545297Y-152100124D01*
X196512691Y-152161919D01*
X196451853Y-152196277D01*
X196423766Y-152199500D01*
X195699085Y-152199500D01*
X195632046Y-152179815D01*
X195586291Y-152127011D01*
X195575467Y-152065771D01*
X195577098Y-152045045D01*
X194944789Y-151412737D01*
X195008374Y-151395700D01*
X195122388Y-151329874D01*
X195215480Y-151236782D01*
X195281306Y-151122768D01*
X195298343Y-151059184D01*
X195930651Y-151691492D01*
G37*
%TD.AperFunction*%
%TA.AperFunction,Conductor*%
G36*
X215731444Y-147913999D02*
G01*
X215770486Y-147959056D01*
X215774951Y-147967820D01*
X215899890Y-148139786D01*
X215899896Y-148139792D01*
X216050208Y-148290104D01*
X216098384Y-148325106D01*
X216141051Y-148380434D01*
X216149500Y-148425424D01*
X216149500Y-151417060D01*
X216129815Y-151484099D01*
X216113181Y-151504741D01*
X215454741Y-152163181D01*
X215393418Y-152196666D01*
X215367060Y-152199500D01*
X203366996Y-152199500D01*
X203299957Y-152179815D01*
X203254202Y-152127011D01*
X203244258Y-152057853D01*
X203273283Y-151994297D01*
X203294112Y-151975181D01*
X203315169Y-151959882D01*
X203315169Y-151959881D01*
X203315173Y-151959879D01*
X203465485Y-151809567D01*
X203465487Y-151809563D01*
X203465490Y-151809561D01*
X203590429Y-151637595D01*
X203590428Y-151637595D01*
X203590432Y-151637591D01*
X203686938Y-151448187D01*
X203752627Y-151246018D01*
X203785881Y-151036062D01*
X203785881Y-150823488D01*
X203752627Y-150613532D01*
X203729251Y-150541591D01*
X203727257Y-150471752D01*
X203763337Y-150411919D01*
X203826038Y-150381091D01*
X203847183Y-150379275D01*
X211576913Y-150379275D01*
X211643952Y-150398960D01*
X211664594Y-150415594D01*
X211909375Y-150660374D01*
X211936255Y-150700602D01*
X211988366Y-150826411D01*
X211988371Y-150826420D01*
X212097860Y-150990281D01*
X212097863Y-150990285D01*
X212237214Y-151129636D01*
X212237218Y-151129639D01*
X212401079Y-151239128D01*
X212401092Y-151239135D01*
X212583160Y-151314549D01*
X212583165Y-151314551D01*
X212583169Y-151314551D01*
X212583170Y-151314552D01*
X212776456Y-151353000D01*
X212776459Y-151353000D01*
X212973543Y-151353000D01*
X213103582Y-151327132D01*
X213166835Y-151314551D01*
X213348914Y-151239132D01*
X213512782Y-151129639D01*
X213652139Y-150990282D01*
X213761632Y-150826414D01*
X213837051Y-150644335D01*
X213857488Y-150541593D01*
X213875500Y-150451043D01*
X213875500Y-150253956D01*
X213837052Y-150060670D01*
X213837051Y-150060669D01*
X213837051Y-150060665D01*
X213837049Y-150060660D01*
X213761635Y-149878592D01*
X213761628Y-149878579D01*
X213652139Y-149714718D01*
X213652136Y-149714714D01*
X213512785Y-149575363D01*
X213512781Y-149575360D01*
X213348920Y-149465871D01*
X213348911Y-149465866D01*
X213223102Y-149413755D01*
X213182874Y-149386875D01*
X212575316Y-148779315D01*
X212575315Y-148779314D01*
X212575311Y-148779311D01*
X212516234Y-148739838D01*
X212516233Y-148739837D01*
X212450920Y-148696195D01*
X212434354Y-148685126D01*
X212405249Y-148650300D01*
X212389549Y-148631513D01*
X212386895Y-148610383D01*
X212380842Y-148562188D01*
X212382314Y-148559112D01*
X212410997Y-148499160D01*
X212411003Y-148499155D01*
X212446949Y-148471540D01*
X212557816Y-148415051D01*
X212625342Y-148365991D01*
X212729786Y-148290109D01*
X212729788Y-148290106D01*
X212729792Y-148290104D01*
X212880104Y-148139792D01*
X212880106Y-148139788D01*
X212880109Y-148139786D01*
X213005048Y-147967820D01*
X213005047Y-147967820D01*
X213005051Y-147967816D01*
X213009514Y-147959054D01*
X213057488Y-147908259D01*
X213125308Y-147891463D01*
X213191444Y-147913999D01*
X213230486Y-147959056D01*
X213234951Y-147967820D01*
X213359890Y-148139786D01*
X213510213Y-148290109D01*
X213682179Y-148415048D01*
X213682181Y-148415049D01*
X213682184Y-148415051D01*
X213871588Y-148511557D01*
X214073757Y-148577246D01*
X214283713Y-148610500D01*
X214283714Y-148610500D01*
X214496286Y-148610500D01*
X214496287Y-148610500D01*
X214706243Y-148577246D01*
X214908412Y-148511557D01*
X215097816Y-148415051D01*
X215165342Y-148365991D01*
X215269786Y-148290109D01*
X215269788Y-148290106D01*
X215269792Y-148290104D01*
X215420104Y-148139792D01*
X215420106Y-148139788D01*
X215420109Y-148139786D01*
X215545048Y-147967820D01*
X215545047Y-147967820D01*
X215545051Y-147967816D01*
X215549514Y-147959054D01*
X215597488Y-147908259D01*
X215665308Y-147891463D01*
X215731444Y-147913999D01*
G37*
%TD.AperFunction*%
%TA.AperFunction,Conductor*%
G36*
X198341516Y-126320185D02*
G01*
X198387271Y-126372989D01*
X198397215Y-126442147D01*
X198390659Y-126467833D01*
X198388709Y-126473059D01*
X198382302Y-126532658D01*
X198382301Y-126532677D01*
X198382301Y-128328412D01*
X198382302Y-128328418D01*
X198388709Y-128388025D01*
X198439003Y-128522870D01*
X198439007Y-128522877D01*
X198525253Y-128638086D01*
X198525256Y-128638089D01*
X198640465Y-128724335D01*
X198640472Y-128724339D01*
X198640475Y-128724340D01*
X198768833Y-128772214D01*
X198824766Y-128814085D01*
X198849184Y-128879549D01*
X198849500Y-128888396D01*
X198849500Y-143784902D01*
X198840061Y-143832354D01*
X198787949Y-143958163D01*
X198787947Y-143958171D01*
X198749500Y-144151456D01*
X198749500Y-144151459D01*
X198749500Y-144348541D01*
X198749500Y-144348543D01*
X198749499Y-144348543D01*
X198787947Y-144541829D01*
X198787950Y-144541839D01*
X198863364Y-144723907D01*
X198863371Y-144723920D01*
X198972860Y-144887781D01*
X198972863Y-144887785D01*
X199112214Y-145027136D01*
X199112218Y-145027139D01*
X199276079Y-145136628D01*
X199276092Y-145136635D01*
X199458160Y-145212049D01*
X199458165Y-145212051D01*
X199458169Y-145212051D01*
X199458170Y-145212052D01*
X199651456Y-145250500D01*
X199651459Y-145250500D01*
X199848543Y-145250500D01*
X199978582Y-145224632D01*
X200041835Y-145212051D01*
X200223914Y-145136632D01*
X200387782Y-145027139D01*
X200527139Y-144887782D01*
X200558287Y-144841166D01*
X200582398Y-144805082D01*
X200636010Y-144760276D01*
X200705335Y-144751569D01*
X200768362Y-144781723D01*
X200805082Y-144841166D01*
X200809500Y-144873972D01*
X200809500Y-146179242D01*
X200789815Y-146246281D01*
X200773181Y-146266923D01*
X200659894Y-146380209D01*
X200659890Y-146380213D01*
X200534949Y-146552182D01*
X200530484Y-146560946D01*
X200482509Y-146611742D01*
X200414688Y-146628536D01*
X200348553Y-146605998D01*
X200309516Y-146560946D01*
X200305050Y-146552182D01*
X200180109Y-146380213D01*
X200029786Y-146229890D01*
X199857820Y-146104951D01*
X199668414Y-146008444D01*
X199668413Y-146008443D01*
X199668412Y-146008443D01*
X199466243Y-145942754D01*
X199466241Y-145942753D01*
X199466240Y-145942753D01*
X199304957Y-145917208D01*
X199256287Y-145909500D01*
X199043713Y-145909500D01*
X198995042Y-145917208D01*
X198833760Y-145942753D01*
X198631585Y-146008444D01*
X198442179Y-146104951D01*
X198270213Y-146229890D01*
X198119890Y-146380213D01*
X197994951Y-146552179D01*
X197898444Y-146741585D01*
X197832753Y-146943760D01*
X197813233Y-147067007D01*
X197799500Y-147153713D01*
X197799500Y-147366287D01*
X197832754Y-147576243D01*
X197860548Y-147661785D01*
X197898444Y-147778414D01*
X197994951Y-147967820D01*
X198119890Y-148139786D01*
X198119896Y-148139792D01*
X198270208Y-148290104D01*
X198358094Y-148353957D01*
X198400760Y-148409286D01*
X198406739Y-148478899D01*
X198374134Y-148540695D01*
X198313295Y-148575052D01*
X198285209Y-148578275D01*
X194934791Y-148578275D01*
X194867752Y-148558590D01*
X194821997Y-148505786D01*
X194812053Y-148436628D01*
X194841078Y-148373072D01*
X194861903Y-148353958D01*
X194949792Y-148290104D01*
X195100104Y-148139792D01*
X195100106Y-148139788D01*
X195100109Y-148139786D01*
X195225048Y-147967820D01*
X195225047Y-147967820D01*
X195225051Y-147967816D01*
X195321557Y-147778412D01*
X195387246Y-147576243D01*
X195420500Y-147366287D01*
X195420500Y-147153713D01*
X195387246Y-146943757D01*
X195321557Y-146741588D01*
X195225051Y-146552184D01*
X195225049Y-146552181D01*
X195225048Y-146552179D01*
X195100109Y-146380213D01*
X194949786Y-146229890D01*
X194777820Y-146104951D01*
X194588414Y-146008444D01*
X194588413Y-146008443D01*
X194588412Y-146008443D01*
X194386243Y-145942754D01*
X194386241Y-145942753D01*
X194386240Y-145942753D01*
X194224957Y-145917208D01*
X194176287Y-145909500D01*
X193963713Y-145909500D01*
X193915042Y-145917208D01*
X193753760Y-145942753D01*
X193551585Y-146008444D01*
X193362179Y-146104951D01*
X193190213Y-146229890D01*
X193039890Y-146380213D01*
X192914949Y-146552182D01*
X192910484Y-146560946D01*
X192862509Y-146611742D01*
X192794688Y-146628536D01*
X192728553Y-146605998D01*
X192689516Y-146560946D01*
X192685050Y-146552182D01*
X192560109Y-146380213D01*
X192409786Y-146229890D01*
X192237820Y-146104951D01*
X192048414Y-146008444D01*
X192048413Y-146008443D01*
X192048412Y-146008443D01*
X191846243Y-145942754D01*
X191846241Y-145942753D01*
X191846240Y-145942753D01*
X191684957Y-145917208D01*
X191636287Y-145909500D01*
X191423713Y-145909500D01*
X191375042Y-145917208D01*
X191213760Y-145942753D01*
X191011585Y-146008444D01*
X190822179Y-146104951D01*
X190650213Y-146229890D01*
X190499890Y-146380213D01*
X190374949Y-146552182D01*
X190370484Y-146560946D01*
X190322509Y-146611742D01*
X190254688Y-146628536D01*
X190188553Y-146605998D01*
X190149516Y-146560946D01*
X190145050Y-146552182D01*
X190020109Y-146380213D01*
X189869786Y-146229890D01*
X189697820Y-146104951D01*
X189508414Y-146008444D01*
X189508413Y-146008443D01*
X189508412Y-146008443D01*
X189306243Y-145942754D01*
X189306241Y-145942753D01*
X189306240Y-145942753D01*
X189144957Y-145917208D01*
X189096287Y-145909500D01*
X188883713Y-145909500D01*
X188835042Y-145917208D01*
X188673760Y-145942753D01*
X188471585Y-146008444D01*
X188282179Y-146104951D01*
X188110213Y-146229890D01*
X187959890Y-146380213D01*
X187834949Y-146552182D01*
X187830484Y-146560946D01*
X187782509Y-146611742D01*
X187714688Y-146628536D01*
X187648553Y-146605998D01*
X187609516Y-146560946D01*
X187605050Y-146552182D01*
X187480109Y-146380213D01*
X187329794Y-146229898D01*
X187329792Y-146229896D01*
X187301613Y-146209422D01*
X187258949Y-146154094D01*
X187250500Y-146109106D01*
X187250500Y-145432940D01*
X187270185Y-145365901D01*
X187286819Y-145345259D01*
X194121786Y-138510292D01*
X194121789Y-138510289D01*
X194209394Y-138379179D01*
X194269738Y-138233497D01*
X194300500Y-138078842D01*
X194300500Y-137921157D01*
X194300500Y-128132940D01*
X194320185Y-128065901D01*
X194336819Y-128045259D01*
X196045259Y-126336819D01*
X196106582Y-126303334D01*
X196132940Y-126300500D01*
X198274477Y-126300500D01*
X198341516Y-126320185D01*
G37*
%TD.AperFunction*%
%TA.AperFunction,Conductor*%
G36*
X195085098Y-124820185D02*
G01*
X195130853Y-124872989D01*
X195140797Y-124942147D01*
X195111772Y-125005703D01*
X195105740Y-125012181D01*
X194010785Y-126107137D01*
X192989711Y-127128211D01*
X192933960Y-127183962D01*
X192878209Y-127239712D01*
X192790609Y-127370814D01*
X192790602Y-127370827D01*
X192730264Y-127516498D01*
X192730261Y-127516510D01*
X192699500Y-127671153D01*
X192699500Y-137617060D01*
X192679815Y-137684099D01*
X192663181Y-137704741D01*
X185939711Y-144428211D01*
X185909588Y-144458334D01*
X185828209Y-144539712D01*
X185740609Y-144670814D01*
X185740602Y-144670827D01*
X185680264Y-144816498D01*
X185680261Y-144816510D01*
X185649500Y-144971153D01*
X185649500Y-146109106D01*
X185629815Y-146176145D01*
X185598387Y-146209422D01*
X185570208Y-146229896D01*
X185570206Y-146229898D01*
X185570205Y-146229898D01*
X185419890Y-146380213D01*
X185294949Y-146552182D01*
X185290484Y-146560946D01*
X185242509Y-146611742D01*
X185174688Y-146628536D01*
X185108553Y-146605998D01*
X185069516Y-146560946D01*
X185065050Y-146552182D01*
X184940109Y-146380213D01*
X184789794Y-146229898D01*
X184789792Y-146229896D01*
X184761613Y-146209422D01*
X184718949Y-146154094D01*
X184710500Y-146109106D01*
X184710500Y-144472940D01*
X184730185Y-144405901D01*
X184746819Y-144385259D01*
X188170028Y-140962050D01*
X191621789Y-137510289D01*
X191635539Y-137489710D01*
X191709394Y-137379179D01*
X191769737Y-137233497D01*
X191771853Y-137222861D01*
X191771854Y-137222858D01*
X191793632Y-137113371D01*
X191800500Y-137078843D01*
X191800500Y-136921158D01*
X191800500Y-126882940D01*
X191820185Y-126815901D01*
X191836819Y-126795259D01*
X193795259Y-124836819D01*
X193856582Y-124803334D01*
X193882940Y-124800500D01*
X195018059Y-124800500D01*
X195085098Y-124820185D01*
G37*
%TD.AperFunction*%
%TA.AperFunction,Conductor*%
G36*
X203268834Y-132890521D02*
G01*
X203324767Y-132932393D01*
X203349184Y-132997857D01*
X203349500Y-133006703D01*
X203349500Y-146179242D01*
X203329815Y-146246281D01*
X203313181Y-146266923D01*
X203199894Y-146380209D01*
X203199890Y-146380213D01*
X203074949Y-146552182D01*
X203070484Y-146560946D01*
X203022509Y-146611742D01*
X202954688Y-146628536D01*
X202888553Y-146605998D01*
X202849516Y-146560946D01*
X202845050Y-146552182D01*
X202720109Y-146380213D01*
X202646819Y-146306923D01*
X202613334Y-146245600D01*
X202610500Y-146219242D01*
X202610500Y-133497703D01*
X202630185Y-133430664D01*
X202646815Y-133410026D01*
X203137819Y-132919021D01*
X203199142Y-132885537D01*
X203268834Y-132890521D01*
G37*
%TD.AperFunction*%
%TA.AperFunction,Conductor*%
G36*
X205848362Y-132936825D02*
G01*
X205885082Y-132996268D01*
X205889500Y-133029074D01*
X205889500Y-146179242D01*
X205869815Y-146246281D01*
X205853181Y-146266923D01*
X205739894Y-146380209D01*
X205739890Y-146380213D01*
X205614949Y-146552182D01*
X205610484Y-146560946D01*
X205562509Y-146611742D01*
X205494688Y-146628536D01*
X205428553Y-146605998D01*
X205389516Y-146560946D01*
X205385050Y-146552182D01*
X205260109Y-146380213D01*
X205186819Y-146306923D01*
X205153334Y-146245600D01*
X205150500Y-146219242D01*
X205150500Y-133470605D01*
X205170185Y-133403566D01*
X205222989Y-133357811D01*
X205227009Y-133356060D01*
X205273914Y-133336632D01*
X205437782Y-133227139D01*
X205577139Y-133087782D01*
X205649523Y-132979452D01*
X205662398Y-132960183D01*
X205716010Y-132915378D01*
X205785335Y-132906671D01*
X205848362Y-132936825D01*
G37*
%TD.AperFunction*%
%TA.AperFunction,Conductor*%
G36*
X203388071Y-128192259D02*
G01*
X203388071Y-128192258D01*
X203427423Y-128138097D01*
X203432033Y-128129049D01*
X203480006Y-128078251D01*
X203547826Y-128061454D01*
X203613962Y-128083989D01*
X203653005Y-128129046D01*
X203657750Y-128138359D01*
X203782691Y-128310328D01*
X203933014Y-128460651D01*
X204104980Y-128585590D01*
X204104982Y-128585591D01*
X204104985Y-128585593D01*
X204294389Y-128682099D01*
X204496558Y-128747788D01*
X204496560Y-128747788D01*
X204501191Y-128749293D01*
X204500765Y-128750602D01*
X204555954Y-128782298D01*
X204588113Y-128844327D01*
X204581631Y-128913895D01*
X204554089Y-128955754D01*
X201010535Y-132499307D01*
X201010533Y-132499309D01*
X200992960Y-132525611D01*
X200992954Y-132525620D01*
X200990802Y-132528842D01*
X200911987Y-132646796D01*
X200885880Y-132709822D01*
X200881704Y-132717007D01*
X200862136Y-132735554D01*
X200845220Y-132756547D01*
X200837159Y-132759229D01*
X200830995Y-132765073D01*
X200804506Y-132770096D01*
X200778925Y-132778611D01*
X200770694Y-132776510D01*
X200762349Y-132778093D01*
X200737348Y-132767998D01*
X200711226Y-132761331D01*
X200705438Y-132755114D01*
X200697561Y-132751934D01*
X200681986Y-132729924D01*
X200663616Y-132710194D01*
X200661406Y-132700843D01*
X200657201Y-132694901D01*
X200656547Y-132680282D01*
X200650500Y-132654690D01*
X200650500Y-128875566D01*
X200670185Y-128808527D01*
X200722989Y-128762772D01*
X200731161Y-128759386D01*
X200825132Y-128724338D01*
X200940347Y-128638088D01*
X201026597Y-128522873D01*
X201076892Y-128388025D01*
X201083301Y-128328415D01*
X201083300Y-128304521D01*
X201086131Y-128291505D01*
X201096741Y-128272067D01*
X201102980Y-128250817D01*
X201119604Y-128230185D01*
X201119609Y-128230178D01*
X201119612Y-128230176D01*
X201119619Y-128230168D01*
X201789838Y-127559950D01*
X201806876Y-127623535D01*
X201872702Y-127737549D01*
X201965794Y-127830641D01*
X202079808Y-127896467D01*
X202143391Y-127913504D01*
X201511083Y-128545811D01*
X201511083Y-128545812D01*
X201565250Y-128585166D01*
X201754583Y-128681637D01*
X201956671Y-128747299D01*
X202166555Y-128780542D01*
X202379047Y-128780542D01*
X202588928Y-128747299D01*
X202588931Y-128747299D01*
X202791018Y-128681637D01*
X202980355Y-128585164D01*
X203034517Y-128545812D01*
X203034518Y-128545812D01*
X202402209Y-127913504D01*
X202465794Y-127896467D01*
X202579808Y-127830641D01*
X202672900Y-127737549D01*
X202738726Y-127623535D01*
X202755763Y-127559950D01*
X203388071Y-128192259D01*
G37*
%TD.AperFunction*%
%TA.AperFunction,Conductor*%
G36*
X209426876Y-127623535D02*
G01*
X209492702Y-127737549D01*
X209585794Y-127830641D01*
X209699808Y-127896467D01*
X209763391Y-127913504D01*
X209131083Y-128545811D01*
X209131083Y-128545812D01*
X209185250Y-128585166D01*
X209374583Y-128681637D01*
X209581308Y-128748806D01*
X209580908Y-128750035D01*
X209636357Y-128781869D01*
X209668525Y-128843893D01*
X209662052Y-128913463D01*
X209634504Y-128955338D01*
X206090533Y-132499309D01*
X206070804Y-132528839D01*
X206070802Y-132528842D01*
X206027602Y-132593495D01*
X205973990Y-132638300D01*
X205904665Y-132647007D01*
X205841637Y-132616852D01*
X205804918Y-132557409D01*
X205800500Y-132524604D01*
X205800500Y-132351456D01*
X205762052Y-132158170D01*
X205762051Y-132158169D01*
X205762051Y-132158165D01*
X205739126Y-132102819D01*
X205686635Y-131976092D01*
X205686628Y-131976079D01*
X205577139Y-131812218D01*
X205577136Y-131812214D01*
X205437785Y-131672863D01*
X205437781Y-131672860D01*
X205273920Y-131563371D01*
X205273907Y-131563364D01*
X205091839Y-131487950D01*
X205091829Y-131487947D01*
X204898536Y-131449498D01*
X204894359Y-131449087D01*
X204829572Y-131422925D01*
X204789215Y-131365889D01*
X204786101Y-131296088D01*
X204818834Y-131238006D01*
X207239481Y-128817361D01*
X207300804Y-128783876D01*
X207327162Y-128781042D01*
X207459087Y-128781042D01*
X207459088Y-128781042D01*
X207669044Y-128747788D01*
X207871213Y-128682099D01*
X208060617Y-128585593D01*
X208146939Y-128522877D01*
X208232587Y-128460651D01*
X208232589Y-128460648D01*
X208232593Y-128460646D01*
X208382905Y-128310334D01*
X208382907Y-128310330D01*
X208382910Y-128310328D01*
X208468691Y-128192259D01*
X208507852Y-128138358D01*
X208512594Y-128129050D01*
X208560564Y-128078253D01*
X208628384Y-128061453D01*
X208694520Y-128083987D01*
X208733564Y-128129042D01*
X208738174Y-128138089D01*
X208777529Y-128192258D01*
X209409838Y-127559950D01*
X209426876Y-127623535D01*
G37*
%TD.AperFunction*%
%TA.AperFunction,Conductor*%
G36*
X201511990Y-126320185D02*
G01*
X201532632Y-126336819D01*
X202143392Y-126947579D01*
X202079808Y-126964617D01*
X201965794Y-127030443D01*
X201872702Y-127123535D01*
X201806876Y-127237549D01*
X201789838Y-127301133D01*
X201119619Y-126630914D01*
X201108794Y-126611090D01*
X201094127Y-126593908D01*
X201090729Y-126578007D01*
X201086134Y-126569591D01*
X201084435Y-126559971D01*
X201083300Y-126551639D01*
X201083300Y-126532670D01*
X201076892Y-126473059D01*
X201070122Y-126454908D01*
X201068260Y-126441238D01*
X201071506Y-126419784D01*
X201069959Y-126398142D01*
X201076631Y-126385922D01*
X201078715Y-126372155D01*
X201093045Y-126355861D01*
X201103444Y-126336819D01*
X201115663Y-126330146D01*
X201124860Y-126319691D01*
X201145724Y-126313731D01*
X201164767Y-126303334D01*
X201191125Y-126300500D01*
X201444951Y-126300500D01*
X201511990Y-126320185D01*
G37*
%TD.AperFunction*%
%TA.AperFunction,Conductor*%
G36*
X209131990Y-126320185D02*
G01*
X209152632Y-126336819D01*
X209763392Y-126947579D01*
X209699808Y-126964617D01*
X209585794Y-127030443D01*
X209492702Y-127123535D01*
X209426876Y-127237549D01*
X209409838Y-127301133D01*
X208777529Y-126668824D01*
X208777528Y-126668824D01*
X208738181Y-126722982D01*
X208738177Y-126722988D01*
X208733561Y-126732047D01*
X208685582Y-126782839D01*
X208617760Y-126799629D01*
X208551627Y-126777085D01*
X208512595Y-126732035D01*
X208507852Y-126722726D01*
X208507850Y-126722723D01*
X208507849Y-126722721D01*
X208382910Y-126550755D01*
X208344336Y-126512181D01*
X208310851Y-126450858D01*
X208315835Y-126381166D01*
X208357707Y-126325233D01*
X208423171Y-126300816D01*
X208432017Y-126300500D01*
X209064951Y-126300500D01*
X209131990Y-126320185D01*
G37*
%TD.AperFunction*%
%TA.AperFunction,Conductor*%
G36*
X203800624Y-126320185D02*
G01*
X203846379Y-126372989D01*
X203856323Y-126442147D01*
X203827298Y-126505703D01*
X203821266Y-126512181D01*
X203782695Y-126550751D01*
X203782691Y-126550755D01*
X203657750Y-126722724D01*
X203653003Y-126732041D01*
X203605028Y-126782835D01*
X203537206Y-126799629D01*
X203471072Y-126777090D01*
X203432035Y-126732037D01*
X203427427Y-126722994D01*
X203388071Y-126668824D01*
X203388070Y-126668824D01*
X202755763Y-127301132D01*
X202738726Y-127237549D01*
X202672900Y-127123535D01*
X202579808Y-127030443D01*
X202465794Y-126964617D01*
X202402210Y-126947579D01*
X203012969Y-126336819D01*
X203074292Y-126303334D01*
X203100650Y-126300500D01*
X203733585Y-126300500D01*
X203800624Y-126320185D01*
G37*
%TD.AperFunction*%
%TA.AperFunction,Conductor*%
G36*
X211420624Y-126320185D02*
G01*
X211466379Y-126372989D01*
X211476323Y-126442147D01*
X211447298Y-126505703D01*
X211441266Y-126512181D01*
X211402695Y-126550751D01*
X211402691Y-126550755D01*
X211277750Y-126722724D01*
X211273003Y-126732041D01*
X211225028Y-126782835D01*
X211157206Y-126799629D01*
X211091072Y-126777090D01*
X211052035Y-126732037D01*
X211047427Y-126722994D01*
X211008071Y-126668824D01*
X211008070Y-126668824D01*
X210375763Y-127301132D01*
X210358726Y-127237549D01*
X210292900Y-127123535D01*
X210199808Y-127030443D01*
X210085794Y-126964617D01*
X210022210Y-126947579D01*
X210632969Y-126336819D01*
X210694292Y-126303334D01*
X210720650Y-126300500D01*
X211353585Y-126300500D01*
X211420624Y-126320185D01*
G37*
%TD.AperFunction*%
%TD*%
M02*
