%TF.GenerationSoftware,KiCad,Pcbnew,9.0.2*%
%TF.CreationDate,2026-01-01T17:21:28+07:00*%
%TF.ProjectId,ControlMikon,436f6e74-726f-46c4-9d69-6b6f6e2e6b69,rev?*%
%TF.SameCoordinates,Original*%
%TF.FileFunction,Soldermask,Top*%
%TF.FilePolarity,Negative*%
%FSLAX46Y46*%
G04 Gerber Fmt 4.6, Leading zero omitted, Abs format (unit mm)*
G04 Created by KiCad (PCBNEW 9.0.2) date 2026-01-01 17:21:28*
%MOMM*%
%LPD*%
G01*
G04 APERTURE LIST*
G04 Aperture macros list*
%AMRoundRect*
0 Rectangle with rounded corners*
0 $1 Rounding radius*
0 $2 $3 $4 $5 $6 $7 $8 $9 X,Y pos of 4 corners*
0 Add a 4 corners polygon primitive as box body*
4,1,4,$2,$3,$4,$5,$6,$7,$8,$9,$2,$3,0*
0 Add four circle primitives for the rounded corners*
1,1,$1+$1,$2,$3*
1,1,$1+$1,$4,$5*
1,1,$1+$1,$6,$7*
1,1,$1+$1,$8,$9*
0 Add four rect primitives between the rounded corners*
20,1,$1+$1,$2,$3,$4,$5,0*
20,1,$1+$1,$4,$5,$6,$7,0*
20,1,$1+$1,$6,$7,$8,$9,0*
20,1,$1+$1,$8,$9,$2,$3,0*%
%AMFreePoly0*
4,1,23,0.550000,-0.750000,0.000000,-0.750000,0.000000,-0.745722,-0.065263,-0.745722,-0.191342,-0.711940,-0.304381,-0.646677,-0.396677,-0.554381,-0.461940,-0.441342,-0.495722,-0.315263,-0.495722,-0.250000,-0.500000,-0.250000,-0.500000,0.250000,-0.495722,0.250000,-0.495722,0.315263,-0.461940,0.441342,-0.396677,0.554381,-0.304381,0.646677,-0.191342,0.711940,-0.065263,0.745722,0.000000,0.745722,
0.000000,0.750000,0.550000,0.750000,0.550000,-0.750000,0.550000,-0.750000,$1*%
%AMFreePoly1*
4,1,23,0.000000,0.745722,0.065263,0.745722,0.191342,0.711940,0.304381,0.646677,0.396677,0.554381,0.461940,0.441342,0.495722,0.315263,0.495722,0.250000,0.500000,0.250000,0.500000,-0.250000,0.495722,-0.250000,0.495722,-0.315263,0.461940,-0.441342,0.396677,-0.554381,0.304381,-0.646677,0.191342,-0.711940,0.065263,-0.745722,0.000000,-0.745722,0.000000,-0.750000,-0.550000,-0.750000,
-0.550000,0.750000,0.000000,0.750000,0.000000,0.745722,0.000000,0.745722,$1*%
%AMFreePoly2*
4,1,23,0.500000,-0.750000,0.000000,-0.750000,0.000000,-0.745722,-0.065263,-0.745722,-0.191342,-0.711940,-0.304381,-0.646677,-0.396677,-0.554381,-0.461940,-0.441342,-0.495722,-0.315263,-0.495722,-0.250000,-0.500000,-0.250000,-0.500000,0.250000,-0.495722,0.250000,-0.495722,0.315263,-0.461940,0.441342,-0.396677,0.554381,-0.304381,0.646677,-0.191342,0.711940,-0.065263,0.745722,0.000000,0.745722,
0.000000,0.750000,0.500000,0.750000,0.500000,-0.750000,0.500000,-0.750000,$1*%
%AMFreePoly3*
4,1,23,0.000000,0.745722,0.065263,0.745722,0.191342,0.711940,0.304381,0.646677,0.396677,0.554381,0.461940,0.441342,0.495722,0.315263,0.495722,0.250000,0.500000,0.250000,0.500000,-0.250000,0.495722,-0.250000,0.495722,-0.315263,0.461940,-0.441342,0.396677,-0.554381,0.304381,-0.646677,0.191342,-0.711940,0.065263,-0.745722,0.000000,-0.745722,0.000000,-0.750000,-0.500000,-0.750000,
-0.500000,0.750000,0.000000,0.750000,0.000000,0.745722,0.000000,0.745722,$1*%
G04 Aperture macros list end*
%ADD10RoundRect,0.250000X0.250000X0.475000X-0.250000X0.475000X-0.250000X-0.475000X0.250000X-0.475000X0*%
%ADD11RoundRect,0.250000X-0.850000X-0.350000X0.850000X-0.350000X0.850000X0.350000X-0.850000X0.350000X0*%
%ADD12RoundRect,0.249997X-2.950003X-2.650003X2.950003X-2.650003X2.950003X2.650003X-2.950003X2.650003X0*%
%ADD13RoundRect,0.250000X-0.250000X-0.475000X0.250000X-0.475000X0.250000X0.475000X-0.250000X0.475000X0*%
%ADD14RoundRect,0.250000X-0.350000X0.850000X-0.350000X-0.850000X0.350000X-0.850000X0.350000X0.850000X0*%
%ADD15RoundRect,0.249997X-2.650003X2.950003X-2.650003X-2.950003X2.650003X-2.950003X2.650003X2.950003X0*%
%ADD16C,6.400000*%
%ADD17O,3.700000X2.700000*%
%ADD18RoundRect,0.250001X-1.599999X1.099999X-1.599999X-1.099999X1.599999X-1.099999X1.599999X1.099999X0*%
%ADD19C,3.000000*%
%ADD20RoundRect,0.250000X-0.262500X-0.450000X0.262500X-0.450000X0.262500X0.450000X-0.262500X0.450000X0*%
%ADD21RoundRect,0.250000X0.600000X0.725000X-0.600000X0.725000X-0.600000X-0.725000X0.600000X-0.725000X0*%
%ADD22O,1.700000X1.950000*%
%ADD23RoundRect,0.150000X-0.587500X-0.150000X0.587500X-0.150000X0.587500X0.150000X-0.587500X0.150000X0*%
%ADD24RoundRect,0.250000X0.262500X0.450000X-0.262500X0.450000X-0.262500X-0.450000X0.262500X-0.450000X0*%
%ADD25C,1.700000*%
%ADD26R,1.700000X1.700000*%
%ADD27RoundRect,0.250000X0.475000X-0.250000X0.475000X0.250000X-0.475000X0.250000X-0.475000X-0.250000X0*%
%ADD28FreePoly0,90.000000*%
%ADD29R,1.500000X1.000000*%
%ADD30FreePoly1,90.000000*%
%ADD31RoundRect,0.250000X-0.475000X0.250000X-0.475000X-0.250000X0.475000X-0.250000X0.475000X0.250000X0*%
%ADD32RoundRect,0.250000X-0.450000X0.262500X-0.450000X-0.262500X0.450000X-0.262500X0.450000X0.262500X0*%
%ADD33R,1.200000X0.700000*%
%ADD34RoundRect,0.150000X0.150000X-0.825000X0.150000X0.825000X-0.150000X0.825000X-0.150000X-0.825000X0*%
%ADD35FreePoly2,0.000000*%
%ADD36FreePoly3,0.000000*%
G04 APERTURE END LIST*
%TO.C,JP5*%
G36*
X180850000Y-134650000D02*
G01*
X182350000Y-134650000D01*
X182350000Y-133150000D01*
X180850000Y-133150000D01*
X180850000Y-134650000D01*
G37*
%TO.C,J5*%
G36*
X193100000Y-133225000D02*
G01*
X193400000Y-133225000D01*
X193400000Y-134725000D01*
X193100000Y-134725000D01*
X193100000Y-133225000D01*
G37*
%TD*%
D10*
%TO.C,C2*%
X212878126Y-159761846D03*
X214778126Y-159761846D03*
%TD*%
%TO.C,C1*%
X212875000Y-150352500D03*
X214775000Y-150352500D03*
%TD*%
D11*
%TO.C,U1*%
X212875000Y-157352500D03*
D12*
X219175000Y-155072500D03*
D11*
X212875000Y-152792500D03*
%TD*%
D13*
%TO.C,C77*%
X174403061Y-152000000D03*
X176303061Y-152000000D03*
%TD*%
D14*
%TO.C,U2*%
X178440000Y-151094188D03*
D15*
X180720000Y-157394188D03*
D14*
X183000000Y-151094188D03*
%TD*%
D10*
%TO.C,C64*%
X174400000Y-150000000D03*
X176300000Y-150000000D03*
%TD*%
D16*
%TO.C,H1*%
X242631658Y-127955542D03*
%TD*%
%TO.C,H2*%
X186557801Y-127955542D03*
%TD*%
%TO.C,H3*%
X242631658Y-180955542D03*
%TD*%
%TO.C,H4*%
X186557801Y-180955542D03*
%TD*%
D17*
%TO.C,J1*%
X231725000Y-174195000D03*
X231725000Y-169995000D03*
X231725000Y-165795000D03*
X237225000Y-174195000D03*
X237225000Y-169995000D03*
D18*
X237225000Y-165795000D03*
D19*
X244525000Y-174195000D03*
X244525000Y-165795000D03*
%TD*%
D17*
%TO.C,J6*%
X231588942Y-147300000D03*
X231588942Y-143100000D03*
X231588942Y-138900000D03*
X231588942Y-134700000D03*
X237088942Y-147300000D03*
X237088942Y-143100000D03*
X237088942Y-138900000D03*
D18*
X237088942Y-134700000D03*
D19*
X244388942Y-147300000D03*
X244388942Y-134700000D03*
%TD*%
D17*
%TO.C,J10*%
X231700000Y-158600000D03*
X231700000Y-154400000D03*
X237200000Y-158600000D03*
D18*
X237200000Y-154400000D03*
D19*
X244500000Y-156500000D03*
%TD*%
D10*
%TO.C,C36*%
X176350000Y-141150000D03*
X174450000Y-141150000D03*
%TD*%
D13*
%TO.C,C38*%
X176200000Y-131500000D03*
X178100000Y-131500000D03*
%TD*%
D20*
%TO.C,R91*%
X183925000Y-167500000D03*
X185750000Y-167500000D03*
%TD*%
D21*
%TO.C,J2*%
X218250000Y-171250000D03*
D22*
X215750000Y-171250000D03*
X213250000Y-171250000D03*
X210750000Y-171250000D03*
%TD*%
D10*
%TO.C,C39*%
X174650000Y-131500000D03*
X172750000Y-131500000D03*
%TD*%
D23*
%TO.C,D19*%
X198150000Y-134025000D03*
X198150000Y-135925000D03*
X200025000Y-134975000D03*
%TD*%
D24*
%TO.C,R2*%
X199075000Y-169500000D03*
X197250000Y-169500000D03*
%TD*%
D20*
%TO.C,R82*%
X214868960Y-140000000D03*
X216693960Y-140000000D03*
%TD*%
D25*
%TO.C,U23*%
X171210000Y-162500000D03*
X173750000Y-162500000D03*
X176290000Y-162500000D03*
X178830000Y-162500000D03*
X173750000Y-147260000D03*
X214390000Y-162500000D03*
X181370000Y-162500000D03*
X183910000Y-162500000D03*
X186450000Y-162500000D03*
X188990000Y-162500000D03*
X191530000Y-162500000D03*
X194070000Y-162500000D03*
X196610000Y-162500000D03*
X199150000Y-162500000D03*
X201690000Y-162500000D03*
X204230000Y-162500000D03*
X206770000Y-162500000D03*
X211850000Y-162500000D03*
X216930000Y-162500000D03*
X219470000Y-162500000D03*
D26*
X219470000Y-147260000D03*
D25*
X216930000Y-147260000D03*
X214390000Y-147260000D03*
X211850000Y-147260000D03*
X209310000Y-147260000D03*
X206770000Y-147260000D03*
X204230000Y-147260000D03*
X201690000Y-147260000D03*
X199150000Y-147260000D03*
X176290000Y-147260000D03*
X194070000Y-147260000D03*
X191530000Y-147260000D03*
X188990000Y-147260000D03*
X186450000Y-147260000D03*
X183910000Y-147260000D03*
X181370000Y-147260000D03*
X178830000Y-147260000D03*
X171210000Y-147260000D03*
%TD*%
D27*
%TO.C,C76*%
X185250000Y-152944188D03*
X185250000Y-151044188D03*
%TD*%
D28*
%TO.C,JP5*%
X181600000Y-135200000D03*
D29*
X181600000Y-133900000D03*
D30*
X181600000Y-132600000D03*
%TD*%
D24*
%TO.C,R83*%
X213075000Y-142000000D03*
X211250000Y-142000000D03*
%TD*%
D31*
%TO.C,C37*%
X179300000Y-133900000D03*
X179300000Y-135800000D03*
%TD*%
D26*
%TO.C,J3*%
X199732801Y-127430542D03*
D25*
X202272801Y-127430542D03*
X204812801Y-127430542D03*
X207352801Y-127430542D03*
X209892801Y-127430542D03*
X212432801Y-127430542D03*
%TD*%
D24*
%TO.C,R3*%
X199073354Y-171500000D03*
X197248354Y-171500000D03*
%TD*%
D26*
%TO.C,J20*%
X192247801Y-158455542D03*
D25*
X194787801Y-158455542D03*
X197327801Y-158455542D03*
X199867801Y-158455542D03*
%TD*%
D26*
%TO.C,J18*%
X189735381Y-150929775D03*
D25*
X192275381Y-150929775D03*
X194815381Y-150929775D03*
X197355381Y-150929775D03*
X199895381Y-150929775D03*
X202435381Y-150929775D03*
%TD*%
D20*
%TO.C,R86*%
X201678825Y-169500000D03*
X203503825Y-169500000D03*
%TD*%
D24*
%TO.C,R90*%
X185750000Y-169500000D03*
X183925000Y-169500000D03*
%TD*%
%TO.C,R89*%
X181376000Y-169500000D03*
X179551000Y-169500000D03*
%TD*%
%TO.C,R81*%
X216693960Y-142000000D03*
X214868960Y-142000000D03*
%TD*%
D20*
%TO.C,R88*%
X179550259Y-167500000D03*
X181375259Y-167500000D03*
%TD*%
D32*
%TO.C,R31*%
X196050000Y-133975000D03*
X196050000Y-135800000D03*
%TD*%
D33*
%TO.C,FL1*%
X185650000Y-135775000D03*
X190350000Y-135775000D03*
X190350000Y-133975000D03*
X185650000Y-133975000D03*
%TD*%
D34*
%TO.C,U8*%
X173510000Y-138850000D03*
X174780000Y-138850000D03*
X176050000Y-138850000D03*
X177320000Y-138850000D03*
X177320000Y-133900000D03*
X176050000Y-133900000D03*
X174780000Y-133900000D03*
X173510000Y-133900000D03*
%TD*%
D20*
%TO.C,R1*%
X197250000Y-167500000D03*
X199075000Y-167500000D03*
%TD*%
D24*
%TO.C,R85*%
X203500000Y-167500000D03*
X201675000Y-167500000D03*
%TD*%
D35*
%TO.C,J5*%
X192600000Y-133975000D03*
D36*
X193900000Y-133975000D03*
%TD*%
D32*
%TO.C,R78*%
X183928179Y-140425000D03*
X183928179Y-142250000D03*
%TD*%
D20*
%TO.C,R84*%
X211253220Y-140000000D03*
X213078220Y-140000000D03*
%TD*%
D13*
%TO.C,C65*%
X171228875Y-159450000D03*
X173128875Y-159450000D03*
%TD*%
D32*
%TO.C,R77*%
X186465979Y-140425000D03*
X186465979Y-142250000D03*
%TD*%
M02*
