%TF.GenerationSoftware,KiCad,Pcbnew,9.0.2*%
%TF.CreationDate,2025-12-27T14:45:29+07:00*%
%TF.ProjectId,Controller48V,436f6e74-726f-46c6-9c65-723438562e6b,rev?*%
%TF.SameCoordinates,Original*%
%TF.FileFunction,Paste,Bot*%
%TF.FilePolarity,Positive*%
%FSLAX46Y46*%
G04 Gerber Fmt 4.6, Leading zero omitted, Abs format (unit mm)*
G04 Created by KiCad (PCBNEW 9.0.2) date 2025-12-27 14:45:29*
%MOMM*%
%LPD*%
G01*
G04 APERTURE LIST*
G04 Aperture macros list*
%AMRoundRect*
0 Rectangle with rounded corners*
0 $1 Rounding radius*
0 $2 $3 $4 $5 $6 $7 $8 $9 X,Y pos of 4 corners*
0 Add a 4 corners polygon primitive as box body*
4,1,4,$2,$3,$4,$5,$6,$7,$8,$9,$2,$3,0*
0 Add four circle primitives for the rounded corners*
1,1,$1+$1,$2,$3*
1,1,$1+$1,$4,$5*
1,1,$1+$1,$6,$7*
1,1,$1+$1,$8,$9*
0 Add four rect primitives between the rounded corners*
20,1,$1+$1,$2,$3,$4,$5,0*
20,1,$1+$1,$4,$5,$6,$7,0*
20,1,$1+$1,$6,$7,$8,$9,0*
20,1,$1+$1,$8,$9,$2,$3,0*%
G04 Aperture macros list end*
%ADD10RoundRect,0.250000X-0.475000X0.250000X-0.475000X-0.250000X0.475000X-0.250000X0.475000X0.250000X0*%
%ADD11RoundRect,0.250000X-0.250000X-0.475000X0.250000X-0.475000X0.250000X0.475000X-0.250000X0.475000X0*%
%ADD12RoundRect,0.250000X0.475000X-0.250000X0.475000X0.250000X-0.475000X0.250000X-0.475000X-0.250000X0*%
%ADD13RoundRect,0.250000X0.450000X-0.262500X0.450000X0.262500X-0.450000X0.262500X-0.450000X-0.262500X0*%
%ADD14RoundRect,0.250000X-1.000000X-0.650000X1.000000X-0.650000X1.000000X0.650000X-1.000000X0.650000X0*%
%ADD15RoundRect,0.250000X0.159099X-0.512652X0.512652X-0.159099X-0.159099X0.512652X-0.512652X0.159099X0*%
G04 APERTURE END LIST*
D10*
%TO.C,C5*%
X283033533Y-114085223D03*
X283033533Y-115985223D03*
%TD*%
D11*
%TO.C,C20*%
X258361782Y-141424999D03*
X260261782Y-141424999D03*
%TD*%
D10*
%TO.C,C4*%
X283217482Y-77525391D03*
X283217482Y-79425391D03*
%TD*%
%TO.C,C8*%
X220500000Y-77528669D03*
X220500000Y-79428669D03*
%TD*%
D12*
%TO.C,C53*%
X214293115Y-195013072D03*
X214293115Y-193113072D03*
%TD*%
D13*
%TO.C,R14*%
X190283533Y-115947723D03*
X190283533Y-114122723D03*
%TD*%
%TO.C,R5*%
X253217482Y-79437891D03*
X253217482Y-77612891D03*
%TD*%
D10*
%TO.C,C62*%
X216116979Y-188729692D03*
X216116979Y-190629692D03*
%TD*%
%TO.C,C1*%
X255217482Y-77575391D03*
X255217482Y-79475391D03*
%TD*%
D14*
%TO.C,D21*%
X106500000Y-171000000D03*
X110500000Y-171000000D03*
%TD*%
D11*
%TO.C,C19*%
X245635000Y-141425000D03*
X247535000Y-141425000D03*
%TD*%
D13*
%TO.C,R20*%
X218283533Y-116147723D03*
X218283533Y-114322723D03*
%TD*%
D15*
%TO.C,C50*%
X223328249Y-156421751D03*
X224671751Y-155078249D03*
%TD*%
D10*
%TO.C,C12*%
X220283533Y-114285223D03*
X220283533Y-116185223D03*
%TD*%
D11*
%TO.C,C30*%
X195900000Y-158775000D03*
X197800000Y-158775000D03*
%TD*%
D13*
%TO.C,R13*%
X218500000Y-79391169D03*
X218500000Y-77566169D03*
%TD*%
D10*
%TO.C,C11*%
X192500000Y-77578669D03*
X192500000Y-79478669D03*
%TD*%
%TO.C,C61*%
X229616979Y-188779692D03*
X229616979Y-190679692D03*
%TD*%
D12*
%TO.C,C54*%
X227000000Y-194950000D03*
X227000000Y-193050000D03*
%TD*%
D10*
%TO.C,C9*%
X192283533Y-114085223D03*
X192283533Y-115985223D03*
%TD*%
D11*
%TO.C,C42*%
X287240000Y-141283200D03*
X289140000Y-141283200D03*
%TD*%
D13*
%TO.C,R6*%
X253033533Y-115947723D03*
X253033533Y-114122723D03*
%TD*%
D15*
%TO.C,C49*%
X232578249Y-165671751D03*
X233921751Y-164328249D03*
%TD*%
D10*
%TO.C,C2*%
X255033533Y-114085223D03*
X255033533Y-115985223D03*
%TD*%
D13*
%TO.C,R19*%
X190500000Y-79441169D03*
X190500000Y-77616169D03*
%TD*%
%TO.C,R12*%
X281033533Y-115947723D03*
X281033533Y-114122723D03*
%TD*%
D11*
%TO.C,C31*%
X195323857Y-183579922D03*
X197223857Y-183579922D03*
%TD*%
D13*
%TO.C,R11*%
X281217482Y-79387891D03*
X281217482Y-77562891D03*
%TD*%
M02*
