%TF.GenerationSoftware,KiCad,Pcbnew,9.0.2*%
%TF.CreationDate,2025-12-27T14:45:28+07:00*%
%TF.ProjectId,Controller48V,436f6e74-726f-46c6-9c65-723438562e6b,rev?*%
%TF.SameCoordinates,Original*%
%TF.FileFunction,Paste,Top*%
%TF.FilePolarity,Positive*%
%FSLAX46Y46*%
G04 Gerber Fmt 4.6, Leading zero omitted, Abs format (unit mm)*
G04 Created by KiCad (PCBNEW 9.0.2) date 2025-12-27 14:45:28*
%MOMM*%
%LPD*%
G01*
G04 APERTURE LIST*
G04 Aperture macros list*
%AMRoundRect*
0 Rectangle with rounded corners*
0 $1 Rounding radius*
0 $2 $3 $4 $5 $6 $7 $8 $9 X,Y pos of 4 corners*
0 Add a 4 corners polygon primitive as box body*
4,1,4,$2,$3,$4,$5,$6,$7,$8,$9,$2,$3,0*
0 Add four circle primitives for the rounded corners*
1,1,$1+$1,$2,$3*
1,1,$1+$1,$4,$5*
1,1,$1+$1,$6,$7*
1,1,$1+$1,$8,$9*
0 Add four rect primitives between the rounded corners*
20,1,$1+$1,$2,$3,$4,$5,0*
20,1,$1+$1,$4,$5,$6,$7,0*
20,1,$1+$1,$6,$7,$8,$9,0*
20,1,$1+$1,$8,$9,$2,$3,0*%
G04 Aperture macros list end*
%ADD10RoundRect,0.250000X0.350000X0.450000X-0.350000X0.450000X-0.350000X-0.450000X0.350000X-0.450000X0*%
%ADD11RoundRect,0.250000X-0.450000X0.350000X-0.450000X-0.350000X0.450000X-0.350000X0.450000X0.350000X0*%
%ADD12RoundRect,0.250000X-0.312500X-0.625000X0.312500X-0.625000X0.312500X0.625000X-0.312500X0.625000X0*%
%ADD13RoundRect,0.250000X1.000000X0.650000X-1.000000X0.650000X-1.000000X-0.650000X1.000000X-0.650000X0*%
%ADD14R,1.905000X0.640000*%
%ADD15RoundRect,0.250000X-0.325000X-0.450000X0.325000X-0.450000X0.325000X0.450000X-0.325000X0.450000X0*%
%ADD16RoundRect,0.250000X0.450000X-0.262500X0.450000X0.262500X-0.450000X0.262500X-0.450000X-0.262500X0*%
%ADD17RoundRect,0.250000X-0.262500X-0.450000X0.262500X-0.450000X0.262500X0.450000X-0.262500X0.450000X0*%
%ADD18RoundRect,0.150000X0.150000X-0.825000X0.150000X0.825000X-0.150000X0.825000X-0.150000X-0.825000X0*%
%ADD19RoundRect,0.250000X0.450000X-0.350000X0.450000X0.350000X-0.450000X0.350000X-0.450000X-0.350000X0*%
%ADD20R,3.600000X2.700000*%
%ADD21RoundRect,0.250000X0.475000X-0.250000X0.475000X0.250000X-0.475000X0.250000X-0.475000X-0.250000X0*%
%ADD22RoundRect,0.250000X-1.500000X-1.000000X1.500000X-1.000000X1.500000X1.000000X-1.500000X1.000000X0*%
%ADD23RoundRect,0.250000X1.500000X0.650000X-1.500000X0.650000X-1.500000X-0.650000X1.500000X-0.650000X0*%
%ADD24RoundRect,0.250000X0.250000X0.475000X-0.250000X0.475000X-0.250000X-0.475000X0.250000X-0.475000X0*%
%ADD25RoundRect,0.200000X-0.750000X-0.200000X0.750000X-0.200000X0.750000X0.200000X-0.750000X0.200000X0*%
%ADD26RoundRect,0.250000X-0.250000X-0.475000X0.250000X-0.475000X0.250000X0.475000X-0.250000X0.475000X0*%
%ADD27R,1.800000X0.800000*%
%ADD28RoundRect,0.250000X0.450000X-0.325000X0.450000X0.325000X-0.450000X0.325000X-0.450000X-0.325000X0*%
%ADD29RoundRect,0.250000X-0.650000X1.000000X-0.650000X-1.000000X0.650000X-1.000000X0.650000X1.000000X0*%
%ADD30RoundRect,0.250000X-0.650000X0.325000X-0.650000X-0.325000X0.650000X-0.325000X0.650000X0.325000X0*%
%ADD31RoundRect,0.250000X-0.475000X0.250000X-0.475000X-0.250000X0.475000X-0.250000X0.475000X0.250000X0*%
%ADD32RoundRect,0.250000X0.262500X0.450000X-0.262500X0.450000X-0.262500X-0.450000X0.262500X-0.450000X0*%
%ADD33RoundRect,0.250000X-0.350000X-0.450000X0.350000X-0.450000X0.350000X0.450000X-0.350000X0.450000X0*%
%ADD34RoundRect,0.250000X-0.450000X0.262500X-0.450000X-0.262500X0.450000X-0.262500X0.450000X0.262500X0*%
%ADD35RoundRect,0.250000X0.650000X-1.500000X0.650000X1.500000X-0.650000X1.500000X-0.650000X-1.500000X0*%
%ADD36RoundRect,0.250000X2.375000X-2.025000X2.375000X2.025000X-2.375000X2.025000X-2.375000X-2.025000X0*%
%ADD37RoundRect,0.250000X0.300000X-2.050000X0.300000X2.050000X-0.300000X2.050000X-0.300000X-2.050000X0*%
%ADD38RoundRect,0.375000X-0.625000X-0.375000X0.625000X-0.375000X0.625000X0.375000X-0.625000X0.375000X0*%
%ADD39RoundRect,0.500000X-0.500000X-1.400000X0.500000X-1.400000X0.500000X1.400000X-0.500000X1.400000X0*%
%ADD40RoundRect,0.162500X0.162500X-0.825000X0.162500X0.825000X-0.162500X0.825000X-0.162500X-0.825000X0*%
%ADD41RoundRect,0.200000X-0.200000X0.750000X-0.200000X-0.750000X0.200000X-0.750000X0.200000X0.750000X0*%
%ADD42RoundRect,0.200000X0.750000X0.200000X-0.750000X0.200000X-0.750000X-0.200000X0.750000X-0.200000X0*%
%ADD43RoundRect,0.200000X0.200000X-0.750000X0.200000X0.750000X-0.200000X0.750000X-0.200000X-0.750000X0*%
%ADD44RoundRect,0.375000X-0.375000X0.625000X-0.375000X-0.625000X0.375000X-0.625000X0.375000X0.625000X0*%
%ADD45RoundRect,0.500000X-1.400000X0.500000X-1.400000X-0.500000X1.400000X-0.500000X1.400000X0.500000X0*%
%ADD46RoundRect,0.250000X1.100000X-0.325000X1.100000X0.325000X-1.100000X0.325000X-1.100000X-0.325000X0*%
%ADD47RoundRect,0.250000X0.312500X0.625000X-0.312500X0.625000X-0.312500X-0.625000X0.312500X-0.625000X0*%
%ADD48RoundRect,0.250000X0.650000X-1.000000X0.650000X1.000000X-0.650000X1.000000X-0.650000X-1.000000X0*%
%ADD49RoundRect,0.250000X1.000000X-1.500000X1.000000X1.500000X-1.000000X1.500000X-1.000000X-1.500000X0*%
%ADD50RoundRect,0.250000X-0.325000X-0.650000X0.325000X-0.650000X0.325000X0.650000X-0.325000X0.650000X0*%
%ADD51RoundRect,0.150000X0.150000X-0.725000X0.150000X0.725000X-0.150000X0.725000X-0.150000X-0.725000X0*%
%ADD52RoundRect,0.150000X0.150000X-0.587500X0.150000X0.587500X-0.150000X0.587500X-0.150000X-0.587500X0*%
%ADD53RoundRect,0.150000X-0.825000X-0.150000X0.825000X-0.150000X0.825000X0.150000X-0.825000X0.150000X0*%
G04 APERTURE END LIST*
D10*
%TO.C,R61*%
X215365929Y-139246915D03*
X213365929Y-139246915D03*
%TD*%
D11*
%TO.C,R66*%
X267073857Y-172631192D03*
X267073857Y-174631192D03*
%TD*%
D12*
%TO.C,R42*%
X202037500Y-208000000D03*
X204962500Y-208000000D03*
%TD*%
D13*
%TO.C,D14*%
X180273857Y-199479922D03*
X176273857Y-199479922D03*
%TD*%
D14*
%TO.C,U18*%
X216070744Y-204482927D03*
X216070744Y-205752927D03*
X216070744Y-207022927D03*
X216070744Y-208292927D03*
X226765744Y-208292927D03*
X226765744Y-207022927D03*
X226765744Y-205752927D03*
X226765744Y-204482927D03*
%TD*%
D15*
%TO.C,D16*%
X202773857Y-186229922D03*
X204823857Y-186229922D03*
%TD*%
D12*
%TO.C,R38*%
X197075000Y-218000000D03*
X200000000Y-218000000D03*
%TD*%
D16*
%TO.C,R18*%
X190283533Y-115947723D03*
X190283533Y-114122723D03*
%TD*%
D17*
%TO.C,R102*%
X236843722Y-217983279D03*
X238668722Y-217983279D03*
%TD*%
D18*
%TO.C,U9*%
X246595000Y-200475000D03*
X247865000Y-200475000D03*
X249135000Y-200475000D03*
X250405000Y-200475000D03*
X250405000Y-195525000D03*
X249135000Y-195525000D03*
X247865000Y-195525000D03*
X246595000Y-195525000D03*
%TD*%
D19*
%TO.C,R62*%
X281073857Y-208278669D03*
X281073857Y-206278669D03*
%TD*%
D16*
%TO.C,R10*%
X281033533Y-115947723D03*
X281033533Y-114122723D03*
%TD*%
D12*
%TO.C,R43*%
X202037500Y-205500000D03*
X204962500Y-205500000D03*
%TD*%
D20*
%TO.C,L1*%
X193550000Y-174575000D03*
X193550000Y-166275000D03*
%TD*%
D12*
%TO.C,R33*%
X197075000Y-203000000D03*
X200000000Y-203000000D03*
%TD*%
D19*
%TO.C,R55*%
X286806883Y-197583469D03*
X286806883Y-195583469D03*
%TD*%
D21*
%TO.C,C59*%
X310475000Y-121815000D03*
X310475000Y-119915000D03*
%TD*%
D14*
%TO.C,U21*%
X317347500Y-106405000D03*
X317347500Y-105135000D03*
X317347500Y-103865000D03*
X317347500Y-102595000D03*
X306652500Y-102595000D03*
X306652500Y-103865000D03*
X306652500Y-105135000D03*
X306652500Y-106405000D03*
%TD*%
D11*
%TO.C,R60*%
X296250000Y-170425000D03*
X296250000Y-172425000D03*
%TD*%
D22*
%TO.C,C28*%
X193023857Y-183579922D03*
X199523857Y-183579922D03*
%TD*%
D23*
%TO.C,D30*%
X263573857Y-181350000D03*
X258573857Y-181350000D03*
%TD*%
D24*
%TO.C,C67*%
X216086187Y-211766366D03*
X214186187Y-211766366D03*
%TD*%
D16*
%TO.C,R24*%
X218283533Y-116147723D03*
X218283533Y-114322723D03*
%TD*%
D25*
%TO.C,Q10*%
X281500000Y-196628669D03*
X281500000Y-198528669D03*
X284500000Y-197578669D03*
%TD*%
D26*
%TO.C,C69*%
X236801962Y-215983278D03*
X238701962Y-215983278D03*
%TD*%
D27*
%TO.C,K3*%
X264573857Y-178050000D03*
X264573857Y-174850000D03*
X264573857Y-172650000D03*
X264573857Y-170450000D03*
X257573857Y-170450000D03*
X257573857Y-172650000D03*
X257573857Y-174850000D03*
X257573857Y-178050000D03*
%TD*%
D16*
%TO.C,R30*%
X247500000Y-187962500D03*
X247500000Y-186137500D03*
%TD*%
D28*
%TO.C,D18*%
X267323857Y-219975000D03*
X267323857Y-217925000D03*
%TD*%
D29*
%TO.C,D24*%
X219000000Y-145000000D03*
X219000000Y-149000000D03*
%TD*%
D30*
%TO.C,C25*%
X138014344Y-70309828D03*
X138014344Y-73259828D03*
%TD*%
D25*
%TO.C,Q17*%
X237250000Y-172550000D03*
X237250000Y-174450000D03*
X240250000Y-173500000D03*
%TD*%
D31*
%TO.C,C55*%
X315000000Y-108550000D03*
X315000000Y-110450000D03*
%TD*%
D19*
%TO.C,R53*%
X271573857Y-195528669D03*
X271573857Y-193528669D03*
%TD*%
D32*
%TO.C,R36*%
X169705459Y-172500000D03*
X167880459Y-172500000D03*
%TD*%
D31*
%TO.C,C35*%
X245500000Y-186100000D03*
X245500000Y-188000000D03*
%TD*%
D33*
%TO.C,R64*%
X253000000Y-174034861D03*
X255000000Y-174034861D03*
%TD*%
D26*
%TO.C,C14*%
X274540000Y-149597780D03*
X276440000Y-149597780D03*
%TD*%
D34*
%TO.C,R79*%
X293823857Y-208500000D03*
X293823857Y-210325000D03*
%TD*%
D31*
%TO.C,C56*%
X317344152Y-108558393D03*
X317344152Y-110458393D03*
%TD*%
D16*
%TO.C,R52*%
X236250000Y-178961889D03*
X236250000Y-177136889D03*
%TD*%
D12*
%TO.C,R9*%
X312037500Y-100000000D03*
X314962500Y-100000000D03*
%TD*%
D32*
%TO.C,R99*%
X232241839Y-216053682D03*
X230416839Y-216053682D03*
%TD*%
D35*
%TO.C,D26*%
X271573857Y-203603669D03*
X271573857Y-198603669D03*
%TD*%
D28*
%TO.C,D25*%
X293573857Y-219975000D03*
X293573857Y-217925000D03*
%TD*%
D15*
%TO.C,D15*%
X203235000Y-161775000D03*
X205285000Y-161775000D03*
%TD*%
D32*
%TO.C,R100*%
X232241839Y-218016743D03*
X230416839Y-218016743D03*
%TD*%
D36*
%TO.C,U4*%
X179525000Y-161775000D03*
X185075000Y-161775000D03*
X179525000Y-156925000D03*
X185075000Y-156925000D03*
D37*
X178900000Y-168500000D03*
X180600000Y-168500000D03*
X182300000Y-168500000D03*
X184000000Y-168500000D03*
X185700000Y-168500000D03*
%TD*%
D38*
%TO.C,U3*%
X302350000Y-136908841D03*
X302350000Y-139208841D03*
D39*
X308650000Y-139208841D03*
D38*
X302350000Y-141508841D03*
%TD*%
D22*
%TO.C,C27*%
X193600000Y-158775000D03*
X200100000Y-158775000D03*
%TD*%
D32*
%TO.C,R50*%
X234500000Y-173237371D03*
X232675000Y-173237371D03*
%TD*%
D28*
%TO.C,D20*%
X163884509Y-181025000D03*
X163884509Y-178975000D03*
%TD*%
D24*
%TO.C,C70*%
X242158823Y-215982667D03*
X240258823Y-215982667D03*
%TD*%
D28*
%TO.C,D29*%
X277823857Y-220025000D03*
X277823857Y-217975000D03*
%TD*%
D32*
%TO.C,R95*%
X232242085Y-208121877D03*
X230417085Y-208121877D03*
%TD*%
D12*
%TO.C,R40*%
X202075000Y-218000000D03*
X205000000Y-218000000D03*
%TD*%
D40*
%TO.C,U2*%
X249687099Y-157037500D03*
X250957099Y-157037500D03*
X252227099Y-157037500D03*
X253497099Y-157037500D03*
X253497099Y-151962500D03*
X252227099Y-151962500D03*
X250957099Y-151962500D03*
X249687099Y-151962500D03*
%TD*%
D34*
%TO.C,R76*%
X296573857Y-208500000D03*
X296573857Y-210325000D03*
%TD*%
D33*
%TO.C,R59*%
X290823857Y-169625000D03*
X292823857Y-169625000D03*
%TD*%
D12*
%TO.C,R1*%
X297037500Y-100000000D03*
X299962500Y-100000000D03*
%TD*%
D17*
%TO.C,R28*%
X202861357Y-188201253D03*
X204686357Y-188201253D03*
%TD*%
D18*
%TO.C,U25*%
X237500000Y-212450000D03*
X238770000Y-212450000D03*
X240040000Y-212450000D03*
X241310000Y-212450000D03*
X241310000Y-207500000D03*
X240040000Y-207500000D03*
X238770000Y-207500000D03*
X237500000Y-207500000D03*
%TD*%
D16*
%TO.C,R8*%
X281217482Y-79387891D03*
X281217482Y-77562891D03*
%TD*%
D33*
%TO.C,R46*%
X238416337Y-200000000D03*
X240416337Y-200000000D03*
%TD*%
D26*
%TO.C,C15*%
X282630000Y-149597780D03*
X284530000Y-149597780D03*
%TD*%
D32*
%TO.C,R96*%
X244920768Y-205421424D03*
X243095768Y-205421424D03*
%TD*%
D26*
%TO.C,C13*%
X250635000Y-149597780D03*
X252535000Y-149597780D03*
%TD*%
D41*
%TO.C,Q9*%
X167900964Y-175000000D03*
X166000964Y-175000000D03*
X166950964Y-178000000D03*
%TD*%
D15*
%TO.C,D27*%
X209340929Y-139246915D03*
X211390929Y-139246915D03*
%TD*%
D19*
%TO.C,R57*%
X288373857Y-173375000D03*
X288373857Y-171375000D03*
%TD*%
D42*
%TO.C,Q16*%
X242500000Y-195950000D03*
X242500000Y-194050000D03*
X239500000Y-195000000D03*
%TD*%
D19*
%TO.C,R74*%
X280723857Y-170857500D03*
X280723857Y-168857500D03*
%TD*%
D16*
%TO.C,R26*%
X200023857Y-199904922D03*
X200023857Y-198079922D03*
%TD*%
%TO.C,R80*%
X291823857Y-210325000D03*
X291823857Y-208500000D03*
%TD*%
D43*
%TO.C,Q14*%
X277825000Y-177175000D03*
X279725000Y-177175000D03*
X278775000Y-174175000D03*
%TD*%
D44*
%TO.C,U6*%
X243000000Y-181500000D03*
X240700000Y-181500000D03*
D45*
X240700000Y-187800000D03*
D44*
X238400000Y-181500000D03*
%TD*%
D16*
%TO.C,R44*%
X163872892Y-176854665D03*
X163872892Y-175029665D03*
%TD*%
%TO.C,R2*%
X253217482Y-79437891D03*
X253217482Y-77612891D03*
%TD*%
D31*
%TO.C,C51*%
X213700967Y-205757734D03*
X213700967Y-207657734D03*
%TD*%
D46*
%TO.C,C3*%
X200500000Y-69975000D03*
X200500000Y-67025000D03*
%TD*%
D24*
%TO.C,C34*%
X240254127Y-179153346D03*
X238354127Y-179153346D03*
%TD*%
D40*
%TO.C,U10*%
X257967099Y-157037500D03*
X259237099Y-157037500D03*
X260507099Y-157037500D03*
X261777099Y-157037500D03*
X261777099Y-151962500D03*
X260507099Y-151962500D03*
X259237099Y-151962500D03*
X257967099Y-151962500D03*
%TD*%
D31*
%TO.C,C66*%
X213697500Y-215644203D03*
X213697500Y-217544203D03*
%TD*%
D10*
%TO.C,R70*%
X272000000Y-180000000D03*
X270000000Y-180000000D03*
%TD*%
D20*
%TO.C,L2*%
X193023857Y-199379922D03*
X193023857Y-191079922D03*
%TD*%
D31*
%TO.C,C17*%
X300000000Y-137008841D03*
X300000000Y-138908841D03*
%TD*%
D46*
%TO.C,C10*%
X263000000Y-69975000D03*
X263000000Y-67025000D03*
%TD*%
D11*
%TO.C,R72*%
X275223857Y-168857500D03*
X275223857Y-170857500D03*
%TD*%
D10*
%TO.C,R69*%
X279773857Y-180000000D03*
X277773857Y-180000000D03*
%TD*%
D11*
%TO.C,R73*%
X274573857Y-206278669D03*
X274573857Y-208278669D03*
%TD*%
D12*
%TO.C,R7*%
X307000000Y-100000000D03*
X309925000Y-100000000D03*
%TD*%
D47*
%TO.C,R15*%
X319962500Y-100000000D03*
X317037500Y-100000000D03*
%TD*%
D24*
%TO.C,C68*%
X232279339Y-214064250D03*
X230379339Y-214064250D03*
%TD*%
D17*
%TO.C,R37*%
X164087500Y-172500000D03*
X165912500Y-172500000D03*
%TD*%
D48*
%TO.C,D12*%
X165323857Y-192904998D03*
X165323857Y-188904998D03*
%TD*%
D26*
%TO.C,C73*%
X238462500Y-203986009D03*
X240362500Y-203986009D03*
%TD*%
D24*
%TO.C,C57*%
X308549536Y-109135000D03*
X306649536Y-109135000D03*
%TD*%
D33*
%TO.C,R71*%
X277773857Y-182000000D03*
X279773857Y-182000000D03*
%TD*%
D17*
%TO.C,R97*%
X238500000Y-202000000D03*
X240325000Y-202000000D03*
%TD*%
D16*
%TO.C,R16*%
X218500000Y-79391169D03*
X218500000Y-77566169D03*
%TD*%
D19*
%TO.C,R65*%
X277073857Y-208278669D03*
X277073857Y-206278669D03*
%TD*%
D24*
%TO.C,C45*%
X300450000Y-117000000D03*
X298550000Y-117000000D03*
%TD*%
D12*
%TO.C,R39*%
X197037500Y-208000000D03*
X199962500Y-208000000D03*
%TD*%
D33*
%TO.C,R67*%
X253000000Y-176129561D03*
X255000000Y-176129561D03*
%TD*%
D40*
%TO.C,U12*%
X273585000Y-157037500D03*
X274855000Y-157037500D03*
X276125000Y-157037500D03*
X277395000Y-157037500D03*
X277395000Y-151962500D03*
X276125000Y-151962500D03*
X274855000Y-151962500D03*
X273585000Y-151962500D03*
%TD*%
D31*
%TO.C,C58*%
X310475000Y-116415000D03*
X310475000Y-118315000D03*
%TD*%
D48*
%TO.C,D11*%
X165670969Y-165333753D03*
X165670969Y-161333753D03*
%TD*%
D16*
%TO.C,R87*%
X308475000Y-121777500D03*
X308475000Y-119952500D03*
%TD*%
D24*
%TO.C,C24*%
X175473857Y-195904922D03*
X173573857Y-195904922D03*
%TD*%
D16*
%TO.C,R51*%
X234259788Y-178954646D03*
X234259788Y-177129646D03*
%TD*%
D49*
%TO.C,C22*%
X171773857Y-192904922D03*
X171773857Y-186404922D03*
%TD*%
D24*
%TO.C,C71*%
X232283176Y-204175567D03*
X230383176Y-204175567D03*
%TD*%
D19*
%TO.C,R56*%
X286373857Y-173375000D03*
X286373857Y-171375000D03*
%TD*%
D50*
%TO.C,C26*%
X127348857Y-83000000D03*
X130298857Y-83000000D03*
%TD*%
D40*
%TO.C,U7*%
X281675000Y-157037500D03*
X282945000Y-157037500D03*
X284215000Y-157037500D03*
X285485000Y-157037500D03*
X285485000Y-151962500D03*
X284215000Y-151962500D03*
X282945000Y-151962500D03*
X281675000Y-151962500D03*
%TD*%
D31*
%TO.C,C40*%
X284000000Y-200300000D03*
X284000000Y-202200000D03*
%TD*%
D34*
%TO.C,R23*%
X308525000Y-116452500D03*
X308525000Y-118277500D03*
%TD*%
D12*
%TO.C,R41*%
X202075000Y-215500000D03*
X205000000Y-215500000D03*
%TD*%
D16*
%TO.C,R4*%
X253033533Y-115947723D03*
X253033533Y-114122723D03*
%TD*%
D29*
%TO.C,D23*%
X215361621Y-144996476D03*
X215361621Y-148996476D03*
%TD*%
D12*
%TO.C,R3*%
X302037500Y-100000000D03*
X304962500Y-100000000D03*
%TD*%
D51*
%TO.C,U14*%
X274573857Y-203678669D03*
X275843857Y-203678669D03*
X277113857Y-203678669D03*
X278383857Y-203678669D03*
X278383857Y-198528669D03*
X277113857Y-198528669D03*
X275843857Y-198528669D03*
X274573857Y-198528669D03*
%TD*%
D14*
%TO.C,U24*%
X216072073Y-214361366D03*
X216072073Y-215631366D03*
X216072073Y-216901366D03*
X216072073Y-218171366D03*
X226767073Y-218171366D03*
X226767073Y-216901366D03*
X226767073Y-215631366D03*
X226767073Y-214361366D03*
%TD*%
D32*
%TO.C,R101*%
X242114963Y-217983279D03*
X240289963Y-217983279D03*
%TD*%
D28*
%TO.C,D31*%
X283073857Y-219975000D03*
X283073857Y-217925000D03*
%TD*%
D32*
%TO.C,R29*%
X233447102Y-184237030D03*
X231622102Y-184237030D03*
%TD*%
D33*
%TO.C,R45*%
X239252463Y-221130745D03*
X241252463Y-221130745D03*
%TD*%
D28*
%TO.C,D22*%
X272573857Y-220025000D03*
X272573857Y-217975000D03*
%TD*%
D46*
%TO.C,C6*%
X235000000Y-69975000D03*
X235000000Y-67025000D03*
%TD*%
D52*
%TO.C,Q15*%
X277073857Y-170875000D03*
X278973857Y-170875000D03*
X278023857Y-169000000D03*
%TD*%
D16*
%TO.C,R75*%
X298573857Y-210325000D03*
X298573857Y-208500000D03*
%TD*%
D32*
%TO.C,R25*%
X202375000Y-173925000D03*
X200550000Y-173925000D03*
%TD*%
D17*
%TO.C,R27*%
X203387500Y-163730000D03*
X205212500Y-163730000D03*
%TD*%
D46*
%TO.C,C7*%
X172000000Y-69975000D03*
X172000000Y-67025000D03*
%TD*%
D41*
%TO.C,Q12*%
X254950000Y-178379561D03*
X253050000Y-178379561D03*
X254000000Y-181379561D03*
%TD*%
D53*
%TO.C,U20*%
X313000000Y-116960000D03*
X313000000Y-118230000D03*
X313000000Y-119500000D03*
X313000000Y-120770000D03*
X317950000Y-120770000D03*
X317950000Y-119500000D03*
X317950000Y-118230000D03*
X317950000Y-116960000D03*
%TD*%
D24*
%TO.C,C52*%
X216078926Y-201884841D03*
X214178926Y-201884841D03*
%TD*%
D33*
%TO.C,R54*%
X281500000Y-194750000D03*
X283500000Y-194750000D03*
%TD*%
D25*
%TO.C,Q11*%
X290823857Y-171475000D03*
X290823857Y-173375000D03*
X293823857Y-172425000D03*
%TD*%
D11*
%TO.C,R104*%
X242500000Y-198000000D03*
X242500000Y-200000000D03*
%TD*%
D10*
%TO.C,R68*%
X276023857Y-180000000D03*
X274023857Y-180000000D03*
%TD*%
D36*
%TO.C,U5*%
X179148857Y-187579922D03*
X184698857Y-187579922D03*
X179148857Y-182729922D03*
X184698857Y-182729922D03*
D37*
X178523857Y-194304922D03*
X180223857Y-194304922D03*
X181923857Y-194304922D03*
X183623857Y-194304922D03*
X185323857Y-194304922D03*
%TD*%
D28*
%TO.C,D28*%
X288323857Y-219975000D03*
X288323857Y-217925000D03*
%TD*%
D17*
%TO.C,R21*%
X302587500Y-103500000D03*
X304412500Y-103500000D03*
%TD*%
D16*
%TO.C,R22*%
X190500000Y-79441169D03*
X190500000Y-77616169D03*
%TD*%
D24*
%TO.C,C72*%
X244958268Y-207506978D03*
X243058268Y-207506978D03*
%TD*%
D34*
%TO.C,R47*%
X242750000Y-172587500D03*
X242750000Y-174412500D03*
%TD*%
D49*
%TO.C,C21*%
X172100000Y-165300000D03*
X172100000Y-158800000D03*
%TD*%
D47*
%TO.C,R35*%
X199962500Y-205500000D03*
X197037500Y-205500000D03*
%TD*%
D19*
%TO.C,R103*%
X244500000Y-200000000D03*
X244500000Y-198000000D03*
%TD*%
D13*
%TO.C,D13*%
X180550000Y-174425000D03*
X176550000Y-174425000D03*
%TD*%
D11*
%TO.C,R63*%
X279073857Y-206278669D03*
X279073857Y-208278669D03*
%TD*%
D26*
%TO.C,C18*%
X258915000Y-149597780D03*
X260815000Y-149597780D03*
%TD*%
D19*
%TO.C,R58*%
X281508033Y-202250000D03*
X281508033Y-200250000D03*
%TD*%
D17*
%TO.C,R17*%
X302675000Y-105500000D03*
X304500000Y-105500000D03*
%TD*%
D43*
%TO.C,Q13*%
X274050000Y-177175000D03*
X275950000Y-177175000D03*
X275000000Y-174175000D03*
%TD*%
D32*
%TO.C,R94*%
X232245676Y-206164815D03*
X230420676Y-206164815D03*
%TD*%
D26*
%TO.C,C16*%
X300446593Y-143958840D03*
X302346593Y-143958840D03*
%TD*%
D15*
%TO.C,D17*%
X227759602Y-184197030D03*
X229809602Y-184197030D03*
%TD*%
D24*
%TO.C,C23*%
X175850000Y-169925000D03*
X173950000Y-169925000D03*
%TD*%
D12*
%TO.C,R32*%
X197075000Y-213000000D03*
X200000000Y-213000000D03*
%TD*%
D47*
%TO.C,R34*%
X200000000Y-215500000D03*
X197075000Y-215500000D03*
%TD*%
M02*
