M48
; DRILL file {KiCad 9.0.2} date 2025-12-27T14:45:32+0700
; FORMAT={-:-/ absolute / metric / decimal}
; #@! TF.CreationDate,2025-12-27T14:45:32+07:00
; #@! TF.GenerationSoftware,Kicad,Pcbnew,9.0.2
; #@! TF.FileFunction,Plated,1,2,PTH
FMAT,2
METRIC
; #@! TA.AperFunction,Plated,PTH,ViaDrill
T1C0.300
; #@! TA.AperFunction,Plated,PTH,ComponentDrill
T2C0.500
; #@! TA.AperFunction,Plated,PTH,ViaDrill
T3C0.600
; #@! TA.AperFunction,Plated,PTH,ComponentDrill
T4C0.800
; #@! TA.AperFunction,Plated,PTH,ComponentDrill
T5C0.950
; #@! TA.AperFunction,Plated,PTH,ComponentDrill
T6C0.991
; #@! TA.AperFunction,Plated,PTH,ViaDrill
T7C1.000
; #@! TA.AperFunction,Plated,PTH,ComponentDrill
T8C1.000
; #@! TA.AperFunction,Plated,PTH,ComponentDrill
T9C1.100
; #@! TA.AperFunction,Plated,PTH,ComponentDrill
T10C1.150
; #@! TA.AperFunction,Plated,PTH,ComponentDrill
T11C1.200
; #@! TA.AperFunction,Plated,PTH,ComponentDrill
T12C1.400
; #@! TA.AperFunction,Plated,PTH,ComponentDrill
T13C1.500
; #@! TA.AperFunction,Plated,PTH,ComponentDrill
T14C1.700
; #@! TA.AperFunction,Plated,PTH,ComponentDrill
T15C1.800
; #@! TA.AperFunction,Plated,PTH,ComponentDrill
T16C2.000
; #@! TA.AperFunction,Plated,PTH,ComponentDrill
T17C3.200
; #@! TA.AperFunction,Plated,PTH,ComponentDrill
T18C3.600
; #@! TA.AperFunction,Plated,PTH,ComponentDrill
T19C6.400
%
G90
G05
T1
X279.0Y-194.5
T2
X107.6Y-92.0
X107.6Y-187.0
X108.303Y-90.303
X108.303Y-93.697
X108.303Y-185.303
X108.303Y-188.697
X110.0Y-89.6
X110.0Y-94.4
X110.0Y-184.6
X110.0Y-189.4
X111.697Y-90.303
X111.697Y-93.697
X111.697Y-185.303
X111.697Y-188.697
X112.4Y-92.0
X112.4Y-187.0
X289.574Y-92.824
X289.574Y-94.084
X290.324Y-91.794
X290.324Y-95.114
X291.524Y-91.404
X291.524Y-95.504
X292.854Y-91.404
X292.854Y-95.504
X294.194Y-91.404
X294.194Y-95.504
X295.524Y-91.404
X295.524Y-95.504
X296.724Y-91.794
X296.724Y-95.114
X297.474Y-92.824
X297.474Y-94.084
X299.574Y-92.824
X299.574Y-94.084
X300.324Y-91.794
X300.324Y-95.114
X301.524Y-91.404
X301.524Y-95.504
X302.854Y-91.404
X302.854Y-95.504
X304.194Y-91.404
X304.194Y-95.504
X305.524Y-91.404
X305.524Y-95.504
X306.724Y-91.794
X306.724Y-95.114
X307.474Y-92.824
X307.474Y-94.084
T3
X127.349Y-83.0
X130.299Y-83.0
X138.014Y-70.31
X138.014Y-73.26
X156.5Y-175.0
X156.5Y-178.5
X157.75Y-146.75
X158.0Y-139.25
X158.0Y-150.75
X161.5Y-201.0
X163.873Y-175.03
X167.0Y-178.0
X171.75Y-182.0
X171.774Y-192.905
X173.949Y-169.926
X178.17Y-143.0
X182.2Y-143.0
X182.3Y-159.35
X189.5Y-184.5
X190.284Y-114.123
X190.5Y-77.616
X193.024Y-183.58
X193.6Y-158.775
X197.224Y-183.58
X200.1Y-158.775
X202.375Y-173.925
X204.245Y-165.874
X205.5Y-180.23
X208.0Y-212.0
X208.25Y-158.75
X209.324Y-183.73
X209.5Y-162.0
X209.5Y-165.877
X209.5Y-173.0
X209.75Y-158.75
X211.25Y-158.75
X212.023Y-146.5
X212.772Y-188.03
X212.824Y-185.378
X214.5Y-180.0
X214.75Y-153.25
X217.0Y-160.5
X218.284Y-114.323
X218.5Y-77.566
X219.0Y-145.0
X220.284Y-116.185
X227.25Y-211.5
X227.25Y-221.25
X227.76Y-184.197
X227.824Y-118.279
X229.5Y-170.75
X230.417Y-216.054
X230.42Y-206.164
X232.283Y-204.176
X232.75Y-193.5
X232.75Y-202.5
X233.583Y-206.165
X233.583Y-208.121
X233.741Y-215.854
X234.5Y-193.5
X236.25Y-178.962
X236.844Y-217.983
X237.25Y-172.5
X238.354Y-181.454
X240.04Y-207.5
X240.04Y-212.45
X241.31Y-207.5
X242.511Y-192.897
X242.75Y-179.0
X245.635Y-141.425
X247.5Y-184.5
X247.865Y-202.5
X248.75Y-178.75
X249.135Y-202.5
X252.22Y-152.06
X253.0Y-174.035
X253.034Y-114.123
X253.217Y-77.613
X254.25Y-197.0
X254.5Y-218.5
X258.312Y-141.462
X260.0Y-174.5
X260.0Y-184.75
X260.0Y-190.0
X260.5Y-152.135
X264.0Y-148.0
X264.574Y-178.05
X265.25Y-176.5
X267.074Y-172.631
X267.074Y-181.381
X267.324Y-216.5
X267.5Y-160.5
X269.485Y-148.0
X270.317Y-206.294
X271.424Y-168.857
X271.574Y-203.604
X271.817Y-177.5
X272.324Y-209.25
X272.574Y-217.975
X273.074Y-198.529
X274.574Y-206.279
X274.75Y-185.0
X274.75Y-187.0
X275.824Y-196.529
X275.824Y-202.029
X276.125Y-152.098
X276.424Y-184.0
X276.44Y-149.598
X277.0Y-172.5
X277.824Y-201.029
X280.724Y-170.857
X280.724Y-186.0
X281.034Y-114.123
X281.074Y-208.279
X281.217Y-77.563
X281.508Y-202.25
X284.215Y-152.098
X286.374Y-173.375
X288.374Y-173.375
X289.0Y-208.279
X291.75Y-213.0
X292.25Y-148.0
X293.824Y-212.75
X295.25Y-207.25
X296.25Y-170.425
X296.574Y-210.325
X306.65Y-109.135
X308.55Y-109.135
X308.65Y-139.209
X317.344Y-108.5
X317.958Y-115.622
T4
X218.184Y-173.244
X218.184Y-175.784
X225.804Y-173.244
X225.804Y-175.784
X296.614Y-114.854
X298.524Y-114.854
X300.434Y-114.854
T5
X296.0Y-122.0
X298.5Y-122.0
X301.0Y-122.0
X303.5Y-122.0
T6
X245.37Y-143.571
X247.91Y-143.571
X250.45Y-143.571
X252.99Y-143.571
X258.38Y-143.533
X260.92Y-143.533
X263.46Y-143.533
X266.0Y-143.533
X287.19Y-143.533
X289.73Y-143.533
X292.27Y-143.533
X294.81Y-143.533
T7
X106.0Y-53.029
X106.0Y-58.229
X106.0Y-63.629
X106.007Y-69.127
X106.007Y-74.327
X106.007Y-79.727
X106.007Y-85.4
X108.5Y-50.429
X108.5Y-55.629
X108.5Y-61.029
X108.507Y-66.256
X108.507Y-71.727
X108.507Y-77.127
X108.507Y-82.5
X110.5Y-53.029
X110.5Y-58.229
X110.5Y-63.629
X110.507Y-69.127
X110.507Y-74.327
X110.507Y-79.727
X110.507Y-85.4
X112.5Y-50.429
X112.5Y-55.629
X112.5Y-61.029
X112.507Y-66.256
X112.507Y-71.727
X112.507Y-77.127
X112.507Y-82.5
X114.5Y-53.029
X114.5Y-58.229
X114.5Y-63.629
X114.507Y-69.127
X114.507Y-74.327
X114.507Y-79.727
X114.507Y-85.4
X116.574Y-50.429
X116.574Y-55.629
X116.574Y-61.029
X116.581Y-66.256
X116.581Y-71.727
X116.581Y-77.127
X116.581Y-82.5
X118.574Y-53.029
X118.574Y-58.229
X118.574Y-63.629
X118.581Y-69.127
X118.581Y-74.327
X118.581Y-79.727
X118.581Y-85.4
X120.574Y-50.429
X120.574Y-55.629
X120.574Y-61.029
X120.581Y-66.256
X120.581Y-71.727
X120.581Y-77.127
X120.581Y-82.5
X122.574Y-53.029
X122.574Y-58.229
X122.574Y-63.629
X122.581Y-69.127
X122.581Y-74.327
X122.581Y-79.727
X122.581Y-85.4
X124.574Y-50.429
X124.574Y-55.629
X124.574Y-61.029
X124.581Y-66.256
X126.574Y-53.029
X126.574Y-58.229
X126.574Y-63.629
X128.574Y-50.429
X128.574Y-55.629
X128.574Y-61.029
X128.581Y-66.256
X130.574Y-53.029
X130.574Y-58.229
X130.574Y-63.629
X132.574Y-50.429
X132.574Y-55.629
X132.574Y-61.029
X132.581Y-66.256
X134.574Y-53.029
X134.574Y-58.229
X134.574Y-63.629
X136.574Y-50.429
X136.574Y-55.629
X136.574Y-61.029
X136.581Y-66.256
X138.574Y-53.029
X138.574Y-58.229
X138.574Y-63.629
X140.574Y-50.429
X140.574Y-55.629
X140.574Y-61.029
X140.581Y-66.256
X142.574Y-53.029
X142.574Y-58.229
X142.574Y-63.629
X144.574Y-50.429
X144.574Y-55.629
X144.574Y-61.029
X144.581Y-66.256
X146.574Y-53.029
X146.574Y-58.229
X146.574Y-63.629
X148.574Y-50.429
X148.574Y-55.629
X148.574Y-61.029
X148.581Y-66.256
X150.574Y-53.029
X150.574Y-58.229
X150.574Y-63.629
X152.574Y-50.429
X152.574Y-55.629
X152.574Y-61.029
X154.574Y-53.029
X154.574Y-58.229
X154.574Y-63.629
X156.624Y-50.429
X156.624Y-55.629
X156.624Y-61.029
X156.824Y-124.2
X157.074Y-118.2
X158.624Y-53.029
X158.624Y-58.229
X158.624Y-63.629
X158.624Y-69.5
X158.824Y-121.2
X158.824Y-126.8
X160.624Y-50.429
X160.624Y-55.629
X160.624Y-61.029
X160.824Y-124.2
X161.074Y-118.2
X162.624Y-53.029
X162.624Y-58.229
X162.624Y-63.629
X162.624Y-69.5
X162.824Y-121.2
X162.824Y-126.8
X164.624Y-50.429
X164.624Y-55.629
X164.624Y-61.029
X165.074Y-118.2
X165.074Y-124.2
X166.624Y-53.029
X166.624Y-58.229
X166.624Y-63.629
X166.624Y-69.5
X166.824Y-121.2
X167.074Y-126.8
X168.624Y-50.429
X168.624Y-55.629
X168.624Y-61.029
X168.724Y-118.15
X169.074Y-124.2
X170.624Y-53.029
X170.624Y-58.229
X170.624Y-63.629
X170.824Y-121.2
X171.0Y-126.671
X172.0Y-69.975
X172.624Y-50.429
X172.624Y-55.629
X172.624Y-61.029
X172.824Y-124.0
X173.0Y-118.2
X174.624Y-53.029
X174.624Y-58.229
X174.624Y-63.629
X174.824Y-121.2
X175.0Y-126.671
X176.474Y-81.65
X176.474Y-86.879
X176.474Y-92.079
X176.474Y-97.479
X176.474Y-103.079
X176.624Y-50.429
X176.624Y-55.629
X176.624Y-61.029
X176.824Y-124.0
X177.0Y-118.2
X178.474Y-84.25
X178.474Y-89.479
X178.474Y-94.679
X178.474Y-100.079
X178.474Y-105.679
X178.624Y-53.029
X178.624Y-58.229
X178.624Y-63.629
X178.624Y-69.5
X178.824Y-121.2
X178.824Y-126.6
X180.474Y-86.879
X180.474Y-97.479
X180.474Y-103.079
X180.574Y-50.429
X180.624Y-61.029
X180.824Y-124.0
X181.0Y-81.65
X181.0Y-118.2
X182.474Y-100.079
X182.474Y-105.679
X182.624Y-63.629
X182.624Y-69.5
X182.75Y-121.2
X182.824Y-126.6
X183.0Y-84.25
X184.474Y-86.879
X184.474Y-97.479
X184.474Y-103.079
X184.574Y-50.429
X184.624Y-61.029
X184.65Y-118.15
X184.824Y-124.0
X185.0Y-81.65
X186.474Y-89.479
X186.474Y-94.679
X186.474Y-100.079
X186.474Y-105.679
X186.574Y-53.029
X186.624Y-58.229
X186.624Y-63.629
X186.624Y-69.5
X186.75Y-121.2
X186.824Y-126.6
X187.0Y-84.25
X188.474Y-86.879
X188.474Y-92.079
X188.474Y-97.479
X188.474Y-103.079
X188.574Y-50.429
X188.624Y-55.629
X188.624Y-61.029
X188.824Y-124.0
X190.574Y-53.029
X190.624Y-58.229
X190.624Y-63.629
X190.624Y-69.5
X190.75Y-121.2
X190.824Y-126.6
X191.0Y-84.25
X191.0Y-89.479
X191.0Y-94.679
X191.0Y-100.079
X191.0Y-105.679
X192.574Y-50.429
X192.624Y-55.629
X192.624Y-61.029
X192.624Y-123.8
X193.0Y-86.879
X193.0Y-92.079
X193.0Y-97.479
X193.0Y-103.079
X194.574Y-53.029
X194.624Y-58.229
X194.624Y-63.629
X194.624Y-69.5
X194.624Y-126.4
X194.75Y-121.2
X195.0Y-84.25
X195.0Y-89.479
X195.0Y-94.679
X195.0Y-100.079
X195.0Y-105.679
X196.574Y-50.429
X196.624Y-55.629
X196.624Y-61.029
X196.624Y-123.8
X197.0Y-86.879
X197.0Y-92.079
X197.0Y-97.479
X197.0Y-103.079
X198.5Y-121.2
X198.574Y-53.029
X198.624Y-58.229
X198.624Y-63.629
X198.624Y-126.4
X199.0Y-84.25
X199.0Y-89.479
X199.0Y-94.679
X199.0Y-100.079
X199.0Y-105.679
X200.5Y-69.975
X200.574Y-50.429
X200.624Y-55.629
X200.624Y-61.029
X200.624Y-123.8
X201.0Y-86.879
X201.0Y-92.079
X201.0Y-97.479
X201.0Y-103.079
X202.574Y-53.029
X202.624Y-58.229
X202.624Y-63.629
X202.624Y-126.4
X203.0Y-89.479
X203.0Y-94.679
X203.0Y-100.079
X203.0Y-105.679
X204.52Y-60.872
X204.574Y-50.429
X204.624Y-123.8
X204.668Y-55.533
X205.0Y-86.879
X205.0Y-92.079
X205.0Y-97.479
X205.0Y-103.079
X206.5Y-69.5
X206.512Y-63.487
X206.563Y-58.216
X206.624Y-126.4
X206.738Y-52.952
X207.0Y-89.479
X207.0Y-94.679
X207.0Y-100.079
X207.0Y-105.679
X208.452Y-60.869
X208.574Y-50.279
X208.824Y-123.8
X209.0Y-86.879
X209.0Y-97.479
X209.0Y-103.079
X210.429Y-63.487
X210.5Y-69.5
X210.824Y-126.4
X211.0Y-100.079
X211.0Y-105.679
X212.424Y-60.829
X212.574Y-50.279
X213.0Y-86.879
X213.0Y-97.479
X213.0Y-103.079
X213.324Y-123.8
X214.424Y-58.029
X214.424Y-63.429
X214.5Y-69.5
X214.574Y-52.879
X215.0Y-89.479
X215.0Y-94.679
X215.0Y-100.079
X215.0Y-105.679
X215.424Y-126.3
X217.0Y-55.429
X217.0Y-60.829
X217.15Y-50.279
X217.824Y-123.7
X219.0Y-58.029
X219.0Y-63.429
X219.15Y-52.879
X219.5Y-69.5
X219.824Y-126.4
X221.35Y-55.429
X221.35Y-60.829
X221.5Y-50.279
X222.324Y-123.8
X223.824Y-58.029
X223.824Y-63.429
X223.974Y-52.879
X224.0Y-69.5
X224.424Y-126.3
X226.0Y-55.5
X226.0Y-60.9
X226.107Y-50.261
X226.824Y-123.7
X228.0Y-58.1
X228.0Y-63.5
X228.107Y-52.861
X228.324Y-126.7
X230.0Y-60.9
X230.089Y-55.59
X230.107Y-50.261
X230.724Y-123.95
X232.0Y-58.1
X232.0Y-63.5
X232.15Y-52.95
X232.624Y-126.8
X234.324Y-50.279
X234.324Y-55.429
X234.324Y-60.679
X235.0Y-69.975
X235.074Y-123.95
X236.324Y-52.879
X236.324Y-58.029
X236.324Y-63.279
X236.924Y-126.8
X238.75Y-55.434
X238.818Y-50.129
X238.824Y-60.829
X239.074Y-89.279
X239.074Y-94.679
X239.074Y-100.079
X239.074Y-105.679
X239.074Y-123.95
X240.722Y-52.762
X240.824Y-58.029
X240.824Y-63.429
X240.824Y-69.5
X241.074Y-86.679
X241.074Y-92.079
X241.074Y-97.479
X241.074Y-103.079
X241.424Y-126.8
X242.642Y-50.124
X242.824Y-60.829
X243.074Y-94.779
X243.074Y-100.079
X243.074Y-105.679
X243.424Y-123.95
X244.824Y-63.429
X244.824Y-69.5
X245.074Y-86.679
X245.074Y-97.479
X245.074Y-103.079
X245.424Y-126.8
X246.574Y-50.027
X246.824Y-60.829
X247.074Y-94.779
X247.074Y-100.079
X247.074Y-105.679
X247.424Y-123.95
X248.574Y-52.627
X248.824Y-58.029
X248.824Y-63.429
X248.824Y-69.5
X249.074Y-86.679
X249.074Y-92.079
X249.074Y-97.479
X249.074Y-103.079
X249.424Y-126.8
X250.574Y-50.027
X250.824Y-55.429
X250.824Y-60.829
X251.074Y-89.279
X251.074Y-94.679
X251.074Y-100.079
X251.074Y-105.679
X251.424Y-123.95
X252.574Y-52.627
X252.779Y-58.113
X252.793Y-63.52
X252.824Y-69.5
X253.074Y-86.679
X253.074Y-92.079
X253.074Y-97.479
X253.074Y-103.079
X253.424Y-126.8
X254.574Y-50.027
X254.6Y-55.4
X254.6Y-60.8
X255.074Y-89.279
X255.074Y-94.679
X255.074Y-100.079
X255.074Y-105.679
X255.424Y-123.95
X256.424Y-69.5
X256.574Y-52.627
X256.6Y-58.0
X256.6Y-63.4
X257.074Y-86.679
X257.074Y-92.079
X257.074Y-97.479
X257.074Y-103.079
X257.424Y-126.8
X258.574Y-50.027
X258.6Y-55.4
X258.6Y-60.8
X259.074Y-89.279
X259.074Y-94.679
X259.074Y-100.079
X259.074Y-105.679
X259.424Y-123.75
X260.574Y-52.627
X260.6Y-58.0
X260.6Y-63.4
X261.074Y-86.679
X261.074Y-92.079
X261.074Y-97.479
X261.074Y-103.079
X261.424Y-126.6
X262.574Y-50.027
X262.6Y-55.4
X262.6Y-60.8
X263.0Y-69.975
X263.074Y-89.279
X263.074Y-94.679
X263.074Y-100.079
X263.074Y-105.679
X263.424Y-123.75
X264.574Y-52.627
X264.6Y-58.0
X264.6Y-63.4
X265.074Y-86.679
X265.074Y-92.079
X265.074Y-97.479
X265.074Y-103.079
X265.424Y-126.6
X266.523Y-55.374
X266.563Y-60.729
X266.574Y-50.027
X267.04Y-94.812
X267.049Y-100.153
X267.074Y-89.279
X267.074Y-105.679
X267.424Y-123.75
X268.418Y-68.624
X268.424Y-63.429
X268.5Y-58.0
X268.574Y-52.627
X268.824Y-92.079
X269.04Y-97.512
X269.074Y-86.679
X269.074Y-103.079
X269.424Y-126.6
X270.418Y-66.024
X270.424Y-60.829
X270.574Y-50.027
X270.824Y-94.779
X271.074Y-100.079
X271.074Y-105.679
X271.213Y-83.908
X271.424Y-123.75
X272.418Y-68.624
X272.424Y-63.429
X273.074Y-86.679
X273.074Y-97.479
X273.074Y-103.079
X273.424Y-120.75
X273.424Y-126.6
X274.418Y-66.024
X274.424Y-60.829
X274.457Y-50.279
X275.074Y-94.679
X275.074Y-100.079
X275.074Y-105.679
X275.213Y-83.908
X275.424Y-123.75
X276.418Y-68.624
X276.424Y-52.879
X276.424Y-58.029
X276.424Y-63.429
X277.074Y-86.679
X277.074Y-92.029
X277.074Y-97.479
X277.074Y-103.079
X277.424Y-120.75
X277.424Y-126.6
X278.418Y-66.024
X278.424Y-50.279
X278.424Y-60.829
X278.489Y-55.429
X279.074Y-89.279
X279.074Y-94.679
X279.074Y-100.079
X279.074Y-105.679
X279.074Y-123.7
X279.213Y-83.908
X280.994Y-68.624
X281.0Y-52.879
X281.0Y-58.029
X281.0Y-63.429
X281.0Y-126.671
X281.074Y-120.7
T8
X171.842Y-175.0
X200.024Y-191.23
X200.024Y-196.23
X200.55Y-166.925
X200.55Y-171.925
X205.024Y-193.73
X205.55Y-169.425
X230.5Y-200.25
X230.523Y-211.496
X230.583Y-221.131
X233.583Y-211.5
X235.25Y-200.236
X236.84Y-221.131
X246.0Y-181.5
X251.175Y-187.475
X253.69Y-195.0
X253.715Y-187.475
X256.23Y-195.0
X256.255Y-187.475
X258.77Y-195.0
X258.795Y-187.475
X261.175Y-163.975
X261.31Y-195.0
X261.335Y-187.475
X263.715Y-163.975
X263.875Y-187.475
X266.255Y-163.975
X268.795Y-163.975
X271.335Y-163.975
X273.875Y-163.975
X274.574Y-189.789
X277.074Y-194.789
X279.574Y-189.789
X283.574Y-180.0
T10
X214.3Y-196.991
X216.901Y-186.708
X219.38Y-196.991
X219.441Y-186.708
X222.062Y-157.758
X224.46Y-196.991
X224.521Y-186.708
X225.654Y-161.351
X227.0Y-196.991
X229.246Y-164.943
X229.601Y-186.708
X231.042Y-166.739
T11
X125.311Y-92.029
X125.324Y-74.029
X132.811Y-92.029
X132.824Y-74.029
X146.824Y-70.016
X146.824Y-77.516
X205.5Y-139.25
X205.5Y-146.75
T12
X223.624Y-84.279
X223.624Y-89.779
X223.624Y-97.779
X223.624Y-103.279
X227.824Y-84.279
X227.824Y-89.779
X227.824Y-97.779
X227.824Y-103.279
X232.024Y-84.279
X232.024Y-89.779
X232.024Y-97.779
X232.024Y-103.279
X232.75Y-135.305
X232.75Y-139.505
X232.75Y-143.705
X238.25Y-135.305
X238.25Y-139.505
X238.25Y-143.705
X273.25Y-135.295
X273.25Y-139.495
X273.25Y-143.695
X278.75Y-135.295
X278.75Y-139.495
X278.75Y-143.695
T13
X104.5Y-149.5
X104.5Y-154.5
X104.5Y-159.5
X104.5Y-174.5
X112.0Y-149.5
X112.0Y-154.5
X112.0Y-159.5
X112.0Y-174.5
X176.874Y-111.554
X176.974Y-74.889
X182.324Y-111.554
X182.424Y-74.889
X187.774Y-111.554
X187.874Y-74.889
X204.874Y-111.539
X205.018Y-74.872
X210.324Y-111.539
X210.468Y-74.872
X215.774Y-111.539
X215.918Y-74.872
X239.624Y-74.874
X239.624Y-111.563
X245.074Y-74.874
X245.074Y-111.563
X250.524Y-74.874
X250.524Y-111.563
X267.574Y-111.539
X267.624Y-74.874
X273.024Y-111.539
X273.074Y-74.874
X278.474Y-111.539
X278.524Y-74.874
T15
X256.05Y-201.475
X256.05Y-206.975
X260.25Y-201.475
X260.25Y-206.975
X292.549Y-177.795
X292.549Y-181.995
X292.549Y-186.195
X292.549Y-195.516
X292.549Y-199.716
X292.549Y-203.916
X298.049Y-177.795
X298.049Y-181.995
X298.049Y-186.195
X298.049Y-195.516
X298.049Y-199.716
X298.049Y-203.916
T17
X110.0Y-92.0
X110.0Y-187.0
X248.0Y-164.5
X248.0Y-217.5
X304.074Y-164.5
X304.074Y-217.5
T18
X182.324Y-91.694
X182.424Y-55.029
X210.324Y-91.679
X210.468Y-55.012
X245.074Y-55.014
X245.074Y-91.703
X273.024Y-91.679
X273.074Y-55.014
T19
X115.215Y-109.529
X115.215Y-138.379
X127.0Y-158.0
X127.0Y-188.0
T9
X128.024Y-120.029G85X133.624Y-120.029
G05
X128.024Y-128.029G85X133.624Y-128.029
G05
T14
X121.25Y-206.0G85X120.75Y-206.0
G05
X121.25Y-219.0G85X120.75Y-219.0
G05
X127.5Y-206.0G85X127.0Y-206.0
G05
X127.5Y-219.0G85X127.0Y-219.0
G05
X133.25Y-206.0G85X133.75Y-206.0
G05
X133.25Y-219.0G85X133.75Y-219.0
G05
X157.0Y-206.0G85X156.5Y-206.0
G05
X157.0Y-219.0G85X156.5Y-219.0
G05
X159.574Y-87.029G85X159.074Y-87.029
G05
X159.574Y-100.029G85X159.074Y-100.029
G05
X163.25Y-206.0G85X162.75Y-206.0
G05
X163.25Y-219.0G85X162.75Y-219.0
G05
X165.324Y-87.029G85X165.824Y-87.029
G05
X165.324Y-100.029G85X165.824Y-100.029
G05
X169.0Y-206.0G85X169.5Y-206.0
G05
X169.0Y-219.0G85X169.5Y-219.0
G05
X171.574Y-87.029G85X172.074Y-87.029
G05
X171.574Y-100.029G85X172.074Y-100.029
G05
X297.324Y-54.529G85X296.824Y-54.529
G05
X297.324Y-67.529G85X296.824Y-67.529
G05
X303.074Y-54.529G85X303.574Y-54.529
G05
X303.074Y-67.529G85X303.574Y-67.529
G05
X309.324Y-54.529G85X309.824Y-54.529
G05
X309.324Y-67.529G85X309.824Y-67.529
G05
T16
X295.524Y-93.454G85X291.524Y-93.454
G05
X305.524Y-93.454G85X301.524Y-93.454
G05
M30
