%TF.GenerationSoftware,KiCad,Pcbnew,9.0.2*%
%TF.CreationDate,2025-12-27T14:45:29+07:00*%
%TF.ProjectId,Controller48V,436f6e74-726f-46c6-9c65-723438562e6b,rev?*%
%TF.SameCoordinates,Original*%
%TF.FileFunction,Soldermask,Top*%
%TF.FilePolarity,Negative*%
%FSLAX46Y46*%
G04 Gerber Fmt 4.6, Leading zero omitted, Abs format (unit mm)*
G04 Created by KiCad (PCBNEW 9.0.2) date 2025-12-27 14:45:29*
%MOMM*%
%LPD*%
G01*
G04 APERTURE LIST*
G04 Aperture macros list*
%AMRoundRect*
0 Rectangle with rounded corners*
0 $1 Rounding radius*
0 $2 $3 $4 $5 $6 $7 $8 $9 X,Y pos of 4 corners*
0 Add a 4 corners polygon primitive as box body*
4,1,4,$2,$3,$4,$5,$6,$7,$8,$9,$2,$3,0*
0 Add four circle primitives for the rounded corners*
1,1,$1+$1,$2,$3*
1,1,$1+$1,$4,$5*
1,1,$1+$1,$6,$7*
1,1,$1+$1,$8,$9*
0 Add four rect primitives between the rounded corners*
20,1,$1+$1,$2,$3,$4,$5,0*
20,1,$1+$1,$4,$5,$6,$7,0*
20,1,$1+$1,$6,$7,$8,$9,0*
20,1,$1+$1,$8,$9,$2,$3,0*%
%AMHorizOval*
0 Thick line with rounded ends*
0 $1 width*
0 $2 $3 position (X,Y) of the first rounded end (center of the circle)*
0 $4 $5 position (X,Y) of the second rounded end (center of the circle)*
0 Add line between two ends*
20,1,$1,$2,$3,$4,$5,0*
0 Add two circle primitives to create the rounded ends*
1,1,$1,$2,$3*
1,1,$1,$4,$5*%
%AMFreePoly0*
4,1,5,1.500000,-1.250000,-1.500000,-1.250000,-1.500000,1.250000,1.500000,1.250000,1.500000,-1.250000,1.500000,-1.250000,$1*%
%AMFreePoly1*
4,1,23,0.500000,-0.750000,0.000000,-0.750000,0.000000,-0.745722,-0.065263,-0.745722,-0.191342,-0.711940,-0.304381,-0.646677,-0.396677,-0.554381,-0.461940,-0.441342,-0.495722,-0.315263,-0.495722,-0.250000,-0.500000,-0.250000,-0.500000,0.250000,-0.495722,0.250000,-0.495722,0.315263,-0.461940,0.441342,-0.396677,0.554381,-0.304381,0.646677,-0.191342,0.711940,-0.065263,0.745722,0.000000,0.745722,
0.000000,0.750000,0.500000,0.750000,0.500000,-0.750000,0.500000,-0.750000,$1*%
%AMFreePoly2*
4,1,23,0.000000,0.745722,0.065263,0.745722,0.191342,0.711940,0.304381,0.646677,0.396677,0.554381,0.461940,0.441342,0.495722,0.315263,0.495722,0.250000,0.500000,0.250000,0.500000,-0.250000,0.495722,-0.250000,0.495722,-0.315263,0.461940,-0.441342,0.396677,-0.554381,0.304381,-0.646677,0.191342,-0.711940,0.065263,-0.745722,0.000000,-0.745722,0.000000,-0.750000,-0.500000,-0.750000,
-0.500000,0.750000,0.000000,0.750000,0.000000,0.745722,0.000000,0.745722,$1*%
%AMFreePoly3*
4,1,23,0.550000,-0.750000,0.000000,-0.750000,0.000000,-0.745722,-0.065263,-0.745722,-0.191342,-0.711940,-0.304381,-0.646677,-0.396677,-0.554381,-0.461940,-0.441342,-0.495722,-0.315263,-0.495722,-0.250000,-0.500000,-0.250000,-0.500000,0.250000,-0.495722,0.250000,-0.495722,0.315263,-0.461940,0.441342,-0.396677,0.554381,-0.304381,0.646677,-0.191342,0.711940,-0.065263,0.745722,0.000000,0.745722,
0.000000,0.750000,0.550000,0.750000,0.550000,-0.750000,0.550000,-0.750000,$1*%
%AMFreePoly4*
4,1,23,0.000000,0.745722,0.065263,0.745722,0.191342,0.711940,0.304381,0.646677,0.396677,0.554381,0.461940,0.441342,0.495722,0.315263,0.495722,0.250000,0.500000,0.250000,0.500000,-0.250000,0.495722,-0.250000,0.495722,-0.315263,0.461940,-0.441342,0.396677,-0.554381,0.304381,-0.646677,0.191342,-0.711940,0.065263,-0.745722,0.000000,-0.745722,0.000000,-0.750000,-0.550000,-0.750000,
-0.550000,0.750000,0.000000,0.750000,0.000000,0.745722,0.000000,0.745722,$1*%
%AMFreePoly5*
4,1,5,5.000000,-2.000000,-5.000000,-2.000000,-5.000000,2.000000,5.000000,2.000000,5.000000,-2.000000,5.000000,-2.000000,$1*%
G04 Aperture macros list end*
%ADD10C,0.200000*%
%ADD11FreePoly0,0.000000*%
%ADD12FreePoly0,180.000000*%
%ADD13RoundRect,0.250000X0.350000X0.450000X-0.350000X0.450000X-0.350000X-0.450000X0.350000X-0.450000X0*%
%ADD14RoundRect,0.250000X-0.450000X0.350000X-0.450000X-0.350000X0.450000X-0.350000X0.450000X0.350000X0*%
%ADD15R,1.498600X1.498600*%
%ADD16C,1.498600*%
%ADD17RoundRect,0.250000X-0.312500X-0.625000X0.312500X-0.625000X0.312500X0.625000X-0.312500X0.625000X0*%
%ADD18RoundRect,0.250000X1.000000X0.650000X-1.000000X0.650000X-1.000000X-0.650000X1.000000X-0.650000X0*%
%ADD19R,1.905000X0.640000*%
%ADD20FreePoly1,270.000000*%
%ADD21FreePoly2,270.000000*%
%ADD22FreePoly3,270.000000*%
%ADD23R,1.500000X1.000000*%
%ADD24FreePoly4,270.000000*%
%ADD25RoundRect,0.250000X-0.325000X-0.450000X0.325000X-0.450000X0.325000X0.450000X-0.325000X0.450000X0*%
%ADD26RoundRect,0.250000X0.450000X-0.262500X0.450000X0.262500X-0.450000X0.262500X-0.450000X-0.262500X0*%
%ADD27RoundRect,0.250000X-0.262500X-0.450000X0.262500X-0.450000X0.262500X0.450000X-0.262500X0.450000X0*%
%ADD28RoundRect,0.150000X0.150000X-0.825000X0.150000X0.825000X-0.150000X0.825000X-0.150000X-0.825000X0*%
%ADD29RoundRect,0.250000X0.450000X-0.350000X0.450000X0.350000X-0.450000X0.350000X-0.450000X-0.350000X0*%
%ADD30RoundRect,0.250000X-0.600000X-0.725000X0.600000X-0.725000X0.600000X0.725000X-0.600000X0.725000X0*%
%ADD31O,1.700000X1.950000*%
%ADD32R,3.600000X2.700000*%
%ADD33R,2.000000X2.000000*%
%ADD34RoundRect,0.250000X0.475000X-0.250000X0.475000X0.250000X-0.475000X0.250000X-0.475000X-0.250000X0*%
%ADD35C,6.400000*%
%ADD36RoundRect,0.250000X-1.500000X-1.000000X1.500000X-1.000000X1.500000X1.000000X-1.500000X1.000000X0*%
%ADD37RoundRect,0.250001X1.099999X1.399999X-1.099999X1.399999X-1.099999X-1.399999X1.099999X-1.399999X0*%
%ADD38O,2.700000X3.300000*%
%ADD39RoundRect,0.250000X1.500000X0.650000X-1.500000X0.650000X-1.500000X-0.650000X1.500000X-0.650000X0*%
%ADD40RoundRect,0.250000X0.250000X0.475000X-0.250000X0.475000X-0.250000X-0.475000X0.250000X-0.475000X0*%
%ADD41RoundRect,0.200000X-0.750000X-0.200000X0.750000X-0.200000X0.750000X0.200000X-0.750000X0.200000X0*%
%ADD42RoundRect,0.250000X-0.250000X-0.475000X0.250000X-0.475000X0.250000X0.475000X-0.250000X0.475000X0*%
%ADD43R,1.800000X0.800000*%
%ADD44RoundRect,0.250001X1.399999X-1.099999X1.399999X1.099999X-1.399999X1.099999X-1.399999X-1.099999X0*%
%ADD45O,3.300000X2.700000*%
%ADD46RoundRect,0.250000X0.450000X-0.325000X0.450000X0.325000X-0.450000X0.325000X-0.450000X-0.325000X0*%
%ADD47RoundRect,0.250000X-0.650000X1.000000X-0.650000X-1.000000X0.650000X-1.000000X0.650000X1.000000X0*%
%ADD48RoundRect,0.250000X-0.650000X0.325000X-0.650000X-0.325000X0.650000X-0.325000X0.650000X0.325000X0*%
%ADD49RoundRect,0.102000X1.219759X0.000000X0.000000X1.219759X-1.219759X0.000000X0.000000X-1.219759X0*%
%ADD50C,1.929000*%
%ADD51RoundRect,0.250000X-0.475000X0.250000X-0.475000X-0.250000X0.475000X-0.250000X0.475000X0.250000X0*%
%ADD52RoundRect,0.250000X0.262500X0.450000X-0.262500X0.450000X-0.262500X-0.450000X0.262500X-0.450000X0*%
%ADD53RoundRect,0.250000X-0.350000X-0.450000X0.350000X-0.450000X0.350000X0.450000X-0.350000X0.450000X0*%
%ADD54RoundRect,0.250000X-0.450000X0.262500X-0.450000X-0.262500X0.450000X-0.262500X0.450000X0.262500X0*%
%ADD55RoundRect,0.102000X0.862500X0.862500X-0.862500X0.862500X-0.862500X-0.862500X0.862500X-0.862500X0*%
%ADD56R,1.700000X1.700000*%
%ADD57C,1.700000*%
%ADD58RoundRect,0.250000X0.650000X-1.500000X0.650000X1.500000X-0.650000X1.500000X-0.650000X-1.500000X0*%
%ADD59RoundRect,0.250000X0.300000X-2.050000X0.300000X2.050000X-0.300000X2.050000X-0.300000X-2.050000X0*%
%ADD60RoundRect,0.250002X5.149998X-4.449998X5.149998X4.449998X-5.149998X4.449998X-5.149998X-4.449998X0*%
%ADD61RoundRect,0.375000X-0.625000X-0.375000X0.625000X-0.375000X0.625000X0.375000X-0.625000X0.375000X0*%
%ADD62RoundRect,0.500000X-0.500000X-1.400000X0.500000X-1.400000X0.500000X1.400000X-0.500000X1.400000X0*%
%ADD63RoundRect,0.102000X-0.862500X-0.862500X0.862500X-0.862500X0.862500X0.862500X-0.862500X0.862500X0*%
%ADD64R,1.560000X1.560000*%
%ADD65C,1.560000*%
%ADD66RoundRect,0.162500X0.162500X-0.825000X0.162500X0.825000X-0.162500X0.825000X-0.162500X-0.825000X0*%
%ADD67C,0.800000*%
%ADD68RoundRect,0.200000X-0.200000X0.750000X-0.200000X-0.750000X0.200000X-0.750000X0.200000X0.750000X0*%
%ADD69RoundRect,0.200000X0.750000X0.200000X-0.750000X0.200000X-0.750000X-0.200000X0.750000X-0.200000X0*%
%ADD70RoundRect,0.200000X0.200000X-0.750000X0.200000X0.750000X-0.200000X0.750000X-0.200000X-0.750000X0*%
%ADD71RoundRect,0.375000X-0.375000X0.625000X-0.375000X-0.625000X0.375000X-0.625000X0.375000X0.625000X0*%
%ADD72RoundRect,0.500000X-1.400000X0.500000X-1.400000X-0.500000X1.400000X-0.500000X1.400000X0.500000X0*%
%ADD73RoundRect,0.250000X1.100000X-0.325000X1.100000X0.325000X-1.100000X0.325000X-1.100000X-0.325000X0*%
%ADD74FreePoly3,180.000000*%
%ADD75R,1.000000X1.500000*%
%ADD76FreePoly4,180.000000*%
%ADD77FreePoly1,180.000000*%
%ADD78FreePoly2,180.000000*%
%ADD79RoundRect,0.250000X0.312500X0.625000X-0.312500X0.625000X-0.312500X-0.625000X0.312500X-0.625000X0*%
%ADD80RoundRect,0.250000X0.650000X-1.000000X0.650000X1.000000X-0.650000X1.000000X-0.650000X-1.000000X0*%
%ADD81C,3.000000*%
%ADD82RoundRect,0.250001X-1.599999X1.099999X-1.599999X-1.099999X1.599999X-1.099999X1.599999X1.099999X0*%
%ADD83O,3.700000X2.700000*%
%ADD84RoundRect,0.250000X1.000000X-1.500000X1.000000X1.500000X-1.000000X1.500000X-1.000000X-1.500000X0*%
%ADD85RoundRect,0.250000X-0.325000X-0.650000X0.325000X-0.650000X0.325000X0.650000X-0.325000X0.650000X0*%
%ADD86RoundRect,0.150000X0.150000X-0.725000X0.150000X0.725000X-0.150000X0.725000X-0.150000X-0.725000X0*%
%ADD87RoundRect,0.150000X0.150000X-0.587500X0.150000X0.587500X-0.150000X0.587500X-0.150000X-0.587500X0*%
%ADD88RoundRect,0.250001X-1.399999X1.099999X-1.399999X-1.099999X1.399999X-1.099999X1.399999X1.099999X0*%
%ADD89R,1.600000X1.600000*%
%ADD90O,1.600000X1.600000*%
%ADD91RoundRect,0.150000X-0.825000X-0.150000X0.825000X-0.150000X0.825000X0.150000X-0.825000X0.150000X0*%
%ADD92RoundRect,0.250001X0.949999X-0.949999X0.949999X0.949999X-0.949999X0.949999X-0.949999X-0.949999X0*%
%ADD93C,2.400000*%
%ADD94RoundRect,0.250001X1.099999X1.599999X-1.099999X1.599999X-1.099999X-1.599999X1.099999X-1.599999X0*%
%ADD95O,2.700000X3.700000*%
%ADD96FreePoly3,90.000000*%
%ADD97FreePoly4,90.000000*%
%ADD98C,2.800000*%
%ADD99RoundRect,0.250000X1.150000X-1.150000X1.150000X1.150000X-1.150000X1.150000X-1.150000X-1.150000X0*%
%ADD100C,4.000000*%
%ADD101R,2.500000X4.500000*%
%ADD102O,2.500000X4.500000*%
%ADD103RoundRect,0.250001X-0.949999X-0.949999X0.949999X-0.949999X0.949999X0.949999X-0.949999X0.949999X0*%
%ADD104R,1.500000X1.500000*%
%ADD105C,1.500000*%
%ADD106HorizOval,0.800000X0.000000X0.000000X0.000000X0.000000X0*%
%ADD107HorizOval,0.800000X0.000000X0.000000X0.000000X0.000000X0*%
%ADD108O,9.000000X6.000000*%
%ADD109C,12.000000*%
%ADD110FreePoly5,0.000000*%
%ADD111C,3.200000*%
%ADD112C,11.000000*%
%ADD113RoundRect,0.250001X-0.949999X0.949999X-0.949999X-0.949999X0.949999X-0.949999X0.949999X0.949999X0*%
G04 APERTURE END LIST*
D10*
X316939689Y-51838980D02*
G75*
G02*
X310661020Y-45560311I11J6278680D01*
G01*
X102153835Y-45560311D02*
G75*
G02*
X95875166Y-51838935I-6278635J11D01*
G01*
X95891502Y-216481320D02*
G75*
G02*
X102170180Y-222759989I-2J-6278680D01*
G01*
X310721257Y-222778638D02*
G75*
G02*
X316999926Y-216499957I6278643J38D01*
G01*
%TO.C,JP1*%
G36*
X206250000Y-179500000D02*
G01*
X204750000Y-179500000D01*
X204750000Y-179800000D01*
X206250000Y-179800000D01*
X206250000Y-179500000D01*
G37*
%TO.C,JP4*%
G36*
X213522296Y-185979770D02*
G01*
X212022296Y-185979770D01*
X212022296Y-187479770D01*
X213522296Y-187479770D01*
X213522296Y-185979770D01*
G37*
%TO.C,JP11*%
G36*
X211000000Y-159500000D02*
G01*
X208500000Y-159500000D01*
X208500000Y-158000000D01*
X211000000Y-158000000D01*
X211000000Y-159500000D01*
G37*
%TO.C,JP7*%
G36*
X272573857Y-169607500D02*
G01*
X271773857Y-169607500D01*
X271773857Y-168107500D01*
X272573857Y-168107500D01*
X272573857Y-169607500D01*
G37*
%TO.C,JP2*%
G36*
X171447934Y-170675627D02*
G01*
X171147934Y-170675627D01*
X171147934Y-169175627D01*
X171447934Y-169175627D01*
X171447934Y-170675627D01*
G37*
%TO.C,JP10*%
G36*
X212772529Y-144250000D02*
G01*
X211272529Y-144250000D01*
X211272529Y-145750000D01*
X212772529Y-145750000D01*
X212772529Y-144250000D01*
G37*
%TO.C,JP6*%
G36*
X227953857Y-176533669D02*
G01*
X229453857Y-176533669D01*
X229453857Y-175033669D01*
X227953857Y-175033669D01*
X227953857Y-176533669D01*
G37*
%TD*%
D11*
%TO.C,H7*%
X133500000Y-219000000D03*
X133500000Y-206000000D03*
D12*
X127249893Y-219000000D03*
X127249893Y-206000000D03*
X121000000Y-219000000D03*
X121000000Y-206000000D03*
%TD*%
D13*
%TO.C,R61*%
X215365929Y-139246915D03*
X213365929Y-139246915D03*
%TD*%
D14*
%TO.C,R66*%
X267073857Y-172631192D03*
X267073857Y-174631192D03*
%TD*%
D15*
%TO.C,PS6*%
X287190000Y-143533200D03*
D16*
X289730000Y-143533200D03*
X292270000Y-143533200D03*
X294810000Y-143533200D03*
%TD*%
D17*
%TO.C,R42*%
X202037500Y-208000000D03*
X204962500Y-208000000D03*
%TD*%
D18*
%TO.C,D14*%
X180273857Y-199479922D03*
X176273857Y-199479922D03*
%TD*%
D19*
%TO.C,U18*%
X216070744Y-204482927D03*
X216070744Y-205752927D03*
X216070744Y-207022927D03*
X216070744Y-208292927D03*
X226765744Y-208292927D03*
X226765744Y-207022927D03*
X226765744Y-205752927D03*
X226765744Y-204482927D03*
%TD*%
D20*
%TO.C,JP1*%
X205500000Y-179000000D03*
D21*
X205500000Y-180300000D03*
%TD*%
D22*
%TO.C,JP4*%
X212772296Y-185429770D03*
D23*
X212772296Y-186729770D03*
D24*
X212772296Y-188029770D03*
%TD*%
D25*
%TO.C,D16*%
X202773857Y-186229922D03*
X204823857Y-186229922D03*
%TD*%
D17*
%TO.C,R38*%
X197075000Y-218000000D03*
X200000000Y-218000000D03*
%TD*%
D26*
%TO.C,R18*%
X190283533Y-115947723D03*
X190283533Y-114122723D03*
%TD*%
D27*
%TO.C,R102*%
X236843722Y-217983279D03*
X238668722Y-217983279D03*
%TD*%
D28*
%TO.C,U9*%
X246595000Y-200475000D03*
X247865000Y-200475000D03*
X249135000Y-200475000D03*
X250405000Y-200475000D03*
X250405000Y-195525000D03*
X249135000Y-195525000D03*
X247865000Y-195525000D03*
X246595000Y-195525000D03*
%TD*%
D29*
%TO.C,R62*%
X281073857Y-208278669D03*
X281073857Y-206278669D03*
%TD*%
D26*
%TO.C,R10*%
X281033533Y-115947723D03*
X281033533Y-114122723D03*
%TD*%
D30*
%TO.C,J17*%
X296000000Y-122000000D03*
D31*
X298500000Y-122000000D03*
X301000000Y-122000000D03*
X303500000Y-122000000D03*
%TD*%
D17*
%TO.C,R43*%
X202037500Y-205500000D03*
X204962500Y-205500000D03*
%TD*%
D32*
%TO.C,L1*%
X193550000Y-174575000D03*
X193550000Y-166275000D03*
%TD*%
D33*
%TO.C,TP8*%
X236839930Y-221130745D03*
%TD*%
D17*
%TO.C,R33*%
X197075000Y-203000000D03*
X200000000Y-203000000D03*
%TD*%
D33*
%TO.C,TP9*%
X235250000Y-200236009D03*
%TD*%
D29*
%TO.C,R55*%
X286806883Y-197583469D03*
X286806883Y-195583469D03*
%TD*%
D34*
%TO.C,C59*%
X310475000Y-121815000D03*
X310475000Y-119915000D03*
%TD*%
D35*
%TO.C,H3*%
X304073857Y-217500000D03*
%TD*%
D19*
%TO.C,U21*%
X317347500Y-106405000D03*
X317347500Y-105135000D03*
X317347500Y-103865000D03*
X317347500Y-102595000D03*
X306652500Y-102595000D03*
X306652500Y-103865000D03*
X306652500Y-105135000D03*
X306652500Y-106405000D03*
%TD*%
D33*
%TO.C,TP1*%
X171842076Y-175000000D03*
%TD*%
D14*
%TO.C,R60*%
X296250000Y-170425000D03*
X296250000Y-172425000D03*
%TD*%
D36*
%TO.C,C28*%
X193023857Y-183579922D03*
X199523857Y-183579922D03*
%TD*%
D12*
%TO.C,H5*%
X297073750Y-54528669D03*
X297073750Y-67528669D03*
D11*
X303323857Y-54528669D03*
X303323857Y-67528669D03*
X309573750Y-54528669D03*
X309573750Y-67528669D03*
%TD*%
D37*
%TO.C,J15*%
X232023857Y-103278669D03*
D38*
X227823857Y-103278669D03*
X223623857Y-103278669D03*
X232023857Y-97778669D03*
X227823857Y-97778669D03*
X223623857Y-97778669D03*
%TD*%
D39*
%TO.C,D30*%
X263573857Y-181350000D03*
X258573857Y-181350000D03*
%TD*%
D40*
%TO.C,C67*%
X216086187Y-211766366D03*
X214186187Y-211766366D03*
%TD*%
D26*
%TO.C,R24*%
X218283533Y-116147723D03*
X218283533Y-114322723D03*
%TD*%
D41*
%TO.C,Q10*%
X281500000Y-196628669D03*
X281500000Y-198528669D03*
X284500000Y-197578669D03*
%TD*%
D42*
%TO.C,C69*%
X236801962Y-215983278D03*
X238701962Y-215983278D03*
%TD*%
D43*
%TO.C,K3*%
X264573857Y-178050000D03*
X264573857Y-174850000D03*
X264573857Y-172650000D03*
X264573857Y-170450000D03*
X257573857Y-170450000D03*
X257573857Y-172650000D03*
X257573857Y-174850000D03*
X257573857Y-178050000D03*
%TD*%
D26*
%TO.C,R30*%
X247500000Y-187962500D03*
X247500000Y-186137500D03*
%TD*%
D44*
%TO.C,J14*%
X232750000Y-143705000D03*
D45*
X232750000Y-139505000D03*
X232750000Y-135305000D03*
X238250000Y-143705000D03*
X238250000Y-139505000D03*
X238250000Y-135305000D03*
%TD*%
D46*
%TO.C,D18*%
X267323857Y-219975000D03*
X267323857Y-217925000D03*
%TD*%
D47*
%TO.C,D24*%
X219000000Y-145000000D03*
X219000000Y-149000000D03*
%TD*%
D48*
%TO.C,C25*%
X138014344Y-70309828D03*
X138014344Y-73259828D03*
%TD*%
D49*
%TO.C,PS5*%
X231042138Y-166738728D03*
D50*
X229246087Y-164942676D03*
X225653984Y-161350574D03*
X222061882Y-157758472D03*
%TD*%
D41*
%TO.C,Q17*%
X237250000Y-172550000D03*
X237250000Y-174450000D03*
X240250000Y-173500000D03*
%TD*%
D15*
%TO.C,PS1*%
X245370000Y-143570700D03*
D16*
X247910000Y-143570700D03*
X252990000Y-143570700D03*
X250450000Y-143570700D03*
%TD*%
D51*
%TO.C,C55*%
X315000000Y-108550000D03*
X315000000Y-110450000D03*
%TD*%
D29*
%TO.C,R53*%
X271573857Y-195528669D03*
X271573857Y-193528669D03*
%TD*%
D52*
%TO.C,R36*%
X169705459Y-172500000D03*
X167880459Y-172500000D03*
%TD*%
D51*
%TO.C,C35*%
X245500000Y-186100000D03*
X245500000Y-188000000D03*
%TD*%
D53*
%TO.C,R64*%
X253000000Y-174034861D03*
X255000000Y-174034861D03*
%TD*%
D42*
%TO.C,C14*%
X274540000Y-149597780D03*
X276440000Y-149597780D03*
%TD*%
D54*
%TO.C,R79*%
X293823857Y-208500000D03*
X293823857Y-210325000D03*
%TD*%
D55*
%TO.C,PS4*%
X227000000Y-196990883D03*
D50*
X224460000Y-196990883D03*
X219380000Y-196990883D03*
X214300000Y-196990883D03*
%TD*%
D51*
%TO.C,C56*%
X317344152Y-108558393D03*
X317344152Y-110458393D03*
%TD*%
D26*
%TO.C,R52*%
X236250000Y-178961889D03*
X236250000Y-177136889D03*
%TD*%
D33*
%TO.C,TP5*%
X283573857Y-180000000D03*
%TD*%
D17*
%TO.C,R9*%
X312037500Y-100000000D03*
X314962500Y-100000000D03*
%TD*%
D52*
%TO.C,R99*%
X232241839Y-216053682D03*
X230416839Y-216053682D03*
%TD*%
D56*
%TO.C,J9*%
X253690000Y-195000000D03*
D57*
X256230000Y-195000000D03*
X258770000Y-195000000D03*
X261310000Y-195000000D03*
%TD*%
D58*
%TO.C,D26*%
X271573857Y-203603669D03*
X271573857Y-198603669D03*
%TD*%
D33*
%TO.C,TP4*%
X246000000Y-181500000D03*
%TD*%
D46*
%TO.C,D25*%
X293573857Y-219975000D03*
X293573857Y-217925000D03*
%TD*%
D25*
%TO.C,D15*%
X203235000Y-161775000D03*
X205285000Y-161775000D03*
%TD*%
D35*
%TO.C,H1*%
X304073857Y-164500000D03*
%TD*%
D52*
%TO.C,R100*%
X232241839Y-218016743D03*
X230416839Y-218016743D03*
%TD*%
D59*
%TO.C,U4*%
X178900000Y-168500000D03*
X180600000Y-168500000D03*
X182300000Y-168500000D03*
D60*
X182300000Y-159350000D03*
D59*
X184000000Y-168500000D03*
X185700000Y-168500000D03*
%TD*%
D61*
%TO.C,U3*%
X302350000Y-136908841D03*
X302350000Y-139208841D03*
D62*
X308650000Y-139208841D03*
D61*
X302350000Y-141508841D03*
%TD*%
D33*
%TO.C,TP3*%
X233583160Y-211500000D03*
%TD*%
D36*
%TO.C,C27*%
X193600000Y-158775000D03*
X200100000Y-158775000D03*
%TD*%
D63*
%TO.C,PS2*%
X216900836Y-186708361D03*
D50*
X219440836Y-186708361D03*
X224520836Y-186708361D03*
X229600836Y-186708361D03*
%TD*%
D52*
%TO.C,R50*%
X234500000Y-173237371D03*
X232675000Y-173237371D03*
%TD*%
D46*
%TO.C,D20*%
X163884509Y-181025000D03*
X163884509Y-178975000D03*
%TD*%
D40*
%TO.C,C70*%
X242158823Y-215982667D03*
X240258823Y-215982667D03*
%TD*%
D64*
%TO.C,RV1*%
X200550000Y-171925000D03*
D65*
X205550000Y-169425000D03*
X200550000Y-166925000D03*
%TD*%
D46*
%TO.C,D29*%
X277823857Y-220025000D03*
X277823857Y-217975000D03*
%TD*%
D52*
%TO.C,R95*%
X232242085Y-208121877D03*
X230417085Y-208121877D03*
%TD*%
D17*
%TO.C,R40*%
X202075000Y-218000000D03*
X205000000Y-218000000D03*
%TD*%
D66*
%TO.C,U2*%
X249687099Y-157037500D03*
X250957099Y-157037500D03*
X252227099Y-157037500D03*
X253497099Y-157037500D03*
X253497099Y-151962500D03*
X252227099Y-151962500D03*
X250957099Y-151962500D03*
X249687099Y-151962500D03*
%TD*%
D54*
%TO.C,R76*%
X296573857Y-208500000D03*
X296573857Y-210325000D03*
%TD*%
D53*
%TO.C,R59*%
X290823857Y-169625000D03*
X292823857Y-169625000D03*
%TD*%
D67*
%TO.C,H10*%
X107600000Y-187000000D03*
X108302944Y-185302944D03*
X108302944Y-188697056D03*
X110000000Y-184600000D03*
D35*
X110000000Y-187000000D03*
D67*
X110000000Y-189400000D03*
X111697056Y-185302944D03*
X111697056Y-188697056D03*
X112400000Y-187000000D03*
%TD*%
D17*
%TO.C,R1*%
X297037500Y-100000000D03*
X299962500Y-100000000D03*
%TD*%
D27*
%TO.C,R28*%
X202861357Y-188201253D03*
X204686357Y-188201253D03*
%TD*%
D28*
%TO.C,U25*%
X237500000Y-212450000D03*
X238770000Y-212450000D03*
X240040000Y-212450000D03*
X241310000Y-212450000D03*
X241310000Y-207500000D03*
X240040000Y-207500000D03*
X238770000Y-207500000D03*
X237500000Y-207500000D03*
%TD*%
D26*
%TO.C,R8*%
X281217482Y-79387891D03*
X281217482Y-77562891D03*
%TD*%
D53*
%TO.C,R46*%
X238416337Y-200000000D03*
X240416337Y-200000000D03*
%TD*%
D67*
%TO.C,H9*%
X107600000Y-92000000D03*
X108302944Y-90302944D03*
X108302944Y-93697056D03*
X110000000Y-89600000D03*
D35*
X110000000Y-92000000D03*
D67*
X110000000Y-94400000D03*
X111697056Y-90302944D03*
X111697056Y-93697056D03*
X112400000Y-92000000D03*
%TD*%
D42*
%TO.C,C15*%
X282630000Y-149597780D03*
X284530000Y-149597780D03*
%TD*%
D52*
%TO.C,R96*%
X244920768Y-205421424D03*
X243095768Y-205421424D03*
%TD*%
D42*
%TO.C,C13*%
X250635000Y-149597780D03*
X252535000Y-149597780D03*
%TD*%
D68*
%TO.C,Q9*%
X167900964Y-175000000D03*
X166000964Y-175000000D03*
X166950964Y-178000000D03*
%TD*%
D25*
%TO.C,D27*%
X209340929Y-139246915D03*
X211390929Y-139246915D03*
%TD*%
D29*
%TO.C,R57*%
X288373857Y-173375000D03*
X288373857Y-171375000D03*
%TD*%
D69*
%TO.C,Q16*%
X242500000Y-195950000D03*
X242500000Y-194050000D03*
X239500000Y-195000000D03*
%TD*%
D35*
%TO.C,H2*%
X248000000Y-164500000D03*
%TD*%
D29*
%TO.C,R74*%
X280723857Y-170857500D03*
X280723857Y-168857500D03*
%TD*%
D26*
%TO.C,R26*%
X200023857Y-199904922D03*
X200023857Y-198079922D03*
%TD*%
%TO.C,R80*%
X291823857Y-210325000D03*
X291823857Y-208500000D03*
%TD*%
D70*
%TO.C,Q14*%
X277825000Y-177175000D03*
X279725000Y-177175000D03*
X278775000Y-174175000D03*
%TD*%
D71*
%TO.C,U6*%
X243000000Y-181500000D03*
X240700000Y-181500000D03*
D72*
X240700000Y-187800000D03*
D71*
X238400000Y-181500000D03*
%TD*%
D26*
%TO.C,R44*%
X163872892Y-176854665D03*
X163872892Y-175029665D03*
%TD*%
%TO.C,R2*%
X253217482Y-79437891D03*
X253217482Y-77612891D03*
%TD*%
D51*
%TO.C,C51*%
X213700967Y-205757734D03*
X213700967Y-207657734D03*
%TD*%
D73*
%TO.C,C3*%
X200500000Y-69975000D03*
X200500000Y-67025000D03*
%TD*%
D40*
%TO.C,C34*%
X240254127Y-179153346D03*
X238354127Y-179153346D03*
%TD*%
D66*
%TO.C,U10*%
X257967099Y-157037500D03*
X259237099Y-157037500D03*
X260507099Y-157037500D03*
X261777099Y-157037500D03*
X261777099Y-151962500D03*
X260507099Y-151962500D03*
X259237099Y-151962500D03*
X257967099Y-151962500D03*
%TD*%
D51*
%TO.C,C66*%
X213697500Y-215644203D03*
X213697500Y-217544203D03*
%TD*%
D13*
%TO.C,R70*%
X272000000Y-180000000D03*
X270000000Y-180000000D03*
%TD*%
D32*
%TO.C,L2*%
X193023857Y-199379922D03*
X193023857Y-191079922D03*
%TD*%
D64*
%TO.C,RV3*%
X274573857Y-189788669D03*
D65*
X277073857Y-194788669D03*
X279573857Y-189788669D03*
%TD*%
D33*
%TO.C,TP7*%
X230522766Y-211496210D03*
%TD*%
D51*
%TO.C,C17*%
X300000000Y-137008841D03*
X300000000Y-138908841D03*
%TD*%
D73*
%TO.C,C10*%
X263000000Y-69975000D03*
X263000000Y-67025000D03*
%TD*%
D74*
%TO.C,JP11*%
X211250000Y-158750000D03*
D75*
X209750000Y-158750000D03*
D76*
X208250000Y-158750000D03*
%TD*%
D14*
%TO.C,R72*%
X275223857Y-168857500D03*
X275223857Y-170857500D03*
%TD*%
D13*
%TO.C,R69*%
X279773857Y-180000000D03*
X277773857Y-180000000D03*
%TD*%
D14*
%TO.C,R73*%
X274573857Y-206278669D03*
X274573857Y-208278669D03*
%TD*%
D77*
%TO.C,JP7*%
X273073857Y-168857500D03*
D78*
X271423857Y-168857500D03*
%TD*%
D17*
%TO.C,R7*%
X307000000Y-100000000D03*
X309925000Y-100000000D03*
%TD*%
D79*
%TO.C,R15*%
X319962500Y-100000000D03*
X317037500Y-100000000D03*
%TD*%
D40*
%TO.C,C68*%
X232279339Y-214064250D03*
X230379339Y-214064250D03*
%TD*%
D56*
%TO.C,J22*%
X261175000Y-163975000D03*
D57*
X263715000Y-163975000D03*
X266255000Y-163975000D03*
X268795000Y-163975000D03*
X271335000Y-163975000D03*
X273875000Y-163975000D03*
%TD*%
D56*
%TO.C,J19*%
X251175000Y-187475000D03*
D57*
X253715000Y-187475000D03*
X256255000Y-187475000D03*
X258795000Y-187475000D03*
X261335000Y-187475000D03*
X263875000Y-187475000D03*
%TD*%
D27*
%TO.C,R37*%
X164087500Y-172500000D03*
X165912500Y-172500000D03*
%TD*%
D80*
%TO.C,D12*%
X165323857Y-192904998D03*
X165323857Y-188904998D03*
%TD*%
D42*
%TO.C,C73*%
X238462500Y-203986009D03*
X240362500Y-203986009D03*
%TD*%
D40*
%TO.C,C57*%
X308549536Y-109135000D03*
X306649536Y-109135000D03*
%TD*%
D53*
%TO.C,R71*%
X277773857Y-182000000D03*
X279773857Y-182000000D03*
%TD*%
D27*
%TO.C,R97*%
X238500000Y-202000000D03*
X240325000Y-202000000D03*
%TD*%
D26*
%TO.C,R16*%
X218500000Y-79391169D03*
X218500000Y-77566169D03*
%TD*%
D29*
%TO.C,R65*%
X277073857Y-208278669D03*
X277073857Y-206278669D03*
%TD*%
D35*
%TO.C,H11*%
X95823857Y-45500000D03*
%TD*%
D40*
%TO.C,C45*%
X300450000Y-117000000D03*
X298550000Y-117000000D03*
%TD*%
D33*
%TO.C,TP2*%
X230583160Y-221130745D03*
%TD*%
D35*
%TO.C,H14*%
X316987657Y-222778638D03*
%TD*%
D17*
%TO.C,R39*%
X197037500Y-208000000D03*
X199962500Y-208000000D03*
%TD*%
D12*
%TO.C,H6*%
X159323857Y-87028669D03*
X159323857Y-100028669D03*
D11*
X165573964Y-87028669D03*
X165573964Y-100028669D03*
X171823857Y-87028669D03*
X171823857Y-100028669D03*
%TD*%
D53*
%TO.C,R67*%
X253000000Y-176129561D03*
X255000000Y-176129561D03*
%TD*%
D66*
%TO.C,U12*%
X273585000Y-157037500D03*
X274855000Y-157037500D03*
X276125000Y-157037500D03*
X277395000Y-157037500D03*
X277395000Y-151962500D03*
X276125000Y-151962500D03*
X274855000Y-151962500D03*
X273585000Y-151962500D03*
%TD*%
D51*
%TO.C,C58*%
X310475000Y-116415000D03*
X310475000Y-118315000D03*
%TD*%
D80*
%TO.C,D11*%
X165670969Y-165333753D03*
X165670969Y-161333753D03*
%TD*%
D26*
%TO.C,R87*%
X308475000Y-121777500D03*
X308475000Y-119952500D03*
%TD*%
D40*
%TO.C,C24*%
X175473857Y-195904922D03*
X173573857Y-195904922D03*
%TD*%
D81*
%TO.C,J12*%
X305348857Y-177795000D03*
X305348857Y-186195000D03*
D82*
X298048857Y-177795000D03*
D83*
X298048857Y-181995000D03*
X298048857Y-186195000D03*
X292548857Y-177795000D03*
X292548857Y-181995000D03*
X292548857Y-186195000D03*
%TD*%
D26*
%TO.C,R51*%
X234259788Y-178954646D03*
X234259788Y-177129646D03*
%TD*%
D35*
%TO.C,H4*%
X248000000Y-217500000D03*
%TD*%
D84*
%TO.C,C22*%
X171773857Y-192904922D03*
X171773857Y-186404922D03*
%TD*%
D40*
%TO.C,C71*%
X232283176Y-204175567D03*
X230383176Y-204175567D03*
%TD*%
D15*
%TO.C,PS3*%
X258380000Y-143533200D03*
D16*
X260920000Y-143533200D03*
X266000000Y-143533200D03*
X263460000Y-143533200D03*
%TD*%
D29*
%TO.C,R56*%
X286373857Y-173375000D03*
X286373857Y-171375000D03*
%TD*%
D85*
%TO.C,C26*%
X127348857Y-83000000D03*
X130298857Y-83000000D03*
%TD*%
D66*
%TO.C,U7*%
X281675000Y-157037500D03*
X282945000Y-157037500D03*
X284215000Y-157037500D03*
X285485000Y-157037500D03*
X285485000Y-151962500D03*
X284215000Y-151962500D03*
X282945000Y-151962500D03*
X281675000Y-151962500D03*
%TD*%
D51*
%TO.C,C40*%
X284000000Y-200300000D03*
X284000000Y-202200000D03*
%TD*%
D81*
%TO.C,J13*%
X305348857Y-195516331D03*
X305348857Y-203916331D03*
D82*
X298048857Y-195516331D03*
D83*
X298048857Y-199716331D03*
X298048857Y-203916331D03*
X292548857Y-195516331D03*
X292548857Y-199716331D03*
X292548857Y-203916331D03*
%TD*%
D54*
%TO.C,R23*%
X308525000Y-116452500D03*
X308525000Y-118277500D03*
%TD*%
D17*
%TO.C,R41*%
X202075000Y-215500000D03*
X205000000Y-215500000D03*
%TD*%
D26*
%TO.C,R4*%
X253033533Y-115947723D03*
X253033533Y-114122723D03*
%TD*%
D47*
%TO.C,D23*%
X215361621Y-144996476D03*
X215361621Y-148996476D03*
%TD*%
D17*
%TO.C,R3*%
X302037500Y-100000000D03*
X304962500Y-100000000D03*
%TD*%
D86*
%TO.C,U14*%
X274573857Y-203678669D03*
X275843857Y-203678669D03*
X277113857Y-203678669D03*
X278383857Y-203678669D03*
X278383857Y-198528669D03*
X277113857Y-198528669D03*
X275843857Y-198528669D03*
X274573857Y-198528669D03*
%TD*%
D19*
%TO.C,U24*%
X216072073Y-214361366D03*
X216072073Y-215631366D03*
X216072073Y-216901366D03*
X216072073Y-218171366D03*
X226767073Y-218171366D03*
X226767073Y-216901366D03*
X226767073Y-215631366D03*
X226767073Y-214361366D03*
%TD*%
D52*
%TO.C,R101*%
X242114963Y-217983279D03*
X240289963Y-217983279D03*
%TD*%
D46*
%TO.C,D31*%
X283073857Y-219975000D03*
X283073857Y-217925000D03*
%TD*%
D52*
%TO.C,R29*%
X233447102Y-184237030D03*
X231622102Y-184237030D03*
%TD*%
D64*
%TO.C,RV2*%
X200023857Y-196229922D03*
D65*
X205023857Y-193729922D03*
X200023857Y-191229922D03*
%TD*%
D53*
%TO.C,R45*%
X239252463Y-221130745D03*
X241252463Y-221130745D03*
%TD*%
D35*
%TO.C,H12*%
X316939651Y-45560337D03*
%TD*%
D46*
%TO.C,D22*%
X272573857Y-220025000D03*
X272573857Y-217975000D03*
%TD*%
D73*
%TO.C,C6*%
X235000000Y-69975000D03*
X235000000Y-67025000D03*
%TD*%
D87*
%TO.C,Q15*%
X277073857Y-170875000D03*
X278973857Y-170875000D03*
X278023857Y-169000000D03*
%TD*%
D88*
%TO.C,J11*%
X278750000Y-135295000D03*
D45*
X278750000Y-139495000D03*
X278750000Y-143695000D03*
X273250000Y-135295000D03*
X273250000Y-139495000D03*
X273250000Y-143695000D03*
%TD*%
D26*
%TO.C,R75*%
X298573857Y-210325000D03*
X298573857Y-208500000D03*
%TD*%
D77*
%TO.C,JP2*%
X171947934Y-169925627D03*
D78*
X170647934Y-169925627D03*
%TD*%
D52*
%TO.C,R25*%
X202375000Y-173925000D03*
X200550000Y-173925000D03*
%TD*%
D27*
%TO.C,R27*%
X203387500Y-163730000D03*
X205212500Y-163730000D03*
%TD*%
D73*
%TO.C,C7*%
X172000000Y-69975000D03*
X172000000Y-67025000D03*
%TD*%
D68*
%TO.C,Q12*%
X254950000Y-178379561D03*
X253050000Y-178379561D03*
X254000000Y-181379561D03*
%TD*%
D89*
%TO.C,U11*%
X225803857Y-175783669D03*
D90*
X225803857Y-173243669D03*
X218183857Y-173243669D03*
X218183857Y-175783669D03*
%TD*%
D91*
%TO.C,U20*%
X313000000Y-116960000D03*
X313000000Y-118230000D03*
X313000000Y-119500000D03*
X313000000Y-120770000D03*
X317950000Y-120770000D03*
X317950000Y-119500000D03*
X317950000Y-118230000D03*
X317950000Y-116960000D03*
%TD*%
D40*
%TO.C,C52*%
X216078926Y-201884841D03*
X214178926Y-201884841D03*
%TD*%
D53*
%TO.C,R54*%
X281500000Y-194750000D03*
X283500000Y-194750000D03*
%TD*%
D41*
%TO.C,Q11*%
X290823857Y-171475000D03*
X290823857Y-173375000D03*
X293823857Y-172425000D03*
%TD*%
D14*
%TO.C,R104*%
X242500000Y-198000000D03*
X242500000Y-200000000D03*
%TD*%
D13*
%TO.C,R68*%
X276023857Y-180000000D03*
X274023857Y-180000000D03*
%TD*%
D59*
%TO.C,U5*%
X178523857Y-194304922D03*
X180223857Y-194304922D03*
X181923857Y-194304922D03*
D60*
X181923857Y-185154922D03*
D59*
X183623857Y-194304922D03*
X185323857Y-194304922D03*
%TD*%
D35*
%TO.C,H13*%
X95823857Y-222778669D03*
%TD*%
D46*
%TO.C,D28*%
X288323857Y-219975000D03*
X288323857Y-217925000D03*
%TD*%
D27*
%TO.C,R21*%
X302587500Y-103500000D03*
X304412500Y-103500000D03*
%TD*%
D37*
%TO.C,J16*%
X232023857Y-89778669D03*
D38*
X227823857Y-89778669D03*
X223623857Y-89778669D03*
X232023857Y-84278669D03*
X227823857Y-84278669D03*
X223623857Y-84278669D03*
%TD*%
D26*
%TO.C,R22*%
X190500000Y-79441169D03*
X190500000Y-77616169D03*
%TD*%
D40*
%TO.C,C72*%
X244958268Y-207506978D03*
X243058268Y-207506978D03*
%TD*%
D54*
%TO.C,R47*%
X242750000Y-172587500D03*
X242750000Y-174412500D03*
%TD*%
D84*
%TO.C,C21*%
X172100000Y-165300000D03*
X172100000Y-158800000D03*
%TD*%
D22*
%TO.C,JP10*%
X212022529Y-143500000D03*
D23*
X212022529Y-145000000D03*
D24*
X212022529Y-146500000D03*
%TD*%
D79*
%TO.C,R35*%
X199962500Y-205500000D03*
X197037500Y-205500000D03*
%TD*%
D92*
%TO.C,C41*%
X205500000Y-146750000D03*
D93*
X205500000Y-139250000D03*
%TD*%
D29*
%TO.C,R103*%
X244500000Y-200000000D03*
X244500000Y-198000000D03*
%TD*%
D18*
%TO.C,D13*%
X180550000Y-174425000D03*
X176550000Y-174425000D03*
%TD*%
D81*
%TO.C,J8*%
X258150000Y-214275000D03*
D94*
X260250000Y-206975000D03*
D95*
X256050000Y-206975000D03*
X260250000Y-201475000D03*
X256050000Y-201475000D03*
%TD*%
D11*
%TO.C,H8*%
X169250000Y-219000000D03*
X169250000Y-206000000D03*
D12*
X162999893Y-219000000D03*
X162999893Y-206000000D03*
X156750000Y-219000000D03*
X156750000Y-206000000D03*
%TD*%
D14*
%TO.C,R63*%
X279073857Y-206278669D03*
X279073857Y-208278669D03*
%TD*%
D42*
%TO.C,C18*%
X258915000Y-149597780D03*
X260815000Y-149597780D03*
%TD*%
D29*
%TO.C,R58*%
X281508033Y-202250000D03*
X281508033Y-200250000D03*
%TD*%
D27*
%TO.C,R17*%
X302675000Y-105500000D03*
X304500000Y-105500000D03*
%TD*%
D70*
%TO.C,Q13*%
X274050000Y-177175000D03*
X275950000Y-177175000D03*
X275000000Y-174175000D03*
%TD*%
D96*
%TO.C,JP6*%
X228703857Y-177083669D03*
D23*
X228703857Y-175783669D03*
D97*
X228703857Y-174483669D03*
%TD*%
D52*
%TO.C,R94*%
X232245676Y-206164815D03*
X230420676Y-206164815D03*
%TD*%
D42*
%TO.C,C16*%
X300446593Y-143958840D03*
X302346593Y-143958840D03*
%TD*%
D25*
%TO.C,D17*%
X227759602Y-184197030D03*
X229809602Y-184197030D03*
%TD*%
D40*
%TO.C,C23*%
X175850000Y-169925000D03*
X173950000Y-169925000D03*
%TD*%
D17*
%TO.C,R32*%
X197075000Y-213000000D03*
X200000000Y-213000000D03*
%TD*%
D98*
%TO.C,K1*%
X104500000Y-154500000D03*
X104500000Y-159500000D03*
X104500000Y-149500000D03*
X112000000Y-154500000D03*
X112000000Y-159500000D03*
X112000000Y-149500000D03*
D99*
X104500000Y-174500000D03*
D98*
X112000000Y-174500000D03*
%TD*%
D33*
%TO.C,TP6*%
X230500000Y-200250000D03*
%TD*%
D79*
%TO.C,R34*%
X200000000Y-215500000D03*
X197075000Y-215500000D03*
%TD*%
D100*
%TO.C,Q3*%
X273073857Y-55013669D03*
D101*
X278523857Y-74873669D03*
D102*
X273073857Y-74873669D03*
X267623857Y-74873669D03*
%TD*%
D100*
%TO.C,Q7*%
X182423857Y-55028669D03*
D101*
X187873857Y-74888669D03*
D102*
X182423857Y-74888669D03*
X176973857Y-74888669D03*
%TD*%
D100*
%TO.C,Q5*%
X210468304Y-55011979D03*
D101*
X215918304Y-74871979D03*
D102*
X210468304Y-74871979D03*
X205018304Y-74871979D03*
%TD*%
D103*
%TO.C,C29*%
X125311103Y-92028669D03*
D93*
X132811103Y-92028669D03*
%TD*%
D104*
%TO.C,U1*%
X300433857Y-114853669D03*
D105*
X298523857Y-114853669D03*
X296613857Y-114853669D03*
D106*
X297473857Y-94083669D03*
D107*
X297473857Y-92823669D03*
D67*
X296723857Y-95113669D03*
X296723857Y-91793669D03*
X295523857Y-95503669D03*
X295523857Y-91403669D03*
X294193857Y-95503669D03*
X294193857Y-91403669D03*
D108*
X293523857Y-93453669D03*
D67*
X292853857Y-95503669D03*
X292853857Y-91403669D03*
X291523857Y-95503669D03*
X291523857Y-91403669D03*
X290323857Y-95113669D03*
X290323857Y-91793669D03*
X289573857Y-94083669D03*
X289573857Y-92823669D03*
X307473857Y-94083669D03*
X307473857Y-92823669D03*
X306723857Y-95113669D03*
X306723857Y-91793669D03*
X305523857Y-95503669D03*
X305523857Y-91403669D03*
X304193857Y-95503669D03*
X304193857Y-91403669D03*
D108*
X303523857Y-93453669D03*
D67*
X302853857Y-95503669D03*
X302853857Y-91403669D03*
X301523857Y-95503669D03*
X301523857Y-91403669D03*
X300323857Y-95113669D03*
X300323857Y-91793669D03*
D107*
X299573857Y-94083669D03*
D106*
X299573857Y-92823669D03*
%TD*%
D100*
%TO.C,Q1*%
X245073857Y-55013669D03*
D101*
X250523857Y-74873669D03*
D102*
X245073857Y-74873669D03*
X239623857Y-74873669D03*
%TD*%
D100*
%TO.C,Q6*%
X182323857Y-91693669D03*
D101*
X187773857Y-111553669D03*
D102*
X182323857Y-111553669D03*
X176873857Y-111553669D03*
%TD*%
D103*
%TO.C,C33*%
X125323857Y-74028669D03*
D93*
X132823857Y-74028669D03*
%TD*%
D109*
%TO.C,K4*%
X115214982Y-109528669D03*
D110*
X130823857Y-120028669D03*
D109*
X115214982Y-138378669D03*
D110*
X130823857Y-128028669D03*
%TD*%
D100*
%TO.C,Q4*%
X273023857Y-91678669D03*
D101*
X278473857Y-111538669D03*
D102*
X273023857Y-111538669D03*
X267573857Y-111538669D03*
%TD*%
D111*
%TO.C,HS1*%
X172250000Y-130700000D03*
X283250000Y-130700000D03*
X172250000Y-45750000D03*
X283250000Y-45750000D03*
%TD*%
D112*
%TO.C,F1*%
X127000000Y-188000000D03*
X127000000Y-158000000D03*
%TD*%
D100*
%TO.C,Q2*%
X245073857Y-91702638D03*
D101*
X250523857Y-111562638D03*
D102*
X245073857Y-111562638D03*
X239623857Y-111562638D03*
%TD*%
D113*
%TO.C,C32*%
X146823857Y-70015915D03*
D93*
X146823857Y-77515915D03*
%TD*%
D100*
%TO.C,Q8*%
X210323857Y-91678669D03*
D101*
X215773857Y-111538669D03*
D102*
X210323857Y-111538669D03*
X204873857Y-111538669D03*
%TD*%
M02*
